<svg xmlns="http://www.w3.org/2000/svg" xmlns:xlink="http://www.w3.org/1999/xlink" width="108" height="108" viewBox="0 0 108 108">
  <defs>
    <filter id="Fondo" x="0" y="0" width="108" height="108" filterUnits="userSpaceOnUse">
      <feOffset dy="3" input="SourceAlpha"/>
      <feGaussianBlur stdDeviation="3" result="blur"/>
      <feFlood flood-opacity="0.161"/>
      <feComposite operator="in" in2="blur"/>
      <feComposite in="SourceGraphic"/>
    </filter>
  </defs>
  <g id="Grupo_1211477" data-name="Grupo 1211477" transform="translate(-194.101 -295)">
    <g id="Grupo_1210004" data-name="Grupo 1210004" transform="translate(203.101 301)">
      <g id="Grupo_1143757" data-name="Grupo 1143757">
        <g transform="matrix(1, 0, 0, 1, -9, -6)" filter="url(#Fondo)">
          <g id="Fondo-2" data-name="Fondo" transform="translate(9 6)" fill="#f5faf0">
            <path d="M 44.99994277954102 88.49989318847656 C 39.1268310546875 88.49989318847656 33.43019104003906 87.34996795654297 28.06826782226562 85.08206939697266 C 22.88850593566895 82.89120483398438 18.23629188537598 79.75449371337891 14.24084281921387 75.75904083251953 C 10.24540519714355 71.76360321044922 7.108680248260498 67.11138153076172 4.917830467224121 61.93161773681641 C 2.649930238723755 56.56969451904297 1.50000524520874 50.87305450439453 1.50000524520874 44.99994277954102 C 1.50000524520874 39.1268310546875 2.649930238723755 33.43019104003906 4.917830467224121 28.06826782226562 C 7.108680248260498 22.88850593566895 10.24540519714355 18.23629188537598 14.24084281921387 14.24084281921387 C 18.23629188537598 10.24540519714355 22.88850593566895 7.108680248260498 28.06826782226562 4.917830467224121 C 33.43019104003906 2.649930238723755 39.1268310546875 1.50000524520874 44.99994277954102 1.50000524520874 C 50.87305450439453 1.50000524520874 56.56969451904297 2.649930238723755 61.93161773681641 4.917830467224121 C 67.11138153076172 7.108680248260498 71.76360321044922 10.24540519714355 75.75904083251953 14.24084281921387 C 79.75449371337891 18.23629188537598 82.89120483398438 22.88850593566895 85.08206939697266 28.06826782226562 C 87.34996795654297 33.43019104003906 88.49989318847656 39.1268310546875 88.49989318847656 44.99994277954102 C 88.49989318847656 50.87305450439453 87.34996795654297 56.56969451904297 85.08206939697266 61.93161773681641 C 82.89120483398438 67.11138153076172 79.75449371337891 71.76360321044922 75.75904083251953 75.75904083251953 C 71.76360321044922 79.75449371337891 67.11138153076172 82.89120483398438 61.93161773681641 85.08206939697266 C 56.56969451904297 87.34996795654297 50.87305450439453 88.49989318847656 44.99994277954102 88.49989318847656 Z" stroke="none"/>
            <path d="M 44.99994277954102 3 C 39.32865524291992 3 33.82861328125 4.110054016113281 28.65258407592773 6.299331665039062 C 23.65162658691406 8.414558410644531 19.15966796875 11.44332885742188 15.30149841308594 15.30149841308594 C 11.44332885742188 19.15966796875 8.414558410644531 23.65162658691406 6.299331665039062 28.65258407592773 C 4.110054016113281 33.82861328125 3 39.32865524291992 3 44.99994277954102 C 3 50.67121505737305 4.110054016113281 56.17125701904297 6.299331665039062 61.34728622436523 C 8.414558410644531 66.34825897216797 11.44332885742188 70.8402099609375 15.30149841308594 74.69838714599609 C 19.15966796875 78.55655670166016 23.65162658691406 81.5853271484375 28.65258407592773 83.70055389404297 C 33.82861328125 85.88983154296875 39.32867050170898 86.99988555908203 44.99994277954102 86.99988555908203 C 50.67121505737305 86.99988555908203 56.17125701904297 85.88983154296875 61.34728622436523 83.70055389404297 C 66.34825897216797 81.5853271484375 70.8402099609375 78.55655670166016 74.69838714599609 74.69838714599609 C 78.55655670166016 70.8402099609375 81.5853271484375 66.34825897216797 83.70055389404297 61.34728622436523 C 85.88983154296875 56.17125701904297 86.99988555908203 50.67121505737305 86.99988555908203 44.99994277954102 C 86.99988555908203 39.32867050170898 85.88983154296875 33.82861328125 83.70055389404297 28.65258407592773 C 81.5853271484375 23.65162658691406 78.55655670166016 19.15966796875 74.69838714599609 15.30149841308594 C 70.8402099609375 11.44332885742188 66.34825897216797 8.414558410644531 61.34728622436523 6.299331665039062 C 56.17125701904297 4.110054016113281 50.67121505737305 3 44.99994277954102 3 M 44.99994277954102 0 C 69.85271453857422 0 89.99988555908203 20.14715576171875 89.99988555908203 44.99994277954102 C 89.99988555908203 69.85271453857422 69.85271453857422 89.99988555908203 44.99994277954102 89.99988555908203 C 20.14715576171875 89.99988555908203 0 69.85271453857422 0 44.99994277954102 C 0 20.14715576171875 20.14715576171875 0 44.99994277954102 0 Z" stroke="none" fill="#5c733e"/>
          </g>
        </g>
      </g>
    </g>
    <g id="Layer_3" transform="translate(195.678 305.695)">
      <g id="Grupo_1211476" data-name="Grupo 1211476" transform="translate(20.646 0)">
        <g id="Grupo_1211418" data-name="Grupo 1211418" transform="translate(11.029 32.303)">
          <path id="Trazado_1082205" data-name="Trazado 1082205" d="M67.635,111.127v-3.51A11.614,11.614,0,0,1,61.6,98.222a4.754,4.754,0,0,1-4.115-1.281,34.085,34.085,0,0,1-3.545,10.439,1.525,1.525,0,0,0,.434,1.973c1.639,1.185,5.359,3.221,12.306,4.057A3.213,3.213,0,0,0,67.635,111.127Z" transform="translate(-53.744 -96.941)" fill="#754e34"/>
        </g>
        <g id="Grupo_1211419" data-name="Grupo 1211419" transform="translate(35.93 32.303)">
          <path id="Trazado_1082206" data-name="Trazado 1082206" d="M142.17,107.38a34.086,34.086,0,0,1-3.546-10.439,4.754,4.754,0,0,1-4.115,1.281,11.614,11.614,0,0,1-6.039,9.395v3.51a3.213,3.213,0,0,0,.96,2.284c6.947-.836,10.666-2.871,12.306-4.057a1.526,1.526,0,0,0,.434-1.974Z" transform="translate(-128.471 -96.941)" fill="#754e34"/>
        </g>
        <g id="Grupo_1211420" data-name="Grupo 1211420" transform="translate(10.197 31.665)">
          <path id="Trazado_1082207" data-name="Trazado 1082207" d="M64.8,112.942a.851.851,0,0,1-.1-.007c-7.044-.88-10.844-3-12.482-4.183a2.363,2.363,0,0,1-.676-3.049,33.174,33.174,0,0,0,3.421-9.989.833.833,0,0,1,1.64.293A34.368,34.368,0,0,1,53,106.5a.7.7,0,0,0,.192.9c1.509,1.091,5.037,3.046,11.713,3.88a.833.833,0,0,1-.1,1.66Z" transform="translate(-51.248 -95.028)"/>
        </g>
        <g id="Grupo_1211421" data-name="Grupo 1211421" transform="translate(36.264 31.625)">
          <path id="Trazado_1082208" data-name="Trazado 1082208" d="M130.308,112.862a.833.833,0,0,1-.1-1.66c6.676-.834,10.2-2.789,11.712-3.88a.7.7,0,0,0,.192-.9A34.375,34.375,0,0,1,138.5,95.886a.833.833,0,1,1,1.64-.292,33.466,33.466,0,0,0,3.429,10.029,2.363,2.363,0,0,1-.677,3.049c-1.638,1.184-5.437,3.3-12.482,4.183A.9.9,0,0,1,130.308,112.862Z" transform="translate(-129.475 -94.907)"/>
        </g>
        <g id="Grupo_1211422" data-name="Grupo 1211422" transform="translate(41.969 23.987)">
          <path id="Trazado_1082209" data-name="Trazado 1082209" d="M147.366,71.985a4.829,4.829,0,0,0-.743.059v8.761c0,.261-.012.519-.029.776a4.829,4.829,0,1,0,.772-9.6Z" transform="translate(-146.594 -71.985)" fill="#f9d0b4"/>
        </g>
        <g id="Grupo_1211423" data-name="Grupo 1211423" transform="translate(18.851 19.941)">
          <path id="Trazado_1082210" data-name="Trazado 1082210" d="M94.328,60.11c-1.763,2.057-8.013,8.3-17.109,5.708V72.71a11.573,11.573,0,1,0,23.147,0V63.36a.908.908,0,0,0-.712-.882,9.587,9.587,0,0,1-4.223-2.431.768.768,0,0,0-1.1.062Z" transform="translate(-77.219 -59.844)" fill="#f9d0b4"/>
        </g>
        <g id="Grupo_1211424" data-name="Grupo 1211424" transform="translate(13.276 24.901)">
          <path id="Trazado_1082211" data-name="Trazado 1082211" d="M66.063,75.743a18.815,18.815,0,0,1-2.448-.889,1.472,1.472,0,0,0-1.6.275,4.817,4.817,0,0,0,4.077,8.283c-.017-.257-.029-.515-.029-.776V75.743Z" transform="translate(-60.488 -74.729)" fill="#f9d0b4"/>
        </g>
        <g id="Grupo_1211426" data-name="Grupo 1211426" transform="translate(14.686 6.839)">
          <g id="Grupo_1211425" data-name="Grupo 1211425">
            <path id="Trazado_1082212" data-name="Trazado 1082212" d="M64.837,38.987a1.472,1.472,0,0,1,1.6-.275,18.864,18.864,0,0,0,2.448.889c9.1,2.591,15.347-3.651,17.109-5.708a.768.768,0,0,1,1.1-.062,9.587,9.587,0,0,0,4.223,2.431.908.908,0,0,1,.712.882v.588A4.811,4.811,0,0,1,96.2,39.093v-2.83a15.738,15.738,0,0,0-31.476,0v2.844c.04-.039.076-.082.117-.12Z" transform="translate(-64.72 -20.525)" fill="#754e34"/>
          </g>
        </g>
        <g id="Grupo_1211428" data-name="Grupo 1211428" transform="translate(5.49 42.979)">
          <g id="Grupo_1211427" data-name="Grupo 1211427">
            <path id="Trazado_1082213" data-name="Trazado 1082213" d="M74.686,158.686a16.2,16.2,0,0,1-1.314-21.422,10.052,10.052,0,0,1-1.154-.48l-2.861-1.411a3.218,3.218,0,0,1-1.795-2.886v-3.51a11.507,11.507,0,0,1-11.01,0v3.51a3.217,3.217,0,0,1-1.795,2.886L51.9,136.785a10.1,10.1,0,0,1-2,.736l-8.275,2.089a4.746,4.746,0,0,0-3.58,4.338l-.914,25.131a1.319,1.319,0,0,0,1.317,1.393h7.328a.892.892,0,0,0,.892-.892V153.871l1.294,4.145a28.094,28.094,0,0,1,1.276,8.372v3.192a.892.892,0,0,0,.892.892H73.99a.892.892,0,0,0,.892-.892v-3.192a28.094,28.094,0,0,1,.831-6.764c-.352-.3-.7-.606-1.028-.938Z" transform="translate(-37.122 -128.979)" fill="#f9d0b4"/>
          </g>
        </g>
        <g id="Grupo_1211429" data-name="Grupo 1211429" transform="translate(45.82 74.903)">
          <path id="Trazado_1082214" data-name="Trazado 1082214" d="M158.153,224.783v8.677a.892.892,0,0,0,.892.892h7.328a1.319,1.319,0,0,0,1.317-1.393l-.206-5.663a16.179,16.179,0,0,1-9.331-2.514Z" transform="translate(-158.153 -224.783)" fill="#dae6f1"/>
        </g>
        <g id="Grupo_1211430" data-name="Grupo 1211430" transform="translate(30.425 49.222)">
          <path id="Trazado_1082215" data-name="Trazado 1082215" d="M124.58,171.179a16.2,16.2,0,0,1-1.314-21.422,10.048,10.048,0,0,1-1.154-.48l-2.861-1.411c-.091-.045-.175-.1-.261-.152l-6.813,26.569a7.276,7.276,0,0,0-.226,1.8v6.876h11.934a.892.892,0,0,0,.892-.892v-3.192a28.093,28.093,0,0,1,.831-6.764C125.256,171.82,124.911,171.51,124.58,171.179Z" transform="translate(-111.951 -147.715)" fill="#dae6f1"/>
        </g>
        <g id="Grupo_1211431" data-name="Grupo 1211431" transform="translate(5.49 49.222)">
          <path id="Trazado_1082216" data-name="Trazado 1082216" d="M55.017,147.715c-.085.053-.169.107-.261.152L51.9,149.278a10.1,10.1,0,0,1-2,.736L41.618,152.1a4.746,4.746,0,0,0-3.58,4.338l-.914,25.131a1.319,1.319,0,0,0,1.317,1.393h7.328a.892.892,0,0,0,.892-.892V166.364l1.294,4.145a28.094,28.094,0,0,1,1.276,8.372v3.192a.892.892,0,0,0,.892.892H62.057v-6.876a7.293,7.293,0,0,0-.226-1.8Z" transform="translate(-37.122 -147.715)" fill="#dae6f1"/>
        </g>
        <g id="Grupo_1211432" data-name="Grupo 1211432" transform="translate(30.443 49.222)">
          <path id="Trazado_1082217" data-name="Trazado 1082217" d="M123.306,149.754a10.016,10.016,0,0,1-1.158-.476l-2.861-1.411c-.091-.045-.175-.1-.261-.152l-6.813,26.569a7.224,7.224,0,0,0-.207,1.3l8.675-10.806A16.207,16.207,0,0,1,123.306,149.754Z" transform="translate(-112.006 -147.715)" fill="#edf4fc"/>
        </g>
        <g id="Grupo_1211433" data-name="Grupo 1211433" transform="translate(18.101 49.222)">
          <path id="Trazado_1082218" data-name="Trazado 1082218" d="M87.066,174.285l-6.813-26.569c-.085.053-.169.107-.261.152l-2.861,1.411a10.124,10.124,0,0,1-1.448.579l-.7,4.827a.812.812,0,0,0,.376.847l2.436,1.214a.848.848,0,0,1,.311,1.076l-1.575,3.6a.91.91,0,0,0,.1.907l10.642,13.257A7.223,7.223,0,0,0,87.066,174.285Z" transform="translate(-74.968 -147.716)" fill="#edf4fc"/>
        </g>
        <g id="Grupo_1211434" data-name="Grupo 1211434" transform="translate(25.195 56.274)">
          <path id="Trazado_1082219" data-name="Trazado 1082219" d="M101.259,188.395c.049.192.088.388.121.584.007.041.013.083.02.124.03.2.053.392.067.59.012.168.019.337.019.506,0-.169.007-.338.019-.506.014-.2.037-.395.067-.59.006-.042.013-.083.02-.124.033-.2.072-.392.121-.584l5.005-19.518a9.65,9.65,0,0,1-10.461,0Z" transform="translate(-96.255 -168.877)" fill="#3caadc"/>
        </g>
        <g id="Grupo_1211435" data-name="Grupo 1211435" transform="translate(38.309 45.028)">
          <circle id="Elipse_14257" data-name="Elipse 14257" cx="16.202" cy="16.202" r="16.202" transform="translate(0)" fill="#f98fa6"/>
        </g>
        <g id="Grupo_1211436" data-name="Grupo 1211436" transform="translate(43.014 49.734)">
          <circle id="Elipse_14258" data-name="Elipse 14258" cx="11.496" cy="11.496" r="11.496" transform="translate(0)" fill="#fc657e"/>
        </g>
        <g id="Grupo_1211437" data-name="Grupo 1211437" transform="translate(41.463 23.154)">
          <path id="Trazado_1082220" data-name="Trazado 1082220" d="M146.355,80.816a5.121,5.121,0,0,1-.529-.028A.833.833,0,1,1,146,79.13a3.519,3.519,0,0,0,.359.019,4,4,0,1,0,0-8c-.1,0-.207,0-.309.013a.833.833,0,1,1-.133-1.661c.146-.012.293-.018.442-.018a5.665,5.665,0,1,1,0,11.33Z" transform="translate(-145.078 -69.486)"/>
        </g>
        <g id="Grupo_1211438" data-name="Grupo 1211438" transform="translate(18.018 19.108)">
          <path id="Trazado_1082221" data-name="Trazado 1082221" d="M87.125,83.449A12.421,12.421,0,0,1,74.718,71.042V64.15a.833.833,0,0,1,1.061-.8C84.415,65.809,90.4,59.8,92.028,57.9a1.582,1.582,0,0,1,1.111-.554,1.62,1.62,0,0,1,1.185.418A8.916,8.916,0,0,0,98.175,60a1.736,1.736,0,0,1,1.357,1.693v9.35A12.421,12.421,0,0,1,87.125,83.449Zm-10.74-18.23v5.823a10.74,10.74,0,1,0,21.481,0v-9.35a.078.078,0,0,0-.067-.07,10.483,10.483,0,0,1-4.551-2.585C91.462,61.1,85.321,67.178,76.384,65.219Z" transform="translate(-74.718 -57.343)"/>
        </g>
        <g id="Grupo_1211439" data-name="Grupo 1211439" transform="translate(12.444 24.068)">
          <path id="Trazado_1082222" data-name="Trazado 1082222" d="M63.655,82.644a5.661,5.661,0,0,1-3.875-9.791,2.3,2.3,0,0,1,2.507-.429,18.052,18.052,0,0,0,2.339.85.833.833,0,1,1-.456,1.6,19.784,19.784,0,0,1-2.556-.928.637.637,0,0,0-.694.12,3.953,3.953,0,0,0-1.263,2.91,4,4,0,0,0,4,4,3.485,3.485,0,0,0,.38-.022.833.833,0,1,1,.178,1.656,5.075,5.075,0,0,1-.558.032Z" transform="translate(-57.99 -72.228)"/>
        </g>
        <g id="Grupo_1211441" data-name="Grupo 1211441" transform="translate(13.854 6.007)">
          <g id="Grupo_1211440" data-name="Grupo 1211440">
            <path id="Trazado_1082223" data-name="Trazado 1082223" d="M63.054,38.059a.833.833,0,0,1-.833-.833V34.6a16.571,16.571,0,0,1,33.142,0v2.539a.833.833,0,0,1-1.666,0V34.6a14.9,14.9,0,0,0-29.809,0v2.629A.833.833,0,0,1,63.054,38.059Z" transform="translate(-62.221 -18.026)"/>
          </g>
        </g>
        <g id="Grupo_1211444" data-name="Grupo 1211444" transform="translate(4.657 42.403)">
          <g id="Grupo_1211442" data-name="Grupo 1211442" transform="translate(30.439 0.01)">
            <path id="Trazado_1082224" data-name="Trazado 1082224" d="M132.354,136.873a.827.827,0,0,1-.293-.053c-.339-.127-.665-.268-.971-.418l-2.861-1.411a4.026,4.026,0,0,1-2.259-3.633v-3.242a.833.833,0,1,1,1.666,0v3.242a2.369,2.369,0,0,0,1.33,2.139l2.861,1.411c.257.126.532.245.819.353a.833.833,0,0,1-.292,1.613Z" transform="translate(-125.97 -127.282)"/>
          </g>
          <g id="Grupo_1211443" data-name="Grupo 1211443">
            <path id="Trazado_1082225" data-name="Trazado 1082225" d="M72.324,170.153H48.456a1.727,1.727,0,0,1-1.725-1.725v-3.192a27.24,27.24,0,0,0-.9-6.963v10.155a1.727,1.727,0,0,1-1.725,1.725H36.774a2.152,2.152,0,0,1-2.149-2.272l.914-25.115a5.559,5.559,0,0,1,4.209-5.116l8.275-2.089a9.3,9.3,0,0,0,1.838-.675l2.861-1.411a2.369,2.369,0,0,0,1.33-2.139v-3.253a.833.833,0,1,1,1.666,0v3.253a4.025,4.025,0,0,1-2.259,3.633L50.6,136.381a10.948,10.948,0,0,1-2.167.8l-8.275,2.089a3.9,3.9,0,0,0-2.952,3.577l-.914,25.115a.494.494,0,0,0,.132.377.483.483,0,0,0,.353.152H44.1a.059.059,0,0,0,.059-.059V152.719a.833.833,0,0,1,1.628-.248l1.294,4.145a28.9,28.9,0,0,1,1.314,8.62v3.192a.059.059,0,0,0,.059.059H72.323a.059.059,0,0,0,.059-.059v-3.192a28.968,28.968,0,0,1,.8-6.756.833.833,0,1,1,1.62.389,27.283,27.283,0,0,0-.758,6.367v3.192a1.727,1.727,0,0,1-1.725,1.725Z" transform="translate(-34.622 -127.251)"/>
          </g>
        </g>
        <g id="Grupo_1211445" data-name="Grupo 1211445" transform="translate(26.232 36.133)">
          <path id="Trazado_1082226" data-name="Trazado 1082226" d="M103.56,111.542a5.227,5.227,0,0,1-4-1.738.833.833,0,1,1,1.277-1.07,3.814,3.814,0,0,0,5.443,0,.833.833,0,1,1,1.277,1.07A5.226,5.226,0,0,1,103.56,111.542Z" transform="translate(-99.367 -108.436)"/>
        </g>
        <g id="Grupo_1211446" data-name="Grupo 1211446" transform="translate(33.96 28.657)">
          <circle id="Elipse_14259" data-name="Elipse 14259" cx="1.5" cy="1.5" r="1.5"/>
        </g>
        <g id="Grupo_1211447" data-name="Grupo 1211447" transform="translate(23.89 28.657)">
          <circle id="Elipse_14260" data-name="Elipse 14260" cx="1.5" cy="1.5" r="1.5"/>
        </g>
        <g id="Grupo_1211448" data-name="Grupo 1211448" transform="translate(44.987 74.281)">
          <path id="Trazado_1082227" data-name="Trazado 1082227" d="M164.705,233.941h-7.327a1.727,1.727,0,0,1-1.725-1.725V223.75a.833.833,0,1,1,1.666,0v8.466a.059.059,0,0,0,.059.059h7.327a.487.487,0,0,0,.485-.513l-.2-5.383a.833.833,0,1,1,1.665-.06l.2,5.367a2.152,2.152,0,0,1-2.15,2.256Z" transform="translate(-155.653 -222.917)"/>
        </g>
        <g id="Grupo_1211449" data-name="Grupo 1211449" transform="translate(22.61 48.613)">
          <path id="Trazado_1082228" data-name="Trazado 1082228" d="M96.313,182.247a.833.833,0,0,1-.833-.833V174.87a6.447,6.447,0,0,0-.2-1.6l-6.756-26.345a.833.833,0,1,1,1.614-.414l6.756,26.345a8.111,8.111,0,0,1,.252,2.011v6.543A.833.833,0,0,1,96.313,182.247Z" transform="translate(-88.498 -145.888)"/>
        </g>
        <g id="Grupo_1211450" data-name="Grupo 1211450" transform="translate(29.611 48.602)">
          <path id="Trazado_1082229" data-name="Trazado 1082229" d="M110.34,175.176a.833.833,0,0,1-.831-.89,8.079,8.079,0,0,1,.231-1.448l6.759-26.356a.833.833,0,0,1,1.614.414l-6.193,24.148,6.268-7.808a.833.833,0,1,1,1.3,1.043l-8.5,10.585A.835.835,0,0,1,110.34,175.176Z" transform="translate(-109.507 -145.856)"/>
        </g>
        <g id="Grupo_1211451" data-name="Grupo 1211451" transform="translate(17.269 50.689)">
          <path id="Trazado_1082230" data-name="Trazado 1082230" d="M85.462,179.172a.832.832,0,0,1-.65-.312l-10.5-13.077a1.733,1.733,0,0,1-.219-1.762l1.575-3.6a.089.089,0,0,0,.005-.034l-2.36-1.176a1.642,1.642,0,0,1-.829-1.713l.681-4.668a.833.833,0,1,1,1.648.24l-.681,4.669a.092.092,0,0,0,0,.019l2.36,1.176a1.665,1.665,0,0,1,.7,2.156l-1.575,3.6a.1.1,0,0,0,0,.064l10.49,13.065a.833.833,0,0,1-.65,1.355ZM74.14,157.789h0Z" transform="translate(-72.469 -152.118)"/>
        </g>
        <g id="Grupo_1211452" data-name="Grupo 1211452" transform="translate(24.518 55.538)">
          <path id="Trazado_1082231" data-name="Trazado 1082231" d="M100.132,169.778a10.471,10.471,0,0,1-5.511-1.565A.833.833,0,1,1,95.5,166.8a8.818,8.818,0,0,0,9.273,0,.833.833,0,1,1,.877,1.417A10.464,10.464,0,0,1,100.132,169.778Z" transform="translate(-94.226 -166.669)"/>
        </g>
        <g id="Grupo_1211453" data-name="Grupo 1211453" transform="translate(37.484 44.195)">
          <path id="Trazado_1082232" data-name="Trazado 1082232" d="M150.161,166.7a17.036,17.036,0,1,1,12.045-4.99A16.922,16.922,0,0,1,150.161,166.7Zm0-32.4a15.369,15.369,0,1,0,10.867,4.5,15.269,15.269,0,0,0-10.867-4.5Z" transform="translate(-133.134 -132.629)"/>
        </g>
        <g id="Grupo_1211456" data-name="Grupo 1211456" transform="translate(38.304 0)">
          <g id="Grupo_1211455" data-name="Grupo 1211455">
            <g id="Grupo_1211454" data-name="Grupo 1211454">
              <path id="Trazado_1082233" data-name="Trazado 1082233" d="M141.711,2.949a3.7,3.7,0,0,1-2.966-2.9c0-.067-.133-.067-.133,0a3.7,3.7,0,0,1-2.966,2.9c-.067,0-.067.1,0,.133a3.7,3.7,0,0,1,2.966,2.9c0,.067.133.067.133,0a3.7,3.7,0,0,1,2.966-2.9c.067-.033.067-.133,0-.133Z" transform="translate(-135.596 0)" fill="#fc657e"/>
            </g>
          </g>
        </g>
        <g id="Grupo_1211459" data-name="Grupo 1211459" transform="translate(61.319 39.302)">
          <g id="Grupo_1211458" data-name="Grupo 1211458">
            <g id="Grupo_1211457" data-name="Grupo 1211457">
              <path id="Trazado_1082234" data-name="Trazado 1082234" d="M208.112,119.609a2.086,2.086,0,0,1-1.672-1.635c0-.038-.075-.038-.075,0a2.085,2.085,0,0,1-1.672,1.635c-.038,0-.038.056,0,.075a2.086,2.086,0,0,1,1.672,1.635c0,.038.075.038.075,0a2.085,2.085,0,0,1,1.672-1.635C208.149,119.666,208.149,119.609,208.112,119.609Z" transform="translate(-204.663 -117.946)" fill="#70d6f9"/>
            </g>
          </g>
        </g>
        <g id="Grupo_1211462" data-name="Grupo 1211462" transform="translate(0 36.655)">
          <g id="Grupo_1211461" data-name="Grupo 1211461">
            <g id="Grupo_1211460" data-name="Grupo 1211460">
              <path id="Trazado_1082235" data-name="Trazado 1082235" d="M25.378,111.833h-.766v-.766A1.074,1.074,0,0,0,23.545,110a1.053,1.053,0,0,0-1.066,1.066v.766h-.766a1.074,1.074,0,0,0-1.066,1.066,1.053,1.053,0,0,0,1.066,1.066h.766v.766a1.074,1.074,0,0,0,1.066,1.066,1.053,1.053,0,0,0,1.066-1.066v-.766h.766a1.074,1.074,0,0,0,1.066-1.066A1.053,1.053,0,0,0,25.378,111.833Z" transform="translate(-20.646 -110)" fill="#70d6f9"/>
            </g>
          </g>
        </g>
        <g id="Grupo_1211465" data-name="Grupo 1211465" transform="translate(47.618 9.663)">
          <g id="Grupo_1211464" data-name="Grupo 1211464" transform="translate(0)">
            <g id="Grupo_1211463" data-name="Grupo 1211463">
              <circle id="Elipse_14261" data-name="Elipse 14261" cx="1.133" cy="1.133" r="1.133" fill="#f5c84c"/>
            </g>
          </g>
        </g>
        <g id="Grupo_1211468" data-name="Grupo 1211468" transform="translate(3.632 46.984)">
          <g id="Grupo_1211467" data-name="Grupo 1211467">
            <g id="Grupo_1211466" data-name="Grupo 1211466">
              <circle id="Elipse_14262" data-name="Elipse 14262" cx="1.133" cy="1.133" r="1.133" fill="#b2e26d"/>
            </g>
          </g>
        </g>
        <g id="Grupo_1211469" data-name="Grupo 1211469" transform="translate(53.846 55.256)">
          <path id="Trazado_1082236" data-name="Trazado 1082236" d="M183.072,174.469a.833.833,0,0,1,0-1.666c.134,0,.267,0,.4-.008a3.649,3.649,0,0,0,3.466-3.684,3.591,3.591,0,0,1,1.936-3.195.833.833,0,1,1,.77,1.477,1.931,1.931,0,0,0-1.04,1.718,5.312,5.312,0,0,1-5.061,5.348C183.386,174.466,183.23,174.469,183.072,174.469Z" transform="translate(-182.239 -165.822)"/>
        </g>
        <g id="Grupo_1211470" data-name="Grupo 1211470" transform="translate(47.324 55.255)">
          <path id="Trazado_1082237" data-name="Trazado 1082237" d="M169.684,174.469c-.158,0-.314,0-.468-.01a5.312,5.312,0,0,1-5.061-5.348,1.931,1.931,0,0,0-1.04-1.718.833.833,0,1,1,.77-1.477,3.592,3.592,0,0,1,1.936,3.195,3.65,3.65,0,0,0,3.467,3.684q.195.008.4.008a.833.833,0,0,1,0,1.666Z" transform="translate(-162.666 -165.821)"/>
        </g>
        <g id="Grupo_1211471" data-name="Grupo 1211471" transform="translate(51.721 54.671)">
          <path id="Trazado_1082238" data-name="Trazado 1082238" d="M180.606,165.734h-3.913a.833.833,0,0,1,0-1.666h3.913a.833.833,0,0,1,0,1.666Z" transform="translate(-175.86 -164.068)"/>
        </g>
        <g id="Grupo_1211472" data-name="Grupo 1211472" transform="translate(51.721 67.455)">
          <path id="Trazado_1082239" data-name="Trazado 1082239" d="M180.606,204.1h-3.913a.833.833,0,0,1,0-1.666h3.913a.833.833,0,1,1,0,1.666Z" transform="translate(-175.86 -202.432)"/>
        </g>
        <g id="Grupo_1211473" data-name="Grupo 1211473" transform="translate(53.677 54.932)">
          <path id="Trazado_1082240" data-name="Trazado 1082240" d="M182.564,178.779a.833.833,0,0,1-.833-.833V165.684a.833.833,0,1,1,1.666,0v12.262A.833.833,0,0,1,182.564,178.779Z" transform="translate(-181.731 -164.851)"/>
        </g>
        <g id="Grupo_1211474" data-name="Grupo 1211474" transform="translate(42.181 48.9)">
          <path id="Trazado_1082241" data-name="Trazado 1082241" d="M159.56,171.408a12.329,12.329,0,1,1,12.329-12.329A12.343,12.343,0,0,1,159.56,171.408Zm0-22.992a10.663,10.663,0,1,0,10.663,10.663A10.675,10.675,0,0,0,159.56,148.416Z" transform="translate(-147.231 -146.75)"/>
        </g>
        <g id="Grupo_1211475" data-name="Grupo 1211475" transform="translate(42.181 48.9)">
          <path id="Trazado_1082242" data-name="Trazado 1082242" d="M159.56,171.408a12.329,12.329,0,1,1,12.329-12.329A12.343,12.343,0,0,1,159.56,171.408Zm0-22.992a10.663,10.663,0,1,0,10.663,10.663A10.675,10.675,0,0,0,159.56,148.416Z" transform="translate(-147.231 -146.75)"/>
        </g>
      </g>
    </g>
  </g>
</svg>
