<svg xmlns="http://www.w3.org/2000/svg" xmlns:xlink="http://www.w3.org/1999/xlink" width="93.934" height="93.934" viewBox="0 0 93.934 93.934">
  <defs>
    <filter id="Trazado_978624" x="0" y="0" width="93.934" height="93.934" filterUnits="userSpaceOnUse">
      <feOffset dy="3" input="SourceAlpha"/>
      <feGaussianBlur stdDeviation="3" result="blur"/>
      <feFlood flood-opacity="0.161"/>
      <feComposite operator="in" in2="blur"/>
      <feComposite in="SourceGraphic"/>
    </filter>
  </defs>
  <g id="Grupo_1212276" data-name="Grupo 1212276" transform="translate(-189 -2667.655)">
    <g id="Grupo_1209304" data-name="Grupo 1209304" transform="translate(-2 -2577.933)">
      <g id="Grupo_1208071" data-name="Grupo 1208071" transform="translate(-6 3815.588)">
        <g id="Grupo_1144123" data-name="Grupo 1144123" transform="translate(206 1436)">
          <g transform="matrix(1, 0, 0, 1, -9, -6)" filter="url(#Trazado_978624)">
            <g id="Trazado_978624-2" data-name="Trazado 978624" transform="translate(9 6)" fill="#f0fbfa">
              <path d="M 37.966796875 74.43359375 C 33.04315185546875 74.43359375 28.26757431030273 73.46962738037109 23.77274131774902 71.56847381591797 C 19.43047523498535 69.73184967041016 15.53040790557861 67.10224914550781 12.18087482452393 63.75271987915039 C 8.831341743469238 60.4031867980957 6.201741218566895 56.50312042236328 4.365118980407715 52.16086196899414 C 2.463963508605957 47.66601943969727 1.499996900558472 42.89044189453125 1.499996900558472 37.966796875 C 1.499996900558472 33.04315185546875 2.463963508605957 28.26757431030273 4.365118980407715 23.77274131774902 C 6.201741218566895 19.43047523498535 8.831341743469238 15.53040790557861 12.18087482452393 12.18087482452393 C 15.53040790557861 8.831341743469238 19.43047523498535 6.201741218566895 23.77274131774902 4.365118980407715 C 28.26757431030273 2.463963508605957 33.04315185546875 1.499996900558472 37.966796875 1.499996900558472 C 42.89044189453125 1.499996900558472 47.66601943969727 2.463963508605957 52.16086196899414 4.365118980407715 C 56.50312042236328 6.201741218566895 60.4031867980957 8.831341743469238 63.75271987915039 12.18087482452393 C 67.10224914550781 15.53040790557861 69.73184967041016 19.43047523498535 71.56847381591797 23.77274131774902 C 73.46962738037109 28.26757431030273 74.43359375 33.04315185546875 74.43359375 37.966796875 C 74.43359375 42.89044189453125 73.46962738037109 47.66601943969727 71.56847381591797 52.16086196899414 C 69.73184967041016 56.50313186645508 67.10224914550781 60.4031867980957 63.75271987915039 63.75271987915039 C 60.4031867980957 67.10224914550781 56.50313186645508 69.73184967041016 52.16086196899414 71.56847381591797 C 47.66601943969727 73.46962738037109 42.89044189453125 74.43359375 37.966796875 74.43359375 Z" stroke="none"/>
              <path d="M 37.966796875 3 C 33.2449836730957 3 28.66600799560547 3.924095153808594 24.35705947875977 5.746635437011719 C 20.19359588623047 7.507621765136719 16.45379638671875 10.02927398681641 13.24153518676758 13.24153518676758 C 10.02927398681641 16.45379638671875 7.507621765136719 20.19359588623047 5.746635437011719 24.35705947875977 C 3.924095153808594 28.66600799560547 3 33.2449836730957 3 37.966796875 C 3 42.6886100769043 3.924095153808594 47.26758575439453 5.746635437011719 51.57653427124023 C 7.507621765136719 55.73999786376953 10.02927398681641 59.47979736328125 13.24153518676758 62.69205856323242 C 16.45379638671875 65.90431976318359 20.19359588623047 68.42597198486328 24.35705947875977 70.18695831298828 C 28.66600799560547 72.00949859619141 33.2449836730957 72.93359375 37.966796875 72.93359375 C 42.6886100769043 72.93359375 47.26758575439453 72.00949859619141 51.57653427124023 70.18695831298828 C 55.73999786376953 68.42597198486328 59.47979736328125 65.90431976318359 62.69205856323242 62.69205856323242 C 65.90431976318359 59.47979736328125 68.42597198486328 55.73999786376953 70.18695831298828 51.57653427124023 C 72.00949859619141 47.26758575439453 72.93359375 42.6886100769043 72.93359375 37.966796875 C 72.93359375 33.2449836730957 72.00949859619141 28.66600799560547 70.18695831298828 24.35705947875977 C 68.42597198486328 20.19359588623047 65.90431976318359 16.45379638671875 62.69205856323242 13.24153518676758 C 59.47979736328125 10.02927398681641 55.73999786376953 7.507621765136719 51.57653427124023 5.746635437011719 C 47.26758575439453 3.924095153808594 42.6886100769043 3 37.966796875 3 M 37.966796875 0 C 58.93528366088867 0 75.93359375 16.99831008911133 75.93359375 37.966796875 C 75.93359375 58.93528366088867 58.93528366088867 75.93359375 37.966796875 75.93359375 C 16.99831008911133 75.93359375 0 58.93528366088867 0 37.966796875 C 0 16.99831008911133 16.99831008911133 0 37.966796875 0 Z" stroke="none" fill="#3f7776"/>
            </g>
          </g>
        </g>
      </g>
    </g>
    <g id="psicologia_1_" data-name="psicologia (1)" transform="translate(209.586 2682.158)">
      <g id="Grupo_1212274" data-name="Grupo 1212274" transform="translate(0.738 0.773)">
        <path id="Trazado_1083052" data-name="Trazado 1083052" d="M190.225,10.592V13.72a3.092,3.092,0,0,1-3.092,3.092h-2.475a1.546,1.546,0,0,0-1.093.453l-5.212,5.212a.773.773,0,0,1-1.32-.547V17.585a.773.773,0,0,0-.773-.773h-.014a3.092,3.092,0,0,1-3.092-3.092V10.592A3.092,3.092,0,0,1,176.246,7.5h10.887a3.092,3.092,0,0,1,3.092,3.092Z" transform="translate(-156.046 -7.5)" fill="#f9ee80"/>
        <path id="Trazado_1083053" data-name="Trazado 1083053" d="M171.05,358.739l-4.656,1.031-.776-13.447h1.73a4.638,4.638,0,0,1,4.6,5.213Z" transform="translate(-149.287 -311.403)" fill="#996acc"/>
        <path id="Trazado_1083054" data-name="Trazado 1083054" d="M178.585,470.674h-4.662l-.776-3.88h4.65a2.334,2.334,0,0,1,2.334,2.334A1.546,1.546,0,0,1,178.585,470.674Z" transform="translate(-156.04 -419.458)" fill="#565e75"/>
        <path id="Trazado_1083055" data-name="Trazado 1083055" d="M23.59,403.605a1.552,1.552,0,0,1-.941-1.983l3.386-9.5,2.924,1.042-3.386,9.5A1.552,1.552,0,0,1,23.59,403.605Z" transform="translate(-20.972 -352.48)" fill="#af602d"/>
        <path id="Trazado_1083056" data-name="Trazado 1083056" d="M57.563,239.821H45.147v-7.76a6.208,6.208,0,0,1,12.416,0Z" transform="translate(-41.232 -203.349)" fill="#55d47b"/>
        <path id="Trazado_1083057" data-name="Trazado 1083057" d="M139,403.605a1.552,1.552,0,0,0,.941-1.983l-3.386-9.5-2.924,1.042,3.386,9.5a1.559,1.559,0,0,0,1.462,1.031A1.522,1.522,0,0,0,139,403.605Z" transform="translate(-120.596 -352.48)" fill="#d97c41"/>
        <path id="Trazado_1083058" data-name="Trazado 1083058" d="M55.127,123.747a7.759,7.759,0,0,1-7.051,7.727c-.233.023-.47.033-.709.033a7.752,7.752,0,0,1-6.666-3.788,14.128,14.128,0,0,1,3.624-7.051,8.512,8.512,0,0,1,.746-.686,9.416,9.416,0,0,1,7.84-1.665A7.738,7.738,0,0,1,55.127,123.747Z" transform="translate(-37.243 -106.675)" fill="#ffddcf"/>
        <path id="Trazado_1083059" data-name="Trazado 1083059" d="M48.075,148.1c-.233.023-.47.033-.709.033a7.752,7.752,0,0,1-6.666-3.788,14.128,14.128,0,0,1,3.624-7.052,8.513,8.513,0,0,1,.746-.686A12.956,12.956,0,0,0,48.075,148.1Z" transform="translate(-37.243 -123.304)" fill="#ffcbbe"/>
        <path id="Trazado_1083060" data-name="Trazado 1083060" d="M43.393,100.179a7.851,7.851,0,0,0-5.767,2.349c-1.269,1.277-1.273,2.382-1.772,3.458a7.483,7.483,0,0,1-.434.83l-4.237,2.767a7.76,7.76,0,0,1,12.21-9.4Z" transform="translate(-27.727 -88.538)" fill="#6e768f"/>
        <path id="Trazado_1083061" data-name="Trazado 1083061" d="M35.42,107.354a5.568,5.568,0,0,1-4.237,2.767,7.761,7.761,0,0,1,5.683-11.671A15.569,15.569,0,0,0,35.42,107.354Z" transform="translate(-27.727 -89.077)" fill="#565e75"/>
        <path id="Trazado_1083062" data-name="Trazado 1083062" d="M26.559,283.734V285a1.546,1.546,0,0,1-1.546,1.546H14.4s-1.451-.483-1.479-.483l-1.763.435,0,.005a4.639,4.639,0,0,1-4-4.594v-8.555a2.328,2.328,0,0,1,3.944-1.675h0l.593,6.669,2.464-1.115h5.9A6.5,6.5,0,0,1,26.559,283.734Z" transform="translate(-7.16 -243.87)" fill="#e4996d"/>
        <path id="Trazado_1083063" data-name="Trazado 1083063" d="M15.1,286.55H12.138A4.638,4.638,0,0,1,7.5,281.912v-8.555a2.328,2.328,0,1,1,4.655,0v2.334a1.546,1.546,0,0,0,1.546,1.546h.8a3.065,3.065,0,0,0-.868,2.483v4.737A2.313,2.313,0,0,0,15.1,286.55Z" transform="translate(-7.465 -243.87)" fill="#d97c41"/>
        <path id="Trazado_1083064" data-name="Trazado 1083064" d="M173.628,334.368h-1.552l-.412-1.552.412-1.552h1.552a1.552,1.552,0,0,1,0,3.1Z" transform="translate(-154.71 -297.896)" fill="#ffddcf"/>
        <path id="Trazado_1083065" data-name="Trazado 1083065" d="M92.365,283.991v3.1H87.7a4.638,4.638,0,0,1-4.563-3.808l-.3-1.651a2.61,2.61,0,1,1,5.142-.038,1.639,1.639,0,0,0,1.348,1.887Z" transform="translate(-74.998 -250.623)" fill="#8ce09f"/>
        <path id="Trazado_1083066" data-name="Trazado 1083066" d="M285.463,358.739l4.656.825.776-13.241h-1.73a4.638,4.638,0,0,0-4.6,5.213Z" transform="translate(-255.94 -311.403)" fill="#55d47b"/>
        <path id="Trazado_1083067" data-name="Trazado 1083067" d="M272.574,470.674h4.662l.776-3.88h-4.65a2.334,2.334,0,0,0-2.334,2.334A1.546,1.546,0,0,0,272.574,470.674Z" transform="translate(-243.833 -419.458)" fill="#565e75"/>
        <path id="Trazado_1083068" data-name="Trazado 1083068" d="M432.646,403.605a1.552,1.552,0,0,0,.941-1.983l-3.386-9.5-2.924,1.042,3.386,9.5A1.552,1.552,0,0,0,432.646,403.605Z" transform="translate(-383.979 -352.48)" fill="#d97c41"/>
        <path id="Trazado_1083069" data-name="Trazado 1083069" d="M346.323,239.821h12.416v-7.76a6.208,6.208,0,0,0-12.416,0v7.76Z" transform="translate(-311.368 -203.349)" fill="#996acc"/>
        <path id="Trazado_1083070" data-name="Trazado 1083070" d="M347.177,127.722a7.752,7.752,0,0,1-6.666,3.788h-.118l-3.8-1.057h0a7.762,7.762,0,0,1-1.628-12.132,9.882,9.882,0,0,1,3.779-.122,8.363,8.363,0,0,1,4.807,2.473A14.129,14.129,0,0,1,347.177,127.722Z" transform="translate(-299.194 -106.678)" fill="#ffddcf"/>
        <path id="Trazado_1083071" data-name="Trazado 1083071" d="M340.393,131.509c-.2,0-.4-.013-.592-.032a7.76,7.76,0,0,1-4.835-13.158,9.882,9.882,0,0,1,3.779-.122C336.963,121.419,335.523,126.61,340.393,131.509Z" transform="translate(-299.194 -106.678)" fill="#ffcbbe"/>
        <path id="Trazado_1083072" data-name="Trazado 1083072" d="M367.563,105.611a7.716,7.716,0,0,1-1.094,3.972,5.568,5.568,0,0,1-4.237-2.767,7.483,7.483,0,0,1-.434-.83c-.5-1.076-.5-2.181-1.772-3.458a7.845,7.845,0,0,0-2.4-1.671l-.919-1.274-2.446.6a7.734,7.734,0,0,1,5.229-2.322c.1-.005.209-.007.314-.007a7.755,7.755,0,0,1,7.76,7.761Z" transform="translate(-318.487 -88.538)" fill="#6e768f"/>
        <path id="Trazado_1083073" data-name="Trazado 1083073" d="M359.489,97.92a16.976,16.976,0,0,0-1.864,3,8.1,8.1,0,0,0-3.365-.678A7.734,7.734,0,0,1,359.489,97.92Z" transform="translate(-318.487 -88.601)" fill="#565e75"/>
        <path id="Trazado_1083074" data-name="Trazado 1083074" d="M317.237,403.605a1.552,1.552,0,0,1-.941-1.983l3.386-9.5,2.924,1.042-3.386,9.5a1.559,1.559,0,0,1-1.462,1.031A1.521,1.521,0,0,1,317.237,403.605Z" transform="translate(-284.355 -352.48)" fill="#af602d"/>
        <path id="Trazado_1083075" data-name="Trazado 1083075" d="M343.924,273.358v8.555a4.638,4.638,0,0,1-4.638,4.638h-9.074l-4.145-3.04-.587-3.168a6.49,6.49,0,0,1,5.541-3.1h6.7a1.546,1.546,0,0,0,1.546-1.546v-2.334a2.328,2.328,0,0,1,4.655,0Z" transform="translate(-292.673 -243.871)" fill="#e4996d"/>
        <path id="Trazado_1083076" data-name="Trazado 1083076" d="M326.2,340.573h-8.442a1.546,1.546,0,0,1-1.546-1.546v-1.27a6.5,6.5,0,0,1,6.5-6.5h2.59v7.4A2.623,2.623,0,0,0,326.2,340.573Z" transform="translate(-284.359 -297.893)" fill="#d97c41"/>
        <path id="Trazado_1083077" data-name="Trazado 1083077" d="M307.711,334.368h1.552l.515-1.552-.515-1.552h-1.552a1.552,1.552,0,0,0,0,3.1Z" transform="translate(-275.344 -297.896)" fill="#ffddcf"/>
        <path id="Trazado_1083078" data-name="Trazado 1083078" d="M336.272,283.991v3.1h4.666a4.638,4.638,0,0,0,4.563-3.808l.3-1.651a2.61,2.61,0,1,0-5.142-.038,1.639,1.639,0,0,1-1.348,1.887Z" transform="translate(-302.353 -250.623)" fill="#b18cd9"/>
      </g>
      <g id="Grupo_1212275" data-name="Grupo 1212275" transform="translate(0 0)">
        <path id="Trazado_1083079" data-name="Trazado 1083079" d="M169.533,10.858V15.2a1.547,1.547,0,0,0,2.639,1.093l5.212-5.212a.768.768,0,0,1,.547-.226h2.475a3.869,3.869,0,0,0,3.865-3.865V3.865A3.869,3.869,0,0,0,180.406,0H169.519a3.869,3.869,0,0,0-3.865,3.865V6.993a3.876,3.876,0,0,0,3.879,3.865ZM167.2,3.865a2.322,2.322,0,0,1,2.319-2.319h10.887a2.322,2.322,0,0,1,2.319,2.319V6.993a2.322,2.322,0,0,1-2.319,2.319h-2.475a2.3,2.3,0,0,0-1.64.679L171.079,15.2V10.858a1.548,1.548,0,0,0-1.546-1.546A2.329,2.329,0,0,1,167.2,6.993Z" transform="translate(-148.581 0)"/>
        <path id="Trazado_1083080" data-name="Trazado 1083080" d="M23.361,126.926l.808-6.458a5.423,5.423,0,0,0-2.2-5.056,2.327,2.327,0,0,0-2.311-2.577l-1.073,0a3.548,3.548,0,0,1-.741-.056v-3.828a6.934,6.934,0,0,0-1.9-4.788c9.386-7.774-2.3-21.593-11.325-12.665a.762.762,0,0,0,.039,1.092.773.773,0,0,0,1.092-.039A6.981,6.981,0,0,1,14.42,91.3a8.495,8.495,0,0,0-4.331,2.383,8.138,8.138,0,0,0-1.861,3.531,5.108,5.108,0,0,1-3.62,3.215,6.91,6.91,0,0,1-.467-5.039.773.773,0,1,0-1.486-.425,8.459,8.459,0,0,0,1.393,7.478,8.624,8.624,0,0,0,1.729,1.724,6.92,6.92,0,0,0-1.569,2.663A3.1,3.1,0,0,0,0,109.727v8.555a5.419,5.419,0,0,0,3.719,5.138l-2.031,5.7a2.325,2.325,0,1,0,4.38,1.561l2.491-6.99H13.94l1.016,2.85a.773.773,0,1,0,1.456-.519l-.831-2.331h1.654l2.12,5.948a.779.779,0,1,1-1.467.524l-.264-.741a.773.773,0,0,0-1.456.518l.264.741a2.336,2.336,0,0,0,2.191,1.545h4.661A2.322,2.322,0,0,0,25.6,129.91,3.112,3.112,0,0,0,23.361,126.926Zm-.726-6.65-.816,6.526H19.984l-1.113-3.122a2.322,2.322,0,0,0,2.074-2.306V120.1a7.269,7.269,0,0,0-.538-2.745,2.328,2.328,0,0,0,.865-.531A3.874,3.874,0,0,1,22.634,120.276Zm-13.3-9.162a1.837,1.837,0,1,1,3.619-.027,2.415,2.415,0,0,0,1.983,2.776l2.393.4c0,1.676,0,.822,0,1.676H13.439a3.863,3.863,0,0,1-3.8-3.173Zm11.1,4.045a.78.78,0,0,1-.779.779h-.779v-1.558h.779A.78.78,0,0,1,20.435,115.16ZM9.65,97.822c.429-.971.447-1.952,1.536-3.048a7.039,7.039,0,0,1,4.88-2.117A6.984,6.984,0,1,1,5.5,101.792a6.672,6.672,0,0,0,4.148-3.97Zm4.956,7.155a5.52,5.52,0,0,1,1.69,3.975v3.571l-1.1-.184a.868.868,0,0,1-.712-1,3.383,3.383,0,1,0-6.665.049l.262,1.444h-1.1a.774.774,0,0,1-.773-.773v-2.334a3.084,3.084,0,0,0-.657-1.9,5.184,5.184,0,0,1,1.568-2.838A8.551,8.551,0,0,0,14.606,104.977ZM1.546,118.282v-8.555a1.555,1.555,0,0,1,3.109,0v2.334a2.322,2.322,0,0,0,2.319,2.319h1.57a5.409,5.409,0,0,0,4.9,3.1h5.327a5.716,5.716,0,0,1,.634,2.62v1.27a.774.774,0,0,1-.773.773H5.411a3.869,3.869,0,0,1-3.865-3.865Zm3.066,11.882a.781.781,0,0,1-1.439.073.773.773,0,0,1-.029-.6l2.12-5.952,1.653,0Zm18.671.519H20.809a2.316,2.316,0,0,0,0-1.56l-.276-.774h1.959a1.563,1.563,0,0,1,1.561,1.561.774.774,0,0,1-.773.773Z" transform="translate(0 -79.467)"/>
        <path id="Trazado_1083081" data-name="Trazado 1083081" d="M136.3,160.9a.773.773,0,0,0,.773-.773v-1.237a.773.773,0,0,0-1.546,0v1.237A.773.773,0,0,0,136.3,160.9Z" transform="translate(-121.561 -141.822)"/>
        <path id="Trazado_1083082" data-name="Trazado 1083082" d="M362.185,160.9a.773.773,0,0,0,.773-.773v-1.237a.773.773,0,1,0-1.546,0v1.237A.773.773,0,0,0,362.185,160.9Z" transform="translate(-324.164 -141.822)"/>
        <path id="Trazado_1083083" data-name="Trazado 1083083" d="M288.319,116.374a.773.773,0,0,0,.773-.773v-4.3a3.1,3.1,0,0,0-4.208-2.9,6.921,6.921,0,0,0-1.574-2.668,8.531,8.531,0,1,0-10.158,0,6.934,6.934,0,0,0-1.9,4.788v3.828a2.2,2.2,0,0,1-.548.056l-1.266,0a2.327,2.327,0,0,0-2.311,2.577,5.423,5.423,0,0,0-2.2,5.057l.808,6.459a3.122,3.122,0,0,0-2.014,1.812,2.4,2.4,0,0,0,2.092,3.49h4.661a2.335,2.335,0,0,0,2.191-1.545l2.491-6.99h5.381l2.491,6.991a2.325,2.325,0,0,0,4.38-1.561l-2.031-5.7a5.419,5.419,0,0,0,3.719-5.138v-.648a.773.773,0,1,0-1.546,0v.648a3.869,3.869,0,0,1-3.865,3.865H270.465a.774.774,0,0,1-.773-.773v-1.27a5.714,5.714,0,0,1,.634-2.62h5.327a5.409,5.409,0,0,0,4.9-3.1h1.57a2.322,2.322,0,0,0,2.319-2.319V111.3a1.555,1.555,0,0,1,3.109,0v4.3a.773.773,0,0,0,.773.773Zm-3.1-17.488A6.942,6.942,0,0,1,284.48,102a5.109,5.109,0,0,1-3.617-3.215A8.14,8.14,0,0,0,279,95.26a8.5,8.5,0,0,0-4.332-2.383,6.983,6.983,0,0,1,10.546,6.009Zm-13.974,0a6.958,6.958,0,0,1,1.781-4.654,7.054,7.054,0,0,1,4.881,2.116c1.089,1.1,1.106,2.076,1.535,3.047a6.672,6.672,0,0,0,4.146,3.97,6.983,6.983,0,0,1-12.344-4.479Zm-1.808,17.069h.779v1.558h-.779a.779.779,0,1,1,0-1.558Zm-4.172,16.077c-.585-.587.011-2.106,1.328-2.109h1.966l-.276.775a2.3,2.3,0,0,0,0,1.56h-2.471a.767.767,0,0,1-.546-.225Zm5.942-.293a.779.779,0,1,1-1.468-.523l2.12-5.948h1.654Zm14.743-.523a.779.779,0,0,1-1.468.523l-2.306-6.471,1.653,0Zm-15.727-5.962-1.113,3.122h-1.834l-.816-6.526a3.874,3.874,0,0,1,1.362-3.448,2.327,2.327,0,0,0,.865.531,7.27,7.27,0,0,0-.538,2.745v1.27A2.322,2.322,0,0,0,270.221,125.254Zm9.235-10.915a3.863,3.863,0,0,1-3.8,3.173H271.76c0-.851,0,0,0-1.676l2.393-.4a2.415,2.415,0,0,0,1.983-2.776,1.837,1.837,0,1,1,3.619.027Zm3.435-.7a.774.774,0,0,1-.773.773h-1.1l.262-1.444a3.383,3.383,0,1,0-6.665-.049.867.867,0,0,1-.712,1l-1.1.184v-3.571a5.5,5.5,0,0,1,1.69-3.975,8.511,8.511,0,0,0,7.49,0,5.551,5.551,0,0,1,1.572,2.845,3.084,3.084,0,0,0-.657,1.9Z" transform="translate(-236.33 -81.041)"/>
        <path id="Trazado_1083084" data-name="Trazado 1083084" d="M211.6,31.664h7.76a.773.773,0,1,0,0-1.546H211.6a.773.773,0,0,0,0,1.546Z" transform="translate(-189.095 -27.014)"/>
        <path id="Trazado_1083085" data-name="Trazado 1083085" d="M211.6,61.781h7.76a.773.773,0,1,0,0-1.546H211.6a.773.773,0,0,0,0,1.546Z" transform="translate(-189.095 -54.027)"/>
      </g>
    </g>
  </g>
</svg>
