<svg xmlns="http://www.w3.org/2000/svg" xmlns:xlink="http://www.w3.org/1999/xlink" width="93.934" height="93.934" viewBox="0 0 93.934 93.934">
  <defs>
    <filter id="Trazado_978624" x="0" y="0" width="93.934" height="93.934" filterUnits="userSpaceOnUse">
      <feOffset dy="3" input="SourceAlpha"/>
      <feGaussianBlur stdDeviation="3" result="blur"/>
      <feFlood flood-opacity="0.161"/>
      <feComposite operator="in" in2="blur"/>
      <feComposite in="SourceGraphic"/>
    </filter>
  </defs>
  <g id="Grupo_1212282" data-name="Grupo 1212282" transform="translate(-1031 -2667.655)">
    <g id="Grupo_1209313" data-name="Grupo 1209313" transform="translate(-2 -2577.933)">
      <g id="Grupo_1208073" data-name="Grupo 1208073" transform="translate(836 3815.588)">
        <g id="Grupo_1144123" data-name="Grupo 1144123" transform="translate(206 1436)">
          <g transform="matrix(1, 0, 0, 1, -9, -6)" filter="url(#Trazado_978624)">
            <g id="Trazado_978624-2" data-name="Trazado 978624" transform="translate(9 6)" fill="#f0fbfa">
              <path d="M 37.966796875 74.43359375 C 33.04315185546875 74.43359375 28.26757431030273 73.46962738037109 23.77274131774902 71.56847381591797 C 19.43047523498535 69.73184967041016 15.53040790557861 67.10224914550781 12.18087482452393 63.75271987915039 C 8.831341743469238 60.4031867980957 6.201741218566895 56.50312042236328 4.365118980407715 52.16086196899414 C 2.463963508605957 47.66601943969727 1.499996900558472 42.89044189453125 1.499996900558472 37.966796875 C 1.499996900558472 33.04315185546875 2.463963508605957 28.26757431030273 4.365118980407715 23.77274131774902 C 6.201741218566895 19.43047523498535 8.831341743469238 15.53040790557861 12.18087482452393 12.18087482452393 C 15.53040790557861 8.831341743469238 19.43047523498535 6.201741218566895 23.77274131774902 4.365118980407715 C 28.26757431030273 2.463963508605957 33.04315185546875 1.499996900558472 37.966796875 1.499996900558472 C 42.89044189453125 1.499996900558472 47.66601943969727 2.463963508605957 52.16086196899414 4.365118980407715 C 56.50312042236328 6.201741218566895 60.4031867980957 8.831341743469238 63.75271987915039 12.18087482452393 C 67.10224914550781 15.53040790557861 69.73184967041016 19.43047523498535 71.56847381591797 23.77274131774902 C 73.46962738037109 28.26757431030273 74.43359375 33.04315185546875 74.43359375 37.966796875 C 74.43359375 42.89044189453125 73.46962738037109 47.66601943969727 71.56847381591797 52.16086196899414 C 69.73184967041016 56.50313186645508 67.10224914550781 60.4031867980957 63.75271987915039 63.75271987915039 C 60.4031867980957 67.10224914550781 56.50313186645508 69.73184967041016 52.16086196899414 71.56847381591797 C 47.66601943969727 73.46962738037109 42.89044189453125 74.43359375 37.966796875 74.43359375 Z" stroke="none"/>
              <path d="M 37.966796875 3 C 33.2449836730957 3 28.66600799560547 3.924095153808594 24.35705947875977 5.746635437011719 C 20.19359588623047 7.507621765136719 16.45379638671875 10.02927398681641 13.24153518676758 13.24153518676758 C 10.02927398681641 16.45379638671875 7.507621765136719 20.19359588623047 5.746635437011719 24.35705947875977 C 3.924095153808594 28.66600799560547 3 33.2449836730957 3 37.966796875 C 3 42.6886100769043 3.924095153808594 47.26758575439453 5.746635437011719 51.57653427124023 C 7.507621765136719 55.73999786376953 10.02927398681641 59.47979736328125 13.24153518676758 62.69205856323242 C 16.45379638671875 65.90431976318359 20.19359588623047 68.42597198486328 24.35705947875977 70.18695831298828 C 28.66600799560547 72.00949859619141 33.2449836730957 72.93359375 37.966796875 72.93359375 C 42.6886100769043 72.93359375 47.26758575439453 72.00949859619141 51.57653427124023 70.18695831298828 C 55.73999786376953 68.42597198486328 59.47979736328125 65.90431976318359 62.69205856323242 62.69205856323242 C 65.90431976318359 59.47979736328125 68.42597198486328 55.73999786376953 70.18695831298828 51.57653427124023 C 72.00949859619141 47.26758575439453 72.93359375 42.6886100769043 72.93359375 37.966796875 C 72.93359375 33.2449836730957 72.00949859619141 28.66600799560547 70.18695831298828 24.35705947875977 C 68.42597198486328 20.19359588623047 65.90431976318359 16.45379638671875 62.69205856323242 13.24153518676758 C 59.47979736328125 10.02927398681641 55.73999786376953 7.507621765136719 51.57653427124023 5.746635437011719 C 47.26758575439453 3.924095153808594 42.6886100769043 3 37.966796875 3 M 37.966796875 0 C 58.93528366088867 0 75.93359375 16.99831008911133 75.93359375 37.966796875 C 75.93359375 58.93528366088867 58.93528366088867 75.93359375 37.966796875 75.93359375 C 16.99831008911133 75.93359375 0 58.93528366088867 0 37.966796875 C 0 16.99831008911133 16.99831008911133 0 37.966796875 0 Z" stroke="none" fill="#3f7776"/>
            </g>
          </g>
        </g>
      </g>
    </g>
    <g id="libro-de-ciencias" transform="translate(1053.908 2687.567)">
      <path id="Trazado_1083105" data-name="Trazado 1083105" d="M55.046,121.08v31.271a1.609,1.609,0,0,1-1.6,1.6H36.467a1.609,1.609,0,0,0-1.139.473l-.657.658a1.61,1.61,0,0,1-1.139.473h-3.48a1.609,1.609,0,0,1-1.139-.473l-.658-.658a1.609,1.609,0,0,0-1.139-.473H10.144a1.609,1.609,0,0,1-1.6-1.6V121.08a1.608,1.608,0,0,1,1.6-1.6h43.3a1.609,1.609,0,0,1,1.6,1.6Zm0,0" transform="translate(-7.734 -108.251)" fill="#0377bc"/>
      <path id="Trazado_1083106" data-name="Trazado 1083106" d="M52.639,121.08v31.271a1.609,1.609,0,0,1-1.6,1.6H36.33a1.609,1.609,0,0,0-1.139.473l-.657.658a1.61,1.61,0,0,1-1.139.473H30.052a1.609,1.609,0,0,1-1.139-.473l-.658-.658a1.609,1.609,0,0,0-1.139-.473H10.143a1.609,1.609,0,0,1-1.6-1.6V121.08a1.608,1.608,0,0,1,1.6-1.6H51.036a1.608,1.608,0,0,1,1.6,1.6Zm0,0" transform="translate(-7.733 -108.251)" fill="#02a9f4"/>
      <path id="Trazado_1083107" data-name="Trazado 1083107" d="M82.762,72.455v32.834a.794.794,0,0,1-.962.786c-3.52-.746-15.619-3-18.474.737a.774.774,0,0,1-1.219,0c-2.854-3.736-14.954-1.483-18.474-.737a.794.794,0,0,1-.962-.786V72.455a.8.8,0,0,1,.625-.786A67.888,67.888,0,0,1,51.38,70.41H74.055a67.891,67.891,0,0,1,8.082,1.259.8.8,0,0,1,.625.786Zm0,0" transform="translate(-38.659 -63.795)" fill="#ffe0b2"/>
      <path id="Trazado_1083108" data-name="Trazado 1083108" d="M276.049,72.455v32.834a.794.794,0,0,1-.962.786c-.417-.088-.962-.2-1.6-.313a51.051,51.051,0,0,0-10.776-1.019c-2.7.12-5.044.682-6.1,2.069a.74.74,0,0,1-.609.3V70.41h11.338a67.888,67.888,0,0,1,8.082,1.259.8.8,0,0,1,.625.786Zm0,0" transform="translate(-231.945 -63.795)" fill="#dfc49c"/>
      <path id="Trazado_1083109" data-name="Trazado 1083109" d="M273.644,72.454v32.834a.8.8,0,0,1-.962.786,63.124,63.124,0,0,0-9.966-1.331,17,17,0,0,0-6.711.794V70.41h8.932a67.914,67.914,0,0,1,8.082,1.259.8.8,0,0,1,.625.786Zm0,0" transform="translate(-231.945 -63.794)" fill="#ffe0b2"/>
      <path id="Trazado_1083110" data-name="Trazado 1083110" d="M124.329,26.789a4.646,4.646,0,0,1-1.283,3.312l-.008.008-.746,2.406a3.833,3.833,0,0,1-1.587,2.077l-2.55,1.676a4.5,4.5,0,0,0-.914.826l-.946,1.17a4.088,4.088,0,0,1-1.187.994,4.475,4.475,0,0,1-2.149.545,4.36,4.36,0,0,1-2.414-.722l-1.451-.954-1.451.954a4.36,4.36,0,0,1-2.413.722,4.535,4.535,0,0,1-2.157-.545,4.159,4.159,0,0,1-1.179-.994l-.954-1.17a4.1,4.1,0,0,0-.914-.826l-2.542-1.676A3.834,3.834,0,0,1,95.9,32.514l-.746-2.406-.008-.008a4.646,4.646,0,0,1-1.283-3.312,4.747,4.747,0,0,1,1.026-3.031,5.042,5.042,0,0,1-.417-2.029,4.15,4.15,0,0,1,2.486-4.065,5.156,5.156,0,0,1-.056-.705,3.872,3.872,0,0,1,2.478-3.793,2.391,2.391,0,0,1-.04-.425,3.223,3.223,0,0,1,3.344-3.087,3.167,3.167,0,0,1,.834.1,3.13,3.13,0,0,1,2.518-1.227,2.993,2.993,0,0,1,2.983,2.253,2.5,2.5,0,0,1,.056.554h.048a2.461,2.461,0,0,1,.056-.554,2.993,2.993,0,0,1,2.983-2.253,3.129,3.129,0,0,1,2.518,1.227,3.167,3.167,0,0,1,.834-.1,3.223,3.223,0,0,1,3.344,3.087,2.426,2.426,0,0,1-.04.425,3.872,3.872,0,0,1,2.478,3.793,5.153,5.153,0,0,1-.056.705,4.15,4.15,0,0,1,2.486,4.065,5.042,5.042,0,0,1-.417,2.029,4.747,4.747,0,0,1,1.026,3.031Zm0,0" transform="translate(-85.036 -7.73)" fill="#ef314c"/>
      <path id="Trazado_1083111" data-name="Trazado 1083111" d="M271.239,26.8a4.646,4.646,0,0,1-1.283,3.312l-.008.008-.746,2.406a3.834,3.834,0,0,1-1.587,2.077l-2.55,1.676a4.5,4.5,0,0,0-.914.826l-.946,1.17a4.087,4.087,0,0,1-1.187.994,4.475,4.475,0,0,1-2.149.545,4.4,4.4,0,0,1-1.2-.168,4.344,4.344,0,0,1-1.211-.553L256,38.135V11.346h.024a2.458,2.458,0,0,1,.056-.553,2.87,2.87,0,0,1,1.78-2.021,3.206,3.206,0,0,1,3.72.994,3.167,3.167,0,0,1,.834-.1,3.223,3.223,0,0,1,3.344,3.087,2.426,2.426,0,0,1-.04.425,3.872,3.872,0,0,1,2.478,3.793,5.146,5.146,0,0,1-.056.705,4.15,4.15,0,0,1,2.486,4.065,5.042,5.042,0,0,1-.417,2.029,4.747,4.747,0,0,1,1.026,3.031Zm0,0" transform="translate(-231.946 -7.738)" fill="#bb193b"/>
      <path id="Trazado_1083112" data-name="Trazado 1083112" d="M253.37,29.041a4.644,4.644,0,0,1-1.283,3.312l-.008.008-.746,2.406a3.837,3.837,0,0,1-1.587,2.077l-2.55,1.676a4.487,4.487,0,0,0-.914.826l-.946,1.17a4.09,4.09,0,0,1-1.187.994,4.028,4.028,0,0,1-.946.377,4.344,4.344,0,0,1-1.211-.554l-1.451-.954-1.6-15.163,1.6-11.626h.024a2.461,2.461,0,0,1,.056-.554,2.87,2.87,0,0,1,1.78-2.021,3.028,3.028,0,0,1,1.315.994,3.164,3.164,0,0,1,.834-.1,3.222,3.222,0,0,1,3.343,3.087,2.391,2.391,0,0,1-.04.425,3.871,3.871,0,0,1,2.478,3.793,5.1,5.1,0,0,1-.056.705,4.149,4.149,0,0,1,2.486,4.065,5.03,5.03,0,0,1-.417,2.029,4.748,4.748,0,0,1,1.027,3.031Zm0,0" transform="translate(-216.482 -9.982)" fill="#ef314c"/>
      <path id="Trazado_1083113" data-name="Trazado 1083113" d="M24.059,148.627H22.318a2.388,2.388,0,0,1-1.7-.7l-.664-.664a.8.8,0,0,0-.567-.235H2.41A2.408,2.408,0,0,1,0,144.618V113.347a2.408,2.408,0,0,1,2.406-2.406h1.6a.8.8,0,0,1,0,1.6H2.41a.8.8,0,0,0-.8.8v31.271a.8.8,0,0,0,.8.8H19.385a2.388,2.388,0,0,1,1.7.7l.664.664a.8.8,0,0,0,.567.235h1.741a.8.8,0,1,1,0,1.6Zm0,0" transform="translate(0 -100.518)"/>
      <path id="Trazado_1083114" data-name="Trazado 1083114" d="M250.015,148.627h-1.741a.8.8,0,0,1,0-1.6h1.741a.8.8,0,0,0,.567-.235l.664-.664a2.388,2.388,0,0,1,1.7-.7h16.975a.8.8,0,0,0,.8-.8V113.347a.8.8,0,0,0-.8-.8h-1.6a.8.8,0,0,1,0-1.6h1.6a2.408,2.408,0,0,1,2.406,2.406v31.271a2.408,2.408,0,0,1-2.406,2.406H252.948a.8.8,0,0,0-.567.235l-.664.664A2.388,2.388,0,0,1,250.015,148.627Zm0,0" transform="translate(-224.215 -100.518)"/>
      <path id="Trazado_1083115" data-name="Trazado 1083115" d="M54.984,100.164a1.568,1.568,0,0,1-1.249-.614c-2.025-2.65-10.454-1.963-17.667-.436a1.568,1.568,0,0,1-1.327-.31,1.6,1.6,0,0,1-.6-1.26V64.71a1.591,1.591,0,0,1,1.257-1.569,68.829,68.829,0,0,1,8.183-1.274.8.8,0,1,1,.139,1.6,67.149,67.149,0,0,0-7.982,1.244l.007,32.837c4.779-1.012,16.232-2.941,19.272,1.037,2.983-3.977,14.438-2.048,19.221-1.035L74.228,64.71a66.273,66.273,0,0,0-7.975-1.246.8.8,0,1,1,.139-1.6,68.9,68.9,0,0,1,8.182,1.273,1.592,1.592,0,0,1,1.257,1.57V97.544a1.6,1.6,0,0,1-.6,1.26,1.575,1.575,0,0,1-1.338.308c-7.2-1.527-15.63-2.213-17.66.442a1.565,1.565,0,0,1-1.246.61Zm0,0" transform="translate(-30.925 -56.05)"/>
      <path id="Trazado_1083116" data-name="Trazado 1083116" d="M248.274,368.834a.8.8,0,0,1-.8-.8v-8.82a.8.8,0,0,1,1.6,0v8.82A.8.8,0,0,1,248.274,368.834Zm0,0" transform="translate(-224.216 -324.734)"/>
      <path id="Trazado_1083117" data-name="Trazado 1083117" d="M189.363,4.413a.8.8,0,0,1-.8-.8,1.6,1.6,0,0,0-.039-.371,2.2,2.2,0,0,0-2.2-1.636,2.324,2.324,0,0,0-1.87.9,1.858,1.858,0,0,0-.371,1.105.8.8,0,0,1-1.6,0,3.456,3.456,0,0,1,.685-2.059A3.936,3.936,0,0,1,186.321,0a3.8,3.8,0,0,1,3.765,2.883,3.147,3.147,0,0,1,.079.727.8.8,0,0,1-.8.8Zm0,0" transform="translate(-165.327 -0.001)"/>
      <path id="Trazado_1083118" data-name="Trazado 1083118" d="M145.845,19.164a.8.8,0,0,1-.433-.128,3.822,3.822,0,0,1-1.747-2.669,3.014,3.014,0,0,1-.044-.533,4.031,4.031,0,0,1,4.148-3.892,4.23,4.23,0,0,1,1.029.126.8.8,0,0,1-.391,1.556,2.617,2.617,0,0,0-.638-.077,2.429,2.429,0,0,0-2.545,2.287,1.589,1.589,0,0,0,.024.28,2.241,2.241,0,0,0,1.032,1.574.8.8,0,0,1-.435,1.476Zm0,0" transform="translate(-130.122 -10.82)"/>
      <path id="Trazado_1083119" data-name="Trazado 1083119" d="M118.507,55.432a.8.8,0,0,1-.793-.692,5.937,5.937,0,0,1-.063-.815,4.687,4.687,0,0,1,3.039-4.558.8.8,0,0,1,.481,1.53,3.08,3.08,0,0,0-1.916,3.028,4.27,4.27,0,0,0,.048.6.8.8,0,0,1-.685.9.86.86,0,0,1-.111.007Zm0,0" transform="translate(-106.589 -44.696)"/>
      <path id="Trazado_1083120" data-name="Trazado 1083120" d="M94.439,106.6a.8.8,0,0,1-.427-.124,4.525,4.525,0,0,1-1.716-2.082c-.007-.016-.013-.033-.019-.05a5.747,5.747,0,0,1-.465-2.293,4.953,4.953,0,0,1,3.041-4.828.8.8,0,1,1,.5,1.524,3.356,3.356,0,0,0-1.937,3.3,4.136,4.136,0,0,0,.351,1.7.682.682,0,0,1,.025.064,2.957,2.957,0,0,0,1.076,1.309.8.8,0,0,1-.429,1.48Zm0,0" transform="translate(-83.181 -88.046)"/>
      <path id="Trazado_1083121" data-name="Trazado 1083121" d="M87.415,170a.793.793,0,0,1-.524-.2,5.451,5.451,0,0,1-1.564-3.923,5.515,5.515,0,0,1,1.192-3.514.8.8,0,0,1,1.441.48v.006a.8.8,0,0,1-.187.514,4.147,4.147,0,0,0,.2,5.255A.8.8,0,0,1,87.415,170Zm0,0" transform="translate(-77.305 -146.821)"/>
      <path id="Trazado_1083122" data-name="Trazado 1083122" d="M109.918,240.909a5.3,5.3,0,0,1-2.535-.647,4.835,4.835,0,0,1-1.423-1.194l-.947-1.165a3.526,3.526,0,0,0-.736-.661l-2.546-1.677a4.705,4.705,0,0,1-1.912-2.5l-.736-2.383a.8.8,0,0,1,1.3-.857.832.832,0,0,1,.225.355l.744,2.409a3.1,3.1,0,0,0,1.262,1.64l2.55,1.679a5.158,5.158,0,0,1,1.086.976l.959,1.179a3.216,3.216,0,0,0,.952.8,3.732,3.732,0,0,0,3.731-.138l1.454-.961a.8.8,0,1,1,.884,1.338l-1.453.96a5.156,5.156,0,0,1-2.856.852Zm0,0" transform="translate(-89.726 -208.035)"/>
      <path id="Trazado_1083123" data-name="Trazado 1083123" d="M247.714,26.138a.8.8,0,0,1-.8-.8v-.344a.76.76,0,0,1-.027-.143.776.776,0,0,1,.7-.868.883.883,0,0,1,.643.2.827.827,0,0,1,.291.589v.562A.8.8,0,0,1,247.714,26.138Zm0,0" transform="translate(-223.678 -21.725)"/>
      <path id="Trazado_1083124" data-name="Trazado 1083124" d="M254.6,4.412a.8.8,0,0,1-.8-.8,1.863,1.863,0,0,0-.373-1.109,2.322,2.322,0,0,0-1.867-.9,2.195,2.195,0,0,0-2.2,1.621,1.643,1.643,0,0,0-.043.386.8.8,0,0,1-1.6,0,3.209,3.209,0,0,1,.082-.741A3.8,3.8,0,0,1,251.554,0a3.934,3.934,0,0,1,3.156,1.547A3.461,3.461,0,0,1,255.4,3.61a.8.8,0,0,1-.8.8Zm0,0" transform="translate(-224.431)"/>
      <path id="Trazado_1083125" data-name="Trazado 1083125" d="M310.5,19.165a.8.8,0,0,1-.435-1.476,2.223,2.223,0,0,0,1.027-1.543,1.758,1.758,0,0,0,.029-.31,2.43,2.43,0,0,0-2.545-2.288,2.617,2.617,0,0,0-.638.077.8.8,0,0,1-.391-1.555,4.224,4.224,0,0,1,1.029-.126,4.031,4.031,0,0,1,4.148,3.892,3.143,3.143,0,0,1-.049.563,3.807,3.807,0,0,1-1.743,2.639.8.8,0,0,1-.433.128Zm0,0" transform="translate(-278.109 -10.82)"/>
      <path id="Trazado_1083126" data-name="Trazado 1083126" d="M354.115,55.43a.865.865,0,0,1-.111-.007.8.8,0,0,1-.685-.9,4.271,4.271,0,0,0,.048-.6,3.079,3.079,0,0,0-1.916-3.027.8.8,0,0,1,.481-1.53,4.686,4.686,0,0,1,3.039,4.558,5.95,5.95,0,0,1-.063.816.8.8,0,0,1-.794.692Zm0,0" transform="translate(-317.916 -44.693)"/>
      <path id="Trazado_1083127" data-name="Trazado 1083127" d="M378.195,106.659a.8.8,0,0,1-.429-1.48,2.951,2.951,0,0,0,1.077-1.311c.008-.021.015-.041.024-.062a4.141,4.141,0,0,0,.35-1.7,3.355,3.355,0,0,0-1.937-3.3.8.8,0,0,1,.5-1.524,4.954,4.954,0,0,1,3.04,4.828,5.734,5.734,0,0,1-.465,2.295l-.019.048a4.517,4.517,0,0,1-1.716,2.082.8.8,0,0,1-.427.124Zm0,0" transform="translate(-341.335 -88.108)"/>
      <path id="Trazado_1083128" data-name="Trazado 1083128" d="M396.7,170a.8.8,0,0,1-.569-1.364l.005-.006a4.146,4.146,0,0,0,.208-5.26.8.8,0,1,1,1.278-.971,5.525,5.525,0,0,1,1.168,3.484,5.437,5.437,0,0,1-1.525,3.887A.8.8,0,0,1,396.7,170Zm0,0" transform="translate(-358.699 -146.827)"/>
      <path id="Trazado_1083129" data-name="Trazado 1083129" d="M252.142,240.917a5.153,5.153,0,0,1-2.857-.852l-1.453-.959a.8.8,0,0,1-.359-.669v-3.173a.8.8,0,0,1,1.6,0V238l1.093.722a3.728,3.728,0,0,0,3.737.136,3.2,3.2,0,0,0,.944-.792l.952-1.171a5.2,5.2,0,0,1,1.092-.985l2.552-1.681a3.06,3.06,0,0,0,1.263-1.64l.745-2.41a.8.8,0,1,1,1.512.54l-.723,2.342a4.672,4.672,0,0,1-1.914,2.507l-2.548,1.678a3.541,3.541,0,0,0-.742.67l-.941,1.158a4.817,4.817,0,0,1-1.415,1.188,5.3,5.3,0,0,1-2.54.649Zm0,0" transform="translate(-224.216 -208.042)"/>
      <path id="Trazado_1083130" data-name="Trazado 1083130" d="M248.513,26.089a.8.8,0,0,1-.8-.8v-.562a.8.8,0,0,1,.261-.592.816.816,0,0,1,.613-.207.828.828,0,0,1,.757.874.848.848,0,0,1-.027.151v.336a.8.8,0,0,1-.8.8Zm0,0" transform="translate(-224.431 -21.677)"/>
      <path id="Trazado_1083131" data-name="Trazado 1083131" d="M163.221,268.254a2.434,2.434,0,0,1-2.4-1.706c-.333-.957-2.165-1.514-2.78-1.633a.8.8,0,1,1,.3-1.575c.336.064,3.3.683,3.992,2.68a.942.942,0,0,0,1.264.577.8.8,0,0,1,.48,1.53A2.845,2.845,0,0,1,163.221,268.254Zm0,0" transform="translate(-142.593 -238.583)"/>
      <path id="Trazado_1083132" data-name="Trazado 1083132" d="M279.008,268.252a2.847,2.847,0,0,1-.853-.128.8.8,0,0,1,.487-1.528.939.939,0,0,0,1.256-.579c.7-2,3.656-2.616,3.992-2.68a.8.8,0,1,1,.3,1.575c-.616.12-2.447.676-2.78,1.633A2.434,2.434,0,0,1,279.008,268.252Zm0,0" transform="translate(-251.518 -238.58)"/>
      <path id="Trazado_1083133" data-name="Trazado 1083133" d="M279.008,268.252a2.847,2.847,0,0,1-.853-.128.8.8,0,0,1,.487-1.528.939.939,0,0,0,1.256-.579c.7-2,3.656-2.616,3.992-2.68a.8.8,0,1,1,.3,1.575c-.616.12-2.447.676-2.78,1.633A2.434,2.434,0,0,1,279.008,268.252Zm0,0" transform="translate(-251.518 -238.58)"/>
      <path id="Trazado_1083134" data-name="Trazado 1083134" d="M139.584,216.535a3.279,3.279,0,0,1-3.014-2.155.8.8,0,1,1,1.513-.534,1.65,1.65,0,0,0,1.5,1.085.8.8,0,1,1,0,1.6Zm0,0" transform="translate(-123.692 -193.268)"/>
      <path id="Trazado_1083135" data-name="Trazado 1083135" d="M335.185,216.556a.8.8,0,1,1,0-1.6,1.666,1.666,0,0,0,1.5-1.08.8.8,0,1,1,1.514.529A3.278,3.278,0,0,1,335.185,216.556Zm0,0" transform="translate(-302.959 -193.29)"/>
      <path id="Trazado_1083136" data-name="Trazado 1083136" d="M169.354,169.332a.8.8,0,0,1-.8-.8c0-.988-.1-1-1.389-1.193a11.557,11.557,0,0,1-2.072-.452,4.3,4.3,0,0,1-2.954-3.968.8.8,0,1,1,1.6-.005,2.7,2.7,0,0,0,1.858,2.451,10.092,10.092,0,0,0,1.8.387c1.293.19,2.759.406,2.759,2.779a.8.8,0,0,1-.8.8Zm0,0" transform="translate(-146.898 -146.881)"/>
      <path id="Trazado_1083137" data-name="Trazado 1083137" d="M208,62.949a.8.8,0,0,1-.8-.8c0-.757-1.59-.8-1.606-.8a.8.8,0,0,1,0-1.6c1.109,0,3.208.5,3.208,2.405a.8.8,0,0,1-.8.8Zm0,0" transform="translate(-185.543 -54.129)"/>
      <path id="Trazado_1083138" data-name="Trazado 1083138" d="M265.34,169.388a.8.8,0,0,1-.8-.8c0-2.373,1.466-2.589,2.759-2.779a10.1,10.1,0,0,0,1.8-.387,2.7,2.7,0,0,0,1.857-2.452.8.8,0,0,1,.8-.793h.006a.8.8,0,0,1,.8.8,4.3,4.3,0,0,1-2.954,3.968,11.559,11.559,0,0,1-2.072.452c-1.284.189-1.389.2-1.389,1.193A.8.8,0,0,1,265.34,169.388Zm0,0" transform="translate(-239.678 -146.937)"/>
      <path id="Trazado_1083139" data-name="Trazado 1083139" d="M265.34,62.949a.8.8,0,0,1-.8-.8c0-1.9,2.1-2.405,3.207-2.405a.8.8,0,0,1,0,1.6c-.03,0-1.606.048-1.606.8A.8.8,0,0,1,265.34,62.949Zm0,0" transform="translate(-239.678 -54.129)"/>
      <path id="Trazado_1083140" data-name="Trazado 1083140" d="M205.6,139.75a.8.8,0,0,1,0-1.6c.03,0,1.606-.048,1.606-.8a.8.8,0,0,1,1.6,0c0,1.9-2.1,2.406-3.208,2.406Zm0,0" transform="translate(-185.546 -123.714)"/>
      <path id="Trazado_1083141" data-name="Trazado 1083141" d="M267.746,139.75c-1.109,0-3.207-.5-3.207-2.406a.8.8,0,0,1,1.6,0c0,.757,1.59.8,1.606.8a.8.8,0,1,1,0,1.6Zm0,0" transform="translate(-239.679 -123.714)"/>
      <path id="Trazado_1083142" data-name="Trazado 1083142" d="M69.873,325.877h-.8a.8.8,0,1,1,0-1.6h.8a.8.8,0,1,1,0,1.6Zm0,0" transform="translate(-61.851 -293.804)"/>
      <path id="Trazado_1083143" data-name="Trazado 1083143" d="M114.144,325.877h-2.405a.8.8,0,1,1,0-1.6h2.405a.8.8,0,1,1,0,1.6Zm0,0" transform="translate(-100.509 -293.804)"/>
      <path id="Trazado_1083144" data-name="Trazado 1083144" d="M73.882,360.014H69.072a.8.8,0,1,1,0-1.6h4.811a.8.8,0,1,1,0,1.6Zm0,0" transform="translate(-61.851 -324.734)"/>
      <path id="Trazado_1083145" data-name="Trazado 1083145" d="M156.812,360.014h-2.406a.8.8,0,0,1,0-1.6h2.406a.8.8,0,0,1,0,1.6Zm0,0" transform="translate(-139.168 -324.734)"/>
      <path id="Trazado_1083146" data-name="Trazado 1083146" d="M70.675,394.146h-1.6a.8.8,0,1,1,0-1.6h1.6a.8.8,0,0,1,0,1.6Zm0,0" transform="translate(-61.851 -355.659)"/>
      <path id="Trazado_1083147" data-name="Trazado 1083147" d="M128.292,394.146h-8.018a.8.8,0,0,1,0-1.6h8.018a.8.8,0,1,1,0,1.6Zm0,0" transform="translate(-108.243 -355.659)"/>
      <path id="Trazado_1083148" data-name="Trazado 1083148" d="M419.74,325.877h-.8a.8.8,0,1,1,0-1.6h.8a.8.8,0,1,1,0,1.6Zm0,0" transform="translate(-378.844 -293.804)"/>
      <path id="Trazado_1083149" data-name="Trazado 1083149" d="M361.61,325.877H359.2a.8.8,0,1,1,0-1.6h2.406a.8.8,0,0,1,0,1.6Zm0,0" transform="translate(-324.722 -293.804)"/>
      <path id="Trazado_1083150" data-name="Trazado 1083150" d="M381.085,360.014h-4.811a.8.8,0,0,1,0-1.6h4.811a.8.8,0,1,1,0,1.6Zm0,0" transform="translate(-340.188 -324.734)"/>
      <path id="Trazado_1083151" data-name="Trazado 1083151" d="M318.945,360.014H316.54a.8.8,0,0,1,0-1.6h2.406a.8.8,0,0,1,0,1.6Zm0,0" transform="translate(-286.067 -324.734)"/>
      <path id="Trazado_1083152" data-name="Trazado 1083152" d="M412.011,394.146h-1.6a.8.8,0,0,1,0-1.6h1.6a.8.8,0,1,1,0,1.6Zm0,0" transform="translate(-371.114 -355.659)"/>
      <path id="Trazado_1083153" data-name="Trazado 1083153" d="M298.957,394.146h-8.018a.8.8,0,1,1,0-1.6h8.018a.8.8,0,1,1,0,1.6Zm0,0" transform="translate(-262.871 -355.659)"/>
    </g>
  </g>
</svg>
