<svg xmlns="http://www.w3.org/2000/svg" xmlns:xlink="http://www.w3.org/1999/xlink" width="93.934" height="93.934" viewBox="0 0 93.934 93.934">
  <defs>
    <filter id="Trazado_978624" x="0" y="0" width="93.934" height="93.934" filterUnits="userSpaceOnUse">
      <feOffset dy="3" input="SourceAlpha"/>
      <feGaussianBlur stdDeviation="3" result="blur"/>
      <feFlood flood-opacity="0.161"/>
      <feComposite operator="in" in2="blur"/>
      <feComposite in="SourceGraphic"/>
    </filter>
  </defs>
  <g id="Grupo_1212292" data-name="Grupo 1212292" transform="translate(-609 -4180.533)">
    <g id="Grupo_1211243" data-name="Grupo 1211243" transform="translate(0 2279.814)">
      <g id="Grupo_1208068" data-name="Grupo 1208068" transform="translate(412 470.719)">
        <g id="Grupo_1144123" data-name="Grupo 1144123" transform="translate(206 1436)">
          <g transform="matrix(1, 0, 0, 1, -9, -6)" filter="url(#Trazado_978624)">
            <g id="Trazado_978624-2" data-name="Trazado 978624" transform="translate(9 6)" fill="#fbf3fb">
              <path d="M 37.966796875 74.43359375 C 33.04315185546875 74.43359375 28.26757431030273 73.46962738037109 23.77274131774902 71.56847381591797 C 19.43047523498535 69.73184967041016 15.53040790557861 67.10224914550781 12.18087482452393 63.75271987915039 C 8.831341743469238 60.4031867980957 6.201741218566895 56.50312042236328 4.365118980407715 52.16086196899414 C 2.463963508605957 47.66601943969727 1.499996900558472 42.89044189453125 1.499996900558472 37.966796875 C 1.499996900558472 33.04315185546875 2.463963508605957 28.26757431030273 4.365118980407715 23.77274131774902 C 6.201741218566895 19.43047523498535 8.831341743469238 15.53040790557861 12.18087482452393 12.18087482452393 C 15.53040790557861 8.831341743469238 19.43047523498535 6.201741218566895 23.77274131774902 4.365118980407715 C 28.26757431030273 2.463963508605957 33.04315185546875 1.499996900558472 37.966796875 1.499996900558472 C 42.89044189453125 1.499996900558472 47.66601943969727 2.463963508605957 52.16086196899414 4.365118980407715 C 56.50312042236328 6.201741218566895 60.4031867980957 8.831341743469238 63.75271987915039 12.18087482452393 C 67.10224914550781 15.53040790557861 69.73184967041016 19.43047523498535 71.56847381591797 23.77274131774902 C 73.46962738037109 28.26757431030273 74.43359375 33.04315185546875 74.43359375 37.966796875 C 74.43359375 42.89044189453125 73.46962738037109 47.66601943969727 71.56847381591797 52.16086196899414 C 69.73184967041016 56.50313186645508 67.10224914550781 60.4031867980957 63.75271987915039 63.75271987915039 C 60.4031867980957 67.10224914550781 56.50313186645508 69.73184967041016 52.16086196899414 71.56847381591797 C 47.66601943969727 73.46962738037109 42.89044189453125 74.43359375 37.966796875 74.43359375 Z" stroke="none"/>
              <path d="M 37.966796875 3 C 33.2449836730957 3 28.66600799560547 3.924095153808594 24.35705947875977 5.746635437011719 C 20.19359588623047 7.507621765136719 16.45379638671875 10.02927398681641 13.24153518676758 13.24153518676758 C 10.02927398681641 16.45379638671875 7.507621765136719 20.19359588623047 5.746635437011719 24.35705947875977 C 3.924095153808594 28.66600799560547 3 33.2449836730957 3 37.966796875 C 3 42.6886100769043 3.924095153808594 47.26758575439453 5.746635437011719 51.57653427124023 C 7.507621765136719 55.73999786376953 10.02927398681641 59.47979736328125 13.24153518676758 62.69205856323242 C 16.45379638671875 65.90431976318359 20.19359588623047 68.42597198486328 24.35705947875977 70.18695831298828 C 28.66600799560547 72.00949859619141 33.2449836730957 72.93359375 37.966796875 72.93359375 C 42.6886100769043 72.93359375 47.26758575439453 72.00949859619141 51.57653427124023 70.18695831298828 C 55.73999786376953 68.42597198486328 59.47979736328125 65.90431976318359 62.69205856323242 62.69205856323242 C 65.90431976318359 59.47979736328125 68.42597198486328 55.73999786376953 70.18695831298828 51.57653427124023 C 72.00949859619141 47.26758575439453 72.93359375 42.6886100769043 72.93359375 37.966796875 C 72.93359375 33.2449836730957 72.00949859619141 28.66600799560547 70.18695831298828 24.35705947875977 C 68.42597198486328 20.19359588623047 65.90431976318359 16.45379638671875 62.69205856323242 13.24153518676758 C 59.47979736328125 10.02927398681641 55.73999786376953 7.507621765136719 51.57653427124023 5.746635437011719 C 47.26758575439453 3.924095153808594 42.6886100769043 3 37.966796875 3 M 37.966796875 0 C 58.93528366088867 0 75.93359375 16.99831008911133 75.93359375 37.966796875 C 75.93359375 58.93528366088867 58.93528366088867 75.93359375 37.966796875 75.93359375 C 16.99831008911133 75.93359375 0 58.93528366088867 0 37.966796875 C 0 16.99831008911133 16.99831008911133 0 37.966796875 0 Z" stroke="none" fill="#df93dd"/>
            </g>
          </g>
        </g>
      </g>
    </g>
    <g id="filosofia" transform="translate(626.361 4194.75)">
      <g id="Grupo_1212290" data-name="Grupo 1212290" transform="translate(8.595 1.243)">
        <g id="Grupo_1212283" data-name="Grupo 1212283" transform="translate(36.291 36.291)">
          <path id="Trazado_1083154" data-name="Trazado 1083154" d="M48.91,39.3a3.82,3.82,0,1,1,0,7.64H47V39.3Z" transform="translate(-47 -39.302)" fill="#f0d0b4"/>
        </g>
        <g id="Grupo_1212284" data-name="Grupo 1212284" transform="translate(5.73 32.471)">
          <path id="Trazado_1083155" data-name="Trazado 1083155" d="M45.561,46.762v1.91A11.457,11.457,0,0,1,34.1,60.133H26.46A11.457,11.457,0,0,1,15,48.672V36.257a.958.958,0,0,1,.955-.955H44.606a.958.958,0,0,1,.955.955V46.762Z" transform="translate(-15 -35.302)" fill="#f0d0b4"/>
        </g>
        <g id="Grupo_1212285" data-name="Grupo 1212285" transform="translate(0 36.291)">
          <path id="Trazado_1083156" data-name="Trazado 1083156" d="M14.73,44.077v2.865H12.82a3.82,3.82,0,1,1,0-7.64h1.91Z" transform="translate(-9 -39.302)" fill="#f0d0b4"/>
        </g>
        <g id="Grupo_1212286" data-name="Grupo 1212286" transform="translate(7.64 19.101)">
          <path id="Trazado_1083157" data-name="Trazado 1083157" d="M38.011,26.077h-.124a3.493,3.493,0,0,0,.124-.955,3.82,3.82,0,1,0-7.64,0,3.82,3.82,0,0,0-7.64,0,3.493,3.493,0,0,0,.124.955H22.73a5.735,5.735,0,0,0-4.966,8.6H42.977a5.735,5.735,0,0,0-4.966-8.6Z" transform="translate(-17 -21.302)" fill="#dfb28b"/>
        </g>
        <g id="Grupo_1212287" data-name="Grupo 1212287" transform="translate(21.011 3.82)">
          <path id="Trazado_1083158" data-name="Trazado 1083158" d="M42.46,5.3v4.775a6.68,6.68,0,0,1-6.685,6.685H31l1.843-.917a7.033,7.033,0,0,0,3.218-9.283,5.087,5.087,0,0,0-.525-.907l.01-.01A6.921,6.921,0,0,1,37.685,5.3Z" transform="translate(-31 -5.302)" fill="#b4dd7f"/>
        </g>
        <g id="Grupo_1212288" data-name="Grupo 1212288" transform="translate(9.55 3.82)">
          <path id="Trazado_1083159" data-name="Trazado 1083159" d="M28.617,15.846l1.843.917H25.685A6.68,6.68,0,0,1,19,10.077V5.3h4.775a6.921,6.921,0,0,1,2.139.344l.01.01a6.944,6.944,0,0,0-1.194,3.9,7.049,7.049,0,0,0,3.887,6.294Z" transform="translate(-19 -5.302)" fill="#b4dd7f"/>
        </g>
        <g id="Grupo_1212289" data-name="Grupo 1212289" transform="translate(15.28)">
          <path id="Trazado_1083160" data-name="Trazado 1083160" d="M30.73,16.582l-1.843-.917A7.049,7.049,0,0,1,25,9.372a6.944,6.944,0,0,1,1.194-3.9,6.46,6.46,0,0,1,1.337-1.509L30.73,1.3l3.2,2.665a6.46,6.46,0,0,1,1.337,1.509,5.086,5.086,0,0,1,.525.907,7.033,7.033,0,0,1-3.218,9.283Z" transform="translate(-25 -1.302)" fill="#a0d468"/>
        </g>
      </g>
      <g id="Grupo_1212291" data-name="Grupo 1212291" transform="translate(0 0)">
        <path id="Trazado_1083161" data-name="Trazado 1083161" d="M23.82,44.122a3.824,3.824,0,0,0,3.82-3.82H25.73a1.91,1.91,0,0,1-3.82,0H20A3.824,3.824,0,0,0,23.82,44.122Z" transform="translate(-0.899 -1.812)"/>
        <path id="Trazado_1083162" data-name="Trazado 1083162" d="M37.82,44.122a3.824,3.824,0,0,0,3.82-3.82H39.73a1.91,1.91,0,0,1-3.82,0H34A3.824,3.824,0,0,0,37.82,44.122Z" transform="translate(-1.529 -1.812)"/>
        <path id="Trazado_1083163" data-name="Trazado 1083163" d="M26,55.032h5.73a5.736,5.736,0,0,0,5.73-5.73H35.55a3.824,3.824,0,0,1-3.82,3.82H26Z" transform="translate(-1.169 -2.217)"/>
        <path id="Trazado_1083164" data-name="Trazado 1083164" d="M47.156,36.58H46.2v-1.91a1.912,1.912,0,0,0-1.91-1.91H44a6.645,6.645,0,0,0-5.449-8.52c0-.026.008-.05.008-.075a4.781,4.781,0,0,0-4.775-4.775,4.726,4.726,0,0,0-2.865.98v-2.89h3.82a7.649,7.649,0,0,0,7.64-7.64V4.109h-5.73a7.6,7.6,0,0,0-1.747.226,8.066,8.066,0,0,0-1.126-1.159L29.966,0,26.154,3.175a7.967,7.967,0,0,0-1.126,1.159,7.61,7.61,0,0,0-1.748-.226H17.55v5.73a7.649,7.649,0,0,0,7.64,7.64h3.82v2.89a4.726,4.726,0,0,0-2.865-.98,4.781,4.781,0,0,0-4.775,4.775c0,.026.008.05.008.075a6.645,6.645,0,0,0-5.449,8.52H15.64a1.912,1.912,0,0,0-1.91,1.91v1.91h-.955a4.775,4.775,0,0,0,0,9.55h.955v.955A12.43,12.43,0,0,0,26.146,59.5h7.64A12.43,12.43,0,0,0,46.2,47.085V46.13h.955a4.775,4.775,0,0,0,0-9.55ZM33.786,21.3a2.865,2.865,0,1,1-.717,5.639l-.476,1.851a4.767,4.767,0,0,0,5.534-2.663,4.745,4.745,0,0,1,3.851,6.633H40.471a3.824,3.824,0,0,0-3.82-3.82v1.91a1.912,1.912,0,0,1,1.91,1.91h-7.64v-8.6A2.868,2.868,0,0,1,33.786,21.3Zm2.865-15.28h3.82v3.82a5.736,5.736,0,0,1-5.73,5.73H33.6a7.9,7.9,0,0,0,2.748-4.08L39.236,8.6l-1.35-1.35L36.608,8.531a7.955,7.955,0,0,0-.648-2.457,5.751,5.751,0,0,1,.691-.055ZM27.378,4.643l2.588-2.156,2.588,2.157a6.076,6.076,0,0,1-1.173,10.1l-.46.231v-3.79L33.506,8.6l-1.35-1.35L30.921,8.488V6.019h-1.91V10.4L27.776,9.164l-1.35,1.35L29.011,13.1v1.879l-.46-.23A6.078,6.078,0,0,1,27.378,4.643Zm-7.917,5.2V6.019h3.82a5.751,5.751,0,0,1,.691.055,7.982,7.982,0,0,0-.648,2.457L22.046,7.253,20.7,8.6l2.885,2.885a7.907,7.907,0,0,0,2.748,4.08H25.191A5.737,5.737,0,0,1,19.46,9.839ZM17.55,30.849A4.765,4.765,0,0,1,21.8,26.127a4.767,4.767,0,0,0,5.534,2.663l-.476-1.851a2.865,2.865,0,1,1,2.148-2.774v8.6H21.37a1.912,1.912,0,0,1,1.91-1.91v-1.91a3.824,3.824,0,0,0-3.82,3.82H17.953a4.782,4.782,0,0,1-.4-1.91ZM12.775,44.22a2.865,2.865,0,1,1,0-5.73h.955v2.036l-1.38-.921-1.059,1.589,2.439,1.626v1.4Zm31.516,2.865A10.518,10.518,0,0,1,33.786,57.59h-7.64A10.518,10.518,0,0,1,15.64,47.085V34.669l28.651,0Zm2.865-2.865H46.2v-1.4l2.44-1.626-1.059-1.589-1.381.92V38.489h.955a2.866,2.866,0,0,1,0,5.731Z" transform="translate(-0.36 0)"/>
        <path id="Trazado_1083165" data-name="Trazado 1083165" d="M0,28.3H3.82v1.91H0Z" transform="translate(0 -1.273)"/>
        <path id="Trazado_1083166" data-name="Trazado 1083166" d="M6,28.3h5.73v1.91H6Z" transform="translate(-0.27 -1.273)"/>
        <path id="Trazado_1083167" data-name="Trazado 1083167" d="M0,0H1.909V11.46H0Z" transform="matrix(0.195, -0.981, 0.981, 0.195, 0.386, 23.142)"/>
        <path id="Trazado_1083168" data-name="Trazado 1083168" d="M0,0H1.91V3.821H0Z" transform="translate(1.891 17.54) rotate(-67.486)"/>
        <path id="Trazado_1083169" data-name="Trazado 1083169" d="M0,0H1.91V5.73H0Z" transform="translate(7.187 19.73) rotate(-67.486)"/>
        <path id="Trazado_1083170" data-name="Trazado 1083170" d="M0,0H1.91V3.82H0Z" transform="translate(7.995 7.726) rotate(-45)"/>
        <path id="Trazado_1083171" data-name="Trazado 1083171" d="M0,0H1.91V5.731H0Z" transform="translate(12.045 11.776) rotate(-45)"/>
        <path id="Trazado_1083172" data-name="Trazado 1083172" d="M0,0H11.46V1.909H0Z" transform="matrix(0.981, -0.195, 0.195, 0.981, 0.38, 32.83)"/>
        <path id="Trazado_1083173" data-name="Trazado 1083173" d="M0,0H1.909V11.46H0Z" transform="matrix(0.556, -0.832, 0.832, 0.556, 4.468, 12.329)"/>
        <path id="Trazado_1083174" data-name="Trazado 1083174" d="M58,28.3h3.82v1.91H58Z" transform="translate(-2.608 -1.273)"/>
        <path id="Trazado_1083175" data-name="Trazado 1083175" d="M50,28.3h5.73v1.91H50Z" transform="translate(-2.249 -1.273)"/>
        <path id="Trazado_1083176" data-name="Trazado 1083176" d="M0,0H11.46V1.909H0Z" transform="matrix(0.981, -0.195, 0.195, 0.981, 47.225, 23.515)"/>
        <path id="Trazado_1083177" data-name="Trazado 1083177" d="M0,0H3.821V1.91H0Z" transform="translate(53.075 17.222) rotate(-22.514)"/>
        <path id="Trazado_1083178" data-name="Trazado 1083178" d="M0,0H5.73V1.91H0Z" transform="translate(46.016 20.153) rotate(-22.514)"/>
        <path id="Trazado_1083179" data-name="Trazado 1083179" d="M0,0H3.82V1.91H0Z" transform="translate(47.158 9.079) rotate(-45)"/>
        <path id="Trazado_1083180" data-name="Trazado 1083180" d="M0,0H5.731V1.91H0Z" transform="translate(41.755 14.481) rotate(-45)"/>
        <path id="Trazado_1083181" data-name="Trazado 1083181" d="M0,0H1.909V11.46H0Z" transform="matrix(0.195, -0.981, 0.981, 0.195, 47.219, 32.448)"/>
        <path id="Trazado_1083182" data-name="Trazado 1083182" d="M0,0H11.46V1.909H0Z" transform="matrix(0.832, -0.556, 0.556, 0.832, 44.192, 17.098)"/>
      </g>
    </g>
  </g>
</svg>
