<svg xmlns="http://www.w3.org/2000/svg" xmlns:xlink="http://www.w3.org/1999/xlink" width="93.934" height="93.934" viewBox="0 0 93.934 93.934">
  <defs>
    <filter id="Trazado_978624" x="0" y="0" width="93.934" height="93.934" filterUnits="userSpaceOnUse">
      <feOffset dy="3" input="SourceAlpha"/>
      <feGaussianBlur stdDeviation="3" result="blur"/>
      <feFlood flood-opacity="0.161"/>
      <feComposite operator="in" in2="blur"/>
      <feComposite in="SourceGraphic"/>
    </filter>
  </defs>
  <g id="Grupo_1212293" data-name="Grupo 1212293" transform="translate(-609 -4323)">
    <g id="Grupo_1211244" data-name="Grupo 1211244" transform="translate(0 2280.281)">
      <g id="Grupo_1208063" data-name="Grupo 1208063" transform="translate(412 612.719)">
        <g id="Grupo_1144123" data-name="Grupo 1144123" transform="translate(206 1436)">
          <g transform="matrix(1, 0, 0, 1, -9, -6)" filter="url(#Trazado_978624)">
            <g id="Trazado_978624-2" data-name="Trazado 978624" transform="translate(9 6)" fill="#fbf3fb">
              <path d="M 37.966796875 74.43359375 C 33.04315185546875 74.43359375 28.26757431030273 73.46962738037109 23.77274131774902 71.56847381591797 C 19.43047523498535 69.73184967041016 15.53040790557861 67.10224914550781 12.18087482452393 63.75271987915039 C 8.831341743469238 60.4031867980957 6.201741218566895 56.50312042236328 4.365118980407715 52.16086196899414 C 2.463963508605957 47.66601943969727 1.499996900558472 42.89044189453125 1.499996900558472 37.966796875 C 1.499996900558472 33.04315185546875 2.463963508605957 28.26757431030273 4.365118980407715 23.77274131774902 C 6.201741218566895 19.43047523498535 8.831341743469238 15.53040790557861 12.18087482452393 12.18087482452393 C 15.53040790557861 8.831341743469238 19.43047523498535 6.201741218566895 23.77274131774902 4.365118980407715 C 28.26757431030273 2.463963508605957 33.04315185546875 1.499996900558472 37.966796875 1.499996900558472 C 42.89044189453125 1.499996900558472 47.66601943969727 2.463963508605957 52.16086196899414 4.365118980407715 C 56.50312042236328 6.201741218566895 60.4031867980957 8.831341743469238 63.75271987915039 12.18087482452393 C 67.10224914550781 15.53040790557861 69.73184967041016 19.43047523498535 71.56847381591797 23.77274131774902 C 73.46962738037109 28.26757431030273 74.43359375 33.04315185546875 74.43359375 37.966796875 C 74.43359375 42.89044189453125 73.46962738037109 47.66601943969727 71.56847381591797 52.16086196899414 C 69.73184967041016 56.50313186645508 67.10224914550781 60.4031867980957 63.75271987915039 63.75271987915039 C 60.4031867980957 67.10224914550781 56.50313186645508 69.73184967041016 52.16086196899414 71.56847381591797 C 47.66601943969727 73.46962738037109 42.89044189453125 74.43359375 37.966796875 74.43359375 Z" stroke="none"/>
              <path d="M 37.966796875 3 C 33.2449836730957 3 28.66600799560547 3.924095153808594 24.35705947875977 5.746635437011719 C 20.19359588623047 7.507621765136719 16.45379638671875 10.02927398681641 13.24153518676758 13.24153518676758 C 10.02927398681641 16.45379638671875 7.507621765136719 20.19359588623047 5.746635437011719 24.35705947875977 C 3.924095153808594 28.66600799560547 3 33.2449836730957 3 37.966796875 C 3 42.6886100769043 3.924095153808594 47.26758575439453 5.746635437011719 51.57653427124023 C 7.507621765136719 55.73999786376953 10.02927398681641 59.47979736328125 13.24153518676758 62.69205856323242 C 16.45379638671875 65.90431976318359 20.19359588623047 68.42597198486328 24.35705947875977 70.18695831298828 C 28.66600799560547 72.00949859619141 33.2449836730957 72.93359375 37.966796875 72.93359375 C 42.6886100769043 72.93359375 47.26758575439453 72.00949859619141 51.57653427124023 70.18695831298828 C 55.73999786376953 68.42597198486328 59.47979736328125 65.90431976318359 62.69205856323242 62.69205856323242 C 65.90431976318359 59.47979736328125 68.42597198486328 55.73999786376953 70.18695831298828 51.57653427124023 C 72.00949859619141 47.26758575439453 72.93359375 42.6886100769043 72.93359375 37.966796875 C 72.93359375 33.2449836730957 72.00949859619141 28.66600799560547 70.18695831298828 24.35705947875977 C 68.42597198486328 20.19359588623047 65.90431976318359 16.45379638671875 62.69205856323242 13.24153518676758 C 59.47979736328125 10.02927398681641 55.73999786376953 7.507621765136719 51.57653427124023 5.746635437011719 C 47.26758575439453 3.924095153808594 42.6886100769043 3 37.966796875 3 M 37.966796875 0 C 58.93528366088867 0 75.93359375 16.99831008911133 75.93359375 37.966796875 C 75.93359375 58.93528366088867 58.93528366088867 75.93359375 37.966796875 75.93359375 C 16.99831008911133 75.93359375 0 58.93528366088867 0 37.966796875 C 0 16.99831008911133 16.99831008911133 0 37.966796875 0 Z" stroke="none" fill="#df93dd"/>
            </g>
          </g>
        </g>
      </g>
    </g>
    <g id="biologia" transform="translate(632 4346)">
      <path id="Trazado_1083183" data-name="Trazado 1083183" d="M200.77,321.469v8.663H188.239v-8.663h3.168v2.579a3.1,3.1,0,0,0,6.194,0v-2.579Zm0,0" transform="translate(-170.834 -291.745)" fill="#38627c"/>
      <path id="Trazado_1083184" data-name="Trazado 1083184" d="M52.452,37.519H8.5a1,1,0,0,1-1-1V8.5a1,1,0,0,1,1-1h43.95a1,1,0,0,1,1,1V36.517A1,1,0,0,1,52.452,37.519Zm0,0" transform="translate(-6.807 -6.807)" fill="#bddff4"/>
      <path id="Trazado_1083185" data-name="Trazado 1083185" d="M472.676,8.5V36.516a1,1,0,0,1-1,1h-2.24a1,1,0,0,0,1-1V8.5a1,1,0,0,0-1-1h2.24a1,1,0,0,1,1,1Zm0,0" transform="translate(-426.029 -6.807)" fill="#9cc6db"/>
      <path id="Trazado_1083186" data-name="Trazado 1083186" d="M53.454,287.43v3.134a1,1,0,0,1-1,1H8.5a1,1,0,0,1-1-1V287.43Zm0,0" transform="translate(-6.807 -260.854)" fill="#4e7693"/>
      <path id="Trazado_1083187" data-name="Trazado 1083187" d="M472.676,287.43v3.134a1,1,0,0,1-1,1h-2.24a1,1,0,0,0,1-1V287.43Zm0,0" transform="translate(-426.029 -260.854)" fill="#38627c"/>
      <path id="Trazado_1083188" data-name="Trazado 1083188" d="M311.685,49.73c-2.395,2.394-4.216,1.685-7.286.957-.727-3.069-1.436-4.891.958-7.285a9.4,9.4,0,0,1,8.621-2.547.33.33,0,0,1,.253.254A9.4,9.4,0,0,1,311.685,49.73Zm0,0" transform="translate(-275.625 -36.889)" fill="#5be167"/>
      <path id="Trazado_1083189" data-name="Trazado 1083189" d="M316.89,50.873c-2.395,2.394-4.216,1.685-7.285.957q-.083-.348-.164-.676c2.672.654,4.4,1.092,6.609-1.121a9.391,9.391,0,0,0,2.639-8.126c.165.026.331.057.5.092a.329.329,0,0,1,.253.253,9.4,9.4,0,0,1-2.547,8.621Zm0,0" transform="translate(-280.83 -38.032)" fill="#1fc974"/>
      <path id="Trazado_1083190" data-name="Trazado 1083190" d="M164.024,409.394H145.388a1,1,0,0,1-1-1v-.141a1,1,0,0,1,1-1h18.636a1,1,0,0,1,1,1v.141A1,1,0,0,1,164.024,409.394Zm0,0" transform="translate(-131.036 -369.594)" fill="#a7c7d3"/>
      <path id="Trazado_1083191" data-name="Trazado 1083191" d="M45.645,0H27.862a.693.693,0,0,0,0,1.387H45.645a.309.309,0,0,1,.309.308V25.883H1.387V19.722a.693.693,0,1,0-1.387,0V29.71a1.7,1.7,0,0,0,1.7,1.7H16.711v5.556H14.352a1.7,1.7,0,0,0-1.7,1.7V38.8a1.7,1.7,0,0,0,1.7,1.7H32.988a1.7,1.7,0,0,0,1.7-1.7v-.141a1.7,1.7,0,0,0-1.7-1.7H30.629V31.406h5.493a.693.693,0,1,0,0-1.387H1.7a.309.309,0,0,1-.308-.308V27.27H45.954v2.44a.309.309,0,0,1-.309.308h-6.5a.693.693,0,1,0,0,1.387h6.5a1.7,1.7,0,0,0,1.7-1.7V1.7a1.7,1.7,0,0,0-1.7-1.7ZM33.3,38.657V38.8a.309.309,0,0,1-.308.308H14.352a.309.309,0,0,1-.308-.308v-.141a.309.309,0,0,1,.308-.308H32.988A.309.309,0,0,1,33.3,38.657Zm-4.055-1.7H18.1V31.406H19.88v.9a3.791,3.791,0,0,0,7.581,0v-.9h1.781Zm-7.976-5.556h4.807v.9a2.4,2.4,0,0,1-4.807,0Zm0,0"/>
      <path id="Trazado_1083192" data-name="Trazado 1083192" d="M.694,17.4a.693.693,0,0,0,.693-.693V1.7A.309.309,0,0,1,1.7,1.387H24.842a.693.693,0,1,0,0-1.387H1.7A1.7,1.7,0,0,0,0,1.7V16.7a.693.693,0,0,0,.693.693Zm0,0" transform="translate(0 0)"/>
      <path id="Trazado_1083193" data-name="Trazado 1083193" d="M88.814,48.056a9.5,9.5,0,0,0,2.395-6.406.693.693,0,0,0-1.387,0c0,.191-.008.379-.019.566H78.012c-.012-.187-.019-.375-.019-.566a.693.693,0,0,0-1.387,0A9.5,9.5,0,0,0,79,48.056a20.606,20.606,0,0,0,3.705,3.229c-3.082,2.177-6.1,4.528-6.1,8.931a.693.693,0,1,0,1.387,0c0-.194.009-.381.022-.566H89.8c.013.185.022.372.022.566a.693.693,0,1,0,1.387,0c0-4.4-3.018-6.754-6.1-8.931a20.579,20.579,0,0,0,3.706-3.229Zm-1.045-.912a.694.694,0,0,0-.141-.014H80.186a.694.694,0,0,0-.141.014,9.408,9.408,0,0,1-.8-1.084h9.321a9.407,9.407,0,0,1-.8,1.084ZM86.4,48.516a30.663,30.663,0,0,1-2.492,1.923,30.656,30.656,0,0,1-2.492-1.923ZM89.6,43.6a7.839,7.839,0,0,1-.332,1.07H78.544a7.786,7.786,0,0,1-.332-1.07ZM80.547,54.737h6.722a10.611,10.611,0,0,1,1,1.07H79.552A10.564,10.564,0,0,1,80.547,54.737Zm1.672-1.387c.538-.4,1.106-.8,1.689-1.214.583.41,1.151.81,1.689,1.214Zm-3.964,4.913a6.489,6.489,0,0,1,.41-1.069H89.151a6.491,6.491,0,0,1,.41,1.069Zm0,0" transform="translate(-69.523 -37.17)"/>
      <path id="Trazado_1083194" data-name="Trazado 1083194" d="M290.348,45.845a.692.692,0,0,0,.493-.206l1-1.016.363.088a13.765,13.765,0,0,0,3.191.533,5.415,5.415,0,0,0,4.025-1.85,10.07,10.07,0,0,0,2.735-9.256,1.024,1.024,0,0,0-.787-.787,10.07,10.07,0,0,0-9.257,2.735c-2.476,2.476-1.964,4.567-1.316,7.216l.079.325-1.023,1.037a.694.694,0,0,0,.494,1.181Zm2.747-8.778a8.686,8.686,0,0,1,7.753-2.406,8.686,8.686,0,0,1-2.406,7.753c-1.81,1.81-3.17,1.611-5.462,1.058l1.807-1.831a7.568,7.568,0,0,0,2.442.382c.172,0,.281-.005.3-.007a.693.693,0,0,0-.076-1.385,7.239,7.239,0,0,1-1.552-.118l4.136-4.191a.693.693,0,1,0-.987-.974l-2.425,2.457a9.763,9.763,0,0,1-.583-1.126.693.693,0,0,0-1.271.555,11.042,11.042,0,0,0,.854,1.585l-3.6,3.646c-.541-2.255-.721-3.606,1.073-5.4Zm0,0" transform="translate(-262.872 -30.063)"/>
      <path id="Trazado_1083195" data-name="Trazado 1083195" d="M275.923,190.2h13.761a.693.693,0,1,0,0-1.387H275.923a.693.693,0,1,0,0,1.387Zm0,0" transform="translate(-249.782 -171.358)"/>
      <path id="Trazado_1083196" data-name="Trazado 1083196" d="M290.379,214.275a.693.693,0,0,0-.693-.693H275.924a.693.693,0,1,0,0,1.387h13.761A.694.694,0,0,0,290.379,214.275Zm0,0" transform="translate(-249.783 -193.834)"/>
      <path id="Trazado_1083197" data-name="Trazado 1083197" d="M275.923,238.348a.693.693,0,1,0,0,1.387h4.142a.693.693,0,1,0,0-1.387Zm0,0" transform="translate(-249.782 -216.31)"/>
    </g>
  </g>
</svg>
