<svg xmlns="http://www.w3.org/2000/svg" xmlns:xlink="http://www.w3.org/1999/xlink" width="93.934" height="93.934" viewBox="0 0 93.934 93.934">
  <defs>
    <filter id="Trazado_978624" x="0" y="0" width="93.934" height="93.934" filterUnits="userSpaceOnUse">
      <feOffset dy="3" input="SourceAlpha"/>
      <feGaussianBlur stdDeviation="3" result="blur"/>
      <feFlood flood-opacity="0.161"/>
      <feComposite operator="in" in2="blur"/>
      <feComposite in="SourceGraphic"/>
    </filter>
  </defs>
  <g id="Grupo_1212300" data-name="Grupo 1212300" transform="translate(-609 -4461.533)">
    <g id="Grupo_1211245" data-name="Grupo 1211245" transform="translate(0 2279.814)">
      <g id="Grupo_1208062" data-name="Grupo 1208062" transform="translate(412 751.719)">
        <g id="Grupo_1144123" data-name="Grupo 1144123" transform="translate(206 1436)">
          <g transform="matrix(1, 0, 0, 1, -9, -6)" filter="url(#Trazado_978624)">
            <g id="Trazado_978624-2" data-name="Trazado 978624" transform="translate(9 6)" fill="#fbf3fb">
              <path d="M 37.966796875 74.43359375 C 33.04315185546875 74.43359375 28.26757431030273 73.46962738037109 23.77274131774902 71.56847381591797 C 19.43047523498535 69.73184967041016 15.53040790557861 67.10224914550781 12.18087482452393 63.75271987915039 C 8.831341743469238 60.4031867980957 6.201741218566895 56.50312042236328 4.365118980407715 52.16086196899414 C 2.463963508605957 47.66601943969727 1.499996900558472 42.89044189453125 1.499996900558472 37.966796875 C 1.499996900558472 33.04315185546875 2.463963508605957 28.26757431030273 4.365118980407715 23.77274131774902 C 6.201741218566895 19.43047523498535 8.831341743469238 15.53040790557861 12.18087482452393 12.18087482452393 C 15.53040790557861 8.831341743469238 19.43047523498535 6.201741218566895 23.77274131774902 4.365118980407715 C 28.26757431030273 2.463963508605957 33.04315185546875 1.499996900558472 37.966796875 1.499996900558472 C 42.89044189453125 1.499996900558472 47.66601943969727 2.463963508605957 52.16086196899414 4.365118980407715 C 56.50312042236328 6.201741218566895 60.4031867980957 8.831341743469238 63.75271987915039 12.18087482452393 C 67.10224914550781 15.53040790557861 69.73184967041016 19.43047523498535 71.56847381591797 23.77274131774902 C 73.46962738037109 28.26757431030273 74.43359375 33.04315185546875 74.43359375 37.966796875 C 74.43359375 42.89044189453125 73.46962738037109 47.66601943969727 71.56847381591797 52.16086196899414 C 69.73184967041016 56.50313186645508 67.10224914550781 60.4031867980957 63.75271987915039 63.75271987915039 C 60.4031867980957 67.10224914550781 56.50313186645508 69.73184967041016 52.16086196899414 71.56847381591797 C 47.66601943969727 73.46962738037109 42.89044189453125 74.43359375 37.966796875 74.43359375 Z" stroke="none"/>
              <path d="M 37.966796875 3 C 33.2449836730957 3 28.66600799560547 3.924095153808594 24.35705947875977 5.746635437011719 C 20.19359588623047 7.507621765136719 16.45379638671875 10.02927398681641 13.24153518676758 13.24153518676758 C 10.02927398681641 16.45379638671875 7.507621765136719 20.19359588623047 5.746635437011719 24.35705947875977 C 3.924095153808594 28.66600799560547 3 33.2449836730957 3 37.966796875 C 3 42.6886100769043 3.924095153808594 47.26758575439453 5.746635437011719 51.57653427124023 C 7.507621765136719 55.73999786376953 10.02927398681641 59.47979736328125 13.24153518676758 62.69205856323242 C 16.45379638671875 65.90431976318359 20.19359588623047 68.42597198486328 24.35705947875977 70.18695831298828 C 28.66600799560547 72.00949859619141 33.2449836730957 72.93359375 37.966796875 72.93359375 C 42.6886100769043 72.93359375 47.26758575439453 72.00949859619141 51.57653427124023 70.18695831298828 C 55.73999786376953 68.42597198486328 59.47979736328125 65.90431976318359 62.69205856323242 62.69205856323242 C 65.90431976318359 59.47979736328125 68.42597198486328 55.73999786376953 70.18695831298828 51.57653427124023 C 72.00949859619141 47.26758575439453 72.93359375 42.6886100769043 72.93359375 37.966796875 C 72.93359375 33.2449836730957 72.00949859619141 28.66600799560547 70.18695831298828 24.35705947875977 C 68.42597198486328 20.19359588623047 65.90431976318359 16.45379638671875 62.69205856323242 13.24153518676758 C 59.47979736328125 10.02927398681641 55.73999786376953 7.507621765136719 51.57653427124023 5.746635437011719 C 47.26758575439453 3.924095153808594 42.6886100769043 3 37.966796875 3 M 37.966796875 0 C 58.93528366088867 0 75.93359375 16.99831008911133 75.93359375 37.966796875 C 75.93359375 58.93528366088867 58.93528366088867 75.93359375 37.966796875 75.93359375 C 16.99831008911133 75.93359375 0 58.93528366088867 0 37.966796875 C 0 16.99831008911133 16.99831008911133 0 37.966796875 0 Z" stroke="none" fill="#df93dd"/>
            </g>
          </g>
        </g>
      </g>
    </g>
    <g id="digital" transform="translate(624.542 4469.653)">
      <g id="Grupo_1212299" data-name="Grupo 1212299" transform="translate(9.62 14.483)">
        <g id="Grupo_1212295" data-name="Grupo 1212295" transform="translate(0 0)">
          <g id="Grupo_1212294" data-name="Grupo 1212294">
            <path id="Trazado_1083198" data-name="Trazado 1083198" d="M188.318,361.108H173.289c1.2-1.7,2.194-6.071,1.763-9.445h11.4C186.019,355.037,187.119,359.411,188.318,361.108Z" transform="translate(-158.999 -321.608)" fill="#a9b0bb" fill-rule="evenodd"/>
            <path id="Trazado_1083199" data-name="Trazado 1083199" d="M124.739,449.2h20.386a1.906,1.906,0,1,1,0,3.811H124.739a1.906,1.906,0,0,1,0-3.811Z" transform="translate(-113.127 -410.283)" fill="#cad0d7" fill-rule="evenodd"/>
            <path id="Trazado_1083200" data-name="Trazado 1083200" d="M57.309,20.85a2.3,2.3,0,0,1,2.3,2.3V49.013a3.131,3.131,0,0,1-3.131,3.131H19.131A3.131,3.131,0,0,1,16,49.013V23.981a3.131,3.131,0,0,1,3.131-3.131Z" transform="translate(-16 -20.85)" fill="#a9b0bb" fill-rule="evenodd"/>
            <path id="Trazado_1083201" data-name="Trazado 1083201" d="M36,62.282H75.974V41.332a.482.482,0,0,0-.483-.483H37.313A1.313,1.313,0,0,0,36,42.163Q36,52.222,36,62.282Z" transform="translate(-34.182 -39.032)" fill="#a4d4ff" fill-rule="evenodd"/>
            <path id="Trazado_1083202" data-name="Trazado 1083202" d="M59.609,296.758v3.1a3.131,3.131,0,0,1-3.131,3.131H19.131A3.131,3.131,0,0,1,16,299.855v-3.1Z" transform="translate(-16 -271.691)" fill="#cad0d7" fill-rule="evenodd"/>
          </g>
        </g>
        <g id="Grupo_1212298" data-name="Grupo 1212298" transform="translate(3.139 3.925)">
          <g id="Grupo_1212296" data-name="Grupo 1212296">
            <path id="Trazado_1083203" data-name="Trazado 1083203" d="M78.733,66.623a1.287,1.287,0,1,0-1.287-1.287A1.289,1.289,0,0,0,78.733,66.623Z" transform="translate(-75.003 -64.049)" fill="#fdcd56" fill-rule="evenodd"/>
            <path id="Trazado_1083204" data-name="Trazado 1083204" d="M51.841,180.736a1.287,1.287,0,1,0-1.287-1.287A1.289,1.289,0,0,0,51.841,180.736Z" transform="translate(-50.554 -167.795)" fill="#fdcd56" fill-rule="evenodd"/>
          </g>
          <g id="Grupo_1212297" data-name="Grupo 1212297" transform="translate(0.617 1.997)">
            <path id="Trazado_1083205" data-name="Trazado 1083205" d="M0,0H3.684V1.909H0Z" transform="translate(5.604 15.846) rotate(-45)" fill="#636c77" fill-rule="evenodd"/>
            <circle id="Elipse_14286" data-name="Elipse 14286" cx="6.83" cy="6.83" r="6.83" transform="translate(3.487 9.657) rotate(-45)" fill="#a9b0bb"/>
            <circle id="Elipse_14287" data-name="Elipse 14287" cx="5.088" cy="5.088" r="5.088" transform="matrix(0.987, -0.16, 0.16, 0.987, 7.307, 5.451)" fill="#c7e0ec"/>
            <path id="Trazado_1083206" data-name="Trazado 1083206" d="M64.613,255.552l-1.031-1.031a.878.878,0,0,0-1.239,0L57.6,259.26a.878.878,0,0,0,0,1.239l1.031,1.031a.878.878,0,0,0,1.239,0l4.739-4.739A.879.879,0,0,0,64.613,255.552Z" transform="translate(-57.348 -238.981)" fill="#937661" fill-rule="evenodd"/>
          </g>
        </g>
      </g>
      <path id="Trazado_1083207" data-name="Trazado 1083207" d="M26.523,26.057a4.006,4.006,0,1,1-4.006,4.006A4.009,4.009,0,0,1,26.523,26.057Zm0,9.283a5.278,5.278,0,1,0-5.275-5.278A5.285,5.285,0,0,0,26.523,35.34Zm7.4-9.086a.635.635,0,0,1-.637-.636v-.871A1.469,1.469,0,0,0,31.842,23.3a.636.636,0,1,1,0-1.272,2.757,2.757,0,0,1,2.719,2.723v.871A.634.634,0,0,1,33.928,26.254Zm2.334-4.679a5.4,5.4,0,0,1,1.026,3.172v1.081a.635.635,0,1,1-1.27,0V24.746a4.115,4.115,0,0,0-.791-2.427.637.637,0,0,1,1.035-.744Zm1.026,6.339v.908a.635.635,0,1,1-1.27,0v-.908a.635.635,0,1,1,1.27,0Zm-6.613-7.176a.636.636,0,1,1-.359-1.22,5.433,5.433,0,0,1,4.177.477.636.636,0,1,1-.624,1.108A4.151,4.151,0,0,0,30.675,20.738Zm-1.526-.022a.632.632,0,0,1-.056.9,4.3,4.3,0,0,0-.436.442.634.634,0,0,1-.893.074.636.636,0,0,1-.077-.9,5.918,5.918,0,0,1,.564-.574A.637.637,0,0,1,29.148,20.716Zm5.305,11.353a4.26,4.26,0,0,0,1.218-1.593.635.635,0,0,1,1.163.51,5.532,5.532,0,0,1-1.582,2.073.64.64,0,0,1-.9-.1.638.638,0,0,1,.1-.894ZM24.472,21.216a.64.64,0,0,0,.3.849.626.626,0,0,0,.274.064.634.634,0,0,0,.573-.36,6.956,6.956,0,0,1,2.787-3,.636.636,0,0,0-.637-1.1A8.23,8.23,0,0,0,24.472,21.216Zm5.113-3.688a.634.634,0,0,1,.483-.76,8.15,8.15,0,0,1,1.774-.195.636.636,0,0,1,0,1.272,6.822,6.822,0,0,0-1.5.164.66.66,0,0,1-.141.015.635.635,0,0,1-.62-.5Zm4.053-.129a.64.64,0,0,0,.4.807,6.939,6.939,0,0,1,4.437,4.635.636.636,0,0,0,.611.459.66.66,0,0,0,.175-.025.637.637,0,0,0,.436-.788A8.212,8.212,0,0,0,34.445,17a.639.639,0,0,0-.808.4Zm5.741,6.712a.637.637,0,0,1,.637.636v1.581a.637.637,0,0,1-1.274,0V24.746a.637.637,0,0,1,.637-.636Zm-2.351,10.2a.634.634,0,0,1-.1.894,8.152,8.152,0,0,1-3.937,1.707.71.71,0,0,1-.09.006.636.636,0,0,1-.09-1.265,6.882,6.882,0,0,0,3.322-1.442A.634.634,0,0,1,37.027,34.312Zm2.988-5.491a8.125,8.125,0,0,1-1.462,4.65.634.634,0,0,1-.526.273.623.623,0,0,1-.359-.114.638.638,0,0,1-.162-.885,6.833,6.833,0,0,0,1.235-3.925.637.637,0,0,1,1.274,0ZM33.783,42.663a.637.637,0,0,1-.637.636H29.7a.636.636,0,1,1,0-1.272h3.441A.638.638,0,0,1,33.783,42.663ZM50.1,45.142a2.5,2.5,0,0,0,2.492-2.495V40.186H19.572L16.353,43.4a1.512,1.512,0,0,1-2.138,0l-1.035-1.031a1.512,1.512,0,0,1,0-2.138l.051-.049H10.257v2.461a2.5,2.5,0,0,0,2.492,2.495ZM37.592,52.763H25.245a19.082,19.082,0,0,0,1.167-6.349h9.931a18.822,18.822,0,0,0,1.248,6.349Zm5.3,2.542a1.27,1.27,0,0,1-1.27,1.27H21.231a1.27,1.27,0,0,1,0-2.54H41.619A1.271,1.271,0,0,1,42.888,55.305ZM14.7,30.062a.652.652,0,1,1-.654-.651A.655.655,0,0,1,14.7,30.062Zm1.791-9.717a.651.651,0,1,1,.65-.651A.65.65,0,0,1,16.49,20.345Zm4.989,15.213-.68.678-.449-.451.68-.678C21.171,35.264,21.321,35.415,21.479,35.559Zm5.045-11.69a6.193,6.193,0,1,0,6.195,6.193,6.2,6.2,0,0,0-6.195-6.193ZM14.083,41.134l4.737-4.74a.251.251,0,0,1,.171-.069.243.243,0,0,1,.171.069l1.03,1.031a.245.245,0,0,1,0,.34L15.451,42.5a.241.241,0,0,1-.338,0l-1.03-1.031A.239.239,0,0,1,14.083,41.134ZM12.749,15.119a2.5,2.5,0,0,0-2.492,2.495v21.3H14.5l3.42-3.419a1.51,1.51,0,0,1,1.338-.417l.983-.986A7.372,7.372,0,0,1,19.089,30.7H15.857a1.922,1.922,0,1,1,0-1.272h3.232a7.385,7.385,0,0,1,1.141-3.37H16.49a.637.637,0,0,1-.637-.636V21.507a1.924,1.924,0,1,1,1.274,0v3.277h4.121a7.465,7.465,0,1,1,1.244,11.557l-.983.986a1.394,1.394,0,0,1,.026.268,1.5,1.5,0,0,1-.445,1.069l-.248.249H52.593V16.783a1.664,1.664,0,0,0-1.663-1.664H12.749Zm38.18-1.272H12.749a3.773,3.773,0,0,0-3.766,3.767V42.647a3.773,3.773,0,0,0,3.766,3.767H25.138a17.174,17.174,0,0,1-1.274,6.349H21.231a2.542,2.542,0,0,0,0,5.084H41.619a2.542,2.542,0,0,0,0-5.084H38.981a17.07,17.07,0,0,1-1.368-6.349H50.1a3.773,3.773,0,0,0,3.766-3.767V16.783a2.939,2.939,0,0,0-2.937-2.936Z" fill-rule="evenodd"/>
    </g>
  </g>
</svg>
