<svg xmlns="http://www.w3.org/2000/svg" xmlns:xlink="http://www.w3.org/1999/xlink" width="93.934" height="93.934" viewBox="0 0 93.934 93.934">
  <defs>
    <filter id="Trazado_978624" x="0" y="0" width="93.934" height="93.934" filterUnits="userSpaceOnUse">
      <feOffset dy="3" input="SourceAlpha"/>
      <feGaussianBlur stdDeviation="3" result="blur"/>
      <feFlood flood-opacity="0.161"/>
      <feComposite operator="in" in2="blur"/>
      <feComposite in="SourceGraphic"/>
    </filter>
  </defs>
  <g id="Grupo_1212323" data-name="Grupo 1212323" transform="translate(-189 -4690.033)">
    <g id="Grupo_1211239" data-name="Grupo 1211239" transform="translate(-2 -555.555)">
      <g id="Grupo_1208071" data-name="Grupo 1208071" transform="translate(-6 3815.588)">
        <g id="Grupo_1144123" data-name="Grupo 1144123" transform="translate(206 1436)">
          <g transform="matrix(1, 0, 0, 1, -9, -6)" filter="url(#Trazado_978624)">
            <g id="Trazado_978624-2" data-name="Trazado 978624" transform="translate(9 6)" fill="#f0fbfa">
              <path d="M 37.966796875 74.43359375 C 33.04315185546875 74.43359375 28.26757431030273 73.46962738037109 23.77274131774902 71.56847381591797 C 19.43047523498535 69.73184967041016 15.53040790557861 67.10224914550781 12.18087482452393 63.75271987915039 C 8.831341743469238 60.4031867980957 6.201741218566895 56.50312042236328 4.365118980407715 52.16086196899414 C 2.463963508605957 47.66601943969727 1.499996900558472 42.89044189453125 1.499996900558472 37.966796875 C 1.499996900558472 33.04315185546875 2.463963508605957 28.26757431030273 4.365118980407715 23.77274131774902 C 6.201741218566895 19.43047523498535 8.831341743469238 15.53040790557861 12.18087482452393 12.18087482452393 C 15.53040790557861 8.831341743469238 19.43047523498535 6.201741218566895 23.77274131774902 4.365118980407715 C 28.26757431030273 2.463963508605957 33.04315185546875 1.499996900558472 37.966796875 1.499996900558472 C 42.89044189453125 1.499996900558472 47.66601943969727 2.463963508605957 52.16086196899414 4.365118980407715 C 56.50312042236328 6.201741218566895 60.4031867980957 8.831341743469238 63.75271987915039 12.18087482452393 C 67.10224914550781 15.53040790557861 69.73184967041016 19.43047523498535 71.56847381591797 23.77274131774902 C 73.46962738037109 28.26757431030273 74.43359375 33.04315185546875 74.43359375 37.966796875 C 74.43359375 42.89044189453125 73.46962738037109 47.66601943969727 71.56847381591797 52.16086196899414 C 69.73184967041016 56.50313186645508 67.10224914550781 60.4031867980957 63.75271987915039 63.75271987915039 C 60.4031867980957 67.10224914550781 56.50313186645508 69.73184967041016 52.16086196899414 71.56847381591797 C 47.66601943969727 73.46962738037109 42.89044189453125 74.43359375 37.966796875 74.43359375 Z" stroke="none"/>
              <path d="M 37.966796875 3 C 33.2449836730957 3 28.66600799560547 3.924095153808594 24.35705947875977 5.746635437011719 C 20.19359588623047 7.507621765136719 16.45379638671875 10.02927398681641 13.24153518676758 13.24153518676758 C 10.02927398681641 16.45379638671875 7.507621765136719 20.19359588623047 5.746635437011719 24.35705947875977 C 3.924095153808594 28.66600799560547 3 33.2449836730957 3 37.966796875 C 3 42.6886100769043 3.924095153808594 47.26758575439453 5.746635437011719 51.57653427124023 C 7.507621765136719 55.73999786376953 10.02927398681641 59.47979736328125 13.24153518676758 62.69205856323242 C 16.45379638671875 65.90431976318359 20.19359588623047 68.42597198486328 24.35705947875977 70.18695831298828 C 28.66600799560547 72.00949859619141 33.2449836730957 72.93359375 37.966796875 72.93359375 C 42.6886100769043 72.93359375 47.26758575439453 72.00949859619141 51.57653427124023 70.18695831298828 C 55.73999786376953 68.42597198486328 59.47979736328125 65.90431976318359 62.69205856323242 62.69205856323242 C 65.90431976318359 59.47979736328125 68.42597198486328 55.73999786376953 70.18695831298828 51.57653427124023 C 72.00949859619141 47.26758575439453 72.93359375 42.6886100769043 72.93359375 37.966796875 C 72.93359375 33.2449836730957 72.00949859619141 28.66600799560547 70.18695831298828 24.35705947875977 C 68.42597198486328 20.19359588623047 65.90431976318359 16.45379638671875 62.69205856323242 13.24153518676758 C 59.47979736328125 10.02927398681641 55.73999786376953 7.507621765136719 51.57653427124023 5.746635437011719 C 47.26758575439453 3.924095153808594 42.6886100769043 3 37.966796875 3 M 37.966796875 0 C 58.93528366088867 0 75.93359375 16.99831008911133 75.93359375 37.966796875 C 75.93359375 58.93528366088867 58.93528366088867 75.93359375 37.966796875 75.93359375 C 16.99831008911133 75.93359375 0 58.93528366088867 0 37.966796875 C 0 16.99831008911133 16.99831008911133 0 37.966796875 0 Z" stroke="none" fill="#3f7776"/>
            </g>
          </g>
        </g>
      </g>
    </g>
    <g id="planta" transform="translate(164.56 4709.187)">
      <path id="Trazado_1083208" data-name="Trazado 1083208" d="M51.21,459.154c0-.043,7.964-6.8,26.745-6.8,18.243,0,26.745,6.76,26.745,6.8Z" transform="translate(-6.522 -393.336)" fill="#f6cc90"/>
      <path id="Trazado_1083209" data-name="Trazado 1083209" d="M233.743,452.351q-1.748,0-3.371.075c15.982.738,23.463,6.688,23.463,6.729h6.654C260.488,459.111,251.986,452.351,233.743,452.351Z" transform="translate(-162.309 -393.337)" fill="#f0c17f"/>
      <path id="Trazado_1083210" data-name="Trazado 1083210" d="M279.73,18.464a11.318,11.318,0,0,1-8.04,7.4,11.729,11.729,0,0,1-1.766-10.8,11.439,11.439,0,0,1,8.1-7.562A11.669,11.669,0,0,1,279.73,18.464Z" transform="translate(-196.151 -6.523)" fill="#c5e866"/>
      <path id="Trazado_1083211" data-name="Trazado 1083211" d="M287.8,7.5a10.458,10.458,0,0,0-3.359,1.446,11.682,11.682,0,0,1,.763,9.518,11.248,11.248,0,0,1-4.666,5.96,9.524,9.524,0,0,0,.931,1.438,11.317,11.317,0,0,0,8.04-7.4A11.668,11.668,0,0,0,287.8,7.5Z" transform="translate(-205.933 -6.523)" fill="#b2d94b"/>
      <path id="Trazado_1083212" data-name="Trazado 1083212" d="M260.812,172.882a16.674,16.674,0,0,1-6.207-.222,18.192,18.192,0,0,1,4.837-16.269,17.69,17.69,0,0,1,16.407-5.042,18.065,18.065,0,0,1-3.227,14.382" transform="translate(-183.08 -131.266)" fill="#9cc042"/>
      <path id="Trazado_1083213" data-name="Trazado 1083213" d="M288.246,151.351a16.236,16.236,0,0,0-5.736-.259,11.1,11.1,0,0,1,1.43.259,18.066,18.066,0,0,1-3.227,14.382L268.9,172.885c-.131.019-.26.035-.388.05a18.012,18.012,0,0,0,4.693-.05l11.811-7.151A18.066,18.066,0,0,0,288.246,151.351Z" transform="translate(-195.476 -131.268)" fill="#85aa18"/>
      <path id="Trazado_1083214" data-name="Trazado 1083214" d="M103.165,261.681a13.775,13.775,0,0,1,5.263,12.169A14.1,14.1,0,0,1,95.4,271.6a13.922,13.922,0,0,1-5.427-12.3,14.027,14.027,0,0,1,13.2,2.379Z" transform="translate(-40.165 -224.855)" fill="#c5e866"/>
      <path id="Trazado_1083215" data-name="Trazado 1083215" d="M109.435,89.736a17.512,17.512,0,0,0,15.532,6.74,18.2,18.2,0,0,0-2.887-16.728,17.7,17.7,0,0,0-15.7-6.952A18.1,18.1,0,0,0,109.435,89.736Z" transform="translate(-53.711 -63.224)" fill="#9cc042"/>
      <path id="Trazado_1083216" data-name="Trazado 1083216" d="M310.018,275.929a11.279,11.279,0,0,1-10.847,1.179,11.717,11.717,0,0,1,4.959-9.749,11.4,11.4,0,0,1,10.989-1.277A11.656,11.656,0,0,1,310.018,275.929Z" transform="translate(-222.127 -230.622)" fill="#c5e866"/>
      <path id="Trazado_1083217" data-name="Trazado 1083217" d="M329.909,266.084a11.176,11.176,0,0,0-6.468-.654,9.4,9.4,0,0,1,2.163.654,11.657,11.657,0,0,1-5.1,9.847,11.4,11.4,0,0,1-4.328,1.85,11.23,11.23,0,0,0,8.634-1.85A11.656,11.656,0,0,0,329.909,266.084Z" transform="translate(-236.917 -230.625)" fill="#b2d94b"/>
      <path id="Trazado_1083218" data-name="Trazado 1083218" d="M98.342,64.713A29.148,29.148,0,0,0,92,61.487,56.847,56.847,0,0,0,72.26,58.041,19.884,19.884,0,0,1,76.9,47.492a12.212,12.212,0,0,0,11.543-1.381,12.558,12.558,0,0,0,5.52-10.726.978.978,0,0,0-.547-.806,10.2,10.2,0,0,0-2.273-.715,18.731,18.731,0,0,0,2.383-5.541.979.979,0,0,0-1.9-.475,16.817,16.817,0,0,1-2.681,5.768,12.487,12.487,0,0,0-7.5,2.314,12.162,12.162,0,0,0-4.091,4.747,17.071,17.071,0,0,1-4.193.015c1.988-2.682,7.17-9.181,13-12.575a.979.979,0,0,0-.984-1.691c-5.677,3.3-10.619,9.183-13,12.305A17.164,17.164,0,0,1,87.394,20.768a16.407,16.407,0,0,1,4.544.138,15.976,15.976,0,0,1,.212,2.37.979.979,0,0,0,1.957-.034,15.7,15.7,0,0,0-.391-3.407.979.979,0,0,0-.685-.695,16.971,16.971,0,0,0-5.754-.328A18.94,18.94,0,0,0,75.67,24.434c-.34.341-.658.687-.958,1.035.55-1.692,1.15-3.522,1.763-5.363A12.264,12.264,0,0,0,84.5,12.26,12.57,12.57,0,0,0,82.613.34a.978.978,0,0,0-.921-.326A12.342,12.342,0,0,0,72.848,8.22a12.623,12.623,0,0,0,1.708,11.445c-.571,1.714-1.128,3.413-1.642,5a18.45,18.45,0,0,0-3.775-8.742A18.955,18.955,0,0,0,58.276,8.961a16.958,16.958,0,0,0-5.753-.356.979.979,0,0,0-.763.609,16.675,16.675,0,0,0-.9,4.305.979.979,0,0,0,1.95.168,16.555,16.555,0,0,1,.587-3.2,16.415,16.415,0,0,1,4.528.4A16.839,16.839,0,0,1,67.6,17.128,16.461,16.461,0,0,1,71.169,27.77a18.38,18.38,0,0,1-.344,3.293,62.327,62.327,0,0,0-9.592-12.989.979.979,0,0,0-1.386,1.381,61.293,61.293,0,0,1,9.45,12.9,17.088,17.088,0,0,1-3.281-.4,16.337,16.337,0,0,1-9.522-6.053,17.252,17.252,0,0,1-3.408-7.279.979.979,0,0,0-1.918.387,19.189,19.189,0,0,0,3.787,8.1,18.61,18.61,0,0,0,15.247,7.2V50.791c-.3-.637-.614-1.239-.95-1.81a14.677,14.677,0,0,0-5.645-12.923,14.9,14.9,0,0,0-14.163-2.52.978.978,0,0,0-.606.763,14.8,14.8,0,0,0,5.789,13.214,14.539,14.539,0,0,0,9.148,3.175,15.624,15.624,0,0,0,3.939-.5,18.836,18.836,0,0,1,2.41,7.86,62.557,62.557,0,0,0-14.059,1.734.979.979,0,0,0,.475,1.9A60.639,60.639,0,0,1,70.2,60v2.249a.979.979,0,0,0,1.957,0V60c11.54.115,18.916,2.94,22.584,4.841H48.02a32.17,32.17,0,0,1,3.67-1.65.979.979,0,0,0-.7-1.829,31.757,31.757,0,0,0-5.2,2.493c-2.085,1.27-2.085,1.577-2.085,1.964a.978.978,0,0,0,.978.978H98.179C99.666,66.8,99.081,65.234,98.342,64.713ZM82.559,37.541a10.449,10.449,0,0,1,9.46-1.419,10.656,10.656,0,0,1-4.684,8.38,10.266,10.266,0,0,1-8.944,1.445,24.021,24.021,0,0,1,7.028-4.483.979.979,0,0,0-.771-1.8,26.58,26.58,0,0,0-6.222,3.689A10.337,10.337,0,0,1,82.559,37.541Zm-7.381,5.234c.438,0,.905-.016,1.4-.051a13.271,13.271,0,0,0-.491,2.792,21.7,21.7,0,0,0-3.924,5.794V42.526A17.945,17.945,0,0,0,75.178,42.775ZM74.7,8.858a10.494,10.494,0,0,1,6.78-6.77,10.675,10.675,0,0,1,1.176,9.534A10.29,10.29,0,0,1,77.283,17.7c1.271-3.755,2.526-7.313,3.437-9.547a.979.979,0,0,0-1.812-.739c-.95,2.33-2.245,6-3.544,9.844a10.51,10.51,0,0,1-.666-8.4ZM55.837,45.978a13,13,0,0,1-4.788-7.44,12.858,12.858,0,0,1-.323-3.36,13.144,13.144,0,0,1,11.669,2.417,12.609,12.609,0,0,1,4.643,7.322c.1.428.163.836.211,1.217A22.9,22.9,0,0,0,65.3,44.057a23.657,23.657,0,0,0-6.868-4.549.979.979,0,0,0-.71,1.824,21.932,21.932,0,0,1,6.239,4.152,21.044,21.044,0,0,1,2.621,2.955,13.013,13.013,0,0,1-10.741-2.461Z" transform="translate(0 0)" fill="#060606"/>
    </g>
  </g>
</svg>
