<svg xmlns="http://www.w3.org/2000/svg" xmlns:xlink="http://www.w3.org/1999/xlink" width="93.934" height="93.934" viewBox="0 0 93.934 93.934">
  <defs>
    <filter id="Trazado_978624" x="0" y="0" width="93.934" height="93.934" filterUnits="userSpaceOnUse">
      <feOffset dy="3" input="SourceAlpha"/>
      <feGaussianBlur stdDeviation="3" result="blur"/>
      <feFlood flood-opacity="0.161"/>
      <feComposite operator="in" in2="blur"/>
      <feComposite in="SourceGraphic"/>
    </filter>
  </defs>
  <g id="Grupo_1212305" data-name="Grupo 1212305" transform="translate(-609 -4690.033)">
    <g id="Grupo_1211240" data-name="Grupo 1211240" transform="translate(-1 -555.555)">
      <g id="Grupo_1208072" data-name="Grupo 1208072" transform="translate(413 3815.588)">
        <g id="Grupo_1144123" data-name="Grupo 1144123" transform="translate(206 1436)">
          <g transform="matrix(1, 0, 0, 1, -9, -6)" filter="url(#Trazado_978624)">
            <g id="Trazado_978624-2" data-name="Trazado 978624" transform="translate(9 6)" fill="#f0fbfa">
              <path d="M 37.966796875 74.43359375 C 33.04315185546875 74.43359375 28.26757431030273 73.46962738037109 23.77274131774902 71.56847381591797 C 19.43047523498535 69.73184967041016 15.53040790557861 67.10224914550781 12.18087482452393 63.75271987915039 C 8.831341743469238 60.4031867980957 6.201741218566895 56.50312042236328 4.365118980407715 52.16086196899414 C 2.463963508605957 47.66601943969727 1.499996900558472 42.89044189453125 1.499996900558472 37.966796875 C 1.499996900558472 33.04315185546875 2.463963508605957 28.26757431030273 4.365118980407715 23.77274131774902 C 6.201741218566895 19.43047523498535 8.831341743469238 15.53040790557861 12.18087482452393 12.18087482452393 C 15.53040790557861 8.831341743469238 19.43047523498535 6.201741218566895 23.77274131774902 4.365118980407715 C 28.26757431030273 2.463963508605957 33.04315185546875 1.499996900558472 37.966796875 1.499996900558472 C 42.89044189453125 1.499996900558472 47.66601943969727 2.463963508605957 52.16086196899414 4.365118980407715 C 56.50312042236328 6.201741218566895 60.4031867980957 8.831341743469238 63.75271987915039 12.18087482452393 C 67.10224914550781 15.53040790557861 69.73184967041016 19.43047523498535 71.56847381591797 23.77274131774902 C 73.46962738037109 28.26757431030273 74.43359375 33.04315185546875 74.43359375 37.966796875 C 74.43359375 42.89044189453125 73.46962738037109 47.66601943969727 71.56847381591797 52.16086196899414 C 69.73184967041016 56.50313186645508 67.10224914550781 60.4031867980957 63.75271987915039 63.75271987915039 C 60.4031867980957 67.10224914550781 56.50313186645508 69.73184967041016 52.16086196899414 71.56847381591797 C 47.66601943969727 73.46962738037109 42.89044189453125 74.43359375 37.966796875 74.43359375 Z" stroke="none"/>
              <path d="M 37.966796875 3 C 33.2449836730957 3 28.66600799560547 3.924095153808594 24.35705947875977 5.746635437011719 C 20.19359588623047 7.507621765136719 16.45379638671875 10.02927398681641 13.24153518676758 13.24153518676758 C 10.02927398681641 16.45379638671875 7.507621765136719 20.19359588623047 5.746635437011719 24.35705947875977 C 3.924095153808594 28.66600799560547 3 33.2449836730957 3 37.966796875 C 3 42.6886100769043 3.924095153808594 47.26758575439453 5.746635437011719 51.57653427124023 C 7.507621765136719 55.73999786376953 10.02927398681641 59.47979736328125 13.24153518676758 62.69205856323242 C 16.45379638671875 65.90431976318359 20.19359588623047 68.42597198486328 24.35705947875977 70.18695831298828 C 28.66600799560547 72.00949859619141 33.2449836730957 72.93359375 37.966796875 72.93359375 C 42.6886100769043 72.93359375 47.26758575439453 72.00949859619141 51.57653427124023 70.18695831298828 C 55.73999786376953 68.42597198486328 59.47979736328125 65.90431976318359 62.69205856323242 62.69205856323242 C 65.90431976318359 59.47979736328125 68.42597198486328 55.73999786376953 70.18695831298828 51.57653427124023 C 72.00949859619141 47.26758575439453 72.93359375 42.6886100769043 72.93359375 37.966796875 C 72.93359375 33.2449836730957 72.00949859619141 28.66600799560547 70.18695831298828 24.35705947875977 C 68.42597198486328 20.19359588623047 65.90431976318359 16.45379638671875 62.69205856323242 13.24153518676758 C 59.47979736328125 10.02927398681641 55.73999786376953 7.507621765136719 51.57653427124023 5.746635437011719 C 47.26758575439453 3.924095153808594 42.6886100769043 3 37.966796875 3 M 37.966796875 0 C 58.93528366088867 0 75.93359375 16.99831008911133 75.93359375 37.966796875 C 75.93359375 58.93528366088867 58.93528366088867 75.93359375 37.966796875 75.93359375 C 16.99831008911133 75.93359375 0 58.93528366088867 0 37.966796875 C 0 16.99831008911133 16.99831008911133 0 37.966796875 0 Z" stroke="none" fill="#3f7776"/>
            </g>
          </g>
        </g>
      </g>
    </g>
    <g id="salud-mental_1_" data-name="salud-mental (1)" transform="translate(628.738 4693.246)">
      <g id="Grupo_1212303" data-name="Grupo 1212303" transform="translate(0.669 15.935)">
        <path id="Trazado_1083219" data-name="Trazado 1083219" d="M62.974,41.673a6.649,6.649,0,0,0-3.366-8.138,5.4,5.4,0,0,0-6.475-6.83A6.321,6.321,0,0,0,40.89,28.911,6.323,6.323,0,0,0,36.171,22.8a4.716,4.716,0,0,0-2.348.382A13.882,13.882,0,0,0,28.647,26.7c-1.267-.166-5.912,1.763-5.912,5.279a7.194,7.194,0,0,0,.36,1.841,6.544,6.544,0,0,0-3.283,8.086c-5.725,2.967-5.992,10.339-.4,13.57a7.453,7.453,0,0,0,3.883,5.644c-1.25,4.031,1.283,8.01,5.352,6.985,2.054,2.142,3.263,3.7,5.977,3.7a10.383,10.383,0,0,1,1.547.206A6.323,6.323,0,0,0,40.89,65.9a6.321,6.321,0,0,0,12.243,2.206,5.4,5.4,0,0,0,6.475-6.83A6.651,6.651,0,0,0,63.3,55.994a8.164,8.164,0,0,0-.328-14.32Z" transform="translate(-14.396 -22.591)" fill="#ffbee8"/>
        <path id="Trazado_1083220" data-name="Trazado 1083220" d="M23.4,68.184a5.4,5.4,0,0,1-6.237-6.6.4.4,0,0,0-.2-.451,6.65,6.65,0,0,1-3.389-4.944.411.411,0,0,0-.194-.3A8.165,8.165,0,0,1,13.6,41.828a.4.4,0,0,0,.186-.462,6.649,6.649,0,0,1,3.183-7.685.4.4,0,0,0,.2-.449,5.4,5.4,0,0,1,6.236-6.6.4.4,0,0,0,.447-.234,6.343,6.343,0,0,1,2.8-3.049.4.4,0,0,0-.18-.759h-.017a6.321,6.321,0,0,0-5.8,3.807.4.4,0,0,1-.447.235,5.4,5.4,0,0,0-6.236,6.6.4.4,0,0,1-.2.449,6.649,6.649,0,0,0-3.183,7.685.4.4,0,0,1-.186.462,8.165,8.165,0,0,0-.214,14.065.41.41,0,0,1,.194.3,6.651,6.651,0,0,0,3.389,4.944.4.4,0,0,1,.2.451,5.4,5.4,0,0,0,6.237,6.6.4.4,0,0,1,.447.235,6.321,6.321,0,0,0,5.8,3.807h.017a.4.4,0,0,0,.18-.759,6.343,6.343,0,0,1-2.8-3.049A.4.4,0,0,0,23.4,68.184Z" transform="translate(-6.278 -22.592)" fill="#fea3cf"/>
        <g id="Grupo_1212301" data-name="Grupo 1212301" transform="translate(15.816 13.76)">
          <path id="Trazado_1083221" data-name="Trazado 1083221" d="M175.8,162.554a6.418,6.418,0,1,0-10.524-6.907,6.433,6.433,0,0,0-4.371-3.819,2.724,2.724,0,0,0-2.235.361c-1.566,1.332-6.065,3.483-3.062,9.571l9.487,10,1.781-.3Z" transform="translate(-154.6 -151.632)" fill="#f47c7c"/>
        </g>
        <g id="Grupo_1212302" data-name="Grupo 1212302" transform="translate(14.124 13.76)">
          <path id="Trazado_1083222" data-name="Trazado 1083222" d="M143.775,162.554a6.44,6.44,0,0,1,2.954-10.725,6.419,6.419,0,0,0-6.153,10.725L151.1,173.06l1.6-1.6Z" transform="translate(-138.73 -151.632)" fill="#ee6161"/>
        </g>
      </g>
      <g id="Grupo_1212304" data-name="Grupo 1212304" transform="translate(0 15.14)">
        <path id="Trazado_1083223" data-name="Trazado 1083223" d="M50.194,34.634a7.425,7.425,0,0,0-3.386-8.161,6.2,6.2,0,0,0-6.918-7.331,7.126,7.126,0,0,0-12.727-.159,7.122,7.122,0,0,0-12.724.16,6.2,6.2,0,0,0-6.921,7.331,7.426,7.426,0,0,0-3.386,8.162A8.96,8.96,0,0,0,.125,40.121a.8.8,0,1,0,1.553.382A7.357,7.357,0,0,1,4.7,36.175,7.433,7.433,0,0,0,5.793,37.8a.8.8,0,1,0,1.2-1.062,5.836,5.836,0,0,1-1.148-1.958c0-.006,0-.012-.005-.018A5.852,5.852,0,0,1,11.362,27a.8.8,0,0,0,0-1.6,7.413,7.413,0,0,0-2.331.376,4.6,4.6,0,0,1,4.851-5.087,5.611,5.611,0,0,0-.159,1.549.8.8,0,1,0,1.6-.074,5.522,5.522,0,0,1,11.043.086v8.8a7.22,7.22,0,1,0-10.29,10.131l10.29,10.272v7.794a5.52,5.52,0,0,1-10.348,2.675,6.2,6.2,0,0,0,2.171-1.539A.8.8,0,1,0,17,59.31a4.595,4.595,0,1,1-6.344-6.617.8.8,0,1,0-1.024-1.229,6.2,6.2,0,0,0-1.582,2,5.889,5.889,0,0,1-2.5-4.212.8.8,0,0,0-.4-.611A7.352,7.352,0,0,1,1.587,43.6a.8.8,0,0,0-1.573.288,8.944,8.944,0,0,0,4,5.931A7.515,7.515,0,0,0,7.52,55.029a6.2,6.2,0,0,0,6.92,7.332,7.122,7.122,0,0,0,12.724.16,7.116,7.116,0,0,0,12.723-.162,6.15,6.15,0,0,0,2.454-.153.8.8,0,1,0-.416-1.544,4.605,4.605,0,0,1-4.6-1.351.8.8,0,1,0-1.185,1.075,6.2,6.2,0,0,0,2.173,1.54,5.52,5.52,0,0,1-10.348-2.676V51.454L38.258,41.178A7.162,7.162,0,0,0,39.3,32.409a.8.8,0,1,0-1.377.813,5.589,5.589,0,0,1-.8,6.828l-9.959,9.942L18.154,41l2.382.008h0a.8.8,0,0,0,.666-.357l1.655-2.489,3.6,6.811a.8.8,0,0,0,1.43-.031l1.864-3.935h3.124a.8.8,0,0,0,0-1.6h-3.63a.8.8,0,0,0-.723.457l-1.4,2.948-3.478-6.588a.8.8,0,0,0-1.373-.07l-2.162,3.25-3.463-.011a5.62,5.62,0,1,1,9.774-5.385v0a.8.8,0,0,0,1.48,0v0a5.648,5.648,0,0,1,7.819-2.894.8.8,0,0,0,.74-1.418,7.278,7.278,0,0,0-8.5,1.354v-8.8a5.523,5.523,0,0,1,11.046-.087.8.8,0,1,0,1.6.074,5.608,5.608,0,0,0-.159-1.55A4.6,4.6,0,0,1,45.3,25.781a7.414,7.414,0,0,0-2.333-.377.8.8,0,0,0,0,1.6,5.858,5.858,0,0,1,4.373,9.729.8.8,0,1,0,1.2,1.062,7.44,7.44,0,0,0,1.1-1.623,7.365,7.365,0,0,1-.452,12.472.8.8,0,0,0-.4.611,5.889,5.889,0,0,1-2.506,4.213,6.2,6.2,0,0,0-1.583-2,.8.8,0,1,0-1.024,1.229,4.6,4.6,0,0,1,.753,6.266.8.8,0,1,0,1.285.953,6.161,6.161,0,0,0,1.1-4.881,7.514,7.514,0,0,0,3.514-5.21,8.965,8.965,0,0,0-.125-15.187Z" transform="translate(0 -15.14)"/>
        <path id="Trazado_1083224" data-name="Trazado 1083224" d="M67.76,218.374a.8.8,0,1,0-.114,1.6,4.554,4.554,0,0,0,2.879-8.314.8.8,0,1,0-.9,1.324,2.955,2.955,0,0,1-1.867,5.395Z" transform="translate(-59.77 -190.578)"/>
        <path id="Trazado_1083225" data-name="Trazado 1083225" d="M165.73,375.176a.8.8,0,0,0,1.124-.129,4.008,4.008,0,0,0-4.612-6.22.8.8,0,0,0,.586,1.488,2.409,2.409,0,0,1,2.773,3.737A.8.8,0,0,0,165.73,375.176Z" transform="translate(-144.49 -330.865)"/>
        <path id="Trazado_1083226" data-name="Trazado 1083226" d="M163.123,67.7a.8.8,0,0,0-1.6-.02,2.411,2.411,0,0,1-3.059,2.293.8.8,0,1,0-.432,1.54A4.011,4.011,0,0,0,163.123,67.7Z" transform="translate(-140.66 -61.373)"/>
        <path id="Trazado_1083227" data-name="Trazado 1083227" d="M395,212.979a.8.8,0,1,0-.9-1.324,4.554,4.554,0,0,0,2.879,8.314.8.8,0,1,0-.114-1.6A2.955,2.955,0,0,1,395,212.979Z" transform="translate(-350.289 -190.577)"/>
        <path id="Trazado_1083228" data-name="Trazado 1083228" d="M298.746,370.317a.8.8,0,0,0,.586-1.488,4.008,4.008,0,0,0-4.612,6.22.8.8,0,1,0,1.253-.994A2.411,2.411,0,0,1,298.746,370.317Z" transform="translate(-262.52 -330.866)"/>
        <path id="Trazado_1083229" data-name="Trazado 1083229" d="M305.722,69.974a2.411,2.411,0,0,1-3.059-2.293.8.8,0,0,0-.8-.79h-.01a.8.8,0,0,0-.79.81,4.012,4.012,0,0,0,5.09,3.813.8.8,0,0,0-.432-1.54Z" transform="translate(-268.961 -61.374)"/>
      </g>
    </g>
  </g>
</svg>
