<svg xmlns="http://www.w3.org/2000/svg" xmlns:xlink="http://www.w3.org/1999/xlink" width="928.659" height="206.381" viewBox="0 0 928.659 206.381">
  <defs>
    <filter id="Fondo" x="90.659" y="25.381" width="838" height="181" filterUnits="userSpaceOnUse">
      <feOffset dy="3" input="SourceAlpha"/>
      <feGaussianBlur stdDeviation="3" result="blur"/>
      <feFlood flood-opacity="0.161"/>
      <feComposite operator="in" in2="blur"/>
      <feComposite in="SourceGraphic"/>
    </filter>
  </defs>
  <g id="Grupo_1212632" data-name="Grupo 1212632" transform="translate(-340.17 -6285.21)">
    <g transform="matrix(1, 0, 0, 1, 340.17, 6285.21)" filter="url(#Fondo)">
      <path id="Fondo-2" data-name="Fondo" d="M0,0H820V163H0Z" transform="translate(99.66 31.38)" fill="#df93dd"/>
    </g>
    <path id="Autor" d="M-60.829-.368V-1.625a2.441,2.441,0,0,0,.517.343,4.191,4.191,0,0,0,.635.257,5.053,5.053,0,0,0,.67.162,3.734,3.734,0,0,0,.622.057,2.437,2.437,0,0,0,1.469-.365,1.235,1.235,0,0,0,.486-1.051,1.234,1.234,0,0,0-.162-.641,1.823,1.823,0,0,0-.448-.5,4.441,4.441,0,0,0-.676-.432q-.39-.206-.841-.435-.476-.241-.889-.489a3.851,3.851,0,0,1-.717-.546,2.277,2.277,0,0,1-.479-.676,2.092,2.092,0,0,1-.175-.885,2.082,2.082,0,0,1,.273-1.082,2.341,2.341,0,0,1,.717-.759,3.252,3.252,0,0,1,1.012-.444,4.636,4.636,0,0,1,1.158-.146,4.439,4.439,0,0,1,1.961.324v1.2a3.555,3.555,0,0,0-2.069-.559,3.4,3.4,0,0,0-.7.073,1.972,1.972,0,0,0-.622.238,1.378,1.378,0,0,0-.444.425,1.129,1.129,0,0,0-.171.635,1.307,1.307,0,0,0,.13.6,1.478,1.478,0,0,0,.384.463,3.825,3.825,0,0,0,.619.406q.365.2.841.432t.927.508a4.236,4.236,0,0,1,.768.59,2.623,2.623,0,0,1,.524.717,2.016,2.016,0,0,1,.194.9,2.286,2.286,0,0,1-.263,1.139,2.162,2.162,0,0,1-.711.759,3.1,3.1,0,0,1-1.031.422,5.649,5.649,0,0,1-1.231.13,5.018,5.018,0,0,1-.533-.035q-.317-.035-.647-.1a5.283,5.283,0,0,1-.625-.165A1.946,1.946,0,0,1-60.829-.368ZM-48.983,0h-1.041V-1.016h-.025a2.179,2.179,0,0,1-2,1.168,2.137,2.137,0,0,1-1.52-.514,1.781,1.781,0,0,1-.549-1.365q0-1.822,2.146-2.12l1.949-.273q0-1.657-1.339-1.657a3.2,3.2,0,0,0-2.12.8V-6.043a4.028,4.028,0,0,1,2.209-.609q2.292,0,2.292,2.425Zm-1.041-3.288-1.568.216a2.546,2.546,0,0,0-1.092.359,1.034,1.034,0,0,0-.368.911.992.992,0,0,0,.34.778,1.312,1.312,0,0,0,.9.3,1.671,1.671,0,0,0,1.279-.543,1.939,1.939,0,0,0,.5-1.374Zm.14-6.525-1.663,2.082h-.806l1.416-2.082Zm3.4,1.663a.66.66,0,0,1-.476-.19.643.643,0,0,1-.2-.482.653.653,0,0,1,.2-.486.654.654,0,0,1,.476-.194A.672.672,0,0,1-46-9.309a.648.648,0,0,1,.2.486.643.643,0,0,1-.2.476A.667.667,0,0,1-46.487-8.15ZM-45.979,0H-47.02V-6.5h1.041Zm6.641-6.2L-43.185-.889h3.809V0h-5.338V-.324l3.847-5.288h-3.485V-6.5h5.015ZM-26.311.146a1.9,1.9,0,0,1-.638-.1,1.851,1.851,0,0,1-.511-.279,2.952,2.952,0,0,1-.454-.441q-.219-.26-.46-.59a4.637,4.637,0,0,1-.587.527,4.331,4.331,0,0,1-.74.451,4.443,4.443,0,0,1-.889.314,4.423,4.423,0,0,1-1.047.117,4.36,4.36,0,0,1-1.257-.171,2.781,2.781,0,0,1-.978-.5,2.285,2.285,0,0,1-.632-.822,2.656,2.656,0,0,1-.225-1.124,2.57,2.57,0,0,1,.552-1.66,3.984,3.984,0,0,1,1.562-1.127,3.488,3.488,0,0,1-.381-.327,2.324,2.324,0,0,1-.34-.425,2.305,2.305,0,0,1-.241-.527,2.071,2.071,0,0,1-.092-.632,2.077,2.077,0,0,1,.181-.889,1.883,1.883,0,0,1,.5-.654,2.164,2.164,0,0,1,.749-.4,3.08,3.08,0,0,1,.933-.136,2.847,2.847,0,0,1,.9.136,2.07,2.07,0,0,1,.7.39,1.787,1.787,0,0,1,.46.609,1.862,1.862,0,0,1,.165.793,1.871,1.871,0,0,1-.435,1.266,3.374,3.374,0,0,1-1.3.86,3.813,3.813,0,0,1,.793.419,4.7,4.7,0,0,1,.657.552,6.173,6.173,0,0,1,.562.654q.26.349.514.724a5.337,5.337,0,0,0,.774-1.581,6.234,6.234,0,0,0,.26-1.809,3.413,3.413,0,0,0-.029-.454,4.117,4.117,0,0,0-.079-.422h1.009a2.152,2.152,0,0,1,.06.4q.01.187.022.448a5.731,5.731,0,0,1-.121,1.162,7.818,7.818,0,0,1-.324,1.133,7.928,7.928,0,0,1-.473,1.044,8.436,8.436,0,0,1-.568.908q.222.3.406.53a2.626,2.626,0,0,0,.371.378,1.347,1.347,0,0,0,.387.225,1.318,1.318,0,0,0,.454.073,1.545,1.545,0,0,0,.387-.051q.2-.051.406-.127v.965A2.543,2.543,0,0,1-25.819.1,2.816,2.816,0,0,1-26.311.146Zm-5.326-.9a3.555,3.555,0,0,0,.889-.1A3.657,3.657,0,0,0-30-1.139a3.353,3.353,0,0,0,.622-.406,4.831,4.831,0,0,0,.508-.486q-.387-.6-.714-1.031a5.924,5.924,0,0,0-.66-.74,4.051,4.051,0,0,0-.711-.533,5.9,5.9,0,0,0-.873-.413,5.661,5.661,0,0,0-.736.352,2.456,2.456,0,0,0-.581.457,1.963,1.963,0,0,0-.384.613,2.2,2.2,0,0,0-.14.819,1.738,1.738,0,0,0,.159.762,1.543,1.543,0,0,0,.435.549,1.915,1.915,0,0,0,.644.33A2.734,2.734,0,0,0-31.636-.755Zm1.587-6.481a1.142,1.142,0,0,0-.117-.54,1.166,1.166,0,0,0-.3-.368,1.172,1.172,0,0,0-.4-.213,1.519,1.519,0,0,0-.438-.067,1.423,1.423,0,0,0-.993.336,1.191,1.191,0,0,0-.378.914,1.48,1.48,0,0,0,.079.489,1.631,1.631,0,0,0,.222.425,1.8,1.8,0,0,0,.333.349,2.283,2.283,0,0,0,.406.26A3.347,3.347,0,0,0-30.443-6.3,1.233,1.233,0,0,0-30.049-7.236ZM-13.276,0h-1.181l-.965-2.552h-3.859L-20.189,0h-1.187l3.491-9.1h1.1Zm-2.495-3.51L-17.2-7.389A3.714,3.714,0,0,1-17.339-8h-.025a3.4,3.4,0,0,1-.146.609L-18.926-3.51ZM-6.68,0H-7.721V-3.707q0-2.069-1.511-2.069a1.639,1.639,0,0,0-1.292.587,2.176,2.176,0,0,0-.511,1.482V0h-1.041V-6.5h1.041v1.079h.025A2.346,2.346,0,0,1-8.876-6.652a1.989,1.989,0,0,1,1.631.689,3.068,3.068,0,0,1,.565,1.99ZM.831-.521q0,3.58-3.428,3.58A4.6,4.6,0,0,1-4.7,2.6V1.562a4.328,4.328,0,0,0,2.095.609q2.4,0,2.4-2.552v-.711H-.236A2.434,2.434,0,0,1-2.47.152,2.44,2.44,0,0,1-4.422-.714a3.464,3.464,0,0,1-.74-2.326,4.047,4.047,0,0,1,.8-2.634,2.661,2.661,0,0,1,2.18-.978A2.119,2.119,0,0,1-.236-5.6H-.21v-.9H.831ZM-.21-2.939V-3.9A1.86,1.86,0,0,0-.734-5.224a1.724,1.724,0,0,0-1.3-.552,1.808,1.808,0,0,0-1.511.7A3.131,3.131,0,0,0-4.095-3.11a2.688,2.688,0,0,0,.524,1.736,1.692,1.692,0,0,0,1.387.651A1.812,1.812,0,0,0-.759-1.346,2.319,2.319,0,0,0-.21-2.939ZM8.2,0H7.154V-1.028H7.129A2.138,2.138,0,0,1,5.123.152Q2.8.152,2.8-2.615V-6.5H3.835v3.72q0,2.057,1.574,2.057a1.593,1.593,0,0,0,1.254-.562,2.149,2.149,0,0,0,.492-1.469V-6.5H8.2Zm7.326-2.99H10.933a2.431,2.431,0,0,0,.584,1.676,2.013,2.013,0,0,0,1.536.59,3.194,3.194,0,0,0,2.019-.724V-.47a3.773,3.773,0,0,1-2.266.622,2.747,2.747,0,0,1-2.165-.885,3.624,3.624,0,0,1-.787-2.491,3.554,3.554,0,0,1,.86-2.472,2.758,2.758,0,0,1,2.136-.955,2.444,2.444,0,0,1,1.974.825,3.44,3.44,0,0,1,.7,2.292Zm-1.066-.882a2.118,2.118,0,0,0-.435-1.4,1.481,1.481,0,0,0-1.19-.5,1.682,1.682,0,0,0-1.25.527,2.391,2.391,0,0,0-.635,1.377Zm6.032-1.574a1.273,1.273,0,0,0-.787-.209,1.328,1.328,0,0,0-1.114.628,2.905,2.905,0,0,0-.448,1.714V0H17.1V-6.5h1.041v1.339h.025a2.27,2.27,0,0,1,.679-1.07,1.549,1.549,0,0,1,1.022-.384,1.7,1.7,0,0,1,.622.089ZM26.271,0H25.23V-1.016H25.2a2.179,2.179,0,0,1-2,1.168,2.137,2.137,0,0,1-1.52-.514,1.781,1.781,0,0,1-.549-1.365q0-1.822,2.146-2.12L25.23-4.12q0-1.657-1.339-1.657a3.2,3.2,0,0,0-2.12.8V-6.043a4.028,4.028,0,0,1,2.209-.609q2.292,0,2.292,2.425ZM25.23-3.288l-1.568.216a2.546,2.546,0,0,0-1.092.359A1.034,1.034,0,0,0,22.2-1.8a.992.992,0,0,0,.34.778,1.312,1.312,0,0,0,.9.3,1.671,1.671,0,0,0,1.279-.543,1.939,1.939,0,0,0,.5-1.374Zm3.956,1.841L28.17,1.676h-.743l.743-3.123Zm9.277-5.269a1.882,1.882,0,0,0-.13-.73,1.446,1.446,0,0,0-.355-.517,1.456,1.456,0,0,0-.53-.308,2.076,2.076,0,0,0-.66-.1,2.184,2.184,0,0,0-.6.083,2.9,2.9,0,0,0-.568.229,3.5,3.5,0,0,0-.533.349,3.852,3.852,0,0,0-.479.451V-8.379a3.112,3.112,0,0,1,.981-.651,3.453,3.453,0,0,1,1.323-.225,3.2,3.2,0,0,1,1.035.162,2.372,2.372,0,0,1,.825.473,2.186,2.186,0,0,1,.549.768,2.59,2.59,0,0,1,.2,1.047,3.591,3.591,0,0,1-.124.978A3.023,3.023,0,0,1,39.024-5a3.982,3.982,0,0,1-.632.743,8.946,8.946,0,0,1-.9.724q-.641.457-1.057.781a4.672,4.672,0,0,0-.66.606,1.759,1.759,0,0,0-.343.565,1.975,1.975,0,0,0-.1.651h4.532V0H34.254V-.451a3.756,3.756,0,0,1,.127-1.028,2.67,2.67,0,0,1,.419-.844,4.685,4.685,0,0,1,.765-.8q.473-.4,1.158-.9a7.324,7.324,0,0,0,.828-.679,3.531,3.531,0,0,0,.536-.647,2.325,2.325,0,0,0,.289-.657A2.833,2.833,0,0,0,38.463-6.716Zm8.583,2.126a8.942,8.942,0,0,1-.206,2.025,4.718,4.718,0,0,1-.6,1.489,2.686,2.686,0,0,1-.958.92,2.624,2.624,0,0,1-1.292.314,2.45,2.45,0,0,1-1.222-.3,2.561,2.561,0,0,1-.9-.879,4.456,4.456,0,0,1-.559-1.419,8.772,8.772,0,0,1-.19-1.927,9.93,9.93,0,0,1,.2-2.107A4.82,4.82,0,0,1,41.9-8.008a2.613,2.613,0,0,1,.962-.933,2.7,2.7,0,0,1,1.317-.314Q47.046-9.255,47.046-4.589Zm-1.066.1q0-3.885-1.847-3.885-1.949,0-1.949,3.955,0,3.688,1.911,3.688Q45.979-.73,45.979-4.488ZM52.176,0H51.135V-7.865a2.409,2.409,0,0,1-.352.276,5.743,5.743,0,0,1-.521.308q-.289.152-.609.286a4.429,4.429,0,0,1-.625.209V-7.839a6.052,6.052,0,0,0,.727-.257q.384-.162.755-.362t.7-.419a5.569,5.569,0,0,0,.571-.428h.394Zm8.463-2.577a2.654,2.654,0,0,1-.232,1.12,2.474,2.474,0,0,1-.654.863,3.018,3.018,0,0,1-1.012.555,4.1,4.1,0,0,1-1.3.2,3.781,3.781,0,0,1-2.069-.5V-1.454a3.316,3.316,0,0,0,2.107.724,2.864,2.864,0,0,0,.86-.121A1.929,1.929,0,0,0,59-1.2a1.551,1.551,0,0,0,.425-.552,1.725,1.725,0,0,0,.149-.73q0-1.784-2.539-1.784h-.755v-.882H57q2.247,0,2.247-1.676,0-1.549-1.714-1.549a2.918,2.918,0,0,0-1.809.647V-8.734a3.955,3.955,0,0,1,2.069-.521,3.18,3.18,0,0,1,1.035.159,2.371,2.371,0,0,1,.793.444,1.969,1.969,0,0,1,.511.686,2.116,2.116,0,0,1,.181.882,2.222,2.222,0,0,1-1.815,2.311v.025a2.872,2.872,0,0,1,.857.225,2.287,2.287,0,0,1,.679.454,2.023,2.023,0,0,1,.448.657A2.1,2.1,0,0,1,60.639-2.577Z" transform="translate(842.83 6444.591)" fill="#0b0a0a"/>
    <path id="Trazado_1083779" data-name="Trazado 1083779" d="M0,0H263" transform="translate(718.33 6419.591)" fill="none" stroke="#0b0a0a" stroke-width="1"/>
    <path id="Título" d="M56.32,9.363,54.885,15H51.432l2.412-5.637Zm-5.281,0L49.642,15H46.151l2.4-5.637ZM70.754,28H59.836V9.795h10.5v3.339h-6.4v4.05h5.954V20.51H63.937v4.164h6.817Zm6.538,0H73.281V8.754h4.012Zm23.029,0h-4V20.611q0-2.856-2.082-2.856a2.131,2.131,0,0,0-1.727.8,3.085,3.085,0,0,0-.66,2.031V28H87.842V8.754h4.012V16.93H91.9a4.558,4.558,0,0,1,4-2.247q4.418,0,4.418,5.332Zm9.369.317a6.988,6.988,0,0,1-5.11-1.822,6.6,6.6,0,0,1-1.86-4.945,6.6,6.6,0,0,1,1.93-5.046,7.291,7.291,0,0,1,5.218-1.822,6.9,6.9,0,0,1,5.078,1.822,6.476,6.476,0,0,1,1.841,4.818,6.874,6.874,0,0,1-1.9,5.116A7.066,7.066,0,0,1,109.691,28.317Zm.1-10.562a2.676,2.676,0,0,0-2.209.978A4.311,4.311,0,0,0,106.8,21.5q0,3.745,3.021,3.745,2.882,0,2.882-3.847Q112.7,17.755,109.792,17.755ZM140.033,28h-4V20.586q0-2.831-2.082-2.831a1.913,1.913,0,0,0-1.612.851,3.5,3.5,0,0,0-.622,2.12V28h-4.012V20.51q0-2.755-2.044-2.755a1.959,1.959,0,0,0-1.644.813,3.575,3.575,0,0,0-.616,2.209V28H119.39V15H123.4v2.031h.051a4.926,4.926,0,0,1,4.2-2.349,3.743,3.743,0,0,1,3.771,2.425,4.809,4.809,0,0,1,4.367-2.425q4.24,0,4.24,5.23Zm7.236-1.511h-.051V28h-4.012V8.754h4.012v8.2h.051a4.76,4.76,0,0,1,4.228-2.272,4.639,4.639,0,0,1,3.872,1.727,7.446,7.446,0,0,1,1.358,4.723,8.063,8.063,0,0,1-1.587,5.218,5.169,5.169,0,0,1-4.24,1.968A4.1,4.1,0,0,1,147.269,26.489ZM147.155,21v1.333a3.043,3.043,0,0,0,.724,2.082,2.354,2.354,0,0,0,1.854.825,2.46,2.46,0,0,0,2.126-1.06,5.118,5.118,0,0,0,.755-3,4.072,4.072,0,0,0-.692-2.52,2.335,2.335,0,0,0-1.974-.908,2.55,2.55,0,0,0-2,.9A3.424,3.424,0,0,0,147.155,21Zm20.655-2.387a3.48,3.48,0,0,0-1.688-.394,2.433,2.433,0,0,0-2.044.958,4.181,4.181,0,0,0-.736,2.609V28H159.33V15h4.012v2.412h.051a3.47,3.47,0,0,1,3.428-2.641,2.583,2.583,0,0,1,.99.152Zm13.444,4.024h-8.48q.2,2.831,3.567,2.831a6.965,6.965,0,0,0,3.771-1.016v2.895a9.9,9.9,0,0,1-4.685.965,6.594,6.594,0,0,1-4.888-1.746A6.6,6.6,0,0,1,168.8,21.7a6.957,6.957,0,0,1,1.879-5.129,6.26,6.26,0,0,1,4.621-1.892,5.681,5.681,0,0,1,4.4,1.688,6.5,6.5,0,0,1,1.555,4.583Zm-3.72-2.463q0-2.793-2.26-2.793a2.158,2.158,0,0,0-1.669.8,3.63,3.63,0,0,0-.857,1.993Zm23.131,7.351a7.932,7.932,0,0,1-3.923.787,6.634,6.634,0,0,1-4.85-1.815,6.27,6.27,0,0,1-1.854-4.685,6.907,6.907,0,0,1,1.987-5.224,7.343,7.343,0,0,1,5.313-1.911,6.817,6.817,0,0,1,3.326.609v3.4a4.573,4.573,0,0,0-2.806-.939,3.7,3.7,0,0,0-2.736,1.009,3.766,3.766,0,0,0-1.009,2.787,3.7,3.7,0,0,0,.965,2.71,3.546,3.546,0,0,0,2.653.984,5.3,5.3,0,0,0,2.933-.939Zm8.823.787a6.988,6.988,0,0,1-5.11-1.822,6.6,6.6,0,0,1-1.86-4.945,6.6,6.6,0,0,1,1.93-5.046,7.291,7.291,0,0,1,5.218-1.822,6.9,6.9,0,0,1,5.078,1.822,6.476,6.476,0,0,1,1.841,4.818,6.874,6.874,0,0,1-1.9,5.116A7.066,7.066,0,0,1,209.489,28.317Zm.1-10.562a2.676,2.676,0,0,0-2.209.978,4.311,4.311,0,0,0-.787,2.768q0,3.745,3.021,3.745,2.882,0,2.882-3.847Q212.5,17.755,209.59,17.755ZM239.831,28h-4V20.586q0-2.831-2.082-2.831a1.913,1.913,0,0,0-1.612.851,3.5,3.5,0,0,0-.622,2.12V28H227.5V20.51q0-2.755-2.044-2.755a1.959,1.959,0,0,0-1.644.813,3.575,3.575,0,0,0-.616,2.209V28h-4.012V15H223.2v2.031h.051a4.926,4.926,0,0,1,4.2-2.349,3.743,3.743,0,0,1,3.771,2.425,4.809,4.809,0,0,1,4.367-2.425q4.24,0,4.24,5.23Zm5.205-15.057a2.343,2.343,0,0,1-1.663-.6,1.943,1.943,0,0,1-.647-1.479,1.874,1.874,0,0,1,.647-1.473,2.716,2.716,0,0,1,3.333,0,1.882,1.882,0,0,1,.641,1.473,1.935,1.935,0,0,1-.641,1.5A2.383,2.383,0,0,1,245.036,12.943ZM247.016,28H243V15h4.012Zm15.057-5.357h-8.48q.2,2.831,3.567,2.831a6.965,6.965,0,0,0,3.771-1.016v2.895a9.9,9.9,0,0,1-4.685.965,6.594,6.594,0,0,1-4.888-1.746,6.6,6.6,0,0,1-1.739-4.869,6.957,6.957,0,0,1,1.879-5.129,6.26,6.26,0,0,1,4.621-1.892,5.681,5.681,0,0,1,4.4,1.688,6.5,6.5,0,0,1,1.555,4.583Zm-3.72-2.463q0-2.793-2.26-2.793a2.158,2.158,0,0,0-1.669.8,3.63,3.63,0,0,0-.857,1.993ZM277.015,28h-4V20.776q0-3.021-2.158-3.021a2.141,2.141,0,0,0-1.714.8,3.047,3.047,0,0,0-.673,2.031V28h-4.012V15h4.012v2.057h.051a4.6,4.6,0,0,1,4.177-2.374q4.316,0,4.316,5.357Zm13.47,0H278.818V26.337l6.525-8.379h-5.878V15h10.969v1.98l-6.183,8.062h6.233Zm12.975,0h-3.8V26.134h-.051a4.237,4.237,0,0,1-3.872,2.184,4.05,4.05,0,0,1-2.977-1.073,3.844,3.844,0,0,1-1.085-2.863q0-3.783,4.481-4.367l3.529-.47q0-2.133-2.311-2.133A7.887,7.887,0,0,0,292.96,18.8V15.774a9.939,9.939,0,0,1,2.292-.762,12.046,12.046,0,0,1,2.647-.33q5.561,0,5.561,5.548Zm-3.771-5.281v-.876l-2.361.3q-1.955.254-1.955,1.765a1.458,1.458,0,0,0,.476,1.124,1.829,1.829,0,0,0,1.289.438,2.375,2.375,0,0,0,1.841-.781A2.82,2.82,0,0,0,299.689,22.719ZM324.623,28h-3.8V26.134h-.051a4.237,4.237,0,0,1-3.872,2.184,4.05,4.05,0,0,1-2.977-1.073,3.844,3.844,0,0,1-1.085-2.863q0-3.783,4.481-4.367l3.529-.47q0-2.133-2.311-2.133a7.887,7.887,0,0,0-4.418,1.384V15.774a9.939,9.939,0,0,1,2.292-.762,12.046,12.046,0,0,1,2.647-.33q5.561,0,5.561,5.548Zm-3.771-5.281v-.876l-2.361.3q-1.955.254-1.955,1.765a1.458,1.458,0,0,0,.476,1.124,1.829,1.829,0,0,0,1.289.438,2.375,2.375,0,0,0,1.841-.781A2.82,2.82,0,0,0,320.852,22.719Zm23.969,4.812a7.932,7.932,0,0,1-3.923.787,6.634,6.634,0,0,1-4.85-1.815,6.27,6.27,0,0,1-1.854-4.685,6.907,6.907,0,0,1,1.987-5.224,7.343,7.343,0,0,1,5.313-1.911,6.817,6.817,0,0,1,3.326.609v3.4a4.573,4.573,0,0,0-2.806-.939,3.7,3.7,0,0,0-2.736,1.009,3.766,3.766,0,0,0-1.009,2.787,3.7,3.7,0,0,0,.965,2.71,3.546,3.546,0,0,0,2.653.984,5.3,5.3,0,0,0,2.933-.939Zm8.823.787a6.988,6.988,0,0,1-5.11-1.822,6.6,6.6,0,0,1-1.86-4.945A6.6,6.6,0,0,1,348.6,16.5a7.291,7.291,0,0,1,5.218-1.822A6.9,6.9,0,0,1,358.9,16.5a6.476,6.476,0,0,1,1.841,4.818,6.874,6.874,0,0,1-1.9,5.116A7.066,7.066,0,0,1,353.644,28.317Zm.1-10.562a2.676,2.676,0,0,0-2.209.978,4.311,4.311,0,0,0-.787,2.768q0,3.745,3.021,3.745,2.882,0,2.882-3.847Q356.653,17.755,353.746,17.755ZM375.9,28h-4V20.776q0-3.021-2.158-3.021a2.141,2.141,0,0,0-1.714.8,3.047,3.047,0,0,0-.673,2.031V28h-4.012V15h4.012v2.057h.051a4.6,4.6,0,0,1,4.177-2.374q4.316,0,4.316,5.357Zm11.654-16.174a4.052,4.052,0,0,0-1.485-.3q-1.93,0-1.93,2.095V15h2.971v2.958h-2.971V28h-4V17.958h-2.184V15h2.184V13.388a4.681,4.681,0,0,1,1.447-3.58,5.52,5.52,0,0,1,3.936-1.358,6.911,6.911,0,0,1,2.031.254Zm3.517,1.117a2.343,2.343,0,0,1-1.663-.6,1.943,1.943,0,0,1-.647-1.479,1.874,1.874,0,0,1,.647-1.473,2.716,2.716,0,0,1,3.333,0,1.882,1.882,0,0,1,.641,1.473,1.935,1.935,0,0,1-.641,1.5A2.383,2.383,0,0,1,391.07,12.943ZM393.05,28h-4.012V15h4.012Zm14.193,0h-3.8V26.134H403.4a4.237,4.237,0,0,1-3.872,2.184,4.05,4.05,0,0,1-2.977-1.073,3.844,3.844,0,0,1-1.085-2.863q0-3.783,4.481-4.367l3.529-.47q0-2.133-2.311-2.133a7.887,7.887,0,0,0-4.418,1.384V15.774a9.939,9.939,0,0,1,2.292-.762,12.046,12.046,0,0,1,2.647-.33q5.561,0,5.561,5.548Zm-3.771-5.281v-.876l-2.361.3q-1.955.254-1.955,1.765a1.458,1.458,0,0,0,.476,1.124,1.829,1.829,0,0,0,1.289.438,2.375,2.375,0,0,0,1.841-.781A2.82,2.82,0,0,0,403.473,22.719Zm15.425-4.1a3.48,3.48,0,0,0-1.688-.394,2.433,2.433,0,0,0-2.044.958,4.182,4.182,0,0,0-.736,2.609V28h-4.012V15h4.012v2.412h.051a3.47,3.47,0,0,1,3.428-2.641,2.583,2.583,0,0,1,.99.152Zm20.719,4.024h-8.48q.2,2.831,3.567,2.831a6.965,6.965,0,0,0,3.771-1.016v2.895a9.9,9.9,0,0,1-4.685.965,6.594,6.594,0,0,1-4.888-1.746,6.6,6.6,0,0,1-1.739-4.869,6.957,6.957,0,0,1,1.879-5.129,6.26,6.26,0,0,1,4.621-1.892,5.681,5.681,0,0,1,4.4,1.688,6.5,6.5,0,0,1,1.555,4.583ZM435.9,20.18q0-2.793-2.26-2.793a2.158,2.158,0,0,0-1.669.8,3.63,3.63,0,0,0-.857,1.993ZM454.559,28h-4V20.776q0-3.021-2.158-3.021a2.141,2.141,0,0,0-1.714.8,3.047,3.047,0,0,0-.673,2.031V28H442V15h4.012v2.057h.051a4.6,4.6,0,0,1,4.177-2.374q4.316,0,4.316,5.357Zm9.5-.343v-3.25a8.541,8.541,0,0,0,1.974.889,6.545,6.545,0,0,0,1.86.292,3.989,3.989,0,0,0,1.682-.292.943.943,0,0,0,.616-.889.822.822,0,0,0-.279-.635,2.6,2.6,0,0,0-.717-.444,8.139,8.139,0,0,0-.958-.343q-.521-.152-1-.343a9.61,9.61,0,0,1-1.365-.628,3.945,3.945,0,0,1-.99-.781,3.069,3.069,0,0,1-.609-1.028,4.1,4.1,0,0,1-.209-1.384,3.562,3.562,0,0,1,.476-1.879,3.889,3.889,0,0,1,1.27-1.289,5.8,5.8,0,0,1,1.815-.736,9.466,9.466,0,0,1,2.126-.235,11.8,11.8,0,0,1,1.752.133,13.077,13.077,0,0,1,1.752.387v3.1a6.331,6.331,0,0,0-1.631-.667,6.881,6.881,0,0,0-1.708-.222,3.783,3.783,0,0,0-.743.07,2.446,2.446,0,0,0-.616.2,1.131,1.131,0,0,0-.419.343.789.789,0,0,0-.152.476.879.879,0,0,0,.229.609,1.985,1.985,0,0,0,.6.438,5.891,5.891,0,0,0,.819.33q.451.146.9.3a11.636,11.636,0,0,1,1.447.609,4.628,4.628,0,0,1,1.111.774,3.041,3.041,0,0,1,.711,1.041,4.165,4.165,0,0,1-.254,3.4,4.015,4.015,0,0,1-1.333,1.333,6.045,6.045,0,0,1-1.917.749,10.627,10.627,0,0,1-2.253.235A11.617,11.617,0,0,1,464.055,27.657ZM488.7,28h-4V26.02h-.063a4.537,4.537,0,0,1-3.974,2.3q-4.52,0-4.52-5.472V15h4v7.49q0,2.755,2.184,2.755a2.16,2.16,0,0,0,1.727-.755,3.046,3.046,0,0,0,.647-2.05V15h4Zm2.526-.343v-3.25a8.541,8.541,0,0,0,1.974.889,6.545,6.545,0,0,0,1.86.292,3.989,3.989,0,0,0,1.682-.292.943.943,0,0,0,.616-.889.822.822,0,0,0-.279-.635,2.6,2.6,0,0,0-.717-.444,8.139,8.139,0,0,0-.958-.343q-.521-.152-1-.343a9.61,9.61,0,0,1-1.365-.628,3.945,3.945,0,0,1-.99-.781,3.069,3.069,0,0,1-.609-1.028,4.1,4.1,0,0,1-.209-1.384,3.562,3.562,0,0,1,.476-1.879,3.889,3.889,0,0,1,1.27-1.289,5.8,5.8,0,0,1,1.815-.736,9.466,9.466,0,0,1,2.126-.235,11.8,11.8,0,0,1,1.752.133,13.077,13.077,0,0,1,1.752.387v3.1a6.331,6.331,0,0,0-1.631-.667,6.881,6.881,0,0,0-1.708-.222,3.783,3.783,0,0,0-.743.07,2.446,2.446,0,0,0-.616.2,1.131,1.131,0,0,0-.419.343.789.789,0,0,0-.152.476.879.879,0,0,0,.229.609,1.985,1.985,0,0,0,.6.438,5.891,5.891,0,0,0,.819.33q.451.146.9.3a11.636,11.636,0,0,1,1.447.609,4.628,4.628,0,0,1,1.111.774,3.041,3.041,0,0,1,.711,1.041A4.165,4.165,0,0,1,500.7,26a4.015,4.015,0,0,1-1.333,1.333,6.045,6.045,0,0,1-1.917.749,10.627,10.627,0,0,1-2.253.235A11.617,11.617,0,0,1,491.223,27.657Zm23.524-1.168H514.7v7.49h-4.012V15H514.7v1.955h.051a5.1,5.1,0,0,1,8.081-.54,7.378,7.378,0,0,1,1.377,4.716A8,8,0,0,1,522.6,26.35a5.236,5.236,0,0,1-4.272,1.968A4.048,4.048,0,0,1,514.748,26.489Zm-.114-5.332V22.2a3.309,3.309,0,0,0,.711,2.2,2.314,2.314,0,0,0,1.866.851,2.46,2.46,0,0,0,2.126-1.06,5.118,5.118,0,0,0,.755-3q0-3.428-2.666-3.428a2.5,2.5,0,0,0-2.012.933A3.722,3.722,0,0,0,514.633,21.157Zm20.655-2.539a3.48,3.48,0,0,0-1.688-.394,2.433,2.433,0,0,0-2.044.958,4.181,4.181,0,0,0-.736,2.609V28h-4.012V15h4.012v2.412h.051a3.47,3.47,0,0,1,3.428-2.641,2.584,2.584,0,0,1,.99.152Zm7.96,9.7a6.988,6.988,0,0,1-5.11-1.822,6.6,6.6,0,0,1-1.86-4.945,6.6,6.6,0,0,1,1.93-5.046,7.291,7.291,0,0,1,5.218-1.822A6.9,6.9,0,0,1,548.5,16.5a6.476,6.476,0,0,1,1.841,4.818,6.874,6.874,0,0,1-1.9,5.116A7.066,7.066,0,0,1,543.249,28.317Zm.1-10.562a2.676,2.676,0,0,0-2.209.978,4.311,4.311,0,0,0-.787,2.768q0,3.745,3.021,3.745,2.882,0,2.882-3.847Q546.257,17.755,543.35,17.755Zm13.66,8.734h-.051v7.49h-4.012V15h4.012v1.955h.051a5.1,5.1,0,0,1,8.081-.54,7.378,7.378,0,0,1,1.377,4.716,8,8,0,0,1-1.606,5.218,5.236,5.236,0,0,1-4.272,1.968A4.048,4.048,0,0,1,557.01,26.489Zm-.114-5.332V22.2a3.309,3.309,0,0,0,.711,2.2,2.314,2.314,0,0,0,1.866.851,2.46,2.46,0,0,0,2.126-1.06,5.118,5.118,0,0,0,.755-3q0-3.428-2.666-3.428a2.5,2.5,0,0,0-2.012.933A3.722,3.722,0,0,0,556.9,21.157ZM571.1,12.943a2.343,2.343,0,0,1-1.663-.6,1.943,1.943,0,0,1-.647-1.479,1.874,1.874,0,0,1,.647-1.473,2.716,2.716,0,0,1,3.333,0,1.882,1.882,0,0,1,.641,1.473,1.935,1.935,0,0,1-.641,1.5A2.383,2.383,0,0,1,571.1,12.943ZM573.083,28h-4.012V15h4.012Zm9.572.317a6.988,6.988,0,0,1-5.11-1.822,6.6,6.6,0,0,1-1.86-4.945,6.6,6.6,0,0,1,1.93-5.046,7.291,7.291,0,0,1,5.218-1.822,6.9,6.9,0,0,1,5.078,1.822,6.476,6.476,0,0,1,1.841,4.818,6.874,6.874,0,0,1-1.9,5.116A7.066,7.066,0,0,1,582.655,28.317Zm.1-10.562a2.676,2.676,0,0,0-2.209.978,4.311,4.311,0,0,0-.787,2.768q0,3.745,3.021,3.745,2.882,0,2.882-3.847Q585.664,17.755,582.756,17.755Zm8.747,9.9v-3.25a8.541,8.541,0,0,0,1.974.889,6.546,6.546,0,0,0,1.86.292,3.989,3.989,0,0,0,1.682-.292.943.943,0,0,0,.616-.889.822.822,0,0,0-.279-.635,2.6,2.6,0,0,0-.717-.444,8.141,8.141,0,0,0-.958-.343q-.52-.152-1-.343a9.608,9.608,0,0,1-1.365-.628,3.945,3.945,0,0,1-.99-.781,3.069,3.069,0,0,1-.609-1.028,4.1,4.1,0,0,1-.209-1.384,3.562,3.562,0,0,1,.476-1.879,3.889,3.889,0,0,1,1.27-1.289,5.8,5.8,0,0,1,1.815-.736,9.466,9.466,0,0,1,2.126-.235,11.8,11.8,0,0,1,1.752.133,13.075,13.075,0,0,1,1.752.387v3.1a6.33,6.33,0,0,0-1.631-.667,6.882,6.882,0,0,0-1.708-.222,3.783,3.783,0,0,0-.743.07,2.446,2.446,0,0,0-.616.2,1.131,1.131,0,0,0-.419.343.789.789,0,0,0-.152.476.879.879,0,0,0,.229.609,1.985,1.985,0,0,0,.6.438,5.888,5.888,0,0,0,.819.33q.451.146.9.3a11.636,11.636,0,0,1,1.447.609,4.627,4.627,0,0,1,1.111.774,3.041,3.041,0,0,1,.711,1.041,4.165,4.165,0,0,1-.254,3.4,4.014,4.014,0,0,1-1.333,1.333,6.045,6.045,0,0,1-1.917.749,10.627,10.627,0,0,1-2.253.235A11.617,11.617,0,0,1,591.5,27.657Zm27.942-9.039a3.48,3.48,0,0,0-1.688-.394,2.433,2.433,0,0,0-2.044.958,4.181,4.181,0,0,0-.736,2.609V28h-4.012V15h4.012v2.412h.051a3.47,3.47,0,0,1,3.428-2.641,2.584,2.584,0,0,1,.99.152Zm13.444,4.024h-8.48q.2,2.831,3.567,2.831a6.965,6.965,0,0,0,3.771-1.016v2.895a9.9,9.9,0,0,1-4.685.965,6.594,6.594,0,0,1-4.888-1.746,6.6,6.6,0,0,1-1.739-4.869,6.957,6.957,0,0,1,1.879-5.129,6.26,6.26,0,0,1,4.621-1.892,5.681,5.681,0,0,1,4.4,1.688,6.5,6.5,0,0,1,1.555,4.583Zm-3.72-2.463q0-2.793-2.26-2.793a2.158,2.158,0,0,0-1.669.8,3.63,3.63,0,0,0-.857,1.993Zm15.958,7.351a7.932,7.932,0,0,1-3.923.787,6.634,6.634,0,0,1-4.85-1.815,6.27,6.27,0,0,1-1.854-4.685,6.907,6.907,0,0,1,1.987-5.224,7.342,7.342,0,0,1,5.313-1.911,6.817,6.817,0,0,1,3.326.609v3.4a4.573,4.573,0,0,0-2.806-.939,3.7,3.7,0,0,0-2.736,1.009,3.766,3.766,0,0,0-1.009,2.787,3.7,3.7,0,0,0,.965,2.71,3.546,3.546,0,0,0,2.653.984,5.3,5.3,0,0,0,2.933-.939Zm14.98.47h-4V26.02h-.063a4.537,4.537,0,0,1-3.974,2.3q-4.52,0-4.52-5.472V15h4v7.49q0,2.755,2.184,2.755a2.16,2.16,0,0,0,1.727-.755,3.046,3.046,0,0,0,.647-2.05V15h4Zm11.857-9.382a3.48,3.48,0,0,0-1.688-.394,2.433,2.433,0,0,0-2.044.958,4.181,4.181,0,0,0-.736,2.609V28h-4.012V15H667.5v2.412h.051a3.47,3.47,0,0,1,3.428-2.641,2.584,2.584,0,0,1,.99.152Zm1.168,9.039v-3.25a8.541,8.541,0,0,0,1.974.889,6.546,6.546,0,0,0,1.86.292,3.989,3.989,0,0,0,1.682-.292.943.943,0,0,0,.616-.889.822.822,0,0,0-.279-.635,2.6,2.6,0,0,0-.717-.444,8.141,8.141,0,0,0-.958-.343q-.52-.152-1-.343a9.608,9.608,0,0,1-1.365-.628,3.945,3.945,0,0,1-.99-.781,3.069,3.069,0,0,1-.609-1.028,4.1,4.1,0,0,1-.209-1.384,3.562,3.562,0,0,1,.476-1.879,3.889,3.889,0,0,1,1.27-1.289,5.8,5.8,0,0,1,1.815-.736,9.466,9.466,0,0,1,2.126-.235,11.8,11.8,0,0,1,1.752.133,13.075,13.075,0,0,1,1.752.387v3.1a6.33,6.33,0,0,0-1.631-.667,6.882,6.882,0,0,0-1.708-.222,3.783,3.783,0,0,0-.743.07,2.446,2.446,0,0,0-.616.2,1.131,1.131,0,0,0-.419.343.789.789,0,0,0-.152.476.879.879,0,0,0,.229.609,1.985,1.985,0,0,0,.6.438,5.888,5.888,0,0,0,.819.33q.451.146.9.3a11.636,11.636,0,0,1,1.447.609,4.627,4.627,0,0,1,1.111.774,3.041,3.041,0,0,1,.711,1.041,4.165,4.165,0,0,1-.254,3.4,4.014,4.014,0,0,1-1.333,1.333,6.045,6.045,0,0,1-1.917.749,10.627,10.627,0,0,1-2.253.235A11.617,11.617,0,0,1,673.134,27.657Zm18.484.66a6.988,6.988,0,0,1-5.11-1.822,6.6,6.6,0,0,1-1.86-4.945,6.6,6.6,0,0,1,1.93-5.046,7.291,7.291,0,0,1,5.218-1.822,6.9,6.9,0,0,1,5.078,1.822,6.476,6.476,0,0,1,1.841,4.818,6.874,6.874,0,0,1-1.9,5.116A7.066,7.066,0,0,1,691.619,28.317Zm.1-10.562a2.676,2.676,0,0,0-2.209.978,4.311,4.311,0,0,0-.787,2.768q0,3.745,3.021,3.745,2.882,0,2.882-3.847Q694.627,17.755,691.72,17.755Zm8.747,9.9v-3.25a8.541,8.541,0,0,0,1.974.889,6.546,6.546,0,0,0,1.86.292,3.989,3.989,0,0,0,1.682-.292.943.943,0,0,0,.616-.889.822.822,0,0,0-.279-.635,2.6,2.6,0,0,0-.717-.444,8.141,8.141,0,0,0-.958-.343q-.52-.152-1-.343a9.608,9.608,0,0,1-1.365-.628,3.945,3.945,0,0,1-.99-.781,3.069,3.069,0,0,1-.609-1.028,4.1,4.1,0,0,1-.209-1.384,3.562,3.562,0,0,1,.476-1.879,3.889,3.889,0,0,1,1.27-1.289,5.8,5.8,0,0,1,1.815-.736,9.466,9.466,0,0,1,2.126-.235,11.8,11.8,0,0,1,1.752.133,13.075,13.075,0,0,1,1.752.387v3.1a6.33,6.33,0,0,0-1.631-.667,6.882,6.882,0,0,0-1.708-.222,3.783,3.783,0,0,0-.743.07,2.446,2.446,0,0,0-.616.2,1.131,1.131,0,0,0-.419.343.789.789,0,0,0-.152.476.879.879,0,0,0,.229.609,1.985,1.985,0,0,0,.6.438,5.888,5.888,0,0,0,.819.33q.451.146.9.3a11.636,11.636,0,0,1,1.447.609,4.627,4.627,0,0,1,1.111.774A3.041,3.041,0,0,1,710.2,22.6a4.165,4.165,0,0,1-.254,3.4,4.014,4.014,0,0,1-1.333,1.333,6.045,6.045,0,0,1-1.917.749,10.627,10.627,0,0,1-2.253.235A11.617,11.617,0,0,1,700.467,27.657ZM156.714,59h-4V51.776q0-3.021-2.158-3.021a2.141,2.141,0,0,0-1.714.8,3.047,3.047,0,0,0-.673,2.031V59h-4.012V46h4.012v2.057h.051a4.6,4.6,0,0,1,4.177-2.374q4.316,0,4.316,5.357Zm13.99,0h-3.8V57.134h-.051a4.237,4.237,0,0,1-3.872,2.184,4.05,4.05,0,0,1-2.977-1.073,3.844,3.844,0,0,1-1.085-2.863q0-3.783,4.481-4.367l3.529-.47q0-2.133-2.311-2.133a7.887,7.887,0,0,0-4.418,1.384V46.774a9.939,9.939,0,0,1,2.292-.762,12.046,12.046,0,0,1,2.647-.33q5.561,0,5.561,5.548Zm-3.771-5.281v-.876l-2.361.3q-1.955.254-1.955,1.765a1.458,1.458,0,0,0,.476,1.124,1.829,1.829,0,0,0,1.289.438,2.375,2.375,0,0,0,1.841-.781A2.82,2.82,0,0,0,166.934,53.719Zm14.8,5.129a5.93,5.93,0,0,1-2.679.47q-4.24,0-4.24-4.405V48.958H172.71V46h2.107V43.194l4-1.143V46h2.92v2.958h-2.92v5.256q0,2.031,1.612,2.031a2.718,2.718,0,0,0,1.308-.368ZM196.349,59h-4V57.02h-.063a4.537,4.537,0,0,1-3.974,2.3q-4.52,0-4.52-5.472V46h4v7.49q0,2.755,2.184,2.755a2.16,2.16,0,0,0,1.727-.755,3.046,3.046,0,0,0,.647-2.05V46h4Zm11.857-9.382a3.48,3.48,0,0,0-1.688-.394,2.433,2.433,0,0,0-2.044.958,4.181,4.181,0,0,0-.736,2.609V59h-4.012V46h4.012v2.412h.051a3.47,3.47,0,0,1,3.428-2.641,2.583,2.583,0,0,1,.99.152ZM220.889,59h-3.8V57.134h-.051a4.237,4.237,0,0,1-3.872,2.184,4.05,4.05,0,0,1-2.977-1.073,3.844,3.844,0,0,1-1.085-2.863q0-3.783,4.481-4.367l3.529-.47q0-2.133-2.311-2.133A7.887,7.887,0,0,0,210.39,49.8V46.774a9.939,9.939,0,0,1,2.292-.762,12.046,12.046,0,0,1,2.647-.33q5.561,0,5.561,5.548Zm-3.771-5.281v-.876l-2.361.3q-1.955.254-1.955,1.765a1.458,1.458,0,0,0,.476,1.124,1.829,1.829,0,0,0,1.289.438,2.375,2.375,0,0,0,1.841-.781A2.82,2.82,0,0,0,217.119,53.719ZM228.075,59h-4.012V39.754h4.012Zm15.057-5.357h-8.48q.2,2.831,3.567,2.831a6.965,6.965,0,0,0,3.771-1.016v2.895a9.9,9.9,0,0,1-4.685.965,6.051,6.051,0,0,1-6.627-6.614,6.957,6.957,0,0,1,1.879-5.129,6.26,6.26,0,0,1,4.621-1.892,5.681,5.681,0,0,1,4.4,1.688,6.5,6.5,0,0,1,1.555,4.583Zm-3.72-2.463q0-2.793-2.26-2.793a2.158,2.158,0,0,0-1.669.8,3.63,3.63,0,0,0-.857,1.993Zm5.256,7.478v-3.25a8.541,8.541,0,0,0,1.974.889,6.546,6.546,0,0,0,1.86.292,3.989,3.989,0,0,0,1.682-.292.943.943,0,0,0,.616-.889.822.822,0,0,0-.279-.635,2.6,2.6,0,0,0-.717-.444,8.14,8.14,0,0,0-.958-.343q-.521-.152-1-.343a9.609,9.609,0,0,1-1.365-.628,3.945,3.945,0,0,1-.99-.781,3.069,3.069,0,0,1-.609-1.028,4.1,4.1,0,0,1-.209-1.384,3.562,3.562,0,0,1,.476-1.879,3.889,3.889,0,0,1,1.27-1.289,5.8,5.8,0,0,1,1.815-.736,9.466,9.466,0,0,1,2.126-.235,11.8,11.8,0,0,1,1.752.133,13.076,13.076,0,0,1,1.752.387v3.1a6.33,6.33,0,0,0-1.631-.667,6.881,6.881,0,0,0-1.708-.222,3.783,3.783,0,0,0-.743.07,2.446,2.446,0,0,0-.616.2,1.131,1.131,0,0,0-.419.343.789.789,0,0,0-.152.476.879.879,0,0,0,.229.609,1.985,1.985,0,0,0,.6.438,5.89,5.89,0,0,0,.819.33q.451.146.9.3a11.637,11.637,0,0,1,1.447.609,4.627,4.627,0,0,1,1.111.774A3.041,3.041,0,0,1,254.4,53.6a4.165,4.165,0,0,1-.254,3.4,4.015,4.015,0,0,1-1.333,1.333,6.045,6.045,0,0,1-1.917.749,10.627,10.627,0,0,1-2.253.235A11.617,11.617,0,0,1,244.667,58.657ZM260.752,55.8l-1.866,6.424h-3.123l1.295-6.424Zm14.485,1.688h-.051v7.49h-4.012V46h4.012v1.955h.051a5.1,5.1,0,0,1,8.081-.54,7.378,7.378,0,0,1,1.377,4.716,8,8,0,0,1-1.606,5.218,5.236,5.236,0,0,1-4.272,1.968A4.048,4.048,0,0,1,275.238,57.489Zm-.114-5.332V53.2a3.309,3.309,0,0,0,.711,2.2,2.314,2.314,0,0,0,1.866.851,2.46,2.46,0,0,0,2.126-1.06,5.118,5.118,0,0,0,.755-3q0-3.428-2.666-3.428a2.5,2.5,0,0,0-2.012.933A3.722,3.722,0,0,0,275.124,52.157ZM297.861,59h-3.8V57.134h-.051a4.237,4.237,0,0,1-3.872,2.184,4.05,4.05,0,0,1-2.977-1.073,3.844,3.844,0,0,1-1.085-2.863q0-3.783,4.481-4.367l3.529-.47q0-2.133-2.311-2.133a7.887,7.887,0,0,0-4.418,1.384V46.774a9.939,9.939,0,0,1,2.292-.762,12.046,12.046,0,0,1,2.647-.33q5.561,0,5.561,5.548Zm-3.771-5.281v-.876l-2.361.3q-1.955.254-1.955,1.765a1.458,1.458,0,0,0,.476,1.124,1.829,1.829,0,0,0,1.289.438,2.375,2.375,0,0,0,1.841-.781A2.82,2.82,0,0,0,294.09,53.719Zm15.425-4.1a3.48,3.48,0,0,0-1.688-.394,2.433,2.433,0,0,0-2.044.958,4.182,4.182,0,0,0-.736,2.609V59h-4.012V46h4.012v2.412h.051a3.47,3.47,0,0,1,3.428-2.641,2.583,2.583,0,0,1,.99.152ZM322.2,59h-3.8V57.134h-.051a4.237,4.237,0,0,1-3.872,2.184,4.05,4.05,0,0,1-2.977-1.073,3.844,3.844,0,0,1-1.085-2.863q0-3.783,4.481-4.367l3.529-.47q0-2.133-2.311-2.133A7.887,7.887,0,0,0,311.7,49.8V46.774a9.939,9.939,0,0,1,2.292-.762,12.046,12.046,0,0,1,2.647-.33q5.561,0,5.561,5.548Zm-3.771-5.281v-.876l-2.361.3q-1.955.254-1.955,1.765a1.458,1.458,0,0,0,.476,1.124,1.829,1.829,0,0,0,1.289.438,2.375,2.375,0,0,0,1.841-.781A2.82,2.82,0,0,0,318.427,53.719ZM342.4,58.53a7.932,7.932,0,0,1-3.923.787,6.634,6.634,0,0,1-4.85-1.815,6.27,6.27,0,0,1-1.854-4.685,6.907,6.907,0,0,1,1.987-5.224,7.343,7.343,0,0,1,5.313-1.911,6.817,6.817,0,0,1,3.326.609v3.4a4.573,4.573,0,0,0-2.806-.939,3.7,3.7,0,0,0-2.736,1.009,3.766,3.766,0,0,0-1.009,2.787,3.7,3.7,0,0,0,.965,2.71,3.546,3.546,0,0,0,2.653.984,5.3,5.3,0,0,0,2.933-.939Zm8.823.787a6.988,6.988,0,0,1-5.11-1.822,6.6,6.6,0,0,1-1.86-4.945,6.6,6.6,0,0,1,1.93-5.046,7.291,7.291,0,0,1,5.218-1.822,6.9,6.9,0,0,1,5.078,1.822,6.476,6.476,0,0,1,1.841,4.818,6.874,6.874,0,0,1-1.9,5.116A7.066,7.066,0,0,1,351.219,59.317Zm.1-10.562a2.676,2.676,0,0,0-2.209.978,4.311,4.311,0,0,0-.787,2.768q0,3.745,3.021,3.745,2.882,0,2.882-3.847Q354.228,48.755,351.321,48.755ZM381.561,59h-4V51.586q0-2.831-2.082-2.831a1.913,1.913,0,0,0-1.612.851,3.5,3.5,0,0,0-.622,2.12V59h-4.012V51.51q0-2.755-2.044-2.755a1.959,1.959,0,0,0-1.644.813,3.575,3.575,0,0,0-.616,2.209V59h-4.012V46h4.012v2.031h.051a4.926,4.926,0,0,1,4.2-2.349,3.743,3.743,0,0,1,3.771,2.425,4.809,4.809,0,0,1,4.367-2.425q4.24,0,4.24,5.23Zm7.236-1.511h-.051v7.49h-4.012V46h4.012v1.955h.051a5.1,5.1,0,0,1,8.081-.54,7.378,7.378,0,0,1,1.377,4.716,8,8,0,0,1-1.606,5.218,5.236,5.236,0,0,1-4.272,1.968A4.048,4.048,0,0,1,388.8,57.489Zm-.114-5.332V53.2a3.309,3.309,0,0,0,.711,2.2,2.314,2.314,0,0,0,1.866.851,2.46,2.46,0,0,0,2.126-1.06,5.118,5.118,0,0,0,.755-3q0-3.428-2.666-3.428a2.5,2.5,0,0,0-2.012.933A3.722,3.722,0,0,0,388.683,52.157Zm20.655-2.539a3.48,3.48,0,0,0-1.688-.394,2.433,2.433,0,0,0-2.044.958,4.182,4.182,0,0,0-.736,2.609V59h-4.012V46h4.012v2.412h.051a3.47,3.47,0,0,1,3.428-2.641,2.583,2.583,0,0,1,.99.152Zm13.444,4.024H414.3q.2,2.831,3.567,2.831a6.965,6.965,0,0,0,3.771-1.016v2.895a9.9,9.9,0,0,1-4.685.965,6.051,6.051,0,0,1-6.627-6.614,6.957,6.957,0,0,1,1.879-5.129,6.26,6.26,0,0,1,4.621-1.892,5.681,5.681,0,0,1,4.4,1.688,6.5,6.5,0,0,1,1.555,4.583Zm-3.72-2.463q0-2.793-2.26-2.793a2.158,2.158,0,0,0-1.669.8,3.63,3.63,0,0,0-.857,1.993ZM437.725,59h-4V51.776q0-3.021-2.158-3.021a2.141,2.141,0,0,0-1.714.8,3.047,3.047,0,0,0-.673,2.031V59h-4.012V46h4.012v2.057h.051a4.6,4.6,0,0,1,4.177-2.374q4.316,0,4.316,5.357Zm15.895,0h-4.012V57.21h-.051a4.5,4.5,0,0,1-4.024,2.107,4.929,4.929,0,0,1-3.923-1.72,7.121,7.121,0,0,1-1.485-4.805,7.751,7.751,0,0,1,1.638-5.167,5.342,5.342,0,0,1,4.291-1.942,3.65,3.65,0,0,1,3.5,1.8h.051V39.754h4.012Zm-3.936-6.322V51.7a3.076,3.076,0,0,0-.736-2.107,2.6,2.6,0,0,0-4,.209,4.864,4.864,0,0,0-.749,2.875,4.209,4.209,0,0,0,.724,2.641,2.569,2.569,0,0,0,3.993-.051A4.074,4.074,0,0,0,449.684,52.678Zm18.992.965H460.2q.2,2.831,3.567,2.831a6.965,6.965,0,0,0,3.771-1.016v2.895a9.9,9.9,0,0,1-4.685.965,6.051,6.051,0,0,1-6.627-6.614,6.957,6.957,0,0,1,1.879-5.129,6.26,6.26,0,0,1,4.621-1.892,5.681,5.681,0,0,1,4.4,1.688,6.5,6.5,0,0,1,1.555,4.583Zm-3.72-2.463q0-2.793-2.26-2.793a2.158,2.158,0,0,0-1.669.8,3.63,3.63,0,0,0-.857,1.993Zm14.587-1.562a3.48,3.48,0,0,0-1.688-.394,2.433,2.433,0,0,0-2.044.958,4.182,4.182,0,0,0-.736,2.609V59h-4.012V46h4.012v2.412h.051a3.47,3.47,0,0,1,3.428-2.641,2.583,2.583,0,0,1,.99.152Zm20.719,4.024h-8.48q.2,2.831,3.567,2.831a6.965,6.965,0,0,0,3.771-1.016v2.895a9.9,9.9,0,0,1-4.685.965,6.051,6.051,0,0,1-6.627-6.614,6.957,6.957,0,0,1,1.879-5.129,6.26,6.26,0,0,1,4.621-1.892,5.681,5.681,0,0,1,4.4,1.688,6.5,6.5,0,0,1,1.555,4.583Zm-3.72-2.463q0-2.793-2.26-2.793a2.158,2.158,0,0,0-1.669.8,3.63,3.63,0,0,0-.857,1.993ZM506.661,59h-4.012V39.754h4.012Zm31.192,0h-4V51.586q0-2.831-2.082-2.831a1.913,1.913,0,0,0-1.612.851,3.5,3.5,0,0,0-.622,2.12V59h-4.012V51.51q0-2.755-2.044-2.755a1.959,1.959,0,0,0-1.644.813,3.575,3.575,0,0,0-.616,2.209V59H517.21V46h4.012v2.031h.051a4.926,4.926,0,0,1,4.2-2.349,3.743,3.743,0,0,1,3.771,2.425,4.809,4.809,0,0,1,4.367-2.425q4.24,0,4.24,5.23Zm15.526,0h-4V57.02h-.063a4.537,4.537,0,0,1-3.974,2.3q-4.52,0-4.52-5.472V46h4v7.49q0,2.755,2.184,2.755a2.16,2.16,0,0,0,1.727-.755,3.046,3.046,0,0,0,.647-2.05V46h4Zm15.933,0h-4V51.776q0-3.021-2.158-3.021a2.141,2.141,0,0,0-1.714.8,3.047,3.047,0,0,0-.673,2.031V59h-4.012V46h4.012v2.057h.051A4.6,4.6,0,0,1,565,45.683q4.316,0,4.316,5.357Zm15.895,0h-4.012V57.21h-.051a4.5,4.5,0,0,1-4.024,2.107A4.929,4.929,0,0,1,573.2,57.6a7.121,7.121,0,0,1-1.485-4.805,7.751,7.751,0,0,1,1.638-5.167,5.342,5.342,0,0,1,4.291-1.942,3.65,3.65,0,0,1,3.5,1.8h.051V39.754h4.012Zm-3.936-6.322V51.7a3.076,3.076,0,0,0-.736-2.107,2.6,2.6,0,0,0-4,.209,4.864,4.864,0,0,0-.749,2.875,4.209,4.209,0,0,0,.724,2.641,2.569,2.569,0,0,0,3.993-.051A4.075,4.075,0,0,0,581.271,52.678Zm13.508,6.64a6.988,6.988,0,0,1-5.11-1.822,6.6,6.6,0,0,1-1.86-4.945,6.6,6.6,0,0,1,1.93-5.046,7.291,7.291,0,0,1,5.218-1.822,6.9,6.9,0,0,1,5.078,1.822,6.476,6.476,0,0,1,1.841,4.818,6.874,6.874,0,0,1-1.9,5.116A7.066,7.066,0,0,1,594.779,59.317Zm.1-10.562a2.676,2.676,0,0,0-2.209.978,4.311,4.311,0,0,0-.787,2.768q0,3.745,3.021,3.745,2.882,0,2.882-3.847Q597.788,48.755,594.88,48.755Zm17.443-8.392L609.912,46h-2.5l1.435-5.637Zm-5.269,0L604.6,46h-2.463l1.447-5.637Z" transform="translate(471.83 6348.591)" fill="#0b0a0a"/>
    <g id="Grupo_1212543" data-name="Grupo 1212543" transform="translate(444.783 6374.921)">
      <path id="Trazado_1083538" data-name="Trazado 1083538" d="M71.552,182.425c2.1-5.7,1.056-9.245.814-13.506a44.227,44.227,0,0,1,.729-9.041q1.086-7.251,2.174-14.5c.075-.5.233-1.111.7-1.246.654-.187,1.068.7,1.208,1.389l1.545,7.645a.136.136,0,0,0,.26.034c2.624-5.7,6.121-12.072,8.3-14.489.848-.781,1.5-.039,1.361.99l-5.3,15.386a.143.143,0,0,0,.257.125l6.139-10.831a14.673,14.673,0,0,1,2.781-3.857.662.662,0,0,1,1.1.362,7.157,7.157,0,0,1-.753,3.788c-2.92,7.427-4.851,12.595-4.609,12.8.319.083,3.6-6.389,5.839-10.555a5.24,5.24,0,0,1,2.049-2.325c.819-.355,1.387.2,1.207,1.114a46.951,46.951,0,0,1-4.887,13.344.14.14,0,0,0,.229.161s4.835-9.633,6.219-8.778c1.1.678.216,2.993-.34,4.414-3.052,7.785-8.381,18.486-13.8,24.937-3.37,4.016-3.922,6.178-4.3,7.435" transform="translate(-71.552 -138.385)" fill="#f4966b"/>
    </g>
    <g id="Grupo_1212552" data-name="Grupo 1212552" transform="translate(375.626 6339.01)">
      <g id="Grupo_1212544" data-name="Grupo 1212544" transform="translate(1.228)">
        <path id="Trazado_1083539" data-name="Trazado 1083539" d="M163.424,107.106c-5.865-.322-6.106.113-11.971-.208a38.957,38.957,0,0,0-10.234.9c-4.63,1.028-11.437,6.525-13.1,8.852-10.049,14.063-18.168,22.912-26.464,38.567-1.036,1.956-1.327,7.25-1.584,9.524-.369,3.26.942,6.3,2.212,9.09,9.069,19.9,20.825,38.862,38.063,47.485,6.217,3.11,22.225,10.7,22.884,10.817" transform="translate(-100.009 -106.851)" fill="#cab4ae"/>
      </g>
      <g id="Grupo_1212545" data-name="Grupo 1212545" transform="translate(1.823 27.491)">
        <path id="Trazado_1083540" data-name="Trazado 1083540" d="M163.282,191.515c-14.406-11.72-28.427-23.073-42.833-34.793a97.5,97.5,0,0,1-11.485-11.485c-3.2-4.168-1.794-8.092,1.066-11.339l-3.1-2.907c-4.362,5.67-6.242,10.011-8.868,15.556-1.211,2.555-1.139,4.882-1.308,7.705-.245,4.071,2.131,9.512,4.2,13.025,15.54,26.336,35.488,40.513,58.43,60.729" transform="translate(-96.736 -130.991)" fill="#38303b"/>
      </g>
      <g id="Grupo_1212546" data-name="Grupo 1212546" transform="translate(0 49.5)">
        <path id="Trazado_1083541" data-name="Trazado 1083541" d="M164.339,221.147a.924.924,0,0,1,.309,1.2c-2.368,4.546-8.422,12.531-10.714,16.466-1.81,3.108-7.358,3.387-13.146,1-3.994-1.65-8.769-6.488-11.642-9.716-5.426-6.1-10.8-15.55-15.12-24.064-5.7-11.234-9.18-22.172-11.945-31.032-2.629-8.424-4.157-15.882-1.158-23.911.228-.609.3-1.024.776-.582l21.419,22.969c-1.545-1.979,2.978,4.2,3.586,5.137L145,208.122a.924.924,0,0,0,.273.282Z" transform="translate(-99.277 -150.318)" fill="#cab4ae"/>
      </g>
      <g id="Grupo_1212547" data-name="Grupo 1212547" transform="translate(45.835 75.982)">
        <path id="Trazado_1083542" data-name="Trazado 1083542" d="M92.492,237.443c4.239-2.279,11.863-10.766,14.422-17.026,4.036-9.874,14.65-35.741,13.827-40.1-.35-1.852-7.787-5.1-10.8-6.684-1.8-.944-6.625,9.567-10.866,16.572-1.314,2.172-9.3,13.969-13.251,19.135" transform="translate(-85.824 -173.573)" fill="#cab4ae"/>
      </g>
      <g id="Grupo_1212548" data-name="Grupo 1212548" transform="translate(36.159 84.575)">
        <path id="Trazado_1083543" data-name="Trazado 1083543" d="M101.37,212.563c9.232-8.428,19.989-27.956,21.928-31.445" transform="translate(-96.365 -181.118)" fill="none" stroke="#38303b" stroke-linecap="round" stroke-miterlimit="10" stroke-width="1"/>
        <path id="Trazado_1083544" data-name="Trazado 1083544" d="M126.413,202.071a24.339,24.339,0,0,0-11.425,1.537" transform="translate(-114.988 -178.23)" fill="none" stroke="#38303b" stroke-linecap="round" stroke-miterlimit="10" stroke-width="1"/>
      </g>
      <g id="Grupo_1212549" data-name="Grupo 1212549" transform="translate(24.374 5.345)">
        <path id="Trazado_1083545" data-name="Trazado 1083545" d="M103.793,121.332a10.4,10.4,0,0,1,9.38-1.248,105.448,105.448,0,0,1,27.013,16.658c.11-2.454.13-6.754,0-9.207a1.952,1.952,0,0,0-.921-1.648c-.738-.639-1.435-1.092-2.2-1.7a78.137,78.137,0,0,0-19.589-11.322,15.555,15.555,0,0,0-6.947-1.274c-3.608.377-8,4.652-10.516,7.269" transform="translate(-100.014 -111.544)" fill="#38303b"/>
      </g>
      <g id="Grupo_1212551" data-name="Grupo 1212551" transform="translate(67.899 74.57)">
        <g id="Grupo_1212550" data-name="Grupo 1212550" transform="translate(0)">
          <path id="Trazado_1083546" data-name="Trazado 1083546" d="M97.046,180.609A98.592,98.592,0,0,1,85.2,174.643a1.234,1.234,0,0,1,1.245-2.13,98.592,98.592,0,0,0,11.844,5.966,1.241,1.241,0,0,1,.443,1.687,1.267,1.267,0,0,1-1.688.443Z" transform="translate(-84.608 -172.333)" fill="#fff"/>
        </g>
      </g>
    </g>
    <g id="Grupo_1212560" data-name="Grupo 1212560" transform="translate(431.982 6323.648)">
      <g id="Grupo_1212553" data-name="Grupo 1212553" transform="translate(0)">
        <path id="Trazado_1083547" data-name="Trazado 1083547" d="M99.239,102.825c5.9.062,10.689.346,10.653,3.753-.031,2.937-4.825,3.592-10.73,3.53s-10.684-.817-10.653-3.753C88.545,102.948,93.334,102.764,99.239,102.825Z" transform="translate(-88.509 -92.049)" fill="#f4966b"/>
        <path id="Trazado_1083548" data-name="Trazado 1083548" d="M99.376,108.408c5.159.054,9.339.3,9.308,3.28-.027,2.567-4.216,3.138-9.374,3.084s-9.335-.714-9.308-3.28C90.033,108.516,94.218,108.354,99.376,108.408Z" transform="translate(-89.002 -91.274)" fill="#f4966b"/>
        <path id="Trazado_1083549" data-name="Trazado 1083549" d="M99.433,97.447c5.342.056,9.669.313,9.638,3.4-.027,2.657-4.365,3.25-9.707,3.193s-9.665-.739-9.638-3.4C89.759,97.559,94.091,97.391,99.433,97.447Z" transform="translate(-89.073 -92.795)" fill="#f4966b"/>
        <path id="Trazado_1083550" data-name="Trazado 1083550" d="M99.527,93.367c4.013.042,7.265.236,7.242,2.552-.02,2-3.28,2.442-7.294,2.4s-7.262-.556-7.242-2.552C92.258,93.451,95.514,93.326,99.527,93.367Z" transform="translate(-89.626 -93.361)" fill="#f4966b"/>
        <path id="Trazado_1083551" data-name="Trazado 1083551" d="M103.548,109.987c-3.833-.608-2.669.871-3.3,4.819s-.6,7.259,3.232,7.867" transform="translate(-95.193 -91.072)" fill="#f4966b"/>
      </g>
      <g id="Grupo_1212555" data-name="Grupo 1212555" transform="translate(4.436 3.995)">
        <g id="Grupo_1212554" data-name="Grupo 1212554" transform="translate(0)">
          <path id="Trazado_1083552" data-name="Trazado 1083552" d="M104.147,98.1a33.879,33.879,0,0,1-3.551.007c-2.016-.071-4.029-.106-6.046-.093a.57.57,0,0,1,0-1.139c2.017-.013,4.031.023,6.046.093a33.879,33.879,0,0,0,3.551-.007c.731-.051.729,1.088,0,1.139Z" transform="translate(-94 -96.869)" fill="#ed825d"/>
        </g>
      </g>
      <g id="Grupo_1212557" data-name="Grupo 1212557" transform="translate(3.952 10.09)">
        <g id="Grupo_1212556" data-name="Grupo 1212556" transform="translate(0)">
          <path id="Trazado_1083553" data-name="Trazado 1083553" d="M104.8,103.361c-3.838.108-7.677.2-11.514.305a.57.57,0,0,1,0-1.139c3.838-.108,7.677-.2,11.514-.305a.57.57,0,0,1,0,1.139Z" transform="translate(-92.74 -102.222)" fill="#ed825d"/>
        </g>
      </g>
      <g id="Grupo_1212559" data-name="Grupo 1212559" transform="translate(2.833 16.988)">
        <g id="Grupo_1212558" data-name="Grupo 1212558" transform="translate(0)">
          <path id="Trazado_1083554" data-name="Trazado 1083554" d="M106.066,109.722l-13.811-.3a.57.57,0,0,1,0-1.139l13.811.3a.57.57,0,0,1,0,1.139Z" transform="translate(-91.705 -108.279)" fill="#ed825d"/>
        </g>
      </g>
    </g>
    <g id="Grupo_1212562" data-name="Grupo 1212562" transform="translate(375.655 6342.397)">
      <path id="Trazado_1083555" data-name="Trazado 1083555" d="M158.463,124.669c-3.948-3.4-11.962-11.015-15.91-14.411a1.732,1.732,0,0,0-.638-.4,1.444,1.444,0,0,0-1.159.351c-2.818,1.946-4.877,4.842-7.767,6.687-2.363,1.509-5.324,2.365-6.869,4.709a1.323,1.323,0,0,0-.279.8,1.675,1.675,0,0,0,.517.921c1.064,1.191,2.177,2.337,3.29,3.482,3.4,3.5,10.463,10.632,13.862,14.13,0,0,9.315,4.453,15.487-2.725C163.88,132.535,158.463,124.669,158.463,124.669Z" transform="translate(-125.839 -109.825)" fill="#f4966b"/>
      <path id="Trazado_1083556" data-name="Trazado 1083556" d="M136.861,122.4a1.306,1.306,0,0,1,.279-.8c1.544-2.344,4.506-3.2,6.869-4.709,2.889-1.845,4.948-4.74,7.767-6.687a1.444,1.444,0,0,1,1.159-.351,1.726,1.726,0,0,1,.638.4c1.954,1.681,3.98,3.769,5.934,5.449a18.315,18.315,0,0,1-4.7,8.318,14.581,14.581,0,0,1-12.547,4.409q-.793-.817-1.586-1.631c-1.114-1.146-2.227-2.291-3.29-3.482A1.665,1.665,0,0,1,136.861,122.4Z" transform="translate(-136.858 -109.825)" fill="#ed825d"/>
    </g>
    <g id="Grupo_1212563" data-name="Grupo 1212563" transform="translate(388.951 6352.785)">
      <path id="Trazado_1083557" data-name="Trazado 1083557" d="M125.594,136.2c3.028,1.8,6.706,3.665,10.324,3.821a9.157,9.157,0,0,0,7.691-3.671c4.031-5.241.838-12.563-3.624-16.577l1.987-.776.29-.049c4,3.6,6.818,9.351,5.153,14.777A11.756,11.756,0,0,1,135,142.16c-3.7-.434-7.179-2.2-10.324-4.071" transform="translate(-124.673 -118.947)" fill="#fff"/>
    </g>
    <g id="Grupo_1212583" data-name="Grupo 1212583" transform="translate(340.17 6285.21)">
      <path id="Trazado_1083558" data-name="Trazado 1083558" d="M161.057,128.826c-6.145-.351-11.761-3.642-15.924-8s-7.04-9.738-9.607-15.164c-1.3-2.741-2.512-6.024-.982-8.708a10.456,10.456,0,0,1,3.52-3.219c6.245-4.153,12.544-8.336,19.479-11.217s14.639-4.407,21.947-3.009a6.169,6.169,0,0,1,3,1.221,6.549,6.549,0,0,1,1.574,2.791c2.481,6.882,4.772,14.064,4.18,21.4s-4.7,14.924-11.7,17.726" transform="translate(-126.76 -56.919)" fill="#38303b"/>
      <g id="Grupo_1212565" data-name="Grupo 1212565" transform="translate(14.042 21.252)">
        <path id="Trazado_1083559" data-name="Trazado 1083559" d="M138.9,112.25c5.656,13.965,20.365,21.186,29.384,17.533s14.558-19.075,8.9-33.04S156.817,75.557,147.8,79.211,133.239,98.285,138.9,112.25Z" transform="translate(-135.092 -78.27)" fill="#f4966b"/>
        <g id="Grupo_1212564" data-name="Grupo 1212564" transform="translate(0 14.514)">
          <path id="Trazado_1083560" data-name="Trazado 1083560" d="M176.437,113.675c-2.634.272-5.467-.856-6.607-3.117a4.729,4.729,0,0,1,2.487-6.385" transform="translate(-169.382 -89.188)" fill="#f4966b"/>
          <path id="Trazado_1083561" data-name="Trazado 1083561" d="M139.322,101.084c2.081-1.638,3.33-4.42,2.576-6.837a4.73,4.73,0,0,0-6.23-2.855" transform="translate(-96.671 -91.014)" fill="#f4966b"/>
        </g>
      </g>
      <g id="face_20_" transform="translate(18.341 30.308)">
        <g id="Grupo_1212566" data-name="Grupo 1212566" transform="translate(18.181 11.966)">
          <path id="Trazado_1083562" data-name="Trazado 1083562" d="M150.3,96.992q1.3,2.783,2.6,5.566c.15.322.359,1.168.776,1.271.328.081.752-.1,1.106-.049a2.215,2.215,0,0,1,1.369.829,2.635,2.635,0,0,1,.039,3.241,4.212,4.212,0,0,1-4.026,1.335.451.451,0,0,1,.13-.892c1.224.207,2.992-.138,3.46-1.477a1.582,1.582,0,0,0-1.459-2.144c-.609.059-1.148.1-1.557-.443a11.266,11.266,0,0,1-1.007-2.054l-2.262-4.846c-.247-.524.588-.861.832-.337Z" transform="translate(-149.423 -96.729)" fill="#ed825d"/>
        </g>
        <g id="Grupo_1212569" data-name="Grupo 1212569" transform="translate(0)">
          <g id="Grupo_1212567" data-name="Grupo 1212567" transform="translate(19.9)">
            <path id="Trazado_1083563" data-name="Trazado 1083563" d="M145.622,90.756c-.1.162.125.3.338.246a1.331,1.331,0,0,0,.54-.342,12.107,12.107,0,0,1,7.206-2.9,3.705,3.705,0,0,0,1.18-.158c.385-.146.736-.5.64-.781a.559.559,0,0,0-.278-.276,3.767,3.767,0,0,0-1.951-.315,10.678,10.678,0,0,0-6.449,2.68,3.637,3.637,0,0,0-1.267,1.947" transform="translate(-145.581 -86.222)" fill="#3e3742"/>
          </g>
          <g id="Grupo_1212568" data-name="Grupo 1212568" transform="translate(0 8.129)">
            <path id="Trazado_1083564" data-name="Trazado 1083564" d="M172.911,93.838c.187.046.116.3-.072.411a1.314,1.314,0,0,1-.625.13,12.1,12.1,0,0,0-7.193,2.932,3.7,3.7,0,0,1-.958.707c-.378.164-.876.153-1-.116a.561.561,0,0,1,.008-.392,3.748,3.748,0,0,1,1.181-1.584,10.684,10.684,0,0,1,6.5-2.565,3.639,3.639,0,0,1,2.266.517" transform="translate(-163.028 -93.36)" fill="#3e3742"/>
          </g>
        </g>
        <g id="Grupo_1212570" data-name="Grupo 1212570" transform="translate(5.452 14.839)">
          <path id="Trazado_1083565" data-name="Trazado 1083565" d="M159.378,113.5a4.556,4.556,0,1,0,2.591-5.724A4.445,4.445,0,0,0,159.378,113.5Z" transform="translate(-159.074 -98.118)" fill="#ed825d"/>
          <path id="Trazado_1083566" data-name="Trazado 1083566" d="M139.206,105.325A4.556,4.556,0,1,0,141.8,99.6,4.445,4.445,0,0,0,139.206,105.325Z" transform="translate(-115.931 -99.252)" fill="#ed825d"/>
        </g>
        <g id="Grupo_1212572" data-name="Grupo 1212572" transform="translate(6.129 6.54)">
          <path id="Trazado_1083567" data-name="Trazado 1083567" d="M163.654,102.268c.56,1.384,1.658,2.246,2.451,1.925s.982-1.7.421-3.087-1.658-2.246-2.451-1.925S163.094,100.885,163.654,102.268Z" transform="translate(-163.332 -90.973)" fill="#15213f"/>
          <g id="Grupo_1212571" data-name="Grupo 1212571" transform="translate(20.1)">
            <path id="Trazado_1083568" data-name="Trazado 1083568" d="M146,95.119c.56,1.384,1.658,2.246,2.451,1.925s.982-1.7.421-3.087-1.657-2.246-2.451-1.925S145.443,93.736,146,95.119Z" transform="translate(-145.681 -91.965)" fill="#15213f"/>
          </g>
        </g>
        <g id="Grupo_1212573" data-name="Grupo 1212573" transform="translate(16.303 25.37)">
          <path id="Trazado_1083569" data-name="Trazado 1083569" d="M158.934,109.133c-2.1,5.314-5.226,7.3-9.749,7.712a6.969,6.969,0,0,1-5.246-1.911c6.053.746,11.286-1.131,14.952-6.111" transform="translate(-143.505 -108.455)" fill="#e66e60"/>
          <path id="Trazado_1083570" data-name="Trazado 1083570" d="M159.139,109.178c-2.322,3.559-5.939,5.842-11.7,6.558a5.07,5.07,0,0,1-3.73-.758A26.673,26.673,0,0,0,159.4,108.5Z" transform="translate(-143.711 -108.5)" fill="#fff"/>
        </g>
      </g>
      <g id="Grupo_1212582" data-name="Grupo 1212582">
        <g id="Grupo_1212574" data-name="Grupo 1212574">
          <path id="Trazado_1083571" data-name="Trazado 1083571" d="M187.5,66.61c3.424,2.855,6.709,6.287,7.325,10.681s-2.6,9.759-7.353,10.2c-3.039.284-5.835-1.426-8.875-1.13-4.256.415-7.532,4.553-11.775,5.176-1.89.278-3.743-.183-5.621-.3s-4.03.23-5.277,1.665c-2.067,2.378-.367,6.023-2.038,8.65a5.673,5.673,0,0,1-4.841,2.329,9.5,9.5,0,0,1-4.994-1.775,13.955,13.955,0,0,1-6.5-12.064,13.311,13.311,0,0,1,8.64-11.5c1.3-.45,2.66-.683,3.919-1.236,2.823-1.239,4.685-3.859,6.545-6.245a33.581,33.581,0,0,1,10.06-9.189c4.053-2.208,9.067-3.061,13.095-1.389a17.3,17.3,0,0,1,7.606,6.123" transform="translate(-137.535 -59.608)" fill="#38303b"/>
        </g>
        <g id="Grupo_1212581" data-name="Grupo 1212581" transform="translate(5.519 5.399)">
          <g id="Grupo_1212579" data-name="Grupo 1212579" transform="translate(0)">
            <g id="Grupo_1212576" data-name="Grupo 1212576" transform="translate(0 2.066)">
              <g id="Grupo_1212575" data-name="Grupo 1212575">
                <path id="Trazado_1083572" data-name="Trazado 1083572" d="M179.976,66.236c3.785,1.987,8.432,4.547,8.7,9.191a6.948,6.948,0,0,1-1.593,4.972,6.185,6.185,0,0,1-5.275,1.878c-2.593-.191-4.809-.93-7.435-.024-2.442.843-4.63,2.3-7.145,2.951-4.605,1.181-9.96-1.939-13.669,2.11-1.823,1.991-3.051,4.787-5.793,5.831-1.979.753-4.508.173-5.2-1.8-.253-.724.941-1.213,1.195-.484a2.37,2.37,0,0,0,2.545,1.4,5.061,5.061,0,0,0,3.181-1.78c1.5-1.558,2.453-3.507,4.15-4.907,3.213-2.65,7.21-1.252,10.875-1.234,4.6.022,8.184-3.8,12.77-3.81,1.981,0,3.89.732,5.882.558a4.549,4.549,0,0,0,4.045-3.545c1.347-5.113-3.859-8.124-7.761-10.173-.695-.367-.174-1.5.527-1.127Z" transform="translate(-142.532 -66.163)" fill="#423f44"/>
              </g>
            </g>
            <g id="Grupo_1212578" data-name="Grupo 1212578" transform="translate(24.43)">
              <g id="Grupo_1212577" data-name="Grupo 1212577" transform="translate(0)">
                <path id="Trazado_1083573" data-name="Trazado 1083573" d="M161.613,65.814a9.223,9.223,0,0,0-5.65.4.6.6,0,1,1-.449-1.108,10.687,10.687,0,0,1,6.625-.42.571.571,0,0,1,.318.783.7.7,0,0,1-.845.343Z" transform="translate(-155.114 -64.348)" fill="#423f44"/>
              </g>
            </g>
          </g>
          <g id="Grupo_1212580" data-name="Grupo 1212580" transform="translate(25.831 5.27)">
            <path id="Trazado_1083574" data-name="Trazado 1083574" d="M161.629,76.161a.648.648,0,0,0,.387-.426,2.562,2.562,0,0,0-.9-2.448c-3.172-3.306-8.238-4.039-12.3-4.309a.665.665,0,0,0-.7.553.57.57,0,0,0,.548.637c3.835.255,8.61.934,11.5,3.947.523.544.737,1.009.635,1.381a.563.563,0,0,0,.45.7A.673.673,0,0,0,161.629,76.161Z" transform="translate(-148.109 -68.976)" fill="#423f44"/>
          </g>
        </g>
      </g>
    </g>
  </g>
</svg>
