<svg xmlns="http://www.w3.org/2000/svg" xmlns:xlink="http://www.w3.org/1999/xlink" width="154.061" height="154.061" viewBox="0 0 154.061 154.061">
  <defs>
    <filter id="Trazado_1083318" x="0" y="0" width="154.061" height="154.061" filterUnits="userSpaceOnUse">
      <feOffset dy="3" input="SourceAlpha"/>
      <feGaussianBlur stdDeviation="3" result="blur"/>
      <feFlood flood-opacity="0.161"/>
      <feComposite operator="in" in2="blur"/>
      <feComposite in="SourceGraphic"/>
    </filter>
  </defs>
  <g id="salud-mental_4_" data-name="salud-mental (4)" transform="translate(5.038 3.861)">
    <g transform="matrix(1, 0, 0, 1, -5.04, -3.86)" filter="url(#Trazado_1083318)">
      <path id="Trazado_1083318-2" data-name="Trazado 1083318" d="M140.023,75.954a68.014,68.014,0,1,1-29.814-56.29L135.076,50.44A67.84,67.84,0,0,1,140.023,75.954Z" transform="translate(5.04 -1.92)" fill="#5b5ba1"/>
    </g>
    <g id="Grupo_1212340" data-name="Grupo 1212340" transform="translate(4.411 0)">
      <path id="Trazado_1083319" data-name="Trazado 1083319" d="M472.943,240.953a1.631,1.631,0,1,1-1.631-1.63A1.631,1.631,0,0,1,472.943,240.953Z" transform="translate(-344.423 -174.725)" fill="#377eb6"/>
      <path id="Trazado_1083320" data-name="Trazado 1083320" d="M8.887,298.132a1.631,1.631,0,1,1-1.631-1.63A1.631,1.631,0,0,1,8.887,298.132Z" transform="translate(-5.626 -216.47)" fill="#377eb6"/>
      <path id="Trazado_1083321" data-name="Trazado 1083321" d="M373.944,469.578a1.63,1.63,0,1,1-1.631-1.63A1.631,1.631,0,0,1,373.944,469.578Z" transform="translate(-272.146 -341.639)" fill="#df797e"/>
      <path id="Trazado_1083322" data-name="Trazado 1083322" d="M79.535,70.16a4.228,4.228,0,1,1-4.228-4.228A4.228,4.228,0,0,1,79.535,70.16Z" transform="translate(-53.412 -48.136)" fill="#df797e"/>
      <path id="Trazado_1083323" data-name="Trazado 1083323" d="M56.987,157.481a3.29,3.29,0,1,1-3.29-3.29A3.29,3.29,0,0,1,56.987,157.481Z" transform="translate(-38.32 -112.572)" fill="#8dbef8"/>
      <path id="Trazado_1083324" data-name="Trazado 1083324" d="M146.868,465.089a3.29,3.29,0,1,1-3.29-3.29A3.29,3.29,0,0,1,146.868,465.089Z" transform="translate(-103.94 -337.15)" fill="#8dbef8"/>
      <path id="Trazado_1083325" data-name="Trazado 1083325" d="M169.715,1.827a2.261,2.261,0,0,1,4.409-.124l3.422,13.438a2.26,2.26,0,1,1-4.381,1.115L169.743,2.818A2.239,2.239,0,0,1,169.715,1.827Z" transform="translate(-125.393 0)" fill="#feb7c5"/>
      <path id="Trazado_1083326" data-name="Trazado 1083326" d="M31.762,223.192a2.261,2.261,0,0,1-.409-4.392l13.188-4.285a2.26,2.26,0,0,1,1.4,4.3L32.75,223.1A2.253,2.253,0,0,1,31.762,223.192Z" transform="translate(-23.268 -156.532)" fill="#feb7c5"/>
      <path id="Trazado_1083327" data-name="Trazado 1083327" d="M142.884,126.306l-2.494,3.771a2.73,2.73,0,0,0-3.013,4.555l-2.494,3.771a7.251,7.251,0,1,1,8-12.1Z" transform="translate(-97.619 -91.336)" fill="#8dbef8"/>
      <path id="Trazado_1083328" data-name="Trazado 1083328" d="M232.816,460.637l4.508-.345a2.731,2.731,0,0,0,5.445-.416l4.508-.345a7.251,7.251,0,0,1-14.46,1.106Z" transform="translate(-171.493 -335.494)" fill="#feb7c5"/>
    </g>
    <g id="Grupo_1212356" data-name="Grupo 1212356" transform="translate(20.031 8.821)">
      <g id="Grupo_1212345" data-name="Grupo 1212345" transform="translate(0 38.813)">
        <g id="Grupo_1212342" data-name="Grupo 1212342">
          <path id="Trazado_1083329" data-name="Trazado 1083329" d="M164.531,202.935c0-.018,0-.034,0-.052.149-6.466-2.716-11.407-8.129-14.966a21.119,21.119,0,0,0-9.745-2.955,3.517,3.517,0,0,1-2.581-1.382c-4.1-5-9.715-6.644-16.129-4.728a2.865,2.865,0,0,1-2.6-.338,13.02,13.02,0,0,0-9.59-1.792,15.007,15.007,0,0,0-7.979,4.085,4.348,4.348,0,0,1-3.924,1.441,20.3,20.3,0,0,0-9.413,1.377c-5.578,2.086-10.269,5.329-13.425,10.4a2.839,2.839,0,0,1-1.627,1.293,16.5,16.5,0,0,0-4.257,2.188,18.62,18.62,0,0,0-6.775,7.2,17.061,17.061,0,0,0-1.621,9.512,2.769,2.769,0,0,1-.535,2.247,11.226,11.226,0,0,0,1.562,16.13,4.686,4.686,0,0,1,2.035,3.114,11.94,11.94,0,0,0,3.9,6.742c4.284,3.514,12.14,4.924,17.75,1.544,1.4-.845,1.446-.807,2.525.448a14.147,14.147,0,0,0,6.761,4.494,16.675,16.675,0,0,0,16.256-3.223c1.117-.923,1.148-.932,2.227-.23a21,21,0,0,0,11.811,3.212,18.149,18.149,0,0,0,8.215-1.592,5.492,5.492,0,0,1,3.168-.57,19.406,19.406,0,0,0,10.589-1.918c6.631-3.227,10.716-9.963,10.089-16.947a3.214,3.214,0,0,1,.809-2.474,16.46,16.46,0,0,0,2.539-16.834C163.354,208.763,164.407,203.88,164.531,202.935Z" transform="translate(-63.495 -176.473)" fill="#feb7c5"/>
          <g id="Grupo_1212341" data-name="Grupo 1212341" transform="translate(6.274 8.754)">
            <path id="Trazado_1083330" data-name="Trazado 1083330" d="M108.8,261.853a20.529,20.529,0,0,1,6.425-18.291,13.587,13.587,0,0,1,2.1-1.585c.541-.352.943-.184,1.03.478a9.738,9.738,0,0,0,.306,2.039,3.1,3.1,0,0,1-.776,3.209,12.739,12.739,0,0,0-2.692,6.986c-.49,6.7,5.086,12.068,12.249,11.979a2.165,2.165,0,0,0,2.267-1.927c.066-1.02-.649-1.764-1.923-1.954-.649-.1-1.319-.094-1.96-.218-6.471-1.248-7.974-7.284-5.229-11.783.363-.6.714-.792,1.251-.211a6.664,6.664,0,0,0,1.062.97,1.993,1.993,0,0,0,2.694-.155,1.906,1.906,0,0,0,.112-2.618c-.449-.591-.988-1.119-1.429-1.717a9.536,9.536,0,0,1,.7-12.109,10.2,10.2,0,0,1,15.019-.3,16.726,16.726,0,0,0,1.428,1.5,1.965,1.965,0,0,0,3.092-2.061,4.038,4.038,0,0,0-.893-1.49c-5.866-7.292-17.791-6.571-22.92,1.482a9.534,9.534,0,0,1-4.044,3.734c-4.855,2.406-7.979,6.439-10.118,11.2a23.059,23.059,0,0,0-1.687,5.534c-.1.606-.344,1.08-1.091.7-2.458-1.256-4.117-3.031-4.175-5.929a11.459,11.459,0,0,1,1.607-5.656,2.634,2.634,0,0,1,2.751-1.578,10.364,10.364,0,0,0,7.411-2.764,12.7,12.7,0,0,0,4.434-10.031c0-.523-.268-1.2.18-1.537,1.221-.929,2.241-2.246,4.106-2.042,4.251.466,8.09-.459,11.255-3.548.78-.761.831-.715,1.509.113.168.206.313.429.481.636a11.2,11.2,0,0,0,13.614,2.927,13.136,13.136,0,0,0,5-4.171,1.255,1.255,0,0,1,1.8-.458,10.753,10.753,0,0,1,3.781,2.677,11.049,11.049,0,0,1,2.807,7.574c-.011,1.532.814,2.362,2.063,2.3,1.142-.06,1.893-.935,1.97-2.379.037-.688-.019-1.38-.049-2.068-.059-1.338-.038-1.385,1.38-1.661a10.047,10.047,0,0,0,6.949-5.321,3.18,3.18,0,0,0,.43-1.374,1.775,1.775,0,0,0-1.151-1.9,1.849,1.849,0,0,0-2.226.578,10.064,10.064,0,0,0-.924,1.525,5.892,5.892,0,0,1-4.538,2.928,1.768,1.768,0,0,1-1.984-.754,14.472,14.472,0,0,0-7.209-5.906.986.986,0,0,1-.724-1.23,6.405,6.405,0,0,0,.128-1.271,1.9,1.9,0,0,0-1.794-2.075,2.01,2.01,0,0,0-2.135,1.652c-.137.462-.186.944-.3,1.412a8.923,8.923,0,0,1-3.569,5.473c-4.492,3.1-8.918,1.393-10.7-1.987a8.48,8.48,0,0,1-.634-6.479c.159-.568.409-1.116.539-1.687a1.765,1.765,0,0,0-1.137-2.183,2,2,0,0,0-2.355.687,4.916,4.916,0,0,0-.8,1.584,12.259,12.259,0,0,0-.7,4.569,3.354,3.354,0,0,1-1.066,2.6,14.008,14.008,0,0,1-2.933,2.382,8.236,8.236,0,0,1-4.138.979c-.663.013-.911-.276-.711-.892a10.139,10.139,0,0,0,.471-3.631,6.313,6.313,0,0,0-.736-2.74,1.993,1.993,0,0,0-2.339-1.012,2.029,2.029,0,0,0-1.4,2.142,6.949,6.949,0,0,0,.255,1.241,5.047,5.047,0,0,1-.708,4,7.068,7.068,0,0,1-3.136,2.817,5.239,5.239,0,0,1-5.183-.142,7.467,7.467,0,0,0-1.263-.706,1.966,1.966,0,0,0-2.336,2.8,4.128,4.128,0,0,0,1.4,1.3,8.517,8.517,0,0,0,3.5,1.268c.793.1,1.135.438,1.133,1.231a8.989,8.989,0,0,1-1.672,5.452c-3.233,4.424-9.378,4.171-11.935-.492-.407-.742-.713-1.536-1.11-2.284a1.944,1.944,0,0,0-2.163-1.053,2.079,2.079,0,0,0-1.566,1.875,4.134,4.134,0,0,0,.492,2.143,11.631,11.631,0,0,0,3.958,4.914c.752.516.833.982.316,1.7a7.567,7.567,0,0,0-1.525,3.022c-.31,1.79-1.242,2.434-3.119,2.422a9.149,9.149,0,0,0-5.481,2.095c-1.143.853-1.444,1.883-.861,2.761.6.909,1.674,1.058,2.915.4.146-.077.28-.176.42-.264a10.74,10.74,0,0,1,3.057-1.245c1.722-.446,2.016-.336,2.482,1.3a9.958,9.958,0,0,0,4.3,5.558,12.167,12.167,0,0,0,2.846,1.53,2.1,2.1,0,0,1,1.54,2.132,16.3,16.3,0,0,0,2.13,7.04,8.545,8.545,0,0,0,1.767-.718c1.4-.845,1.326-.748,2.4.507a14.532,14.532,0,0,0,1.445,1.253,4.282,4.282,0,0,0-.5-.817A14.213,14.213,0,0,1,108.8,261.853Z" transform="translate(-86.741 -208.905)" fill="#df797e"/>
            <path id="Trazado_1083331" data-name="Trazado 1083331" d="M293.234,351.4c-1.215-.632-1.218-.753-.946-2.163a9.476,9.476,0,0,0,.238-1.9,1.853,1.853,0,0,0-1.54-1.8,1.981,1.981,0,0,0-2.163,1.146,5.672,5.672,0,0,0-.385,1.225c-1.8,7.807-12.677,11.867-18.927,6.432a5.511,5.511,0,0,0-.5-.407,2.05,2.05,0,0,0-2.7.066,1.958,1.958,0,0,0-.1,2.744,5.986,5.986,0,0,0,1.69,1.467,2.124,2.124,0,0,1,1.035,2.434,15.282,15.282,0,0,1-3.349,7.76c.31-.072.491.212,1.078.594a11.271,11.271,0,0,0,2.547,1.24,20.066,20.066,0,0,0,3.692-8.394c.241-1.265.283-1.266,1.616-1.149a17.034,17.034,0,0,0,14.442-5.49c.923-.964.933-1,2.082-.412a20.633,20.633,0,0,0,6.13,2.137c1.364.216,1.479.535.766,1.669a7.7,7.7,0,0,1-5.307,3.307c-.432.09-.881.1-1.305.214a1.986,1.986,0,0,0-1.644,1.961,1.87,1.87,0,0,0,1.9,1.8,6.126,6.126,0,0,0,1.48-.043,11.807,11.807,0,0,0,6.489-3.03,10.846,10.846,0,0,0,2.894-4.286,2.488,2.488,0,0,1,2.383-1.849,14.453,14.453,0,0,0,2.335-.626,25.343,25.343,0,0,0,3.4-1.627,9.647,9.647,0,0,0,.269-3.363,4.4,4.4,0,0,1,.091-1.69,17.088,17.088,0,0,1-3.305,2.118A15.2,15.2,0,0,1,293.234,351.4Z" transform="translate(-217.315 -308.641)" fill="#df797e"/>
            <path id="Trazado_1083332" data-name="Trazado 1083332" d="M299.039,278.118a15.95,15.95,0,0,1-9.232,7.526,14.648,14.648,0,0,1-15.978-4.543c-.353-.4-.658-.84-1.038-1.211a2.052,2.052,0,0,0-2.676-.345,1.991,1.991,0,0,0-.519,2.722,7.441,7.441,0,0,0,1.067,1.386,1.3,1.3,0,0,1,.059,1.844,13.6,13.6,0,0,1-5.319,4.784c-4.4,2.288-8.826,1.7-12.185-1.6a2.97,2.97,0,0,0-.485-.418,1.8,1.8,0,0,0-2.826,1.629,2.512,2.512,0,0,0,.639,1.427,9.641,9.641,0,0,0,4.09,3.032,14.3,14.3,0,0,0,8.694.851c1.124-.229,1.131-.193,1.455.851.063.2.116.407.175.611a5.807,5.807,0,0,0,1.429,2.626,2.011,2.011,0,0,0,3.135-.228,1.755,1.755,0,0,0-.124-2.095,5.4,5.4,0,0,1-1.028-2.793,1.39,1.39,0,0,1,.608-1.393,17.627,17.627,0,0,0,4.977-4.949.826.826,0,0,1,1.253-.273,30.865,30.865,0,0,0,3.366,1.6,18.2,18.2,0,0,0,13.985-.316,20.875,20.875,0,0,0,9.963-8.742,16.516,16.516,0,0,0-1.042-2.039,5.921,5.921,0,0,1-.855-3.323A19.733,19.733,0,0,1,299.039,278.118Z" transform="translate(-205.864 -256.974)" fill="#df797e"/>
          </g>
        </g>
        <g id="Grupo_1212343" data-name="Grupo 1212343" transform="translate(87.342 15.035)">
          <path id="Trazado_1083333" data-name="Trazado 1083333" d="M390.778,232.689a8.073,8.073,0,0,1,3.954,3.4c.782,1.4.61,2.574-.386,3.159-1.013.6-2.18.261-3.3-1.035a13.051,13.051,0,0,0-2.986-3.061,1.634,1.634,0,0,1-.855-2.076c.407-.963,1.338-1.011,2.32-.8A10.619,10.619,0,0,1,390.778,232.689Z" transform="translate(-387.08 -232.175)" fill="#fff"/>
          <path id="Trazado_1083334" data-name="Trazado 1083334" d="M418.3,264.531a2.335,2.335,0,0,1,.728,2.864,1.14,1.14,0,0,1-1.7.367,2.181,2.181,0,0,1-.674-2.8A1.179,1.179,0,0,1,418.3,264.531Z" transform="translate(-408.483 -255.676)" fill="#fff"/>
        </g>
        <g id="Grupo_1212344" data-name="Grupo 1212344" transform="translate(5.651 21.82)">
          <path id="Trazado_1083335" data-name="Trazado 1083335" d="M104.168,257.316c.8-.037,1.4.113,1.7.761a1.386,1.386,0,0,1-.478,1.664,6.561,6.561,0,0,1-1.031.79,33.165,33.165,0,0,0-3.991,3.04,9.5,9.5,0,0,1-1.522,1.056,1.433,1.433,0,0,1-1.878-.186,1.525,1.525,0,0,1-.235-1.891,5.684,5.684,0,0,1,.912-1.39A14.362,14.362,0,0,1,103.4,257.5C103.7,257.407,104,257.356,104.168,257.316Z" transform="translate(-93.254 -257.31)" fill="#fff"/>
          <path id="Trazado_1083336" data-name="Trazado 1083336" d="M86.187,292.382a1.164,1.164,0,0,1,1.55,1.076,3.234,3.234,0,0,1-1.165,2.652,1.279,1.279,0,0,1-2.088-.622A3.165,3.165,0,0,1,86.187,292.382Z" transform="translate(-84.432 -282.874)" fill="#fff"/>
        </g>
      </g>
      <g id="Grupo_1212355" data-name="Grupo 1212355" transform="translate(35.643)">
        <g id="Grupo_1212348" data-name="Grupo 1212348" transform="translate(1.156)">
          <g id="Grupo_1212346" data-name="Grupo 1212346">
            <path id="Trazado_1083337" data-name="Trazado 1083337" d="M253.206,37.739a31.544,31.544,0,0,1-8.539-1.864c-2.467-.807-4.953-1.623-7.471-2.254A38.55,38.55,0,0,0,226.79,32.7c-2.946.073-5.889.177-8.836.21-1.225.014-7.827,0-5.592,2.763.962,1.19,3.018,1.762,4.419,2.142a49.94,49.94,0,0,0,5.561,1.092c3.685.561,7.294.513,10.58,2.537a125.584,125.584,0,0,0-16.055,4.99c-4.824,1.952-9.546,4.531-14.153,6.946-1.726.9-4.672,2.811-1.427,4.16a9.82,9.82,0,0,0,5.976.3,37.472,37.472,0,0,0,7.388-2.926,19.346,19.346,0,0,1,7.678-1.818c-3.938,2.939-7.768,6-11.409,9.3-1.121,1.017-8.292,6.618-4.7,8.135,3.806,1.608,8.161-2.326,10.682-4.575a29.787,29.787,0,0,1,5.408-4.25,24.28,24.28,0,0,1,5.545-1.892,24.093,24.093,0,0,0,6.19,22.249c.988,1.035,2.5,2.985,4.1,2.885,1.756-.11,1.512-2.116,1.133-3.277-.887-2.721-3.142-4.641-4.155-7.3a12.911,12.911,0,0,1,9.34-17.3A13.045,13.045,0,0,1,259.926,69.7a12.8,12.8,0,0,1-4.834,9.951c-3.019,2.37-6.465,2.783-10.153,2.591-1.57-.082-4.174,0-5.027,1.644-.92,1.769,1.452,2.485,2.715,2.775a28.208,28.208,0,0,0,11.571.578c4.225-.811,7.92-3.423,11.2-6.081a90.635,90.635,0,0,0,9.587-9.219q1.559-1.693,3.083-3.419A68.266,68.266,0,0,0,253.206,37.739Z" transform="translate(-199.829 -32.678)" fill="#8dbef8"/>
          </g>
          <g id="Grupo_1212347" data-name="Grupo 1212347" transform="translate(18.217 6.91)">
            <path id="Trazado_1083338" data-name="Trazado 1083338" d="M318.667,59.888c-.2-.714-1.079-.952-1.732-1.149a13.383,13.383,0,0,0-6.487-.123c-.074.018-.344.083-.378.1,1.17.522,2.369.927,3.335,1.419l-.041.011a25.542,25.542,0,0,1,3.908.013C317.7,60.187,318.324,60.354,318.667,59.888Z" transform="translate(-298.531 -58.277)" fill="#67a0da"/>
            <path id="Trazado_1083339" data-name="Trazado 1083339" d="M299.868,90.734a22.059,22.059,0,0,1,3.622-3.081,34.09,34.09,0,0,1,6.253-3.458c.53-.224,1.148-.456.962-.951-.246-.656-1.607-.259-2.3-.114a21.521,21.521,0,0,0-11.26,7.181,25.676,25.676,0,0,0-3.961,6.83l-.042.107a13.057,13.057,0,0,0,2.837-.781A39.354,39.354,0,0,1,299.868,90.734Z" transform="translate(-286.173 -76.238)" fill="#67a0da"/>
            <path id="Trazado_1083340" data-name="Trazado 1083340" d="M281.255,86.436c.541-.164,1.446-.39,1.831-.486.488-.122,1.53-.3,1.447-.775-.1-.567-1.287-.4-1.772-.354-.776.069-1.429.136-1.988.22a21.093,21.093,0,0,0-4.565,1.319,37.286,37.286,0,0,0-8.889,5.367c1.487-.219,3.511-.449,4.272-.6.334-.213.686-.5,1.046-.724A37.039,37.039,0,0,1,281.255,86.436Z" transform="translate(-267.318 -77.615)" fill="#67a0da"/>
          </g>
        </g>
        <g id="Grupo_1212353" data-name="Grupo 1212353" transform="translate(0 29.32)">
          <g id="Grupo_1212350" data-name="Grupo 1212350">
            <path id="Trazado_1083341" data-name="Trazado 1083341" d="M223.6,224.923a19.962,19.962,0,1,1-16.824,22.67A19.962,19.962,0,0,1,223.6,224.923Z" transform="translate(-203.588 -202.193)" fill="#fff"/>
            <path id="Trazado_1083342" data-name="Trazado 1083342" d="M221.842,259.316a22.935,22.935,0,1,0-26.046-19.33A22.936,22.936,0,0,0,221.842,259.316ZM215.816,218.6A18.223,18.223,0,1,1,200.458,239.3,18.223,18.223,0,0,1,215.816,218.6Z" transform="translate(-195.546 -194.15)" fill="#1c1c1b"/>
            <g id="Grupo_1212349" data-name="Grupo 1212349" transform="translate(32.406)">
              <path id="Trazado_1083343" data-name="Trazado 1083343" d="M321.5,205.28l8.1-11.077-5.735-4.193-8.26,11.3A36.316,36.316,0,0,1,321.5,205.28Z" transform="translate(-315.604 -176.863)" fill="#1c1c1b"/>
              <path id="Trazado_1083344" data-name="Trazado 1083344" d="M345.834,160.98l9.266-12.674a3.971,3.971,0,0,0-.861-5.55l-.94-.687a3.971,3.971,0,0,0-5.55.862l-9.266,12.674Z" transform="translate(-332.307 -141.303)" fill="#df797e"/>
            </g>
          </g>
          <g id="Grupo_1212352" data-name="Grupo 1212352" transform="translate(11.545 30.183)">
            <path id="Trazado_1083345" data-name="Trazado 1083345" d="M248.447,268.108c.1-.343.224-.746.467-1.529.109-.352.221-.7.332-1.053.226-.711.453-1.421.657-2.139a1.772,1.772,0,0,0-2.106-2.49c-.187.023-.374.055-.56.087l-1.462.236c-.975.157-1.95.315-2.928.454a3.086,3.086,0,0,1-.437.039,2.894,2.894,0,0,1,.118-.41c.016-.046.036-.092.056-.137s.041-.095.059-.143c.533-1.409.74-1.932.954-2.473.205-.52.418-1.058.931-2.41l.04-.1a3.882,3.882,0,0,0,.3-1.083,1.59,1.59,0,0,0-1.043-1.745,1.557,1.557,0,0,0-1.882.779,7.6,7.6,0,0,0-.534,1.19c-.546,1.444-.811,2.128-1.06,2.771-.278.718-.536,1.385-1.142,3-.08.212-.164.424-.247.636-.2.5-.4,1.011-.555,1.537a1.812,1.812,0,0,0,.136,1.417,1.673,1.673,0,0,0,1.046.8,2.706,2.706,0,0,0,1.153-.016l.118-.019q1.081-.172,2.162-.349,1.235-.2,2.47-.4c.155-.025.416-.056.65-.083l-.3,1.025c-.424,1.456-.669,2.3-1.295,4.1a1.383,1.383,0,0,0-1.71-.178,1.553,1.553,0,0,0-.732,1.667c.06.49.115.981.169,1.472.1.946.213,1.925.365,2.884a1.838,1.838,0,0,0,1.13,1.522,1.484,1.484,0,0,0,.555.083,1.842,1.842,0,0,0,1.154-.513c1.275-1.158,2.458-2.318,3.515-3.451a1.736,1.736,0,0,0-1.206-2.787,1.924,1.924,0,0,1,.074-.277C248.2,268.939,248.305,268.58,248.447,268.108Z" transform="translate(-238.319 -253.124)" fill="#67a0da"/>
            <g id="Grupo_1212351" data-name="Grupo 1212351" transform="translate(13.151 2.346)">
              <path id="Trazado_1083346" data-name="Trazado 1083346" d="M299.67,262.6a1.626,1.626,0,0,0-2.973.441l-3.591,14.333a1.627,1.627,0,1,0,3.156.791l3.591-14.333A1.615,1.615,0,0,0,299.67,262.6Z" transform="translate(-291.432 -261.814)" fill="#67a0da"/>
              <path id="Trazado_1083347" data-name="Trazado 1083347" d="M289.668,329.978a2.115,2.115,0,0,0-1.028,4.1,2.14,2.14,0,0,0,.428.062,2.116,2.116,0,0,0,2.136-1.6h0A2.116,2.116,0,0,0,289.668,329.978Z" transform="translate(-287.039 -311.532)" fill="#67a0da"/>
            </g>
          </g>
        </g>
        <g id="Grupo_1212354" data-name="Grupo 1212354" transform="translate(28.933 34.902)">
          <path id="Trazado_1083348" data-name="Trazado 1083348" d="M314.4,176.078c-.887-2.721-3.142-4.641-4.155-7.3a13.019,13.019,0,0,1-.688-6.8l-.811.238c-2,.584-4,1.131-6.013,1.663a24.1,24.1,0,0,0,6.438,12.585c.988,1.035,2.5,2.986,4.1,2.886C315.026,179.245,314.781,177.238,314.4,176.078Z" transform="translate(-302.736 -161.983)" fill="#8dbef8"/>
        </g>
      </g>
    </g>
  </g>
</svg>
