<svg xmlns="http://www.w3.org/2000/svg" xmlns:xlink="http://www.w3.org/1999/xlink" width="108" height="108" viewBox="0 0 108 108">
  <defs>
    <filter id="Trazado_904820" x="0" y="0" width="108" height="108" filterUnits="userSpaceOnUse">
      <feOffset dy="3" input="SourceAlpha"/>
      <feGaussianBlur stdDeviation="3" result="blur"/>
      <feFlood flood-opacity="0.161"/>
      <feComposite operator="in" in2="blur"/>
      <feComposite in="SourceGraphic"/>
    </filter>
  </defs>
  <g id="Grupo_1212357" data-name="Grupo 1212357" transform="translate(-197 -563.277)">
    <g id="Grupo_1209015" data-name="Grupo 1209015" transform="translate(0 -2102.778)">
      <g id="Grupo_1207774" data-name="Grupo 1207774" transform="translate(206 2670.713)">
        <g id="Grupo_1206630" data-name="Grupo 1206630" transform="translate(0 1.342)">
          <g id="Grupo_1185091" data-name="Grupo 1185091" transform="translate(0 0)">
            <g id="Grupo_1179560" data-name="Grupo 1179560">
              <g id="Grupo_1173787" data-name="Grupo 1173787" transform="translate(0)">
                <g id="Grupo_1171910" data-name="Grupo 1171910">
                  <g id="Grupo_1167341" data-name="Grupo 1167341">
                    <g id="Grupo_1166792" data-name="Grupo 1166792">
                      <g transform="matrix(1, 0, 0, 1, -9, -6)" filter="url(#Trazado_904820)">
                        <g id="Trazado_904820-2" data-name="Trazado 904820" transform="translate(9 6)" fill="#f5faf0">
                          <path d="M 44.99999618530273 88.50006866455078 C 39.12687301635742 88.50006866455078 33.43022155761719 87.35014343261719 28.06829643249512 85.08222961425781 C 22.88852119445801 82.89136505126953 18.23629570007324 79.75465393066406 14.24084663391113 75.75919342041016 C 10.24540901184082 71.76374053955078 7.108683586120605 67.11151885986328 4.917821407318115 61.93174362182617 C 2.649921178817749 56.56980514526367 1.499996185302734 50.87315368652344 1.499996185302734 45.00003051757812 C 1.499996185302734 39.12690734863281 2.649921178817749 33.43025588989258 4.917821407318115 28.06831741333008 C 7.108683586120605 22.88854217529297 10.24540901184082 18.23631858825684 14.24084663391113 14.24086761474609 C 18.23629570007324 10.24541759490967 22.88852119445801 7.10869312286377 28.06829643249512 4.917842864990234 C 33.43022155761719 2.649930477142334 39.12687301635742 1.500005483627319 44.99999618530273 1.500005483627319 C 50.87311935424805 1.500005483627319 56.56977081298828 2.649930477142334 61.93169784545898 4.917842864990234 C 67.11147308349609 7.10869312286377 71.76369476318359 10.24541759490967 75.75914764404297 14.24086761474609 C 79.75458526611328 18.23631858825684 82.89131164550781 22.88854217529297 85.08216857910156 28.06831741333008 C 87.35007476806641 33.43025588989258 88.5 39.12690734863281 88.5 45.00003051757812 C 88.5 50.87315368652344 87.35007476806641 56.56980514526367 85.08216857910156 61.93174362182617 C 82.89131164550781 67.11151885986328 79.75458526611328 71.76374053955078 75.75914764404297 75.75919342041016 C 71.76369476318359 79.75465393066406 67.11147308349609 82.89136505126953 61.93169784545898 85.08222961425781 C 56.56977081298828 87.35014343261719 50.87311935424805 88.50006866455078 44.99999618530273 88.50006866455078 Z" stroke="none"/>
                          <path d="M 44.99999618530273 3 C 39.32870864868164 3 33.82865142822266 4.110061645507812 28.65262603759766 6.299346923828125 C 23.65165710449219 8.414573669433594 19.15968322753906 11.44334411621094 15.301513671875 15.30152893066406 C 11.44333648681641 19.15969848632812 8.414566040039062 23.65167236328125 6.299339294433594 28.65264511108398 C 4.110054016113281 33.82868576049805 2.999992370605469 39.32874298095703 2.999992370605469 45.00003051757812 C 2.999992370605469 50.67131805419922 4.110054016113281 56.1713752746582 6.299339294433594 61.34741592407227 C 8.414566040039062 66.348388671875 11.44333648681641 70.84036254882812 15.301513671875 74.69853210449219 C 19.15968322753906 78.55671691894531 23.65165710449219 81.58548736572266 28.65262603759766 83.70071411132812 C 33.82865142822266 85.88999938964844 39.32870864868164 87.00006103515625 44.99999618530273 87.00006103515625 C 50.67128372192383 87.00006103515625 56.17134094238281 85.88999938964844 61.34736633300781 83.70071411132812 C 66.34834289550781 81.58548736572266 70.84030914306641 78.55671691894531 74.69847869873047 74.69853210449219 C 78.55665588378906 70.84036254882812 81.58542633056641 66.348388671875 83.70065307617188 61.34741592407227 C 85.88993835449219 56.1713752746582 87 50.67131805419922 87 45.00003051757812 C 87 39.32874298095703 85.88993835449219 33.82868576049805 83.70065307617188 28.65264511108398 C 81.58542633056641 23.65167236328125 78.55665588378906 19.15969848632812 74.69847869873047 15.30152893066406 C 70.84030914306641 11.44334411621094 66.34834289550781 8.414573669433594 61.34736633300781 6.299346923828125 C 56.17134094238281 4.110061645507812 50.67128372192383 3 44.99999618530273 3 M 44.99999618530273 0 C 69.85281372070312 0 90 20.14720153808594 90 45.00003051757812 C 90 69.85285949707031 69.85281372070312 90.00006103515625 44.99999618530273 90.00006103515625 C 20.14717864990234 90.00006103515625 -7.62939453125e-06 69.85285949707031 -7.62939453125e-06 45.00003051757812 C -7.62939453125e-06 20.14720153808594 20.14717864990234 0 44.99999618530273 0 Z" stroke="none" fill="#a9d373"/>
                        </g>
                      </g>
                    </g>
                  </g>
                </g>
              </g>
            </g>
          </g>
        </g>
      </g>
    </g>
    <g id="psicologia_3_" data-name="psicologia (3)" transform="translate(217.591 592.46)">
      <path id="Trazado_1083349" data-name="Trazado 1083349" d="M308.642,22.5a7.839,7.839,0,0,0-7.83,7.83v9.788c0,10.074-6.645,18.27-14.812,18.27V60.8a20.708,20.708,0,0,0,20.685-20.685V30.33a5.879,5.879,0,0,1,5.873-5.873V22.5Z" transform="translate(-248.676 -19.564)" fill="#f9bb69"/>
      <path id="Trazado_1083350" data-name="Trazado 1083350" d="M72.36,9.458A1.958,1.958,0,0,0,70.4,7.5H66.487A9.8,9.8,0,0,0,56.7,17.288v9.788A12.854,12.854,0,0,1,43.845,39.93V17.288a5.879,5.879,0,0,1,5.873-5.873,1.958,1.958,0,1,0,0-3.915H30.142a1.958,1.958,0,1,0,0,3.915,5.879,5.879,0,0,1,5.873,5.873V39.93A12.854,12.854,0,0,1,23.16,27.075V17.288A9.8,9.8,0,0,0,13.373,7.5H9.458a1.958,1.958,0,0,0,0,3.915,5.879,5.879,0,0,1,5.873,5.873v9.788A20.708,20.708,0,0,0,36.015,47.76V62.572a5.879,5.879,0,0,1-5.873,5.873,1.958,1.958,0,1,0,0,3.915H49.717a1.958,1.958,0,1,0,0-3.915,5.879,5.879,0,0,1-5.873-5.873V47.76c9.247,0,16.77-9.279,16.77-20.685V17.288a5.879,5.879,0,0,1,5.873-5.873H70.4A1.958,1.958,0,0,0,72.36,9.458Z" transform="translate(-6.521 -6.521)" fill="#f6d76f"/>
      <path id="Trazado_1083351" data-name="Trazado 1083351" d="M63.881,0H59.966A10.779,10.779,0,0,0,49.2,10.766v9.788A11.891,11.891,0,0,1,38.3,32.39V10.766A4.9,4.9,0,0,1,43.2,5.873,2.936,2.936,0,0,0,43.2,0H23.621a2.936,2.936,0,0,0,0,5.873,4.9,4.9,0,0,1,4.894,4.894V32.39a11.891,11.891,0,0,1-10.9-11.836V14.681a.979.979,0,1,0-1.958,0v5.873A13.849,13.849,0,0,0,29.493,34.387a.979.979,0,0,0,.979-.979V10.766a6.859,6.859,0,0,0-6.851-6.851.979.979,0,0,1,0-1.958H43.2a.979.979,0,0,1,0,1.958,6.859,6.859,0,0,0-6.851,6.851V33.409a.979.979,0,0,0,.979.979A13.849,13.849,0,0,0,51.157,20.554V10.766a8.819,8.819,0,0,1,8.809-8.809h3.915a.979.979,0,1,1,0,1.958,6.859,6.859,0,0,0-6.851,6.851v9.788A19.728,19.728,0,0,1,37.324,40.26a.979.979,0,0,0-.979.979V56.051A6.859,6.859,0,0,0,43.2,62.9a.979.979,0,1,1,0,1.958H23.621a.979.979,0,1,1,0-1.958,6.859,6.859,0,0,0,6.851-6.851V41.239a.979.979,0,0,0-.979-.979A19.728,19.728,0,0,1,9.788,20.554V10.766A6.859,6.859,0,0,0,2.936,3.915a.979.979,0,0,1,0-1.958H6.851a8.819,8.819,0,0,1,8.809,8.809.979.979,0,1,0,1.958,0A10.779,10.779,0,0,0,6.851,0H2.936a2.936,2.936,0,0,0,0,5.873A4.9,4.9,0,0,1,7.83,10.766v9.788A21.691,21.691,0,0,0,28.515,42.2V56.051a4.9,4.9,0,0,1-4.894,4.894,2.936,2.936,0,1,0,0,5.873H43.2a2.936,2.936,0,1,0,0-5.873A4.9,4.9,0,0,1,38.3,56.051V42.2A21.691,21.691,0,0,0,58.987,20.554V10.766a4.9,4.9,0,0,1,4.894-4.894,2.936,2.936,0,1,0,0-5.873Z"/>
    </g>
  </g>
</svg>
