<svg xmlns="http://www.w3.org/2000/svg" xmlns:xlink="http://www.w3.org/1999/xlink" width="93.934" height="93.934" viewBox="0 0 93.934 93.934">
  <defs>
    <filter id="Trazado_978624" x="0" y="0" width="93.934" height="93.934" filterUnits="userSpaceOnUse">
      <feOffset dy="3" input="SourceAlpha"/>
      <feGaussianBlur stdDeviation="3" result="blur"/>
      <feFlood flood-opacity="0.161"/>
      <feComposite operator="in" in2="blur"/>
      <feComposite in="SourceGraphic"/>
    </filter>
  </defs>
  <g id="Grupo_1212363" data-name="Grupo 1212363" transform="translate(-609 -2987.201)">
    <g id="Grupo_1211254" data-name="Grupo 1211254" transform="translate(0 1086.482)">
      <g id="Grupo_1208068" data-name="Grupo 1208068" transform="translate(412 470.719)">
        <g id="Grupo_1144123" data-name="Grupo 1144123" transform="translate(206 1436)">
          <g transform="matrix(1, 0, 0, 1, -9, -6)" filter="url(#Trazado_978624)">
            <g id="Trazado_978624-2" data-name="Trazado 978624" transform="translate(9 6)" fill="#fbf3fb">
              <path d="M 37.966796875 74.43359375 C 33.04315185546875 74.43359375 28.26757431030273 73.46962738037109 23.77274131774902 71.56847381591797 C 19.43047523498535 69.73184967041016 15.53040790557861 67.10224914550781 12.18087482452393 63.75271987915039 C 8.831341743469238 60.4031867980957 6.201741218566895 56.50312042236328 4.365118980407715 52.16086196899414 C 2.463963508605957 47.66601943969727 1.499996900558472 42.89044189453125 1.499996900558472 37.966796875 C 1.499996900558472 33.04315185546875 2.463963508605957 28.26757431030273 4.365118980407715 23.77274131774902 C 6.201741218566895 19.43047523498535 8.831341743469238 15.53040790557861 12.18087482452393 12.18087482452393 C 15.53040790557861 8.831341743469238 19.43047523498535 6.201741218566895 23.77274131774902 4.365118980407715 C 28.26757431030273 2.463963508605957 33.04315185546875 1.499996900558472 37.966796875 1.499996900558472 C 42.89044189453125 1.499996900558472 47.66601943969727 2.463963508605957 52.16086196899414 4.365118980407715 C 56.50312042236328 6.201741218566895 60.4031867980957 8.831341743469238 63.75271987915039 12.18087482452393 C 67.10224914550781 15.53040790557861 69.73184967041016 19.43047523498535 71.56847381591797 23.77274131774902 C 73.46962738037109 28.26757431030273 74.43359375 33.04315185546875 74.43359375 37.966796875 C 74.43359375 42.89044189453125 73.46962738037109 47.66601943969727 71.56847381591797 52.16086196899414 C 69.73184967041016 56.50313186645508 67.10224914550781 60.4031867980957 63.75271987915039 63.75271987915039 C 60.4031867980957 67.10224914550781 56.50313186645508 69.73184967041016 52.16086196899414 71.56847381591797 C 47.66601943969727 73.46962738037109 42.89044189453125 74.43359375 37.966796875 74.43359375 Z" stroke="none"/>
              <path d="M 37.966796875 3 C 33.2449836730957 3 28.66600799560547 3.924095153808594 24.35705947875977 5.746635437011719 C 20.19359588623047 7.507621765136719 16.45379638671875 10.02927398681641 13.24153518676758 13.24153518676758 C 10.02927398681641 16.45379638671875 7.507621765136719 20.19359588623047 5.746635437011719 24.35705947875977 C 3.924095153808594 28.66600799560547 3 33.2449836730957 3 37.966796875 C 3 42.6886100769043 3.924095153808594 47.26758575439453 5.746635437011719 51.57653427124023 C 7.507621765136719 55.73999786376953 10.02927398681641 59.47979736328125 13.24153518676758 62.69205856323242 C 16.45379638671875 65.90431976318359 20.19359588623047 68.42597198486328 24.35705947875977 70.18695831298828 C 28.66600799560547 72.00949859619141 33.2449836730957 72.93359375 37.966796875 72.93359375 C 42.6886100769043 72.93359375 47.26758575439453 72.00949859619141 51.57653427124023 70.18695831298828 C 55.73999786376953 68.42597198486328 59.47979736328125 65.90431976318359 62.69205856323242 62.69205856323242 C 65.90431976318359 59.47979736328125 68.42597198486328 55.73999786376953 70.18695831298828 51.57653427124023 C 72.00949859619141 47.26758575439453 72.93359375 42.6886100769043 72.93359375 37.966796875 C 72.93359375 33.2449836730957 72.00949859619141 28.66600799560547 70.18695831298828 24.35705947875977 C 68.42597198486328 20.19359588623047 65.90431976318359 16.45379638671875 62.69205856323242 13.24153518676758 C 59.47979736328125 10.02927398681641 55.73999786376953 7.507621765136719 51.57653427124023 5.746635437011719 C 47.26758575439453 3.924095153808594 42.6886100769043 3 37.966796875 3 M 37.966796875 0 C 58.93528366088867 0 75.93359375 16.99831008911133 75.93359375 37.966796875 C 75.93359375 58.93528366088867 58.93528366088867 75.93359375 37.966796875 75.93359375 C 16.99831008911133 75.93359375 0 58.93528366088867 0 37.966796875 C 0 16.99831008911133 16.99831008911133 0 37.966796875 0 Z" stroke="none" fill="#df93dd"/>
            </g>
          </g>
        </g>
      </g>
    </g>
    <g id="adhd" transform="translate(607.996 3004.834)">
      <g id="Grupo_1212361" data-name="Grupo 1212361" transform="translate(24.888 0.772)">
        <g id="Grupo_1212359" data-name="Grupo 1212359">
          <path id="Trazado_1083359" data-name="Trazado 1083359" d="M264.167,266.413A23.925,23.925,0,0,1,267.5,277.65h3.086l.273-5.122.2-3.844C268.607,269.13,265.751,268.694,264.167,266.413Z" transform="translate(-240.244 -239.78)" fill="#f696c3" fill-rule="evenodd"/>
          <path id="Trazado_1083360" data-name="Trazado 1083360" d="M264.167,266.413a26.888,26.888,0,0,1,1.973,4.249,9.982,9.982,0,0,0,4.788.531l.134-2.51C268.607,269.13,265.751,268.694,264.167,266.413Z" transform="translate(-240.244 -239.78)" fill="#f072ae" fill-rule="evenodd"/>
          <path id="Trazado_1083361" data-name="Trazado 1083361" d="M329.4,288.483l-.2,3.844c3.847,3.091,6.879-1.175,5.968-3.48A5.352,5.352,0,0,1,329.4,288.483Z" transform="translate(-298.588 -259.579)" fill="#f072ae" fill-rule="evenodd"/>
          <path id="Trazado_1083362" data-name="Trazado 1083362" d="M37.215,42.944V51.75h9.319v6.875H66.811V55.17c0-2.97-.006-6.8,4.207-10.82a21.5,21.5,0,0,0,6.752-15.6C77.77,16.06,67.454,7.5,55.178,7.5,43.3,7.5,34.964,17.529,34.964,28.748L31.7,40.653a1.646,1.646,0,0,0,1.571,2.291Zm18.314-8.81a5.507,5.507,0,0,1-4.839-3.305,8.469,8.469,0,0,1-6.62-1.238c-4.33-.662-4.711-4.7-3.064-6.743.1-3.75,3.249-7.3,5.871-7.856,2.458-2.359,5.263-3.633,8.485-2.646A8.509,8.509,0,0,1,62.7,13.489c2.718.6,5.22,1.677,6.571,4.836,2.113,1.048,4.111,2.651,3.494,7.608a6.407,6.407,0,0,1-2.642,8.478,3.307,3.307,0,0,1-1.937,2.356c.91,2.305-2.122,6.571-5.968,3.48l-.273,5.122H58.86A23.925,23.925,0,0,0,55.529,34.133Z" transform="translate(-31.607 -7.5)" fill="#ffd9ab" fill-rule="evenodd"/>
          <path id="Trazado_1083363" data-name="Trazado 1083363" d="M37.214,42.172V51.75h2.314V42.172Zm9.319,8.806v7.646h2.314V50.978ZM56.393,7.529c-11.293.6-19.116,10.349-19.116,21.219l-3.262,11.9a1.646,1.646,0,0,0,1.571,2.291H33.272A1.646,1.646,0,0,1,31.7,40.653l3.262-11.9C34.963,17.529,43.3,7.5,55.176,7.5q.612,0,1.217.029Z" transform="translate(-31.605 -7.5)" fill="#ffaf7c" fill-rule="evenodd"/>
          <path id="Trazado_1083364" data-name="Trazado 1083364" d="M124.808,69.928a5.507,5.507,0,0,0,4.839,3.305c1.584,2.281,4.44,2.718,6.894,2.27a5.352,5.352,0,0,0,5.764.364,3.307,3.307,0,0,0,1.937-2.356,6.407,6.407,0,0,0,2.642-8.478c.617-4.957-1.381-6.56-3.494-7.608-1.351-3.159-3.853-4.239-6.571-4.836a8.509,8.509,0,0,0-7.339-1.144c-3.221-.988-6.027.287-8.485,2.646-2.622.555-5.769,4.106-5.871,7.856-1.647,2.048-1.266,6.082,3.064,6.743a8.469,8.469,0,0,0,6.62,1.238Z" transform="translate(-105.724 -46.6)" fill="#f696c3" fill-rule="evenodd"/>
          <path id="Trazado_1083365" data-name="Trazado 1083365" d="M124.809,164.328a5.507,5.507,0,0,0,4.839,3.305c1.584,2.281,4.44,2.718,6.894,2.27a5.352,5.352,0,0,0,5.764.364,3.307,3.307,0,0,0,1.937-2.356c-.359.127-4.03,2.056-7.044-.48-2.977.543-4.325.791-6.254-1.987-3.541-.377-3.446-.864-4.934-3.953l-1.931.64c-1.593.528-3.707-.379-5.047-1.253-2.461-.376-3.469-2.563-3.907-4.571,0,.013,0,.027,0,.04-1.647,2.048-1.266,6.082,3.064,6.743A8.469,8.469,0,0,0,124.809,164.328Z" transform="translate(-105.725 -141)" fill="#f072ae" fill-rule="evenodd"/>
        </g>
        <g id="Grupo_1212360" data-name="Grupo 1212360" transform="translate(27.731 7.463)">
          <path id="Trazado_1083366" data-name="Trazado 1083366" d="M305.819,83.141h-1.543V81.6h1.543ZM302.733,81.6H301.19V80.055h1.543Z" transform="translate(-301.19 -80.055)" fill="#fff"/>
        </g>
      </g>
      <g id="Grupo_1212362" data-name="Grupo 1212362" transform="translate(24.118)">
        <path id="Trazado_1083367" data-name="Trazado 1083367" d="M132.245,74.435a4,4,0,0,0,2.353-.787,4.569,4.569,0,0,0,1.849-4.186,3.967,3.967,0,0,0,1.73-2.216,6.88,6.88,0,0,0,3.017-3.8,7.143,7.143,0,0,0-.268-5.324c.553-4.99-1.505-6.895-3.693-8.037-1.544-3.346-4.3-4.417-6.846-4.992a9.207,9.207,0,0,0-7.652-1.227c-3.037-.846-6.02.076-8.871,2.745-2.852.748-6.017,4.331-6.251,8.285a5.021,5.021,0,0,0-.588,4.67,5.1,5.1,0,0,0,4.131,3.082,10.066,10.066,0,0,0,3.766,1.4,8.151,8.151,0,0,0,2.737,0,6.144,6.144,0,0,0,4.756,3.124,22.879,22.879,0,0,1,3.04,10.521v.771h4.589l.241-4.524A4.359,4.359,0,0,0,132.245,74.435Zm1.438-2.029a2.689,2.689,0,0,1-3.305-.2l.114-2.144a5.87,5.87,0,0,0,2.344.472,6.7,6.7,0,0,0,2.1-.344A3.242,3.242,0,0,1,133.683,72.406Zm-14.931-9.587-.294-.611-.644.213a7.742,7.742,0,0,1-5.956-1.151l-.14-.091-.165-.025a3.567,3.567,0,0,1-3.091-2.143,3.491,3.491,0,0,1,.512-3.354l.163-.2.007-.26c.091-3.349,2.952-6.634,5.26-7.122l.216-.046.159-.153c2.568-2.465,5.095-3.271,7.725-2.465l.219.067.22-.063a7.79,7.79,0,0,1,6.674,1.028l.13.093.156.034c2.38.523,4.757,1.416,6.027,4.386l.112.261.255.126c1.868.927,3.645,2.216,3.071,6.821l-.029.234.107.21a5.6,5.6,0,0,1,.286,4.35,5.251,5.251,0,0,1-2.578,3.086l-.379.185-.049.418a2.85,2.85,0,0,1-1.986,1.972,4.5,4.5,0,0,1-4.452-.479l-.278-.234-.357.065c-3.927.716-5.679-1.313-6.122-1.951l-.2-.29-.351-.037a4.743,4.743,0,0,1-4.226-2.873Zm8.227,14.105a23.714,23.714,0,0,0-1.91-7.82,8.036,8.036,0,0,0,3.013.556c.291,0,.588-.015.889-.042l-.389,7.307Z" transform="translate(-98.203 -39.054)"/>
        <path id="Trazado_1083368" data-name="Trazado 1083368" d="M303.854,206.893l-1.633-.457-.416,1.486,6.9,1.929.767-1.047-3.885-6.018-1.3.837.922,1.428Zm1.588.444.661-.9.854,1.324Z" transform="translate(-273.24 -181.926)"/>
        <path id="Trazado_1083369" data-name="Trazado 1083369" d="M338.427,141.605l.009-.01c1.163-1.2.992-3.1-.408-4.5h0c-1.466-1.466-3.289-1.614-4.536-.366l-1.625,1.625,4.9,4.9Zm-3.844-3.78c.922-.922,2.035.047,2.354.366.646.646,1.043,1.649.393,2.328l-.56.56-2.721-2.721Z" transform="translate(-300.21 -121.912)"/>
        <path id="Trazado_1083370" data-name="Trazado 1083370" d="M159.651,125.738a2.049,2.049,0,0,0-2.7-2.337l-2.247.8,2.377,6.688,2.513-.893a2.27,2.27,0,0,0,.053-4.257Zm-2.632.355-.34-.956.794-.282a.508.508,0,0,1,.347.954Zm2.472,2.076a.715.715,0,0,1-.409.372l-1.059.376-.487-1.37.067-.024h0l.727-.259.015-.005.251-.089a.726.726,0,0,1,.9,1Z" transform="translate(-141.275 -110.601)"/>
        <path id="Trazado_1083371" data-name="Trazado 1083371" d="M225.1,87.182A3.552,3.552,0,0,0,228.18,85.4a2.994,2.994,0,0,0,.245-2.558l-.266-.724-1.448.533.266.724a1.439,1.439,0,0,1-.135,1.258,2.006,2.006,0,1,1-2.627-2.8l.693-.34-.68-1.385-.693.34a3.549,3.549,0,0,0,1.56,6.734Z" transform="translate(-201.243 -71.868)"/>
        <path id="Trazado_1083372" data-name="Trazado 1083372" d="M236.856,164.2l.976-1.028,1.676,1.592,1.063-1.119-1.676-1.592.977-1.028,1.809,1.718,1.063-1.119-2.928-2.781-5.141,5.413,2.928,2.781,1.063-1.119Z" transform="translate(-213.016 -142.504)"/>
        <path id="Trazado_1083373" data-name="Trazado 1083373" d="M150.663,6.066A24.307,24.307,0,0,0,134.245,0,20.3,20.3,0,0,0,119.74,6.012L120.834,7.1a18.771,18.771,0,0,1,13.411-5.557,22.769,22.769,0,0,1,15.382,5.666,19.7,19.7,0,0,1,6.439,14.81,20.63,20.63,0,0,1-6.513,15.044c-4.447,4.237-4.447,8.357-4.447,11.365v2.7h-3.086v1.543h4.629V48.428c0-2.881,0-6.466,3.968-10.248a22.16,22.16,0,0,0,6.991-16.161,21.219,21.219,0,0,0-6.946-15.954Z" transform="translate(-109.904)"/>
        <path id="Trazado_1083374" data-name="Trazado 1083374" d="M40.587,107.3H31.268V98.494H26.555a.918.918,0,0,1-.736-.322,1.16,1.16,0,0,1-.091-.993l3.289-12v-.1a21.265,21.265,0,0,1,4.993-13.79l-1.175-1a22.8,22.8,0,0,0-5.361,14.685L24.24,96.77a2.626,2.626,0,0,0,.353,2.337,2.432,2.432,0,0,0,1.963.929h3.17v8.806h9.319v6.875H54.692v-1.543H40.587Z" transform="translate(-24.118 -63.05)"/>
      </g>
    </g>
  </g>
</svg>
