<svg xmlns="http://www.w3.org/2000/svg" xmlns:xlink="http://www.w3.org/1999/xlink" width="93.934" height="93.934" viewBox="0 0 93.934 93.934">
  <defs>
    <filter id="Trazado_978624" x="0" y="0" width="93.934" height="93.934" filterUnits="userSpaceOnUse">
      <feOffset dy="3" input="SourceAlpha"/>
      <feGaussianBlur stdDeviation="3" result="blur"/>
      <feFlood flood-opacity="0.161"/>
      <feComposite operator="in" in2="blur"/>
      <feComposite in="SourceGraphic"/>
    </filter>
  </defs>
  <g id="Grupo_1212230" data-name="Grupo 1212230" transform="translate(-609 -1804.533)">
    <g id="Grupo_1211238" data-name="Grupo 1211238" transform="translate(0 -377.186)">
      <g id="Grupo_1208062" data-name="Grupo 1208062" transform="translate(412 751.719)">
        <g id="Grupo_1144123" data-name="Grupo 1144123" transform="translate(206 1436)">
          <g transform="matrix(1, 0, 0, 1, -9, -6)" filter="url(#Trazado_978624)">
            <g id="Trazado_978624-2" data-name="Trazado 978624" transform="translate(9 6)" fill="#fbf3fb">
              <path d="M 37.966796875 74.43359375 C 33.04315185546875 74.43359375 28.26757431030273 73.46962738037109 23.77274131774902 71.56847381591797 C 19.43047523498535 69.73184967041016 15.53040790557861 67.10224914550781 12.18087482452393 63.75271987915039 C 8.831341743469238 60.4031867980957 6.201741218566895 56.50312042236328 4.365118980407715 52.16086196899414 C 2.463963508605957 47.66601943969727 1.499996900558472 42.89044189453125 1.499996900558472 37.966796875 C 1.499996900558472 33.04315185546875 2.463963508605957 28.26757431030273 4.365118980407715 23.77274131774902 C 6.201741218566895 19.43047523498535 8.831341743469238 15.53040790557861 12.18087482452393 12.18087482452393 C 15.53040790557861 8.831341743469238 19.43047523498535 6.201741218566895 23.77274131774902 4.365118980407715 C 28.26757431030273 2.463963508605957 33.04315185546875 1.499996900558472 37.966796875 1.499996900558472 C 42.89044189453125 1.499996900558472 47.66601943969727 2.463963508605957 52.16086196899414 4.365118980407715 C 56.50312042236328 6.201741218566895 60.4031867980957 8.831341743469238 63.75271987915039 12.18087482452393 C 67.10224914550781 15.53040790557861 69.73184967041016 19.43047523498535 71.56847381591797 23.77274131774902 C 73.46962738037109 28.26757431030273 74.43359375 33.04315185546875 74.43359375 37.966796875 C 74.43359375 42.89044189453125 73.46962738037109 47.66601943969727 71.56847381591797 52.16086196899414 C 69.73184967041016 56.50313186645508 67.10224914550781 60.4031867980957 63.75271987915039 63.75271987915039 C 60.4031867980957 67.10224914550781 56.50313186645508 69.73184967041016 52.16086196899414 71.56847381591797 C 47.66601943969727 73.46962738037109 42.89044189453125 74.43359375 37.966796875 74.43359375 Z" stroke="none"/>
              <path d="M 37.966796875 3 C 33.2449836730957 3 28.66600799560547 3.924095153808594 24.35705947875977 5.746635437011719 C 20.19359588623047 7.507621765136719 16.45379638671875 10.02927398681641 13.24153518676758 13.24153518676758 C 10.02927398681641 16.45379638671875 7.507621765136719 20.19359588623047 5.746635437011719 24.35705947875977 C 3.924095153808594 28.66600799560547 3 33.2449836730957 3 37.966796875 C 3 42.6886100769043 3.924095153808594 47.26758575439453 5.746635437011719 51.57653427124023 C 7.507621765136719 55.73999786376953 10.02927398681641 59.47979736328125 13.24153518676758 62.69205856323242 C 16.45379638671875 65.90431976318359 20.19359588623047 68.42597198486328 24.35705947875977 70.18695831298828 C 28.66600799560547 72.00949859619141 33.2449836730957 72.93359375 37.966796875 72.93359375 C 42.6886100769043 72.93359375 47.26758575439453 72.00949859619141 51.57653427124023 70.18695831298828 C 55.73999786376953 68.42597198486328 59.47979736328125 65.90431976318359 62.69205856323242 62.69205856323242 C 65.90431976318359 59.47979736328125 68.42597198486328 55.73999786376953 70.18695831298828 51.57653427124023 C 72.00949859619141 47.26758575439453 72.93359375 42.6886100769043 72.93359375 37.966796875 C 72.93359375 33.2449836730957 72.00949859619141 28.66600799560547 70.18695831298828 24.35705947875977 C 68.42597198486328 20.19359588623047 65.90431976318359 16.45379638671875 62.69205856323242 13.24153518676758 C 59.47979736328125 10.02927398681641 55.73999786376953 7.507621765136719 51.57653427124023 5.746635437011719 C 47.26758575439453 3.924095153808594 42.6886100769043 3 37.966796875 3 M 37.966796875 0 C 58.93528366088867 0 75.93359375 16.99831008911133 75.93359375 37.966796875 C 75.93359375 58.93528366088867 58.93528366088867 75.93359375 37.966796875 75.93359375 C 16.99831008911133 75.93359375 0 58.93528366088867 0 37.966796875 C 0 16.99831008911133 16.99831008911133 0 37.966796875 0 Z" stroke="none" fill="#df93dd"/>
            </g>
          </g>
        </g>
      </g>
    </g>
    <g id="bipolar" transform="translate(629.952 1772.074)">
      <g id="Grupo_1212229" data-name="Grupo 1212229" transform="translate(0.762 56.875)">
        <path id="Trazado_1082832" data-name="Trazado 1082832" d="M274.736,361.969H258.444L256,352.194h18.736Z" transform="translate(-230.747 -322.868)" fill="#ff8086"/>
        <path id="Trazado_1082833" data-name="Trazado 1082833" d="M256,352.194v9.775h2.444v-.932a.9.9,0,0,1,1.214-.838,15.29,15.29,0,0,0,15.078-2.564v-5.442Z" transform="translate(-230.747 -322.868)" fill="#e5646e"/>
        <path id="Trazado_1082834" data-name="Trazado 1082834" d="M214.81,81V76.647a13.034,13.034,0,0,0-13.034-13.034h-3.258a13.034,13.034,0,0,0-13.034,13.034V81a2.845,2.845,0,0,0,1.222,5.417h.407a13.034,13.034,0,0,0,26.067,0h.407A2.845,2.845,0,0,0,214.81,81Z" transform="translate(-165.934 -63.613)" fill="#ff9a9f"/>
        <path id="Trazado_1082835" data-name="Trazado 1082835" d="M212.92,66.057h.815a2.444,2.444,0,0,0,2.444-2.444H212.92a13.034,13.034,0,0,0-13.034,13.034V80.72h.815a1.629,1.629,0,0,0,1.629-1.629V76.647A10.59,10.59,0,0,1,212.92,66.057Z" transform="translate(-180.336 -63.613)" fill="#ff8086"/>
        <path id="Trazado_1082836" data-name="Trazado 1082836" d="M90.365,361.969H74.073l-2.444-9.775H90.365Z" transform="translate(-65.112 -322.868)" fill="#a4ccff"/>
        <path id="Trazado_1082837" data-name="Trazado 1082837" d="M91.179,352.194H71.629v9.775h2.444v-1.146a.973.973,0,0,1,1.365-.886A15.281,15.281,0,0,0,90.3,358.3Z" transform="translate(-65.112 -322.868)" fill="#8bb3ea"/>
        <path id="Trazado_1082838" data-name="Trazado 1082838" d="M38.455,81V76.647A13.034,13.034,0,0,0,25.421,63.613H22.163A13.034,13.034,0,0,0,9.129,76.647V81a2.845,2.845,0,0,0,1.222,5.417h.407a13.034,13.034,0,1,0,26.067,0h.407A2.845,2.845,0,0,0,38.455,81Z" transform="translate(-7.5 -63.613)" fill="#c3ddff"/>
        <path id="Trazado_1082839" data-name="Trazado 1082839" d="M40.473,288.065h-.909A13.034,13.034,0,0,0,52.6,301.1c.412,0,.819-.024,1.222-.062a13.036,13.036,0,0,1-11.729-11.5,1.637,1.637,0,0,0-1.617-1.475Z" transform="translate(-36.306 -265.256)" fill="#a4ccff"/>
        <path id="Trazado_1082840" data-name="Trazado 1082840" d="M36.566,66.057h.815a2.444,2.444,0,0,0,2.444-2.444H36.566A13.034,13.034,0,0,0,23.532,76.647V80.72h.815a1.629,1.629,0,0,0,1.629-1.629V76.647A10.59,10.59,0,0,1,36.566,66.057Z" transform="translate(-21.903 -63.613)" fill="#a4ccff"/>
        <path id="Trazado_1082841" data-name="Trazado 1082841" d="M196.889,100.975V96.618a13.018,13.018,0,0,0-5.7-10.775,13.018,13.018,0,0,0-5.7,10.775v4.358a2.845,2.845,0,0,0,1.222,5.417h.407a12.984,12.984,0,0,0,4.073,9.448,12.984,12.984,0,0,0,4.073-9.448h.407a2.845,2.845,0,0,0,1.222-5.417Z" transform="translate(-165.934 -83.584)" fill="#ead1ff"/>
      </g>
      <path id="Trazado_1082842" data-name="Trazado 1082842" d="M50.4,73.815V69.909a13.811,13.811,0,0,0-13.8-13.8H33.346a13.722,13.722,0,0,0-7.337,2.111,13.713,13.713,0,0,0-7.326-2.111H15.425a13.811,13.811,0,0,0-13.8,13.8v3.906a3.612,3.612,0,0,0,1.649,6.615,13.735,13.735,0,0,0,3.238,8.147v7.4a.762.762,0,1,0,1.524,0V90.12a13.767,13.767,0,0,0,17.211.652v5.2a.762.762,0,1,0,1.524,0V89.462a13.757,13.757,0,0,0,4.053-9.031,3.612,3.612,0,0,0,1.649-6.615V69.909a13.775,13.775,0,0,0-5.116-10.715,12.208,12.208,0,0,1,5.983-1.557H36.6A12.285,12.285,0,0,1,48.876,69.909V73.25a3.633,3.633,0,0,0-.46-.03.762.762,0,1,0,0,1.524,2.089,2.089,0,1,1,0,4.178h-.407a.762.762,0,0,0-.762.762A12.285,12.285,0,0,1,34.975,91.955a12.151,12.151,0,0,1-5.37-1.234.762.762,0,1,0-.668,1.37A13.791,13.791,0,0,0,43.988,90.12v5.856a.762.762,0,1,0,1.524,0v-7.4a13.735,13.735,0,0,0,3.238-8.147A3.612,3.612,0,0,0,50.4,73.815ZM30.955,69.909V73.25a3.63,3.63,0,0,0-.46-.03.762.762,0,1,0,0,1.524,2.089,2.089,0,0,1,0,4.178h-.407a.762.762,0,0,0-.762.762,12.226,12.226,0,0,1-3.315,8.379A12.146,12.146,0,0,1,22.7,79.684a.762.762,0,0,0-.762-.762h-.407a2.089,2.089,0,0,1,0-4.178.762.762,0,0,0,0-1.524,3.612,3.612,0,0,0-.46.03V69.909a12.138,12.138,0,0,1,2.691-7.67.762.762,0,1,0-1.189-.953,13.832,13.832,0,0,0-3.026,8.623v3.906A3.612,3.612,0,0,0,21.2,80.431a13.636,13.636,0,0,0,3.7,8.679,12.265,12.265,0,0,1-20.12-9.426.762.762,0,0,0-.762-.762H3.613a2.089,2.089,0,1,1,0-4.178.762.762,0,1,0,0-1.524,3.611,3.611,0,0,0-.46.03V69.909A12.285,12.285,0,0,1,15.425,57.637h3.258A12.285,12.285,0,0,1,30.955,69.909Z"/>
    </g>
  </g>
</svg>
