<svg xmlns="http://www.w3.org/2000/svg" xmlns:xlink="http://www.w3.org/1999/xlink" width="93.934" height="93.934" viewBox="0 0 93.934 93.934">
  <defs>
    <filter id="Trazado_978624" x="0" y="0" width="93.934" height="93.934" filterUnits="userSpaceOnUse">
      <feOffset dy="3" input="SourceAlpha"/>
      <feGaussianBlur stdDeviation="3" result="blur"/>
      <feFlood flood-opacity="0.161"/>
      <feComposite operator="in" in2="blur"/>
      <feComposite in="SourceGraphic"/>
    </filter>
  </defs>
  <g id="Grupo_1212281" data-name="Grupo 1212281" transform="translate(-608 -2669.655)">
    <g id="Grupo_1209306" data-name="Grupo 1209306" transform="translate(-2 -2575.933)">
      <g id="Grupo_1208072" data-name="Grupo 1208072" transform="translate(413 3815.588)">
        <g id="Grupo_1144123" data-name="Grupo 1144123" transform="translate(206 1436)">
          <g transform="matrix(1, 0, 0, 1, -9, -6)" filter="url(#Trazado_978624)">
            <g id="Trazado_978624-2" data-name="Trazado 978624" transform="translate(9 6)" fill="#f0fbfa">
              <path d="M 37.966796875 74.43359375 C 33.04315185546875 74.43359375 28.26757431030273 73.46962738037109 23.77274131774902 71.56847381591797 C 19.43047523498535 69.73184967041016 15.53040790557861 67.10224914550781 12.18087482452393 63.75271987915039 C 8.831341743469238 60.4031867980957 6.201741218566895 56.50312042236328 4.365118980407715 52.16086196899414 C 2.463963508605957 47.66601943969727 1.499996900558472 42.89044189453125 1.499996900558472 37.966796875 C 1.499996900558472 33.04315185546875 2.463963508605957 28.26757431030273 4.365118980407715 23.77274131774902 C 6.201741218566895 19.43047523498535 8.831341743469238 15.53040790557861 12.18087482452393 12.18087482452393 C 15.53040790557861 8.831341743469238 19.43047523498535 6.201741218566895 23.77274131774902 4.365118980407715 C 28.26757431030273 2.463963508605957 33.04315185546875 1.499996900558472 37.966796875 1.499996900558472 C 42.89044189453125 1.499996900558472 47.66601943969727 2.463963508605957 52.16086196899414 4.365118980407715 C 56.50312042236328 6.201741218566895 60.4031867980957 8.831341743469238 63.75271987915039 12.18087482452393 C 67.10224914550781 15.53040790557861 69.73184967041016 19.43047523498535 71.56847381591797 23.77274131774902 C 73.46962738037109 28.26757431030273 74.43359375 33.04315185546875 74.43359375 37.966796875 C 74.43359375 42.89044189453125 73.46962738037109 47.66601943969727 71.56847381591797 52.16086196899414 C 69.73184967041016 56.50313186645508 67.10224914550781 60.4031867980957 63.75271987915039 63.75271987915039 C 60.4031867980957 67.10224914550781 56.50313186645508 69.73184967041016 52.16086196899414 71.56847381591797 C 47.66601943969727 73.46962738037109 42.89044189453125 74.43359375 37.966796875 74.43359375 Z" stroke="none"/>
              <path d="M 37.966796875 3 C 33.2449836730957 3 28.66600799560547 3.924095153808594 24.35705947875977 5.746635437011719 C 20.19359588623047 7.507621765136719 16.45379638671875 10.02927398681641 13.24153518676758 13.24153518676758 C 10.02927398681641 16.45379638671875 7.507621765136719 20.19359588623047 5.746635437011719 24.35705947875977 C 3.924095153808594 28.66600799560547 3 33.2449836730957 3 37.966796875 C 3 42.6886100769043 3.924095153808594 47.26758575439453 5.746635437011719 51.57653427124023 C 7.507621765136719 55.73999786376953 10.02927398681641 59.47979736328125 13.24153518676758 62.69205856323242 C 16.45379638671875 65.90431976318359 20.19359588623047 68.42597198486328 24.35705947875977 70.18695831298828 C 28.66600799560547 72.00949859619141 33.2449836730957 72.93359375 37.966796875 72.93359375 C 42.6886100769043 72.93359375 47.26758575439453 72.00949859619141 51.57653427124023 70.18695831298828 C 55.73999786376953 68.42597198486328 59.47979736328125 65.90431976318359 62.69205856323242 62.69205856323242 C 65.90431976318359 59.47979736328125 68.42597198486328 55.73999786376953 70.18695831298828 51.57653427124023 C 72.00949859619141 47.26758575439453 72.93359375 42.6886100769043 72.93359375 37.966796875 C 72.93359375 33.2449836730957 72.00949859619141 28.66600799560547 70.18695831298828 24.35705947875977 C 68.42597198486328 20.19359588623047 65.90431976318359 16.45379638671875 62.69205856323242 13.24153518676758 C 59.47979736328125 10.02927398681641 55.73999786376953 7.507621765136719 51.57653427124023 5.746635437011719 C 47.26758575439453 3.924095153808594 42.6886100769043 3 37.966796875 3 M 37.966796875 0 C 58.93528366088867 0 75.93359375 16.99831008911133 75.93359375 37.966796875 C 75.93359375 58.93528366088867 58.93528366088867 75.93359375 37.966796875 75.93359375 C 16.99831008911133 75.93359375 0 58.93528366088867 0 37.966796875 C 0 16.99831008911133 16.99831008911133 0 37.966796875 0 Z" stroke="none" fill="#3f7776"/>
            </g>
          </g>
        </g>
      </g>
    </g>
    <g id="medicamento_1_" data-name="medicamento (1)" transform="translate(596.051 2687.338)">
      <g id="Grupo_1212279" data-name="Grupo 1212279" transform="translate(39.365 0.77)">
        <path id="Trazado_1083086" data-name="Trazado 1083086" d="M76.82,91.347H48.148A2.053,2.053,0,0,1,46.1,89.294V47.857A2.053,2.053,0,0,1,48.148,45.8H73.583l5.252.466a2.053,2.053,0,0,1,2.053,2.053l-.549,38.8Z" transform="translate(-46.095 -41.871)" fill="#888891"/>
        <path id="Trazado_1083087" data-name="Trazado 1083087" d="M316.929,47.853a2.053,2.053,0,0,0-2.053-2.053h-6.16a2.053,2.053,0,0,1,2.053,2.053V87.371h6.16Z" transform="translate(-281.752 -41.868)" fill="#73737f"/>
        <path id="Trazado_1083088" data-name="Trazado 1083088" d="M86.095,122.1V84.971a.205.205,0,0,1,.205-.205H111l1.416.626a.205.205,0,0,1,.205.205l-.359,36.506a.205.205,0,0,1-.205.205H86.3A.205.205,0,0,1,86.095,122.1Z" transform="translate(-81.988 -76.833)" fill="#f8feff"/>
        <path id="Trazado_1083089" data-name="Trazado 1083089" d="M330.768,84.975v37.132a.206.206,0,0,1-.205.205h-1.848V84.77h1.848A.205.205,0,0,1,330.768,84.975Z" transform="translate(-299.698 -76.837)" fill="#dff8ff"/>
        <g id="Grupo_1212277" data-name="Grupo 1212277" transform="translate(7.835)">
          <path id="Trazado_1083090" data-name="Trazado 1083090" d="M126.2,238.554h-3.491a.308.308,0,0,1-.308-.308v-3.491a.308.308,0,0,1,.308-.308H126.2a.308.308,0,0,1,.308.308v3.491A.308.308,0,0,1,126.2,238.554Z" transform="translate(-122.405 -211.146)" fill="#b6e9ff"/>
          <path id="Trazado_1083091" data-name="Trazado 1083091" d="M126.2,328.554h-3.491a.308.308,0,0,1-.308-.308v-3.491a.308.308,0,0,1,.308-.308H126.2a.308.308,0,0,1,.308.308v3.491A.308.308,0,0,1,126.2,328.554Z" transform="translate(-122.405 -291.906)" fill="#b6e9ff"/>
          <path id="Trazado_1083092" data-name="Trazado 1083092" d="M154.163,10.406l-2.023-.248h-.206a.318.318,0,0,1-.052,0c-.134-.022-.341-.115-.355-.253a2.509,2.509,0,0,0-2.619-2.236L146.87,7.5h-.865a2.657,2.657,0,0,0-2.643,2.385.308.308,0,0,1-.309.272h-2.532a1.027,1.027,0,0,0-1.027,1.027v4.5a1.027,1.027,0,0,0,1.027,1.027h11.687l2.017-.118a1.027,1.027,0,0,0,1.027-1.027l-.063-4.131a1.027,1.027,0,0,0-1.027-1.027Z" transform="translate(-137.74 -7.5)" fill="#b6e9ff"/>
        </g>
        <path id="Trazado_1083093" data-name="Trazado 1083093" d="M264.806,34.407v4.5a1.027,1.027,0,0,1-1.027,1.027h-2.464a1.027,1.027,0,0,0,1.027-1.027v-4.5a1.027,1.027,0,0,0-1.027-1.027h2.464A1.027,1.027,0,0,1,264.806,34.407Z" transform="translate(-239.218 -30.723)" fill="#abd5ff"/>
        <path id="Trazado_1083094" data-name="Trazado 1083094" d="M213.321,10.157h-2.464a.307.307,0,0,1-.308-.272A2.658,2.658,0,0,0,207.9,7.5h2.464a2.658,2.658,0,0,1,2.644,2.385A.307.307,0,0,0,213.321,10.157Z" transform="translate(-191.292 -7.5)" fill="#abd5ff"/>
        <path id="Trazado_1083095" data-name="Trazado 1083095" d="M189.387,130.9h-1.643a.205.205,0,0,1-.205-.205v-1.643a.205.205,0,0,0-.205-.205h-2.669a.205.205,0,0,0-.205.205V130.7a.205.205,0,0,1-.205.205H182.61a.205.205,0,0,0-.205.205v2.669a.205.205,0,0,0,.205.205h1.643a.205.205,0,0,1,.205.205v1.643a.205.205,0,0,0,.205.205h2.669a.205.205,0,0,0,.205-.205v-1.643a.205.205,0,0,1,.205-.205h1.643a.205.205,0,0,0,.205-.205v-2.669A.205.205,0,0,0,189.387,130.9Z" transform="translate(-168.41 -116.391)" fill="#fd8087"/>
        <g id="Grupo_1212278" data-name="Grupo 1212278" transform="translate(19.04 30.647)">
          <path id="Trazado_1083096" data-name="Trazado 1083096" d="M255.609,312.716a7.185,7.185,0,0,1-.542,2.662c-.838.405-.887.812-.924,1.54a6.824,6.824,0,0,1-.5.557L245.6,325.54a2.858,2.858,0,0,1-4.049,0l-8.043-8.065a6.849,6.849,0,0,1-.5-.557c.246-.642.163-1.063-.924-1.54a6.727,6.727,0,0,1,10.946-7.4l.4.4a.205.205,0,0,0,.291,0l.4-.4a6.725,6.725,0,0,1,11.488,4.74Z" transform="translate(-231.548 -306)" fill="#fd8087"/>
        </g>
      </g>
      <g id="Grupo_1212280" data-name="Grupo 1212280" transform="translate(38.595 0)">
        <path id="Trazado_1083097" data-name="Trazado 1083097" d="M86.556,217.332H80.135V192.29a.77.77,0,0,0-1.54,0V218.1a.77.77,0,0,0,.77.77h7.191a.77.77,0,1,0,0-1.54Z" transform="translate(-74.488 -171.857)"/>
        <path id="Trazado_1083098" data-name="Trazado 1083098" d="M119.782,226.947h-4.107a.77.77,0,0,0-.77.77v4.107a.77.77,0,0,0,.77.77h4.107a.77.77,0,0,0,.77-.77v-4.107A.77.77,0,0,0,119.782,226.947Zm-.77,4.107h-2.567v-2.567h2.567Z" transform="translate(-107.07 -203.646)"/>
        <path id="Trazado_1083099" data-name="Trazado 1083099" d="M185.675,233.487h6.116a.77.77,0,1,0,0-1.54h-6.116a.77.77,0,1,0,0,1.54Z" transform="translate(-169.883 -208.133)"/>
        <path id="Trazado_1083100" data-name="Trazado 1083100" d="M184.9,262.717a.77.77,0,0,0,.77.77h11.294a.77.77,0,1,0,0-1.54H185.675A.77.77,0,0,0,184.9,262.717Z" transform="translate(-169.883 -235.053)"/>
        <path id="Trazado_1083101" data-name="Trazado 1083101" d="M119.782,316.947h-4.107a.77.77,0,0,0-.77.77v4.107a.77.77,0,0,0,.77.77h4.107a.77.77,0,0,0,.77-.77v-4.107A.77.77,0,0,0,119.782,316.947Zm-.77,4.107h-2.567v-2.567h2.567Z" transform="translate(-107.07 -284.406)"/>
        <path id="Trazado_1083102" data-name="Trazado 1083102" d="M196.346,53.615a.77.77,0,0,0-.77-.77h-3.9a.77.77,0,0,0,0,1.54h3.9A.77.77,0,0,0,196.346,53.615Z" transform="translate(-175.267 -47.419)"/>
        <path id="Trazado_1083103" data-name="Trazado 1083103" d="M176.958,129.308a.77.77,0,0,0,.77.77h3.08a.77.77,0,0,0,.77-.77v-1.283h1.283a.77.77,0,0,0,.77-.77v-3.08a.77.77,0,0,0-.77-.77h-1.283v-1.283a.77.77,0,0,0-.77-.77h-3.08a.77.77,0,0,0-.77.77V123.4h-1.283a.77.77,0,0,0-.77.77v3.08a.77.77,0,0,0,.77.77h1.283Zm-.513-2.823v-1.54h1.283a.77.77,0,0,0,.77-.77v-1.283h1.54v1.283a.77.77,0,0,0,.77.77h1.283v1.54h-1.283a.77.77,0,0,0-.77.77v1.283H178.5v-1.283a.77.77,0,0,0-.77-.77Z" transform="translate(-160.91 -108.892)"/>
        <path id="Trazado_1083104" data-name="Trazado 1083104" d="M81.945,33.933a.77.77,0,1,0-1.273.867,5.964,5.964,0,0,1,.4,5.994H78.411l-.859-1.4a.77.77,0,0,0-1.343.054l-1.026,2.024-1.239-3.93A.77.77,0,0,0,73.209,37h0a.77.77,0,0,0-.734.54l-1.99,6.37-2.1-7.856a.77.77,0,0,0-.738-.571h-.006a.77.77,0,0,0-.741.561l-1.385,4.905-.894-1.543a.77.77,0,0,0-1.323-.016l-.859,1.4H59.8a5.956,5.956,0,0,1,5.334-8.608,5.993,5.993,0,0,1,4.654,2.188,1,1,0,0,0,.641.343.769.769,0,0,0,.56-.242,6.254,6.254,0,0,1,4.756-2.29,5.883,5.883,0,0,1,2.5.549.77.77,0,0,0,.651-1.4,7.435,7.435,0,0,0-3.584-.68V6.756a2.827,2.827,0,0,0-2.823-2.823H65.645a1.8,1.8,0,0,0-1.719-1.276H61.782A3.434,3.434,0,0,0,58.442,0H55.465a3.43,3.43,0,0,0-3.341,2.657H49.981a1.8,1.8,0,0,0-1.719,1.276H41.418A2.827,2.827,0,0,0,38.6,6.756V48.192a2.827,2.827,0,0,0,2.823,2.823H67.383l.483.484a3.628,3.628,0,0,0,5.139,0l8.043-8.065a7.5,7.5,0,0,0,.9-9.5ZM73.772,6.756V30.909a7.406,7.406,0,0,0-2.567,1.267V8.7a.77.77,0,0,0-.77-.77H65.723V5.473h6.766a1.285,1.285,0,0,1,1.283,1.283ZM41.418,49.476a1.285,1.285,0,0,1-1.283-1.283V6.756a1.285,1.285,0,0,1,1.283-1.283h6.766V7.933H43.472a.77.77,0,0,0-.77.77v8.128a.77.77,0,1,0,1.54,0V9.473h4.02a1.8,1.8,0,0,0,1.719,1.275h5.7a.77.77,0,1,0,0-1.54h-5.7a.257.257,0,0,1-.257-.257v-4.5a.257.257,0,0,1,.257-.257h2.827a.77.77,0,0,0,.77-.77A1.887,1.887,0,0,1,55.465,1.54h2.977a1.889,1.889,0,0,1,1.887,1.887.77.77,0,0,0,.77.77h2.827a.257.257,0,0,1,.257.257v4.5a.257.257,0,0,1-.257.257H59.285a.77.77,0,1,0,0,1.54h4.641a1.8,1.8,0,0,0,1.719-1.275h4.02v22.7a7.493,7.493,0,0,0-10.037.88H54.387a.77.77,0,1,0,0,1.54h4.138a7.4,7.4,0,0,0-.616,1.54H54.387a.77.77,0,1,0,0,1.54h3.264a7.455,7.455,0,0,0,2.172,5.761l2.035,2.04H54.266a.77.77,0,0,0,0,1.54h9.127l2.454,2.46Zm30.5.937a2.088,2.088,0,0,1-2.959,0c-.012-.013-8.045-8.065-8.055-8.078h1.972a.77.77,0,0,0,.657-.368l.409-.668,1.159,2a.77.77,0,0,0,1.407-.177l1.117-3.958,2.06,7.717a.77.77,0,0,0,.728.571h.016a.77.77,0,0,0,.735-.54l2.051-6.567,1.069,3.39a.77.77,0,0,0,1.421.117l1.256-2.478.364.594a.77.77,0,0,0,.657.368h1.991c0,.007-8.048,8.069-8.056,8.078Z" transform="translate(-38.595 0)"/>
      </g>
    </g>
  </g>
</svg>
