<svg xmlns="http://www.w3.org/2000/svg" xmlns:xlink="http://www.w3.org/1999/xlink" width="190" height="158" viewBox="0 0 190 158">
  <defs>
    <clipPath id="clip-path">
      <rect id="Rectángulo_418523" data-name="Rectángulo 418523" width="190" height="158" transform="translate(810 3029)" fill="#fff" stroke="#707070" stroke-width="1"/>
    </clipPath>
  </defs>
  <g id="Enmascarar_grupo_1098701" data-name="Enmascarar grupo 1098701" transform="translate(-810 -3029)" clip-path="url(#clip-path)">
    <g id="Online_Mental_Health_Checkup" data-name="Online Mental Health Checkup" transform="translate(802.587 2998.485)">
      <rect id="Rectángulo_418497" data-name="Rectángulo 418497" width="121.895" height="91.882" rx="20.87" transform="translate(19.22 73.668)" fill="#3f7776"/>
      <circle id="Elipse_14288" data-name="Elipse 14288" cx="2.005" cy="2.005" r="2.005" transform="translate(25.537 77.917)" fill="#00ccc1"/>
      <circle id="Elipse_14289" data-name="Elipse 14289" cx="2.005" cy="2.005" r="2.005" transform="translate(34.022 77.917)" fill="#00ccc1"/>
      <circle id="Elipse_14290" data-name="Elipse 14290" cx="2.005" cy="2.005" r="2.005" transform="translate(42.508 77.917)" fill="#00ccc1"/>
      <rect id="Rectángulo_418498" data-name="Rectángulo 418498" width="1.556" height="8.34" rx="0.778" transform="translate(110.424 39.478) rotate(-90)" fill="#ffb833"/>
      <rect id="Rectángulo_418499" data-name="Rectángulo 418499" width="1.556" height="8.34" rx="0.778" transform="translate(115.372 42.87) rotate(180)" fill="#ffb833"/>
      <rect id="Rectángulo_418500" data-name="Rectángulo 418500" width="1.978" height="10.601" rx="0.989" transform="translate(85.518 62.551) rotate(-90)" fill="#ffb833"/>
      <rect id="Rectángulo_418501" data-name="Rectángulo 418501" width="1.978" height="10.601" rx="0.989" transform="translate(91.808 66.863) rotate(180)" fill="#ffb833"/>
      <rect id="Rectángulo_418502" data-name="Rectángulo 418502" width="1.978" height="10.601" rx="0.989" transform="translate(172.362 86.838) rotate(-90)" fill="#ffb833"/>
      <rect id="Rectángulo_418503" data-name="Rectángulo 418503" width="1.978" height="10.601" rx="0.989" transform="translate(178.655 91.15) rotate(180)" fill="#ffb833"/>
      <circle id="Elipse_14291" data-name="Elipse 14291" cx="29.332" cy="29.332" r="29.332" transform="translate(115.635 90.275)" fill="#ffb08d"/>
      <path id="Trazado_1083246" data-name="Trazado 1083246" d="M354.577,252.412c-.65,3.064-3.686,15.667-15.525,23.429-2.728,1.788-10.8,7.085-21.5,5.456-.816-.124-9.512-1.559-15.511-7.811-9.077-9.467-9.519-27.413-.069-43.823a56.534,56.534,0,0,1,33.588,6.02A55.689,55.689,0,0,1,354.577,252.412Z" transform="translate(-180.458 -128.209)" fill="#ffb08d"/>
      <path id="Trazado_1083247" data-name="Trazado 1083247" d="M320.91,280.25a8.931,8.931,0,0,0-4.564-2.88c-1.2-.346-2.828-.788-3.572.035a1.362,1.362,0,0,0-.3,1.342c.377.906,1.974.577,4.284,1.138,3.039.736,4.723,2.382,5.031,2,.211-.277-.581-1.248-.875-1.632Z" transform="translate(-191.811 -159.44)" fill="#383333"/>
      <ellipse id="Elipse_14292" data-name="Elipse 14292" cx="2.161" cy="3.468" rx="2.161" ry="3.468" transform="translate(124.172 134.037) rotate(-83.799)" fill="#ff8c5f"/>
      <path id="Trazado_1083248" data-name="Trazado 1083248" d="M383.7,298.438a5.99,5.99,0,0,1,4.409-1.729,4.544,4.544,0,0,1,2.7,1.017c2.458,2.3,1.518,9.554-2.728,11.41-2.369,1.037-4.889,0-5.74-.384Q383.018,303.61,383.7,298.438Z" transform="translate(-237.564 -172.368)" fill="#ffb08d"/>
      <path id="Trazado_1083249" data-name="Trazado 1083249" d="M392.511,314.38a.135.135,0,0,1-.093-.038.128.128,0,0,1,0-.183,3.589,3.589,0,0,0,1.338-2.915,4.531,4.531,0,0,0-2-2.846.124.124,0,0,1-.052-.149.131.131,0,0,1,.128-.09l4.094.19a.128.128,0,0,1,.124.135.135.135,0,0,1-.135.124l-3.655-.159a4.382,4.382,0,0,1,1.753,2.766,3.761,3.761,0,0,1-1.414,3.129A.135.135,0,0,1,392.511,314.38Z" transform="translate(-243.686 -179.867)" fill="#383333"/>
      <path id="Trazado_1083250" data-name="Trazado 1083250" d="M290.1,289.59a4.6,4.6,0,0,1-2.783,3.178c-2.42,1.01-3.693,5.4,3.689,6.459l1.068-4.945Z" transform="translate(-174.16 -167.718)" fill="#ffb08d"/>
      <path id="Trazado_1083251" data-name="Trazado 1083251" d="M310.621,342.207a2.555,2.555,0,0,1-1.106-.232.131.131,0,0,1-.059-.173.128.128,0,0,1,.173-.062,3.8,3.8,0,0,0,2.88-.266.13.13,0,0,1,.118.232,4.9,4.9,0,0,1-2.005.5Z" transform="translate(-189.873 -201.653)" fill="#383333"/>
      <path id="Trazado_1083252" data-name="Trazado 1083252" d="M312.252,297.844a2.493,2.493,0,1,1,1.179-3.319,2.493,2.493,0,0,1-1.179,3.319Z" transform="translate(-189.376 -170.015)" fill="#383333" fill-rule="evenodd"/>
      <rect id="Rectángulo_418504" data-name="Rectángulo 418504" width="47.488" height="33.543" rx="16.772" transform="translate(173.935 66.773) rotate(180)" fill="#3f7776"/>
      <path id="Trazado_1083253" data-name="Trazado 1083253" d="M438.642,120.073s-.868,9.433-7.742,9.336c-.515,0-.792-.982-.47-1.653.719-1.5,1.535-4.326,1.4-9.336Z" transform="translate(-268.935 -55.734)" fill="#3f7776"/>
      <path id="Trazado_1083254" data-name="Trazado 1083254" d="M307.656,359.456s-.553,11.756-5.84,14.764-19.633.214-21.766,19.685c0,0,37.661,10.484,68.255,0,0,0-1.712-13.693-5.135-16.047s-16-2.569-17.945-5.992-2.341-14.975-2.341-14.975Z" transform="translate(-170.643 -211.748)" fill="#ffb08d"/>
      <ellipse id="Elipse_14293" data-name="Elipse 14293" cx="28.706" cy="34.577" rx="28.706" ry="34.577" transform="translate(50.467 79.93)" fill="#d7f9f6"/>
      <path id="Trazado_1083255" data-name="Trazado 1083255" d="M177.5,299.139l-4.011,20.587s16.051,4.537,32.451,0L204.558,282.3Z" transform="translate(-100.928 -162.949)" fill="#d7f9f6"/>
      <path id="Trazado_1083256" data-name="Trazado 1083256" d="M110.11,275.165s1.224,26.531,9.076,30.7,26.171-2.365,26.171-2.365l-4.45-30.625Z" transform="translate(-59.463 -156.786)" fill="#d7f9f6"/>
      <path id="Trazado_1083257" data-name="Trazado 1083257" d="M105.192,268.29s.173,4.028-2.182,4.727-2.707,6.632,4.9,5.933Z" transform="translate(-53.843 -153.783)" fill="#d7f9f6"/>
      <path id="Trazado_1083258" data-name="Trazado 1083258" d="M136.069,186.118c-3.945,3.8-7.929,11.013-5.5,16.044,2.247,4.658,7.894,3.112,18.188,7.763,13.547,6.134,16.1,14.412,21.026,12.859,5.48-1.729,7.763-13.71,5.387-22.766-2.075-7.9-8.326-15.961-17.842-18.475C156.138,181.229,144.216,178.283,136.069,186.118Z" transform="translate(-72.363 -96.507)" fill="#00ccc1"/>
      <g id="Grupo_1212324" data-name="Grupo 1212324" transform="translate(65.477 86.392)">
        <path id="Trazado_1083259" data-name="Trazado 1083259" d="M160.77,203.862a8.572,8.572,0,1,0,8.572-8.572A8.572,8.572,0,0,0,160.77,203.862Zm3.624,0a4.948,4.948,0,1,1,4.947,4.945,4.948,4.948,0,0,1-4.947-4.945Z" transform="translate(-158.083 -192.417)" fill="#aaeeea"/>
        <rect id="Rectángulo_418505" data-name="Rectángulo 418505" width="4.222" height="4.989" rx="2.111" transform="translate(13.368 4.989) rotate(180)" fill="#aaeeea"/>
        <rect id="Rectángulo_418506" data-name="Rectángulo 418506" width="4.222" height="4.989" rx="2.111" transform="translate(13.368 22.506) rotate(180)" fill="#aaeeea"/>
        <rect id="Rectángulo_418507" data-name="Rectángulo 418507" width="4.222" height="4.989" rx="2.111" transform="translate(4.989 9.146) rotate(90)" fill="#aaeeea"/>
        <rect id="Rectángulo_418508" data-name="Rectángulo 418508" width="4.222" height="4.989" rx="2.111" transform="translate(22.51 9.146) rotate(90)" fill="#aaeeea"/>
        <rect id="Rectángulo_418509" data-name="Rectángulo 418509" width="4.222" height="4.989" rx="2.111" transform="translate(5.337 14.177) rotate(45)" fill="#aaeeea"/>
        <rect id="Rectángulo_418510" data-name="Rectángulo 418510" width="4.222" height="4.989" rx="2.111" transform="translate(17.724 1.792) rotate(45)" fill="#aaeeea"/>
        <rect id="Rectángulo_418511" data-name="Rectángulo 418511" width="4.222" height="4.989" rx="2.111" transform="translate(8.333 5.335) rotate(135)" fill="#aaeeea"/>
        <rect id="Rectángulo_418512" data-name="Rectángulo 418512" width="4.222" height="4.989" rx="2.111" transform="translate(20.721 17.72) rotate(135)" fill="#aaeeea"/>
      </g>
      <path id="Trazado_1083260" data-name="Trazado 1083260" d="M218.09,241.439a5.622,5.622,0,1,0,5.62-5.619,5.622,5.622,0,0,0-5.62,5.619Zm2.375,0a3.236,3.236,0,1,0,.014,0Z" transform="translate(-130.106 -132.54)" fill="#d7f9f6"/>
      <rect id="Rectángulo_418513" data-name="Rectángulo 418513" width="2.766" height="3.271" rx="1.383" transform="translate(94.985 104.666) rotate(180)" fill="#d7f9f6"/>
      <rect id="Rectángulo_418514" data-name="Rectángulo 418514" width="2.766" height="3.271" rx="1.383" transform="translate(94.985 116.156) rotate(180)" fill="#d7f9f6"/>
      <rect id="Rectángulo_418515" data-name="Rectángulo 418515" width="2.766" height="3.271" rx="1.383" transform="translate(89.495 107.394) rotate(90)" fill="#d7f9f6"/>
      <rect id="Rectángulo_418516" data-name="Rectángulo 418516" width="2.766" height="3.271" rx="1.383" transform="translate(100.985 107.391) rotate(90)" fill="#d7f9f6"/>
      <rect id="Rectángulo_418517" data-name="Rectángulo 418517" width="2.766" height="3.271" rx="1.383" transform="translate(89.72 110.685) rotate(45)" fill="#d7f9f6"/>
      <rect id="Rectángulo_418518" data-name="Rectángulo 418518" width="2.766" height="3.271" rx="1.383" transform="translate(97.842 102.561) rotate(45)" fill="#d7f9f6"/>
      <rect id="Rectángulo_418519" data-name="Rectángulo 418519" width="2.766" height="3.271" rx="1.383" transform="translate(91.694 104.891) rotate(135)" fill="#d7f9f6"/>
      <rect id="Rectángulo_418520" data-name="Rectángulo 418520" width="2.766" height="3.271" rx="1.383" transform="translate(99.819 113.019) rotate(135)" fill="#d7f9f6"/>
      <path id="Trazado_1083261" data-name="Trazado 1083261" d="M195.585,263.421s-1.131-6.725.539-8.357,1.01,4.765,3.8,7.7,5.079,2.171,5.961,1,.781-3.167,2.839-3.959.245,2.393,0,4.149,1.245,6.383-.252,9.972,6.272,49.221,6.272,49.221-11.255,7.234-24.069-1.445c0,0,3.606-36.254,3.8-40.168s-4.5-7.375-5.29-9.709a1.88,1.88,0,0,1,1.487-2.68s-.214-2.5,2.075-2.5c.035,0-.235-3.62,2.832-3.226Z" transform="translate(-111.09 -144.958)" fill="#ffb08d"/>
      <path id="Trazado_1083262" data-name="Trazado 1083262" d="M206.839,258.81a14.658,14.658,0,0,1-1.435-6.134c-.163-3.883.066-7.071,1.435-7.607s1.47,5.723,2.317,7.607,3.3,5.09,4.865,5.155,2.448-1.5,2.808-2.579,2.382-2.742,3.3-2.576-.114,2.839-.612,4.5a20.809,20.809,0,0,0-.529,4.474s-2.154.4-2.351.436S206.839,258.81,206.839,258.81Z" transform="translate(-121.777 -138.57)" fill="#ffb08d"/>
      <path id="Trazado_1083263" data-name="Trazado 1083263" d="M292.941,394.165s-2.573,2.261-4.671,3.7-13.5,1.587-17.323,4.941-9.031,21.313-9.031,21.313,12.278-.692,34.559,0,42.86,3.641,49.308,0c0,0-9.3-22.4-13.123-24.685s-14.135-2.4-15.812-3.475a8.147,8.147,0,0,1-2.59-2.96s-8.541,2.583-21.317,1.165Z" transform="translate(-159.675 -235.372)" fill="#fff3e3"/>
      <path id="Trazado_1083264" data-name="Trazado 1083264" d="M193.968,326.966l15.784-1.186,7.368,54.2s-16.155,10.062-29.546,0Z" transform="translate(-111.04 -191.395)" fill="#fff3e3"/>
      <path id="Trazado_1083265" data-name="Trazado 1083265" d="M308.66,208.014a20.233,20.233,0,0,1,13.188-16.085c12.1-4.488,30.428-.284,38.336,10.491s5.031,32.278,0,39.318-15.816,12.676-19.529,12.548-9.014-6.525-5.6-14.84c0,0,3.288,1.622,5.819-.574s3.527-5.187,3.064-7.348-1.791-5.259-5.684-4.516-3.458,4.751-4.543,5.681-3.112-4.727,0-9.308,3.575-5.66,3.8-9.436-18.644,5.971-16.849-11.525c-.01,0-6.265-.667-12.005,5.595Z" transform="translate(-189.36 -102.663)" fill="#383333"/>
      <rect id="Rectángulo_418521" data-name="Rectángulo 418521" width="19.968" height="6.269" rx="3.134" transform="translate(141.388 45.55)" fill="#00ccc1"/>
      <rect id="Rectángulo_418522" data-name="Rectángulo 418522" width="6.269" height="19.968" rx="3.134" transform="translate(148.238 38.7)" fill="#00ccc1"/>
      <path id="Trazado_1083266" data-name="Trazado 1083266" d="M302.85,328.979a13.7,13.7,0,0,0,7.092-.539s-.532,3.6-2.825,4.09S303.03,330.629,302.85,328.979Z" transform="translate(-185.559 -193.135)" fill="#fff" fill-rule="evenodd"/>
      <path id="Trazado_1083267" data-name="Trazado 1083267" d="M361.228,378.554a18.227,18.227,0,0,1-3.759-.373.174.174,0,0,1,.08-.339c.052,0,5.076,1.148,8.544-.6a.173.173,0,1,1,.156.308A11.542,11.542,0,0,1,361.228,378.554Z" transform="translate(-221.206 -225.047)" fill="#383333"/>
      <path id="Trazado_1083268" data-name="Trazado 1083268" d="M311.472,463.653h-.03c-.139-.013-.238-.111-.223-.221l1.412-9.847a.247.247,0,0,1,.279-.177.279.279,0,0,1,.172.073.174.174,0,0,1,.056.148l-1.406,9.847A.248.248,0,0,1,311.472,463.653Z" transform="translate(-191.646 -274.892)" fill="#383333"/>
      <path id="Trazado_1083269" data-name="Trazado 1083269" d="M464.492,458.978a.268.268,0,0,1-.255-.209l-3.244-13.6a.281.281,0,0,1,.193-.335.244.244,0,0,1,.2.032.269.269,0,0,1,.115.171l3.244,13.607a.282.282,0,0,1-.028.206.256.256,0,0,1-.159.123Z" transform="translate(-289.016 -269.277)" fill="#383333"/>
      <path id="Trazado_1083270" data-name="Trazado 1083270" d="M195.278,298.452a.132.132,0,0,1-.076-.024,5.83,5.83,0,0,1-1.7-2.334.131.131,0,0,1,.076-.169.128.128,0,0,1,.166.076,5.727,5.727,0,0,0,1.608,2.22.128.128,0,0,1,.031.18A.135.135,0,0,1,195.278,298.452Z" transform="translate(-114.016 -171.857)" fill="#383333"/>
      <path id="Trazado_1083271" data-name="Trazado 1083271" d="M201.116,291.19a.131.131,0,0,1-.083-.031,11.648,11.648,0,0,1-1.483-2.272.128.128,0,0,1,.055-.176.124.124,0,0,1,.173.055,11.283,11.283,0,0,0,1.421,2.192.131.131,0,0,1,.017.183A.128.128,0,0,1,201.116,291.19Z" transform="translate(-117.967 -167.132)" fill="#383333"/>
      <path id="Trazado_1083272" data-name="Trazado 1083272" d="M209.166,282.292a.128.128,0,0,1-.073-.021,4.666,4.666,0,0,1-1.449-2.766.124.124,0,0,1,.1-.149.131.131,0,0,1,.152.107,4.52,4.52,0,0,0,1.338,2.593.128.128,0,0,1-.073.235Z" transform="translate(-123.271 -161.022)" fill="#383333"/>
      <path id="Trazado_1083273" data-name="Trazado 1083273" d="M320.105,212.482a.163.163,0,0,1-.1-.031.176.176,0,0,1-.045-.242,18.163,18.163,0,0,1,12.572-6.94.173.173,0,0,1,.024.346,17.792,17.792,0,0,0-12.313,6.794.166.166,0,0,1-.142.073Z" transform="translate(-196.736 -112.553)" fill="#fff"/>
      <path id="Trazado_1083274" data-name="Trazado 1083274" d="M372.185,231.565a.173.173,0,0,1-.173-.145c-.46-2.808-2.749-2.835-6.224-2.877a32.053,32.053,0,0,1-5.595-.418c-6.155-1.138-6.044-8.855-6.044-8.931a.173.173,0,1,1,.346,0c0,.076-.1,7.5,5.761,8.585a31.94,31.94,0,0,0,5.532.411c3.378.041,6.048.073,6.552,3.167a.176.176,0,0,1-.142.2Z" transform="translate(-219.121 -121.549)" fill="#fff"/>
      <path id="Trazado_1083275" data-name="Trazado 1083275" d="M394.533,231.941a.156.156,0,0,1-.055,0,.173.173,0,0,1-.107-.218,5.088,5.088,0,0,0-.46-4.007c-.992-1.563-3-2.514-5.985-2.825-8.769-.92-9.647-4.917-9.682-5.086a.176.176,0,1,1,.346-.066c0,.038.889,3.918,9.377,4.806,3.091.325,5.187,1.331,6.245,2.991a5.315,5.315,0,0,1,.488,4.3A.173.173,0,0,1,394.533,231.941Z" transform="translate(-234.882 -121.926)" fill="#fff"/>
      <path id="Trazado_1083276" data-name="Trazado 1083276" d="M402.086,275.5a.173.173,0,0,1-.166-.18c.066-2.694,3.866-7.261,4.025-7.469a.176.176,0,0,1,.245-.021.169.169,0,0,1,.021.242c-.038.048-3.883,4.682-3.945,7.261a.176.176,0,0,1-.18.166Z" transform="translate(-250.373 -153.458)" fill="#fff"/>
      <path id="Trazado_1083277" data-name="Trazado 1083277" d="M433.626,236.726a.18.18,0,0,1-.159-.19c1.411-14.868-13.16-20.94-13.309-21a.176.176,0,0,1-.093-.228.173.173,0,0,1,.225-.093c.149.059,14.958,6.224,13.523,21.351a.173.173,0,0,1-.187.159Z" transform="translate(-262.236 -119.052)" fill="#fff"/>
      <path id="Trazado_1083278" data-name="Trazado 1083278" d="M393.465,294.871a.174.174,0,0,1-.038-.346c9.446-2.147,13.412-9.222,15.076-14.782a35.669,35.669,0,0,0,1.362-11.708.173.173,0,1,1,.346-.028,36.063,36.063,0,0,1-1.383,11.825c-1.687,5.65-5.719,12.845-15.331,15.027Z" transform="translate(-244.716 -153.494)" fill="#fff"/>
      <path id="Trazado_1083279" data-name="Trazado 1083279" d="M404.245,310.248a.17.17,0,0,1-.166-.128.173.173,0,0,1,.121-.211,28.665,28.665,0,0,0,12.147-6.787c7.514-7.133,8.748-16.369,8.931-20.006a.169.169,0,0,1,.18-.166.173.173,0,0,1,.162.183c-.183,3.679-1.431,13.018-9.035,20.241a29.045,29.045,0,0,1-12.292,6.867.118.118,0,0,1-.048.007Z" transform="translate(-251.782 -163.373)" fill="#fff"/>
    </g>
  </g>
</svg>
