<svg xmlns="http://www.w3.org/2000/svg" xmlns:xlink="http://www.w3.org/1999/xlink" width="93.934" height="93.934" viewBox="0 0 93.934 93.934">
  <defs>
    <filter id="Trazado_978624" x="0" y="0" width="93.934" height="93.934" filterUnits="userSpaceOnUse">
      <feOffset dy="3" input="SourceAlpha"/>
      <feGaussianBlur stdDeviation="3" result="blur"/>
      <feFlood flood-opacity="0.161"/>
      <feComposite operator="in" in2="blur"/>
      <feComposite in="SourceGraphic"/>
    </filter>
  </defs>
  <g id="Grupo_1212322" data-name="Grupo 1212322" transform="translate(-1031 -4690.033)">
    <g id="Grupo_1211241" data-name="Grupo 1211241" transform="translate(-2 -555.555)">
      <g id="Grupo_1208073" data-name="Grupo 1208073" transform="translate(836 3815.588)">
        <g id="Grupo_1144123" data-name="Grupo 1144123" transform="translate(206 1436)">
          <g transform="matrix(1, 0, 0, 1, -9, -6)" filter="url(#Trazado_978624)">
            <g id="Trazado_978624-2" data-name="Trazado 978624" transform="translate(9 6)" fill="#f0fbfa">
              <path d="M 37.966796875 74.43359375 C 33.04315185546875 74.43359375 28.26757431030273 73.46962738037109 23.77274131774902 71.56847381591797 C 19.43047523498535 69.73184967041016 15.53040790557861 67.10224914550781 12.18087482452393 63.75271987915039 C 8.831341743469238 60.4031867980957 6.201741218566895 56.50312042236328 4.365118980407715 52.16086196899414 C 2.463963508605957 47.66601943969727 1.499996900558472 42.89044189453125 1.499996900558472 37.966796875 C 1.499996900558472 33.04315185546875 2.463963508605957 28.26757431030273 4.365118980407715 23.77274131774902 C 6.201741218566895 19.43047523498535 8.831341743469238 15.53040790557861 12.18087482452393 12.18087482452393 C 15.53040790557861 8.831341743469238 19.43047523498535 6.201741218566895 23.77274131774902 4.365118980407715 C 28.26757431030273 2.463963508605957 33.04315185546875 1.499996900558472 37.966796875 1.499996900558472 C 42.89044189453125 1.499996900558472 47.66601943969727 2.463963508605957 52.16086196899414 4.365118980407715 C 56.50312042236328 6.201741218566895 60.4031867980957 8.831341743469238 63.75271987915039 12.18087482452393 C 67.10224914550781 15.53040790557861 69.73184967041016 19.43047523498535 71.56847381591797 23.77274131774902 C 73.46962738037109 28.26757431030273 74.43359375 33.04315185546875 74.43359375 37.966796875 C 74.43359375 42.89044189453125 73.46962738037109 47.66601943969727 71.56847381591797 52.16086196899414 C 69.73184967041016 56.50313186645508 67.10224914550781 60.4031867980957 63.75271987915039 63.75271987915039 C 60.4031867980957 67.10224914550781 56.50313186645508 69.73184967041016 52.16086196899414 71.56847381591797 C 47.66601943969727 73.46962738037109 42.89044189453125 74.43359375 37.966796875 74.43359375 Z" stroke="none"/>
              <path d="M 37.966796875 3 C 33.2449836730957 3 28.66600799560547 3.924095153808594 24.35705947875977 5.746635437011719 C 20.19359588623047 7.507621765136719 16.45379638671875 10.02927398681641 13.24153518676758 13.24153518676758 C 10.02927398681641 16.45379638671875 7.507621765136719 20.19359588623047 5.746635437011719 24.35705947875977 C 3.924095153808594 28.66600799560547 3 33.2449836730957 3 37.966796875 C 3 42.6886100769043 3.924095153808594 47.26758575439453 5.746635437011719 51.57653427124023 C 7.507621765136719 55.73999786376953 10.02927398681641 59.47979736328125 13.24153518676758 62.69205856323242 C 16.45379638671875 65.90431976318359 20.19359588623047 68.42597198486328 24.35705947875977 70.18695831298828 C 28.66600799560547 72.00949859619141 33.2449836730957 72.93359375 37.966796875 72.93359375 C 42.6886100769043 72.93359375 47.26758575439453 72.00949859619141 51.57653427124023 70.18695831298828 C 55.73999786376953 68.42597198486328 59.47979736328125 65.90431976318359 62.69205856323242 62.69205856323242 C 65.90431976318359 59.47979736328125 68.42597198486328 55.73999786376953 70.18695831298828 51.57653427124023 C 72.00949859619141 47.26758575439453 72.93359375 42.6886100769043 72.93359375 37.966796875 C 72.93359375 33.2449836730957 72.00949859619141 28.66600799560547 70.18695831298828 24.35705947875977 C 68.42597198486328 20.19359588623047 65.90431976318359 16.45379638671875 62.69205856323242 13.24153518676758 C 59.47979736328125 10.02927398681641 55.73999786376953 7.507621765136719 51.57653427124023 5.746635437011719 C 47.26758575439453 3.924095153808594 42.6886100769043 3 37.966796875 3 M 37.966796875 0 C 58.93528366088867 0 75.93359375 16.99831008911133 75.93359375 37.966796875 C 75.93359375 58.93528366088867 58.93528366088867 75.93359375 37.966796875 75.93359375 C 16.99831008911133 75.93359375 0 58.93528366088867 0 37.966796875 C 0 16.99831008911133 16.99831008911133 0 37.966796875 0 Z" stroke="none" fill="#3f7776"/>
            </g>
          </g>
        </g>
      </g>
    </g>
    <g id="pensamiento-logico" transform="translate(1022.577 4705.562)">
      <g id="Grupo_1212321" data-name="Grupo 1212321" transform="translate(32.258 1.142)">
        <g id="Grupo_1212306" data-name="Grupo 1212306" transform="translate(0 0)">
          <path id="Trazado_1083230" data-name="Trazado 1083230" d="M53.622,50.394a13.537,13.537,0,0,1,3.07,7.021H79.3c-3.1-6.707-4.783-13.357-2.163-19.666,7.22-17.394-.855-29.449-13.7-30.8-7.45-.783-18.618,2.108-21.7,9.788a12.617,12.617,0,0,0,1.08,11.225c-3.476,5.316-8.089,8.343-1.451,11.588-1.941,2-1.849,2.972.086,4.294-.985,1.725-1.008,2.845,1.509,3.28-3.516,9.547,8.314,4.838,10.652,3.272Z" transform="translate(-37.999 -6.822)" fill="#ffbfa8" fill-rule="evenodd"/>
        </g>
        <g id="Grupo_1212307" data-name="Grupo 1212307" transform="translate(21.947 0.001)">
          <path id="Trazado_1083231" data-name="Trazado 1083231" d="M271.467,57.419h2.071c-3.1-6.707-4.783-13.357-2.163-19.666,7.22-17.394-.855-29.449-13.7-30.8a24.742,24.742,0,0,0-3.5-.1c.487.02.962.055,1.423.1,12.844,1.353,20.919,13.408,13.7,30.8C266.68,44.063,268.359,50.712,271.467,57.419Z" transform="translate(-254.182 -6.827)" fill="#fcac8f" fill-rule="evenodd"/>
        </g>
        <g id="Grupo_1212308" data-name="Grupo 1212308" transform="translate(19.352 34.221)">
          <path id="Trazado_1083232" data-name="Trazado 1083232" d="M235.537,343.91v1.549a3.467,3.467,0,0,1-6.914,0V343.91Z" transform="translate(-228.623 -343.91)" fill="#6eabc9" fill-rule="evenodd"/>
        </g>
        <g id="Grupo_1212309" data-name="Grupo 1212309" transform="translate(10.183 13.267)">
          <path id="Trazado_1083233" data-name="Trazado 1083233" d="M147.013,140.283a2.773,2.773,0,1,0-5.161,1.411H138.3c.34,6.58,4.821,6.724,4.821,11.09a1.416,1.416,0,0,0,1.428,1.4h6.379v-3.41a2.773,2.773,0,1,1,0-4.775v-4.3h-4.3a2.754,2.754,0,0,0,.386-1.411Z" transform="translate(-138.301 -137.51)" fill="#55d1f5" fill-rule="evenodd"/>
        </g>
        <g id="Grupo_1212310" data-name="Grupo 1212310" transform="translate(18.626 17.452)">
          <path id="Trazado_1083234" data-name="Trazado 1083234" d="M225.659,178.728v4.3a2.773,2.773,0,1,0,0,4.775v3.41h6.379a1.416,1.416,0,0,0,1.428-1.4c0-4.366,4.481-4.51,4.818-11.09h-3.548a2.773,2.773,0,1,1-4.775,0h-4.3Z" transform="translate(-221.475 -178.728)" fill="#8399fe" fill-rule="evenodd"/>
        </g>
        <g id="Grupo_1212311" data-name="Grupo 1212311" transform="translate(28.654 0.753)">
          <path id="Trazado_1083235" data-name="Trazado 1083235" d="M323.663,27.414l4.156-1.114a2.739,2.739,0,0,0-.009,1.463,2.773,2.773,0,1,0,5.356-1.434,2.74,2.74,0,0,0-.737-1.264l3.43-.919c-.055-.253-.118-.516-.19-.783A12.514,12.514,0,0,0,320.25,14.68l1.063,3.966a2.772,2.772,0,1,1,1.235,4.613Z" transform="translate(-320.25 -14.238)" fill="#6fd7a3" fill-rule="evenodd"/>
        </g>
        <g id="Grupo_1212312" data-name="Grupo 1212312" transform="translate(10.163 4.264)">
          <path id="Trazado_1083236" data-name="Trazado 1083236" d="M150.752,62.013v-4.3a2.773,2.773,0,1,0,0-4.775V49.008c0-.233.009-.179-.251-.173a12.507,12.507,0,0,0-12.4,12.372c0,.279.009.55.02.806h3.551a2.773,2.773,0,1,1,4.775,0Z" transform="translate(-138.104 -48.825)" fill="#df646e" fill-rule="evenodd"/>
        </g>
        <g id="Grupo_1212313" data-name="Grupo 1212313" transform="translate(22.056 34.221)">
          <path id="Trazado_1083237" data-name="Trazado 1083237" d="M259.47,343.91v1.549a3.348,3.348,0,0,1-3.456,3.205,3.6,3.6,0,0,1-.755-.078,3.288,3.288,0,0,0,2.7-3.127V343.91Z" transform="translate(-255.26 -343.91)" fill="#65a1bf" fill-rule="evenodd"/>
        </g>
        <g id="Grupo_1212314" data-name="Grupo 1212314" transform="translate(16.521 29.939)">
          <path id="Trazado_1083238" data-name="Trazado 1083238" d="M213.317,301.728v3.11a1.721,1.721,0,0,1-1.777,1.647h-9.025a1.719,1.719,0,0,1-1.777-1.647v-3.11Z" transform="translate(-200.738 -301.728)" fill="#a9dbf5" fill-rule="evenodd"/>
        </g>
        <g id="Grupo_1212315" data-name="Grupo 1212315" transform="translate(25.8 29.939)">
          <path id="Trazado_1083239" data-name="Trazado 1083239" d="M295.438,301.728v3.11a1.721,1.721,0,0,1-1.777,1.647h-1.523a1.723,1.723,0,0,0,1.777-1.647v-3.11Z" transform="translate(-292.138 -301.728)" fill="#88c3e0" fill-rule="evenodd"/>
        </g>
        <g id="Grupo_1212316" data-name="Grupo 1212316" transform="translate(17.25 4.264)">
          <path id="Trazado_1083240" data-name="Trazado 1083240" d="M213.226,48.835a12.777,12.777,0,0,0-5.31,1.256c1.947,2.8,3.271,7.067,3.513,11.922h2.048v-4.3a2.773,2.773,0,1,0,0-4.775V49.008c0-.233.009-.179-.251-.173Z" transform="translate(-207.916 -48.825)" fill="#d82f3c" fill-rule="evenodd"/>
        </g>
        <g id="Grupo_1212317" data-name="Grupo 1212317" transform="translate(20.714 17.452)">
          <path id="Trazado_1083241" data-name="Trazado 1083241" d="M244.138,178.728h-2.048c.026.53.04,1.066.04,1.6,0,.815-.032,1.616-.089,2.4a2.828,2.828,0,0,1,.685-.086,2.764,2.764,0,0,1,1.411.386Z" transform="translate(-242.042 -178.728)" fill="#41c4e8" fill-rule="evenodd"/>
        </g>
        <g id="Grupo_1212318" data-name="Grupo 1212318" transform="translate(18.713 26.477)">
          <path id="Trazado_1083242" data-name="Trazado 1083242" d="M222.326,271.092h4.1v-3.41a2.782,2.782,0,0,1-2.911-.052A22.165,22.165,0,0,1,222.326,271.092Z" transform="translate(-222.326 -267.63)" fill="#41c4e8" fill-rule="evenodd"/>
        </g>
        <g id="Grupo_1212319" data-name="Grupo 1212319" transform="translate(27.724 17.452)">
          <path id="Trazado_1083243" data-name="Trazado 1083243" d="M311.087,191.215h1.466a1.416,1.416,0,0,0,1.428-1.4c0-4.366,4.481-4.51,4.818-11.09h-3.548a2.776,2.776,0,0,1-2.373,4.187A26.745,26.745,0,0,1,311.087,191.215Z" transform="translate(-311.087 -178.728)" fill="#6a85f2" fill-rule="evenodd"/>
        </g>
        <g id="Grupo_1212320" data-name="Grupo 1212320" transform="translate(30.482 0.754)">
          <path id="Trazado_1083244" data-name="Trazado 1083244" d="M349.581,24.815l2.462-.659c-.055-.253-.118-.516-.19-.783a12.471,12.471,0,0,0-13.59-9.034A16.97,16.97,0,0,1,349.581,24.815Z" transform="translate(-338.263 -14.248)" fill="#3ec3a4" fill-rule="evenodd"/>
        </g>
      </g>
      <path id="Trazado_1083245" data-name="Trazado 1083245" d="M72.005,32.323c-2.18,5.251-1.518,11.126,2.149,19.046a.709.709,0,0,1-.644,1.007H50.961a.71.71,0,0,1-.7-.571,13.579,13.579,0,0,0-2.513-6.227c-2.18,1.2-8.069,3.581-10.664,1.538-1.251-.985-1.5-2.731-.74-5.2a2.6,2.6,0,0,1-1.732-1.257,2.721,2.721,0,0,1,.24-2.323A2.937,2.937,0,0,1,33.578,36.4a3.326,3.326,0,0,1,.967-2.353c-1.663-.943-2.576-1.941-2.85-3.1-.46-1.948,1.023-3.892,2.74-6.142.617-.808,1.253-1.641,1.865-2.548a13.156,13.156,0,0,1-.9-11.427c1.86-4.641,6.24-7.155,9.587-8.446A28.861,28.861,0,0,1,57.768.628a.709.709,0,1,1-.149,1.411,27.37,27.37,0,0,0-12.124,1.67c-3.084,1.19-7.111,3.483-8.781,7.651a11.846,11.846,0,0,0,1.031,10.57.71.71,0,0,1-.018.747c-.713,1.09-1.484,2.1-2.163,2.991-1.561,2.045-2.793,3.66-2.487,4.955.209.883,1.164,1.73,2.921,2.589a.709.709,0,0,1,.2,1.131c-.852.879-1.246,1.506-1.2,1.918.035.345.421.764,1.181,1.281a.71.71,0,0,1,.217.938c-.557.976-.572,1.4-.487,1.579.059.126.323.44,1.494.644a.709.709,0,0,1,.544.944c-.564,1.532-1.017,3.532.028,4.354.825.649,2.541.663,4.834.039a19.039,19.039,0,0,0,4.705-1.965.709.709,0,0,1,.917.11,13.518,13.518,0,0,1,3.118,6.773H72.411a35.684,35.684,0,0,1-2.824-9.144A18.507,18.507,0,0,1,70.7,31.778a31.1,31.1,0,0,0,2.649-12.623.709.709,0,0,1,.692-.727h.018a.709.709,0,0,1,.709.692,32.488,32.488,0,0,1-2.757,13.2Zm4.638-19.8-2.429.651a3.475,3.475,0,1,1-6.579,1.762l-3.156.844a.71.71,0,0,1-.869-.5L62.5,11.138a.709.709,0,0,1,.877-.866A2.057,2.057,0,1,0,63.4,6.3a2.036,2.036,0,0,0-.936.548.709.709,0,0,1-1.193-.312L60.21,2.585a.71.71,0,0,1,.5-.868,13.205,13.205,0,0,1,16.246,9.158c.081.3.145.574.2.826a.709.709,0,0,1-.511.827Zm-1.031-1.192-.025-.095A11.767,11.767,0,0,0,61.769,2.923l.6,2.261a3.526,3.526,0,0,1,.654-.25,3.476,3.476,0,1,1,1.11,6.826l.661,2.47,3.459-.925a.709.709,0,0,1,.866.877,2.057,2.057,0,1,0,3.423-.916.709.709,0,0,1,.311-1.193ZM56.476,8.467a3.475,3.475,0,1,1-.7,6.88v2.558h3.581a.709.709,0,0,1,.608,1.075,2.019,2.019,0,0,0-.283,1.042,2.056,2.056,0,1,0,3.827-1.045.709.709,0,0,1,.61-1.072H67.66a.709.709,0,0,1,.708.746,10.766,10.766,0,0,1-2.995,7.133c-1.013,1.206-1.812,2.159-1.812,3.891a2.109,2.109,0,0,1-1.511,2.011v2.481a2.425,2.425,0,0,1-2.484,2.355h-.342v.359a4.165,4.165,0,0,1-8.315,0v-.359h-.342a2.425,2.425,0,0,1-2.484-2.355V31.686a2.11,2.11,0,0,1-1.511-2.01c0-1.732-.8-2.685-1.812-3.891a10.766,10.766,0,0,1-2.995-7.133v0s0,0,0,0c-.014-.319-.021-.585-.021-.836a12.841,12.841,0,0,1,3.822-9.149A13.384,13.384,0,0,1,54.8,4.76c.04,0,.067,0,.09,0a.808.808,0,0,1,.64.2.854.854,0,0,1,.243.672V8.538a3.494,3.494,0,0,1,.7-.07ZM47.992,29.675a.709.709,0,0,0,.715.684h5.652V28.69a3.475,3.475,0,1,1,0-6.808V19.324H50.777a.709.709,0,0,1-.611-1.07,2.056,2.056,0,1,0-3.826-1.047,2.008,2.008,0,0,0,.284,1.044.709.709,0,0,1-.609,1.073H43.242a9.292,9.292,0,0,0,2.6,5.548A6.971,6.971,0,0,1,47.992,29.675Zm9.814,6.847H52.329v.359a2.751,2.751,0,0,0,5.477,0Zm2.826-2.355V31.777H49.5v2.389a1.021,1.021,0,0,0,1.066.936h9A1.021,1.021,0,0,0,60.632,34.167ZM58.265,20.022a3.506,3.506,0,0,1,.07-.7H55.778v3.581a.709.709,0,0,1-1.07.611,2.056,2.056,0,1,0,0,3.54.709.709,0,0,1,1.07.611v2.691H61.43a.708.708,0,0,0,.712-.684,6.971,6.971,0,0,1,2.145-4.8,9.292,9.292,0,0,0,2.6-5.548H65.145a3.475,3.475,0,1,1-6.88.7ZM56.476,9.886a2.045,2.045,0,0,0-1.045.285.709.709,0,0,1-1.072-.61V6.2a11.817,11.817,0,0,0-11.2,11.614c0,.031,0,.063,0,.095h1.827a3.476,3.476,0,1,1,6.809,0h2.558V14.324a.709.709,0,0,1,1.072-.61,2.056,2.056,0,1,0,1.045-3.827Z" transform="translate(0 0)"/>
    </g>
  </g>
</svg>
