<svg xmlns="http://www.w3.org/2000/svg" xmlns:xlink="http://www.w3.org/1999/xlink" width="400" height="257" viewBox="0 0 400 257">
  <defs>
    <clipPath id="clip-path">
      <rect id="Rectángulo_418475" data-name="Rectángulo 418475" width="400" height="257" transform="translate(165.443 707.283)" fill="#fff" stroke="#707070" stroke-width="1" opacity="0.61"/>
    </clipPath>
    <clipPath id="clip-path-2">
      <rect id="Rectángulo_418472" data-name="Rectángulo 418472" width="404.716" height="149.954"/>
    </clipPath>
    <clipPath id="clip-path-3">
      <rect id="Rectángulo_418473" data-name="Rectángulo 418473" width="352.215" height="256.155"/>
    </clipPath>
    <clipPath id="clip-path-4">
      <rect id="Rectángulo_418474" data-name="Rectángulo 418474" width="352.215" height="279.588"/>
    </clipPath>
  </defs>
  <g id="Enmascarar_grupo_1098696" data-name="Enmascarar grupo 1098696" transform="translate(-165.443 -707.283)" clip-path="url(#clip-path)">
    <g id="Grupo_1211648" data-name="Grupo 1211648" transform="translate(176.728 684.342)">
      <circle id="Elipse_14264" data-name="Elipse 14264" cx="156" cy="156" r="156" transform="translate(34.443 118.942)" fill="#d5b7dd"/>
      <g id="Grupo_1211647" data-name="Grupo 1211647">
        <g id="OBJECTS" transform="translate(0 0)">
          <g id="Grupo_1211536" data-name="Grupo 1211536" transform="translate(0 129.634)">
            <g id="Grupo_1211535" data-name="Grupo 1211535" clip-path="url(#clip-path-2)">
              <path id="Trazado_1082244" data-name="Trazado 1082244" d="M63.107,406.307a290.618,290.618,0,0,1-3.083-72.4c.69-8.33,1.919-17.085,7.047-23.685,7.328,13.373,9.389,29.15,8.216,44.354s-5.408,29.995-10.054,44.519" transform="translate(-3.581 -270.56)" fill="#a9d373"/>
              <path id="Trazado_1082245" data-name="Trazado 1082245" d="M46.434,396.251a290.618,290.618,0,0,1-19.059-69.918c-1.174-8.275-1.917-17.085,1.62-24.658C39.105,313.09,44.613,328.018,46.84,343.1s1.376,30.447.067,45.64" transform="translate(10.087 -266.981)" fill="#a9d373"/>
              <path id="Trazado_1082247" data-name="Trazado 1082247" d="M540.265,463.891c1.7-.936.735-3.586-.633-4.968a18.707,18.707,0,0,0-19.527-4.2c1.488-3.9-2.265-8.365-6.428-8.628s-7.995,2.646-10.126,6.231a21.633,21.633,0,0,0-.394-15.338c-2.134-4.776-6.731-8.562-11.943-9.011s-10.709,2.909-12.055,7.963c2.9-11.218-2.99-24.073-13.376-29.207a11.069,11.069,0,0,0-5.532-1.393,10.049,10.049,0,0,0-5.584,2.507,17.764,17.764,0,0,0-4.165,21.487c-4.085-5.974-13.675-6.654-19.129-1.9s-6.4,13.556-2.836,19.856a26.673,26.673,0,0,0-37.463,13.49c1.48.141,2.468-.16,3.948-.019Z" transform="translate(-142.65 -310.392)" fill="#67b1af"/>
              <g id="Grupo_1211506" data-name="Grupo 1211506" transform="translate(0 60.575)">
                <path id="Trazado_1082250" data-name="Trazado 1082250" d="M832.736,439.5a420.9,420.9,0,0,0,26.712-43.41c1.131-2.115,2.055-5.167.094-6.548-1.625-1.144-3.846-.044-5.449,1.13-11.722,8.584-19.638,21.271-27.264,33.637l12.634-42.984c2.165-7.367,4.127-16.019-.485-22.158a143.417,143.417,0,0,0-18.793,55.409,432.978,432.978,0,0,0,.774-68.326c-2.852-.449-4.711,2.852-5.6,5.6a155.564,155.564,0,0,0-5.614,72A337.037,337.037,0,0,0,801,389.556c-2.541-8.15-5.575-16.5-11.625-22.527a138.652,138.652,0,0,0,11.007,60.687,94.619,94.619,0,0,0-23.746-42.927A117.974,117.974,0,0,0,800.6,441.828C810.935,444.4,822.744,443.171,832.736,439.5Z" transform="translate(-776.636 -346.208)" fill="#67b1af"/>
                <g id="Grupo_1211505" data-name="Grupo 1211505" transform="translate(255.486 34.025)">
                  <g id="Grupo_1211488" data-name="Grupo 1211488" transform="translate(4.297)">
                    <g id="Grupo_1211487" data-name="Grupo 1211487">
                      <path id="Trazado_1082256" data-name="Trazado 1082256" d="M905.959,466.122a21.631,21.631,0,0,0,9.958-11.243,18.571,18.571,0,0,0-1.481-16.085c-2.9-4.74-7.918-8.665-8.567-14.516a8.112,8.112,0,0,1,.5-3.989,13.637,13.637,0,0,1,2.281-3.417,16.721,16.721,0,0,0,3.935-7.005,13.325,13.325,0,0,0,.22-4.674c-.207-1.583-.664-3.117-.926-4.69a6.792,6.792,0,0,1,.587-4.736,11.135,11.135,0,0,1,3.438-3.125c.613-.42.033-1.428-.586-1-2.118,1.451-4.25,3.094-4.671,5.8-.45,2.894.851,5.648,1.076,8.5a12.268,12.268,0,0,1-2.226,8.033c-1.536,2.168-3.624,3.969-4.447,6.575-1.73,5.472,2.12,10.612,5.317,14.631a26.43,26.43,0,0,1,4.581,7.305,17.387,17.387,0,0,1,.772,8.617,19.941,19.941,0,0,1-10.344,14.027c-.656.358-.07,1.362.587,1Z" transform="translate(-904.617 -391.535)" fill="#fff"/>
                    </g>
                  </g>
                  <g id="Grupo_1211490" data-name="Grupo 1211490" transform="translate(4.192 9.934)">
                    <g id="Grupo_1211489" data-name="Grupo 1211489">
                      <path id="Trazado_1082257" data-name="Trazado 1082257" d="M912.31,417.255a13.7,13.7,0,0,0-4.788-7.849c-.6-.477-1.356-1.033-2.148-.651a2.043,2.043,0,0,0-.917,1.824,5.392,5.392,0,0,0,1.477,4.272,12.621,12.621,0,0,0,2.439,1.675l2.865,1.713a.582.582,0,0,0,.586-1c-1.37-.819-2.769-1.605-4.111-2.469a4.222,4.222,0,0,1-2.082-3.137,3.02,3.02,0,0,1,.134-1.7c.27-.432,1.051.383,1.293.59a12.609,12.609,0,0,1,4.133,7.04c.152.732,1.273.423,1.12-.309Z" transform="translate(-904.437 -408.628)" fill="#fff"/>
                    </g>
                  </g>
                  <g id="Grupo_1211492" data-name="Grupo 1211492" transform="translate(9.453 16.683)">
                    <g id="Grupo_1211491" data-name="Grupo 1211491">
                      <path id="Trazado_1082258" data-name="Trazado 1082258" d="M914.487,425.074a21.822,21.822,0,0,1,2.724-2.365,6.408,6.408,0,0,1,3.209-1.293,1.361,1.361,0,0,1,1.329.56,1.556,1.556,0,0,1,.044,1.344,3.952,3.952,0,0,1-2.718,1.89,14.2,14.2,0,0,1-4.374.275c-.748-.034-.746,1.128,0,1.162a15.18,15.18,0,0,0,4.684-.317,5.125,5.125,0,0,0,3.424-2.45,2.507,2.507,0,0,0-1.091-3.405c-1.343-.577-2.988.019-4.194.674a18.318,18.318,0,0,0-3.857,3.1c-.538.522.284,1.344.822.822Z" transform="translate(-913.49 -420.242)" fill="#fff"/>
                    </g>
                  </g>
                  <g id="Grupo_1211494" data-name="Grupo 1211494" transform="translate(0.342 19.707)">
                    <g id="Grupo_1211493" data-name="Grupo 1211493">
                      <path id="Trazado_1082259" data-name="Trazado 1082259" d="M903.279,434.769a17.144,17.144,0,0,0,.032-5.262c-.2-1.325-.454-3.487-1.976-3.96-1.485-.462-2.75.71-3.2,2.025a7.345,7.345,0,0,0,.179,4.791,10.656,10.656,0,0,0,1.242,2.254,6.4,6.4,0,0,1,1.166,2.359c.142.733,1.262.423,1.121-.309-.3-1.573-1.487-2.691-2.177-4.084a6.024,6.024,0,0,1-.275-5.023c.291-.579,1-1.2,1.7-.862.659.323.8,1.535.93,2.16a15.382,15.382,0,0,1,.142,5.6c-.116.731,1,1.046,1.121.309Z" transform="translate(-897.812 -425.444)" fill="#fff"/>
                    </g>
                  </g>
                  <g id="Grupo_1211496" data-name="Grupo 1211496" transform="translate(5.363 26.381)">
                    <g id="Grupo_1211495" data-name="Grupo 1211495">
                      <path id="Trazado_1082260" data-name="Trazado 1082260" d="M907.936,446.987a8.7,8.7,0,0,1,2.1-8.108c.8-.754,2.293-1.279,3.064-.171.823,1.182-1.232,2.567-1.952,3.2l-4.5,3.947c-.564.494.261,1.313.822.822l4.861-4.261c1.158-1.015,2.781-2.5,1.837-4.194a2.935,2.935,0,0,0-3.933-.912,7.337,7.337,0,0,0-3.059,4.007,10.223,10.223,0,0,0-.353,5.981c.175.727,1.3.419,1.121-.309Z" transform="translate(-906.451 -436.928)" fill="#fff"/>
                    </g>
                  </g>
                  <g id="Grupo_1211498" data-name="Grupo 1211498" transform="translate(0 39.36)">
                    <g id="Grupo_1211497" data-name="Grupo 1211497">
                      <path id="Trazado_1082261" data-name="Trazado 1082261" d="M906.96,462.792a12.438,12.438,0,0,0-4.009-3.092,4.76,4.76,0,0,0-4.528.274,2.484,2.484,0,0,0-.62,3.694c1.067,1.258,2.939,1.5,4.487,1.392,2.068-.147,4.144-.953,6.223-.518.73.152,1.042-.968.309-1.121-1.915-.4-3.764.106-5.656.382a8,8,0,0,1-2.665.025,2.761,2.761,0,0,1-2.038-1.246c-.341-.736.245-1.477.874-1.816a3.488,3.488,0,0,1,2.454-.224c1.786.43,3.109,1.806,4.349,3.073.524.536,1.346-.287.822-.822Z" transform="translate(-897.224 -459.261)" fill="#fff"/>
                    </g>
                  </g>
                  <g id="Grupo_1211500" data-name="Grupo 1211500" transform="translate(13.608 39.261)">
                    <g id="Grupo_1211499" data-name="Grupo 1211499">
                      <path id="Trazado_1082262" data-name="Trazado 1082262" d="M922.331,468.314a10.031,10.031,0,0,1-.373-5.033,6.6,6.6,0,0,1,.741-2.213c.32-.521,1.015-1.1,1.652-.718a2,2,0,0,1,.682,1.816,4.945,4.945,0,0,1-.721,2.138,39.463,39.463,0,0,1-3.095,4.276c-.452.6.557,1.176,1,.586a45.567,45.567,0,0,0,2.975-4.071,5.353,5.353,0,0,0,.837-4.249,2.222,2.222,0,0,0-3.231-1.469c-1.321.714-1.782,2.47-2.008,3.838a11.274,11.274,0,0,0,.415,5.409c.236.706,1.359.4,1.122-.309Z" transform="translate(-920.639 -459.091)" fill="#fff"/>
                    </g>
                  </g>
                  <g id="Grupo_1211502" data-name="Grupo 1211502" transform="translate(5.319 48.858)">
                    <g id="Grupo_1211501" data-name="Grupo 1211501">
                      <path id="Trazado_1082263" data-name="Trazado 1082263" d="M917.045,481.919a33.823,33.823,0,0,0-3.838-3.857,14.264,14.264,0,0,0-2.272-1.542,7.329,7.329,0,0,0-2.432-.9,1.784,1.784,0,0,0-2,1.132,2.8,2.8,0,0,0,.235,2.167c.734,1.476,2.341,2.268,3.757,2.943,1.14.544,2.28,1.084,3.42,1.63.745.357,2.039.936,1.78,1.981a.582.582,0,0,0,1.121.309c.451-1.825-1.277-2.8-2.657-3.457a45.846,45.846,0,0,1-4.848-2.4,4.246,4.246,0,0,1-1.508-1.472c-.238-.432-.523-1.406.116-1.656a1.738,1.738,0,0,1,1.1.145,8.984,8.984,0,0,1,1.2.514,12.476,12.476,0,0,1,2.052,1.334,32.735,32.735,0,0,1,3.958,3.954c.5.559,1.319-.265.822-.822Z" transform="translate(-906.376 -475.603)" fill="#fff"/>
                    </g>
                  </g>
                  <g id="Grupo_1211504" data-name="Grupo 1211504" transform="translate(14.703 52.641)">
                    <g id="Grupo_1211503" data-name="Grupo 1211503">
                      <path id="Trazado_1082264" data-name="Trazado 1082264" d="M923.592,488.846c.936-2.172,2.894-3.562,4.873-4.719q.386-.226.776-.443a3.6,3.6,0,0,1,.781-.413c.43-.107.2.918.132,1.142a5.714,5.714,0,0,1-2.361,2.669,9.244,9.244,0,0,1-3.933,1.482.584.584,0,0,0-.406.715.6.6,0,0,0,.715.406,10,10,0,0,0,4.21-1.6,6.939,6.939,0,0,0,2.9-3.364,2.514,2.514,0,0,0-.1-2.042c-.466-.76-1.314-.654-2-.286a26.094,26.094,0,0,0-3.59,2.251,9.34,9.34,0,0,0-2.992,3.614.6.6,0,0,0,.209.795.584.584,0,0,0,.794-.209Z" transform="translate(-922.523 -482.112)" fill="#fff"/>
                    </g>
                  </g>
                </g>
              </g>
              <path id="Trazado_1082265" data-name="Trazado 1082265" d="M574.111,470.682c-2.056-.829-4.337-2.276-4.349-4.494a27.256,27.256,0,0,1,19.6-1.176,46.086,46.086,0,0,1-14.891-5.962,7.713,7.713,0,0,1-2.973-2.769,2.972,2.972,0,0,1,.607-3.719,4.139,4.139,0,0,1,2.627-.491,32.106,32.106,0,0,1,16.8,5.808c-3.362-2.376-6.2-7.3-8.036-10.88-3.475-6.764,1.422-10.7,6.808-4.231l6.287,7.549c-1.9-5.547-2.187-15.06.8-20.361a2.478,2.478,0,0,1,.81-.955c4.89-2.953,7.208,20.6,5.9,23.592a21.88,21.88,0,0,1,5.58-7.625c1.974-1.734,4.834-3.139,7.144-1.888,3.052,1.652,2.357,6.5-.093,8.959s-5.945,3.579-8.63,5.778a20.234,20.234,0,0,1,11.426.422,4.307,4.307,0,0,1,2.258,1.413c.992,1.42.1,3.524-1.38,4.425a9.627,9.627,0,0,1-5.044.933l-10.015.019c2.742.514,5.581.076,8.35.416s5.742,1.807,6.471,4.5a2.589,2.589,0,0,1-.1,1.86,3.431,3.431,0,0,1-2.072,1.4c-7.859,2.7-14.781,1.724-22.739.64C588,472.857,581.126,473.509,574.111,470.682Z" transform="translate(-217.49 -320.202)" fill="#5b5a9f"/>
              <g id="Grupo_1211515" data-name="Grupo 1211515" transform="translate(333.187 96.415)">
                <g id="Grupo_1211508" data-name="Grupo 1211508">
                  <g id="Grupo_1211507" data-name="Grupo 1211507">
                    <path id="Trazado_1082266" data-name="Trazado 1082266" d="M551,421.418a30.57,30.57,0,0,1,2,3.618c.4.854,1.7,3.25.278,3.829-1.063.431-2.527-1.051-3.124-1.784a6.491,6.491,0,0,1-1.412-3.388.584.584,0,0,0-1.141-.155,17.676,17.676,0,0,0-.364,4.1c-.091,1.2-.567,2.83-2.029,2.844-2.733.027.108-6.486.727-7.631a.586.586,0,0,0-.8-.8,12.992,12.992,0,0,1-3.775,1.229c-.719.115-3.383.632-3.283-.589.091-1.1,1.812-1.5,2.665-1.716a10.35,10.35,0,0,1,4.039-.2c.613.09,1.059-.7.448-1.062a19.811,19.811,0,0,1-4.019-3.117c-.814-.822-3.067-2.961-1.707-4.186.6-.542,1.749-.081,2.371.212a7.128,7.128,0,0,1,1.775,1.226,19.492,19.492,0,0,1,2.884,3.629.586.586,0,0,0,1.083-.294c-.062-1.451-.231-2.9-.256-4.35-.015-.884-.163-3.827,1.273-3.8.639.013.711.939.766,1.409a18.527,18.527,0,0,1,.119,2.279,18.8,18.8,0,0,1-.663,4.753.584.584,0,0,0,1.062.448,6.661,6.661,0,0,1,4.988-2.83,2.6,2.6,0,0,1,.653-.008c.148.159-.144.392-.24.507a6.648,6.648,0,0,1-1.279,1.14,7.885,7.885,0,0,1-2.839,1.226c-.739.164-.417,1.246.309,1.121.568-.1,5.823-.537,5.362.488-.123.273-.81.438-1.063.528a11.621,11.621,0,0,1-1.4.408,6.126,6.126,0,0,1-2.759.056c-.727-.173-1.037.947-.309,1.121a7.994,7.994,0,0,0,4.092-.241c.965-.284,2.616-.712,2.681-1.963.057-1.091-1.114-1.574-2.013-1.692a16.382,16.382,0,0,0-4.9.174q.154.561.309,1.121a8.917,8.917,0,0,0,3.968-2.009c.717-.631,2.246-2.4.658-3.044-1.14-.46-2.891.107-3.946.572a7.867,7.867,0,0,0-3.277,2.737l1.062.448a19.914,19.914,0,0,0,.682-6.137c-.063-1.289-.094-3.611-1.842-3.765-1.8-.159-2.4,1.773-2.554,3.189a41.026,41.026,0,0,0,.19,6.109l1.083-.293a17.609,17.609,0,0,0-3.833-4.5c-1.248-.94-3.644-2.135-5.023-.8-1.53,1.481-.309,3.565.794,4.845a20.773,20.773,0,0,0,5.167,4.284l.448-1.062a11.69,11.69,0,0,0-5.4.42c-1.3.432-2.84,1.213-2.776,2.808.076,1.886,2.2,1.786,3.574,1.67a14.344,14.344,0,0,0,5.232-1.5l-.8-.8a16.926,16.926,0,0,0-1.911,5.77c-.2,1.487-.112,3.239,1.686,3.565a3.027,3.027,0,0,0,3.309-2.073c.712-1.827.127-3.829.707-5.676l-1.141-.155a7.828,7.828,0,0,0,1.82,4.292c.93,1.095,2.623,2.484,4.169,2.015,1.686-.512,1.653-2.546,1.148-3.885a28.507,28.507,0,0,0-2.715-5.285C551.6,420.2,550.6,420.785,551,421.418Z" transform="translate(-536.922 -407.877)" fill="#fff"/>
                  </g>
                </g>
                <g id="Grupo_1211510" data-name="Grupo 1211510" transform="translate(17.931 14.432)">
                  <g id="Grupo_1211509" data-name="Grupo 1211509">
                    <path id="Trazado_1082267" data-name="Trazado 1082267" d="M581.31,446.1a12.638,12.638,0,0,0,4.462-3.263,8.778,8.778,0,0,0,1.382-2.227,3.6,3.6,0,0,0,.38-2.532,1.97,1.97,0,0,0-1.826-1.161,4.521,4.521,0,0,0-2.648,1.174,9.793,9.793,0,0,0-3.24,4.544c-.216.613.8,1.055,1.062.448,1.369-3.2,2.535-6.776.87-10.1a.6.6,0,0,0-.795-.209c-1.622.7-2.044,2.836-2.431,4.365a30.87,30.87,0,0,0-.911,6.447h1.163a19.447,19.447,0,0,0-1.017-5.009,8.122,8.122,0,0,0-1.123-2.03c-.421-.542-1.059-1.372-1.849-1.191-.669.153-.809.887-.83,1.465a19.635,19.635,0,0,0,.141,3.009,22.183,22.183,0,0,0,1.563,5.963l.56-.736a24.683,24.683,0,0,0-4.5,0,5.283,5.283,0,0,0-3.513,1.313,1.294,1.294,0,0,0-.31,1.469c.309.543.973.52,1.521.569a49.9,49.9,0,0,0,5.546.18q-.147-.541-.294-1.083a7.4,7.4,0,0,0-2.785,3.32c-.483,1.141-.926,2.906-.378,4.1.664,1.445,2.165.649,2.888-.26,1.247-1.568,2.431-3.191,3.644-4.785l-1.083-.294a14.748,14.748,0,0,0,.074,5.076c.278,1.129,1.158,3.375,2.714,2.639,1.322-.625,1.757-2.591,1.721-3.9a11.942,11.942,0,0,0-1.8-5.176l-.913.7a6.608,6.608,0,0,0,3.572,1.913c1.214.212,2.872.213,3.794-.746a1.735,1.735,0,0,0-.448-2.779c-1.376-.864-2.938-1.454-4.37-2.22-.66-.353-1.247.65-.586,1,.985.527,2,1,2.994,1.5.6.3,2.554.992,1.409,1.823a3.851,3.851,0,0,1-2.923.207,5.5,5.5,0,0,1-2.619-1.522.584.584,0,0,0-.913.7,12.515,12.515,0,0,1,1.585,3.964c.147,1,.072,2.69-.839,3.353-.827.6-1.375-2.207-1.43-2.759a18.72,18.72,0,0,1,.135-3.782c.068-.645-.781-.69-1.083-.294l-2.4,3.151c-.408.536-.795,1.1-1.235,1.614-.159.184-.384.5-.657.449-.3-.052-.259-.365-.274-.65a6.163,6.163,0,0,1,2.786-5.351.586.586,0,0,0-.294-1.083c-1.3.028-2.591.012-3.885-.06-.644-.035-1.293-.126-1.938-.146q-.48-.074-.142.012a1.218,1.218,0,0,1,.257-.262,2.343,2.343,0,0,1,.67-.374c1.909-.735,4.3-.533,6.3-.378a.583.583,0,0,0,.56-.736,21.776,21.776,0,0,1-1.325-4.383,20,20,0,0,1-.3-2.315q-.04-.589-.048-1.179c0-.14-.085-1.023.027-1.089-.1.06.328.433.4.519a5.648,5.648,0,0,1,.592.833,8.121,8.121,0,0,1,.753,1.734,21.169,21.169,0,0,1,.723,3.983.582.582,0,0,0,1.162,0,29.407,29.407,0,0,1,.741-5.612c.311-1.329.6-3.583,2.025-4.2l-.8-.209c1.451,2.9.316,6.158-.87,8.928l1.062.448a8.609,8.609,0,0,1,2.39-3.575,5.364,5.364,0,0,1,1.926-1.218,1.081,1.081,0,0,1,1.091.187c.272.318.082.815-.023,1.167-.793,2.659-3.178,4.483-5.6,5.594C580.044,445.411,580.634,446.414,581.31,446.1Z" transform="translate(-567.776 -432.71)" fill="#fff"/>
                  </g>
                </g>
                <g id="Grupo_1211512" data-name="Grupo 1211512" transform="translate(9.108 19.529)">
                  <g id="Grupo_1211511" data-name="Grupo 1211511">
                    <path id="Trazado_1082268" data-name="Trazado 1082268" d="M554.928,442.206a74.96,74.96,0,0,1-2.3,39.8c-.24.71.882,1.015,1.121.309a76.2,76.2,0,0,0,2.3-40.421c-.157-.732-1.277-.423-1.121.308Z" transform="translate(-552.593 -441.479)" fill="#fff"/>
                  </g>
                </g>
                <path id="Trazado_1082269" data-name="Trazado 1082269" d="M551.861,482.993a47.54,47.54,0,0,0-2.68-13.664,16.53,16.53,0,0,0-4.22-7.062.824.824,0,0,0-.123.78c-.808,2.456-.334,5.788.346,8.283a39.91,39.91,0,0,0,2.99,7.144C549.22,480.577,550.817,480.89,551.861,482.993Z" transform="translate(-540.06 -430.657)" fill="#fff"/>
                <g id="Grupo_1211514" data-name="Grupo 1211514" transform="translate(19.324 33.415)">
                  <g id="Grupo_1211513" data-name="Grupo 1211513">
                    <path id="Trazado_1082270" data-name="Trazado 1082270" d="M577.9,465.658a62.327,62.327,0,0,0-7.724,24.334c-.076.743,1.087.738,1.162,0a60.921,60.921,0,0,1,7.566-23.747.582.582,0,0,0-1-.587Z" transform="translate(-570.172 -465.374)" fill="#fff"/>
                  </g>
                </g>
              </g>
              <g id="Grupo_1211534" data-name="Grupo 1211534" transform="translate(40.894 55.33)">
                <g id="Grupo_1211517" data-name="Grupo 1211517" transform="translate(3.903)">
                  <g id="Grupo_1211516" data-name="Grupo 1211516">
                    <path id="Trazado_1082271" data-name="Trazado 1082271" d="M58.552,410.879a21.45,21.45,0,0,0,5.81-14.888,18.549,18.549,0,0,0-6.829-13.921c-4.234-3.407-9.919-5.5-12.5-10.609a8.146,8.146,0,0,1-.918-3.85,12.676,12.676,0,0,1,1.022-4.134,24.142,24.142,0,0,0,1.341-4.166,13.388,13.388,0,0,0-1.3-8.615c-.7-1.343-1.573-2.583-2.286-3.917a6.808,6.808,0,0,1-.991-4.384,11,11,0,0,1,2.349-4.377c.447-.6-.561-1.18-1-.586-1.644,2.206-3.073,4.569-2.379,7.419.615,2.525,2.412,4.534,3.511,6.841a12.243,12.243,0,0,1,.578,8.891c-.815,2.6-2.236,5.1-1.979,7.917.5,5.468,5.4,8.866,9.624,11.567a27.828,27.828,0,0,1,6.669,5.317,17.186,17.186,0,0,1,3.485,7.188,19.774,19.774,0,0,1-5.035,17.486c-.505.551.315,1.375.821.822Z" transform="translate(-40.698 -337.183)" fill="#fff"/>
                  </g>
                </g>
                <g id="Grupo_1211519" data-name="Grupo 1211519" transform="translate(0.003 12.405)">
                  <g id="Grupo_1211518" data-name="Grupo 1211518">
                    <path id="Trazado_1082272" data-name="Trazado 1082272" d="M43.734,364.733a13.845,13.845,0,0,0-7.008-5.88,2.317,2.317,0,0,0-2.182-.073,1.9,1.9,0,0,0-.434,2.111,5.414,5.414,0,0,0,2.7,3.551,12.128,12.128,0,0,0,2.9.832l3.265.694c.729.155,1.041-.965.309-1.121-1.553-.33-3.121-.621-4.663-1a4.28,4.28,0,0,1-3.041-2.3,4.744,4.744,0,0,1-.316-.844,1.611,1.611,0,0,1-.109-.859c.182-.436,1.205.1,1.509.22a12.3,12.3,0,0,1,3.254,1.951,12.712,12.712,0,0,1,2.812,3.3.581.581,0,0,0,1-.586Z" transform="translate(-33.987 -358.528)" fill="#fff"/>
                  </g>
                </g>
                <g id="Grupo_1211521" data-name="Grupo 1211521" transform="translate(8.064 15.19)">
                  <g id="Grupo_1211520" data-name="Grupo 1211520">
                    <path id="Trazado_1082273" data-name="Trazado 1082273" d="M48.931,370.061a23.629,23.629,0,0,1,1.8-3.122,6.513,6.513,0,0,1,2.6-2.284,1.391,1.391,0,0,1,1.487.09,1.569,1.569,0,0,1,.461,1.334,4.15,4.15,0,0,1-2.11,2.691,14.806,14.806,0,0,1-3.857,1.562.582.582,0,0,0,.309,1.121,15.967,15.967,0,0,0,4.134-1.679,5.372,5.372,0,0,0,2.652-3.424,2.528,2.528,0,0,0-2.141-3.023c-1.437-.112-2.827,1.014-3.733,2.014a18.5,18.5,0,0,0-2.613,4.133c-.338.665.664,1.254,1,.586Z" transform="translate(-47.858 -363.32)" fill="#fff"/>
                  </g>
                </g>
                <g id="Grupo_1211523" data-name="Grupo 1211523" transform="translate(0 22.412)">
                  <g id="Grupo_1211522" data-name="Grupo 1211522">
                    <path id="Trazado_1082274" data-name="Trazado 1082274" d="M41.161,383.723a16.7,16.7,0,0,0-1.645-4.861c-.629-1.207-1.6-3.224-3.232-3.111-1.6.112-2.378,1.725-2.3,3.165a7.638,7.638,0,0,0,1.727,4.27c1.077,1.341,2.878,2.03,3.739,3.539a.582.582,0,0,0,1-.586c-.815-1.428-2.334-2.1-3.45-3.242a6.068,6.068,0,0,1-1.847-4.57c.076-.655.57-1.549,1.367-1.41.763.134,1.3,1.321,1.646,1.917a15.713,15.713,0,0,1,1.867,5.2c.127.735,1.248.423,1.12-.31Z" transform="translate(-33.982 -375.746)" fill="#fff"/>
                  </g>
                </g>
                <g id="Grupo_1211525" data-name="Grupo 1211525" transform="translate(8.011 26.248)">
                  <g id="Grupo_1211524" data-name="Grupo 1211524">
                    <path id="Trazado_1082275" data-name="Trazado 1082275" d="M50.356,393.315a8.748,8.748,0,0,1-.728-8.261c.5-.991,1.6-2,2.769-1.365,1.386.758-.153,2.84-.647,3.7l-2.988,5.2a.582.582,0,0,0,1,.586l3.246-5.651c.776-1.351,1.843-3.366.294-4.617a2.93,2.93,0,0,0-3.883.417,7.255,7.255,0,0,0-1.65,4.739,10.243,10.243,0,0,0,1.58,5.837c.4.63,1.405.048,1-.586Z" transform="translate(-47.766 -382.348)" fill="#fff"/>
                  </g>
                </g>
                <g id="Grupo_1211527" data-name="Grupo 1211527" transform="translate(5.854 40.709)">
                  <g id="Grupo_1211526" data-name="Grupo 1211526">
                    <path id="Trazado_1082276" data-name="Trazado 1082276" d="M53.64,408.89a12.391,12.391,0,0,0-4.921-1.655,4.774,4.774,0,0,0-4.077,1.692,2.493,2.493,0,0,0,.542,3.716c1.476.9,3.389.464,4.87-.176,1.838-.8,3.509-2.192,5.548-2.443.733-.09.742-1.254,0-1.162a14.115,14.115,0,0,0-4.9,2,9.215,9.215,0,0,1-2.752,1.062,2.869,2.869,0,0,1-2.421-.471,1.465,1.465,0,0,1,.179-2,3.4,3.4,0,0,1,2.1-1.019c1.866-.255,3.635.649,5.249,1.461.667.336,1.256-.666.587-1Z" transform="translate(-44.055 -407.229)" fill="#fff"/>
                  </g>
                </g>
                <g id="Grupo_1211529" data-name="Grupo 1211529" transform="translate(19.214 36.501)">
                  <g id="Grupo_1211528" data-name="Grupo 1211528">
                    <path id="Trazado_1082277" data-name="Trazado 1082277" d="M70.327,409.363a10.265,10.265,0,0,1-1.95-4.352,7.561,7.561,0,0,1-.119-2.4c.092-.639.5-1.575,1.3-1.483.724.084,1.156.922,1.324,1.546a5.046,5.046,0,0,1,0,2.256,41.289,41.289,0,0,1-1.528,4.97c-.235.712.887,1.017,1.121.309a45.57,45.57,0,0,0,1.5-4.815,5.391,5.391,0,0,0-.559-4.3,2.223,2.223,0,0,0-3.52-.4c-1.066,1.145-.905,2.971-.673,4.4a11,11,0,0,0,2.108,4.866c.448.588,1.458.009,1-.586Z" transform="translate(-67.043 -399.99)" fill="#fff"/>
                  </g>
                </g>
                <g id="Grupo_1211531" data-name="Grupo 1211531" transform="translate(13.678 48.659)">
                  <g id="Grupo_1211530" data-name="Grupo 1211530">
                    <path id="Trazado_1082278" data-name="Trazado 1082278" d="M69.17,424.217a33.838,33.838,0,0,0-5.164-2.518,13.415,13.415,0,0,0-2.819-.688,5.579,5.579,0,0,0-2.507.08c-1.739.616-1.3,2.687-.184,3.685a7.616,7.616,0,0,0,4.347,1.477c1.17.138,2.342.271,3.513.406.843.1,2.537.152,2.649,1.3.072.738,1.235.745,1.162,0-.164-1.685-1.732-2.214-3.19-2.393-1.748-.214-3.529-.319-5.26-.642a5.915,5.915,0,0,1-1.96-.658c-.515-.306-1.259-.978-1.1-1.665.17-.734,1.521-.528,2.043-.484a11.391,11.391,0,0,1,2.53.539,29.605,29.605,0,0,1,5.354,2.559.581.581,0,0,0,.586-1Z" transform="translate(-57.516 -420.91)" fill="#fff"/>
                  </g>
                </g>
                <g id="Grupo_1211533" data-name="Grupo 1211533" transform="translate(25.295 47.432)">
                  <g id="Grupo_1211532" data-name="Grupo 1211532">
                    <path id="Trazado_1082279" data-name="Trazado 1082279" d="M78.671,427.242c.187-2.38,1.713-4.38,3.231-6.113.19-.217.383-.432.576-.646.093-.1.4-.56.569-.541s.255.332.291.449a2.443,2.443,0,0,1,.084.942,6.353,6.353,0,0,1-1.51,3.2,9.193,9.193,0,0,1-3.056,2.454c-.669.335-.081,1.338.586,1a10.02,10.02,0,0,0,3.331-2.686,7.384,7.384,0,0,0,1.819-4.107,2.705,2.705,0,0,0-.654-2.026,1.308,1.308,0,0,0-1.885.066,17.977,17.977,0,0,0-1.455,1.634,21.538,21.538,0,0,0-1.35,1.763,9.573,9.573,0,0,0-1.741,4.612c-.058.744,1.1.74,1.163,0Z" transform="translate(-77.505 -418.797)" fill="#fff"/>
                  </g>
                </g>
              </g>
            </g>
          </g>
          <g id="Grupo_1211645" data-name="Grupo 1211645" transform="translate(21.736 0)">
            <g id="Grupo_1211594" data-name="Grupo 1211594" transform="translate(0 23.433)" clip-path="url(#clip-path-3)">
              <g id="Grupo_1211587" data-name="Grupo 1211587" transform="translate(81.457 0)">
                <path id="Trazado_1082280" data-name="Trazado 1082280" d="M317.212,110.219a4.855,4.855,0,0,0-1.008-8.64,10.5,10.5,0,0,0-4.574-13.343c.088-3.055.132-6.226-1.116-9.023s-4.17-5.109-7.23-4.663a10.928,10.928,0,0,0-5.341-9.046,11.2,11.2,0,0,0-10.6-.256c-3.647-5.9-12.6-7.772-18.348-3.83a12.265,12.265,0,0,0-8.894-7.263,12.4,12.4,0,0,0-11,3.428,18.639,18.639,0,0,0-19.141,5.731c-1.079,1.293-1.9,3.385-.62,4.481.6-.737-.644-1.6-1.6-1.643-5.774-.284-10.933,5.743-9.691,11.323a9.449,9.449,0,0,0-6.974,5.062,9.247,9.247,0,0,0,.271,8.546,9.283,9.283,0,0,0-7,5.233,9.09,9.09,0,0,0,.708,8.646,10.747,10.747,0,0,0-4.606,13.291c5.305,12.114,23.81,10.062,37.1,11.377,7.772.769,15.568,1.289,23.373,1.606,10.269.416,19.562-.683,29.568-2.165C297.945,127.967,326.994,123.477,317.212,110.219Z" transform="translate(-165.669 -53.946)" fill="#e0a0d7"/>
                <path id="Trazado_1082281" data-name="Trazado 1082281" d="M178.785,111.441c-3.614,1.192-7.569-.058-11.024-1.644A45.577,45.577,0,0,1,150.74,96.79a32.234,32.234,0,0,1-7.111-19.864c.029-3.048-2.21-7.044-2.407-10.085a11.6,11.6,0,0,1,.654-5.286,5.544,5.544,0,0,1,3.915-3.4,2.045,2.045,0,0,1,1.752.357,2.407,2.407,0,0,1,.592,1.5,18.914,18.914,0,0,1-1.527,10.2q1.06-4.606,2.569-9.1a6.691,6.691,0,0,1,1.645-2.988,2.463,2.463,0,0,1,3.163-.241,3.233,3.233,0,0,1,.8,2.241,18.7,18.7,0,0,1-2.287,10.23,21.478,21.478,0,0,1,4.549-8.815,6.992,6.992,0,0,1,2.665-2.11c2.7-1.038,5.788,1.073,6.837,3.74a12.047,12.047,0,0,1-.886,9.792,2.576,2.576,0,0,1-1.037,1.072,1.223,1.223,0,0,1-1.406-.189,1.96,1.96,0,0,1-.244-1.546,15.618,15.618,0,0,0-.12-4.161,1.829,1.829,0,0,0-.3-.858,1.322,1.322,0,0,0-1.6-.239,3,3,0,0,0-1.165,1.26c-.772,1.352-3.161,7.432-.96,8.407a2.154,2.154,0,0,0,1.55-.159,18.689,18.689,0,0,1,4.075-.937,1.046,1.046,0,0,1,.6.052.9.9,0,0,1,.346.381,3.149,3.149,0,0,1-.56,3.732,4.174,4.174,0,0,1-4.623,1.014c.12.063.164,6.037.513,7.051.824,2.394,3.134,4.545,5.039,6.139a24.609,24.609,0,0,0,15.782,5.77c1.774-.014,4.367-1.848,5.308-.362C187.486,100.379,178.785,111.441,178.785,111.441Z" transform="translate(-141.177 -55.42)" fill="#e0a0d7"/>
                <path id="Trazado_1082282" data-name="Trazado 1082282" d="M391.279,115.832c3.614,1.192,7.569-.058,11.024-1.644a45.571,45.571,0,0,0,17.021-13.007,32.235,32.235,0,0,0,7.111-19.865c-.029-3.048,2.21-7.044,2.407-10.085a11.6,11.6,0,0,0-.654-5.286,5.544,5.544,0,0,0-3.915-3.4,2.045,2.045,0,0,0-1.752.357,2.407,2.407,0,0,0-.592,1.5,18.913,18.913,0,0,0,1.527,10.2q-1.06-4.606-2.569-9.1a6.69,6.69,0,0,0-1.645-2.988,2.463,2.463,0,0,0-3.163-.241,3.233,3.233,0,0,0-.8,2.241,18.7,18.7,0,0,0,2.287,10.23,21.477,21.477,0,0,0-4.549-8.815,6.992,6.992,0,0,0-2.665-2.11c-2.7-1.038-5.788,1.073-6.837,3.74a12.047,12.047,0,0,0,.886,9.792,2.576,2.576,0,0,0,1.037,1.072,1.223,1.223,0,0,0,1.406-.189,1.961,1.961,0,0,0,.244-1.546,15.618,15.618,0,0,1,.12-4.161,1.83,1.83,0,0,1,.3-.858,1.322,1.322,0,0,1,1.6-.239,3,3,0,0,1,1.165,1.26c.772,1.352,3.161,7.432.96,8.407a2.154,2.154,0,0,1-1.55-.159A18.689,18.689,0,0,0,405.611,80a1.046,1.046,0,0,0-.6.052.9.9,0,0,0-.346.381,3.149,3.149,0,0,0,.56,3.732,4.174,4.174,0,0,0,4.623,1.014c-.12.063-.164,6.037-.513,7.051-.823,2.394-3.134,4.545-5.039,6.139a24.609,24.609,0,0,1-15.782,5.77c-1.774-.014-4.367-1.848-5.308-.362C382.578,104.77,391.279,115.832,391.279,115.832Z" transform="translate(-242.534 -57.289)" fill="#e0a0d7"/>
                <g id="Grupo_1211538" data-name="Grupo 1211538" transform="translate(101.987 7.173)">
                  <g id="Grupo_1211537" data-name="Grupo 1211537">
                    <path id="Trazado_1082283" data-name="Trazado 1082283" d="M317.394,67.611a4.5,4.5,0,0,1,4.364,1.936,4.4,4.4,0,0,1-.16,4.845c-.342.5.314,1.046.8.786,1.967-1.064,3.789.826,4.438,2.514a10.19,10.19,0,0,1,.227,6.413.585.585,0,0,0,.715.706,6.383,6.383,0,0,1,7.551,6.435c-.021.739,1.141.739,1.162,0a7.556,7.556,0,0,0-9.022-7.542l.715.706a10.953,10.953,0,0,0-.65-7.97c-1.072-2.024-3.5-3.459-5.723-2.255l.8.786a5.513,5.513,0,0,0,.045-6.175,5.724,5.724,0,0,0-5.562-2.293c-.737.11-.424,1.217.309,1.107Z" transform="translate(-316.664 -66.436)" fill="#23233a"/>
                  </g>
                </g>
                <g id="Grupo_1211540" data-name="Grupo 1211540" transform="translate(101.425 42.931)">
                  <g id="Grupo_1211539" data-name="Grupo 1211539">
                    <path id="Trazado_1082284" data-name="Trazado 1082284" d="M315.849,130.007a7.111,7.111,0,0,0,11.058-.48c.452-.589-.557-1.162-1-.579a6.023,6.023,0,0,1-4.561,2.32,6.094,6.094,0,0,1-4.672-2.073c-.495-.558-1.314.257-.822.811Z" transform="translate(-315.697 -128.704)" fill="#23233a"/>
                  </g>
                </g>
                <g id="Grupo_1211542" data-name="Grupo 1211542" transform="translate(124.869 41.267)">
                  <g id="Grupo_1211541" data-name="Grupo 1211541">
                    <path id="Trazado_1082285" data-name="Trazado 1082285" d="M356.09,126.686a5.655,5.655,0,0,0,10.238.2c.327-.662-.675-1.244-1-.579a4.5,4.5,0,0,1-8.231-.2c-.3-.677-1.3-.093-1,.579Z" transform="translate(-356.036 -125.806)" fill="#23233a"/>
                  </g>
                </g>
                <g id="Grupo_1211544" data-name="Grupo 1211544" transform="translate(113.145 51.213)">
                  <g id="Grupo_1211543" data-name="Grupo 1211543">
                    <path id="Trazado_1082286" data-name="Trazado 1082286" d="M335.951,145.349c1.459,2.394,3.375,4.854,6.542,4.428,3.253-.438,5.2-3.235,6.771-5.8.388-.634-.617-1.212-1-.579-1.35,2.2-2.963,4.71-5.733,5.218-2.733.5-4.344-1.832-5.572-3.848-.385-.633-1.391-.056-1,.579Z" transform="translate(-335.864 -143.126)" fill="#23233a"/>
                  </g>
                </g>
                <g id="Grupo_1211546" data-name="Grupo 1211546" transform="translate(112.273 51.193)">
                  <g id="Grupo_1211545" data-name="Grupo 1211545">
                    <path id="Trazado_1082287" data-name="Trazado 1082287" d="M335.681,143.26l-1.147,1.409a.619.619,0,0,0-.17.406.581.581,0,0,0,.17.406.589.589,0,0,0,.411.168.567.567,0,0,0,.411-.168l1.147-1.409a.619.619,0,0,0,.17-.406.581.581,0,0,0-.17-.406.589.589,0,0,0-.411-.168.567.567,0,0,0-.411.168Z" transform="translate(-334.363 -143.091)" fill="#23233a"/>
                  </g>
                </g>
                <g id="Grupo_1211548" data-name="Grupo 1211548" transform="translate(124.837 49.757)">
                  <g id="Grupo_1211547" data-name="Grupo 1211547">
                    <path id="Trazado_1082288" data-name="Trazado 1082288" d="M356.059,141.455l1.365,2.3a.593.593,0,0,0,.8.206.581.581,0,0,0,.209-.786l-1.366-2.3a.593.593,0,0,0-.8-.206.582.582,0,0,0-.208.786Z" transform="translate(-355.981 -140.59)" fill="#23233a"/>
                  </g>
                </g>
                <g id="Grupo_1211550" data-name="Grupo 1211550" transform="translate(99.751 30.607)">
                  <g id="Grupo_1211549" data-name="Grupo 1211549">
                    <path id="Trazado_1082289" data-name="Trazado 1082289" d="M313.964,109.925a2.423,2.423,0,0,1,4.28-.453.6.6,0,0,0,.8.206.576.576,0,0,0,.209-.786,3.594,3.594,0,0,0-6.4.727.578.578,0,0,0,.406.706.6.6,0,0,0,.715-.4Z" transform="translate(-312.816 -107.243)" fill="#23233a"/>
                  </g>
                </g>
                <g id="Grupo_1211552" data-name="Grupo 1211552" transform="translate(129.762 30.607)">
                  <g id="Grupo_1211551" data-name="Grupo 1211551">
                    <path id="Trazado_1082290" data-name="Trazado 1082290" d="M365.6,109.925a2.423,2.423,0,0,1,4.28-.453.6.6,0,0,0,.8.206.576.576,0,0,0,.209-.786,3.594,3.594,0,0,0-6.4.727.578.578,0,0,0,.406.706.6.6,0,0,0,.715-.4Z" transform="translate(-364.456 -107.243)" fill="#23233a"/>
                  </g>
                </g>
                <g id="Grupo_1211554" data-name="Grupo 1211554" transform="translate(9.167 13.414)">
                  <g id="Grupo_1211553" data-name="Grupo 1211553">
                    <path id="Trazado_1082291" data-name="Trazado 1082291" d="M157.234,78.361a4.374,4.374,0,0,1,2.507,3.054,6.614,6.614,0,0,1-.907,4.751.58.58,0,0,0,1,.579,7.8,7.8,0,0,0,1.024-5.636,5.453,5.453,0,0,0-3.041-3.74.605.605,0,0,0-.8.206.574.574,0,0,0,.208.786Z" transform="translate(-156.951 -77.304)" fill="#23233a"/>
                  </g>
                </g>
                <g id="Grupo_1211556" data-name="Grupo 1211556" transform="translate(6.167 7.78)">
                  <g id="Grupo_1211555" data-name="Grupo 1211555">
                    <path id="Trazado_1082292" data-name="Trazado 1082292" d="M152.853,67.773a7.435,7.435,0,0,0-1.064,3.737.581.581,0,0,0,1.162,0c0-.151.008-.3.019-.453.005-.07.012-.141.02-.211l.014-.12c-.008.053-.006.044,0-.027a7.289,7.289,0,0,1,.181-.826q.058-.2.129-.4c.027-.076.055-.152.085-.227.006-.015.069-.167.034-.086a6.631,6.631,0,0,1,.418-.806.577.577,0,0,0-.209-.786.6.6,0,0,0-.8.206Z" transform="translate(-151.789 -67.494)" fill="#23233a"/>
                  </g>
                </g>
                <g id="Grupo_1211558" data-name="Grupo 1211558" transform="translate(12.914 5.239)">
                  <g id="Grupo_1211557" data-name="Grupo 1211557">
                    <path id="Trazado_1082293" data-name="Trazado 1082293" d="M166.417,63.235c-1.667,1.946-3.368,4.129-2.958,6.838a.581.581,0,0,0,1.12-.306c-.336-2.22,1.313-4.15,2.659-5.72a.584.584,0,0,0,0-.812.591.591,0,0,0-.822,0Z" transform="translate(-163.397 -63.068)" fill="#23233a"/>
                  </g>
                </g>
                <g id="Grupo_1211560" data-name="Grupo 1211560" transform="translate(173.735 17.089)">
                  <g id="Grupo_1211559" data-name="Grupo 1211559">
                    <path id="Trazado_1082294" data-name="Trazado 1082294" d="M445.418,83.75c-1.093-.286-2.187.831-2.861,1.561a9.241,9.241,0,0,0-1.723,2.7,8.933,8.933,0,0,0-.269,6.28c.237.7,1.359.4,1.121-.306a7.842,7.842,0,0,1,.067-5.149,8.055,8.055,0,0,1,1.222-2.243,7.717,7.717,0,0,1,.9-.966c.25-.229.867-.871,1.236-.775a.575.575,0,0,0,.309-1.108Z" transform="translate(-440.119 -83.704)" fill="#23233a"/>
                  </g>
                </g>
                <g id="Grupo_1211562" data-name="Grupo 1211562" transform="translate(171.917 8.221)">
                  <g id="Grupo_1211561" data-name="Grupo 1211561">
                    <path id="Trazado_1082295" data-name="Trazado 1082295" d="M437.592,68.985a15.359,15.359,0,0,1-.572,6.995c-.225.706.9,1.009,1.121.306a16.636,16.636,0,0,0,.572-7.605.581.581,0,0,0-1.121.3Z" transform="translate(-436.991 -68.261)" fill="#23233a"/>
                  </g>
                </g>
                <g id="Grupo_1211564" data-name="Grupo 1211564" transform="translate(178 9.218)">
                  <g id="Grupo_1211563" data-name="Grupo 1211563">
                    <path id="Trazado_1082296" data-name="Trazado 1082296" d="M448.05,70.571a9.291,9.291,0,0,1-.565,4,.578.578,0,0,0,.406.706.6.6,0,0,0,.715-.4,10.119,10.119,0,0,0,.607-4.3.592.592,0,0,0-.581-.574.582.582,0,0,0-.581.574Z" transform="translate(-447.457 -69.997)" fill="#23233a"/>
                  </g>
                </g>
                <g id="Grupo_1211566" data-name="Grupo 1211566" transform="translate(63.414 11.213)">
                  <g id="Grupo_1211565" data-name="Grupo 1211565">
                    <path id="Trazado_1082297" data-name="Trazado 1082297" d="M251.312,75.663a4.851,4.851,0,0,1,5.009-.614,4.764,4.764,0,0,1,2.655,3.979.587.587,0,0,0,.875.5,2.772,2.772,0,0,1,4.216,3.115c-.142.457.3.772.715.706a4.716,4.716,0,0,1,3.309.511,2.555,2.555,0,0,1,1.2,2.639c-.164.72.956,1.027,1.121.306a3.671,3.671,0,0,0-1.443-3.732,5.813,5.813,0,0,0-4.491-.83l.715.706a3.952,3.952,0,0,0-1.3-4.264,4.058,4.058,0,0,0-4.625-.149l.875.5a5.928,5.928,0,0,0-3.421-5.059,6.061,6.061,0,0,0-6.227.882c-.581.466.246,1.274.822.813Z" transform="translate(-250.292 -73.472)" fill="#23233a"/>
                  </g>
                </g>
                <g id="Grupo_1211568" data-name="Grupo 1211568" transform="translate(74.571 26.262)">
                  <g id="Grupo_1211567" data-name="Grupo 1211567">
                    <path id="Trazado_1082298" data-name="Trazado 1082298" d="M269.5,100.4a4.87,4.87,0,0,0,3.639,3.952c2.082.5,3.914-.44,5.407-1.812l-.971-.253a2.832,2.832,0,0,0,5.507-.757c.071-.735-1.091-.73-1.162,0a1.683,1.683,0,0,1-3.224.452.593.593,0,0,0-.971-.253,4.715,4.715,0,0,1-4.276,1.517,3.757,3.757,0,0,1-2.827-3.149c-.117-.728-1.237-.419-1.122.3Z" transform="translate(-269.491 -99.677)" fill="#23233a"/>
                  </g>
                </g>
                <g id="Grupo_1211570" data-name="Grupo 1211570" transform="translate(51.174 22.822)">
                  <g id="Grupo_1211569" data-name="Grupo 1211569">
                    <path id="Trazado_1082299" data-name="Trazado 1082299" d="M243.907,93.8a7.241,7.241,0,0,0-6.3,1.856,7.046,7.046,0,0,0-1.954,6.206l.715-.706a5.712,5.712,0,0,0-5.953,1.787,5.548,5.548,0,0,0-.4,6.257.58.58,0,0,0,1-.579,4.395,4.395,0,0,1,.352-5.024,4.543,4.543,0,0,1,4.691-1.333.585.585,0,0,0,.715-.706A5.875,5.875,0,0,1,243.6,94.91c.732.127,1.046-.98.309-1.108Z" transform="translate(-229.23 -93.687)" fill="#23233a"/>
                  </g>
                </g>
                <g id="Grupo_1211572" data-name="Grupo 1211572" transform="translate(47.826 38.748)">
                  <g id="Grupo_1211571" data-name="Grupo 1211571">
                    <path id="Trazado_1082300" data-name="Trazado 1082300" d="M223.544,121.833a4.718,4.718,0,0,0,2.633,5.106,5.949,5.949,0,0,0,6.185-1.269c.562-.49-.263-1.3-.822-.812a4.788,4.788,0,0,1-4.807,1.076,3.565,3.565,0,0,1-2.07-3.8c.132-.722-.987-1.032-1.12-.3Z" transform="translate(-223.47 -121.419)" fill="#23233a"/>
                  </g>
                </g>
                <g id="Grupo_1211574" data-name="Grupo 1211574" transform="translate(69.63 44.13)">
                  <g id="Grupo_1211573" data-name="Grupo 1211573">
                    <path id="Trazado_1082301" data-name="Trazado 1082301" d="M261.684,132.578a7.01,7.01,0,0,1,6.252.191,4.6,4.6,0,0,1,2.166,4.887c-.113.448.42.955.854.648a2.778,2.778,0,0,1,4.429,1.824c.055.332.433.442.715.4a5.812,5.812,0,0,1,2.927.107,1.947,1.947,0,0,1,1.368,1.906c-.1.723,1.016,1.035,1.121.306a2.978,2.978,0,0,0-1.475-2.99,6.246,6.246,0,0,0-4.25-.436l.715.4a3.931,3.931,0,0,0-6.136-2.511l.854.648a5.727,5.727,0,0,0-2.36-5.957,7.959,7.959,0,0,0-7.487-.534c-.684.276-.385,1.387.309,1.108Z" transform="translate(-260.988 -130.791)" fill="#23233a"/>
                  </g>
                </g>
                <g id="Grupo_1211576" data-name="Grupo 1211576" transform="translate(120.247 11.056)">
                  <g id="Grupo_1211575" data-name="Grupo 1211575">
                    <path id="Trazado_1082302" data-name="Trazado 1082302" d="M348.778,74.507c1.426-.58,2.534.715,3.214,1.787a4.5,4.5,0,0,1,.879,3.838.581.581,0,0,0,.715.706c1-.366,2.2-.843,3.249-.382a2.431,2.431,0,0,1,1.438,2.075c.034.736,1.2.74,1.162,0a3.593,3.593,0,0,0-1.886-3c-1.386-.727-2.891-.3-4.272.2l.715.706c.61-1.741-.207-3.564-1.183-5.009-.933-1.382-2.547-2.757-4.34-2.028-.683.277-.384,1.389.309,1.107Z" transform="translate(-348.084 -73.198)" fill="#23233a"/>
                  </g>
                </g>
                <g id="Grupo_1211578" data-name="Grupo 1211578" transform="translate(90.29 12.658)">
                  <g id="Grupo_1211577" data-name="Grupo 1211577">
                    <path id="Trazado_1082303" data-name="Trazado 1082303" d="M308.767,76.641a6.02,6.02,0,0,0-7.459,1.622,5.612,5.612,0,0,0-.506.762,2.6,2.6,0,0,1-.218.455c-.062.045-.271-.017-.344-.026a3.435,3.435,0,0,0-1.878.331,3.31,3.31,0,0,0-1.817,3.2c.051.733,1.214.739,1.162,0a2.188,2.188,0,0,1,1.834-2.39c.525-.079,1.111.216,1.6-.041.455-.24.577-.834.836-1.245a4.825,4.825,0,0,1,6.2-1.682c.666.331,1.255-.659.586-.992Z" transform="translate(-296.537 -75.988)" fill="#23233a"/>
                  </g>
                </g>
                <g id="Grupo_1211580" data-name="Grupo 1211580" transform="translate(118.933 21.024)">
                  <g id="Grupo_1211579" data-name="Grupo 1211579">
                    <path id="Trazado_1082304" data-name="Trazado 1082304" d="M346.532,92.03a3.029,3.029,0,0,1,2.264-.175c.343.195.486.594.831.8a1.589,1.589,0,0,0,1.352.015,3.02,3.02,0,0,1,2.593.207,2.84,2.84,0,0,1,1.325,2.062c.085.726,1.248.734,1.162,0a4.026,4.026,0,0,0-5.179-3.447c-.19.059-.5.244-.693.151-.17-.083-.3-.383-.446-.513a2.062,2.062,0,0,0-.571-.362,4.236,4.236,0,0,0-2.947.159c-.706.233-.4,1.343.309,1.108Z" transform="translate(-345.822 -90.556)" fill="#23233a"/>
                  </g>
                </g>
                <g id="Grupo_1211582" data-name="Grupo 1211582" transform="translate(78.75 4.215)">
                  <g id="Grupo_1211581" data-name="Grupo 1211581">
                    <path id="Trazado_1082305" data-name="Trazado 1082305" d="M288.437,61.328a5.978,5.978,0,0,0-6.363,4.591c-.084.331-.1.674-.174,1q.244-.1-.023-.066l-.137-.011c-.159-.007-.317-.018-.477-.014a5.047,5.047,0,0,0-1.979.488,4.986,4.986,0,0,0-2.566,2.829c-.252.7.871,1,1.121.306a3.836,3.836,0,0,1,2.486-2.311,6.286,6.286,0,0,1,1.692-.136,1.045,1.045,0,0,0,1.038-1.019c.4-2.668,2.5-4.872,5.383-4.511.74.092.733-1.057,0-1.149Z" transform="translate(-276.681 -61.286)" fill="#23233a"/>
                  </g>
                </g>
                <g id="Grupo_1211584" data-name="Grupo 1211584" transform="translate(141.321 33.898)">
                  <g id="Grupo_1211583" data-name="Grupo 1211583">
                    <path id="Trazado_1082306" data-name="Trazado 1082306" d="M389.471,112.974a4.488,4.488,0,0,0-3.371,1.8,11.185,11.185,0,0,0-1.73,3.863c-.212.71.909,1.014,1.121.306a10.644,10.644,0,0,1,1.424-3.343,3.378,3.378,0,0,1,2.556-1.478.574.574,0,0,0,0-1.149Z" transform="translate(-384.344 -112.974)" fill="#23233a"/>
                  </g>
                </g>
                <g id="Grupo_1211586" data-name="Grupo 1211586" transform="translate(88.176 38.701)">
                  <g id="Grupo_1211585" data-name="Grupo 1211585">
                    <path id="Trazado_1082307" data-name="Trazado 1082307" d="M293.2,122.387a4.2,4.2,0,0,1,2.3,4.946.586.586,0,0,0,.406.706,4.445,4.445,0,0,1,2.877,4.343c-.034.739,1.128.737,1.162,0a5.614,5.614,0,0,0-3.73-5.451l.406.706a5.332,5.332,0,0,0-2.833-6.243c-.675-.308-1.266.682-.586.992Z" transform="translate(-292.899 -121.337)" fill="#23233a"/>
                  </g>
                </g>
              </g>
              <path id="Trazado_1082308" data-name="Trazado 1082308" d="M259.007,164.337c-4.181,2.274-9.183,2.386-13.955,2.3-10.223-.191-21.236-1.378-30.432-5.8-.631-4.238-.824-9.125-1.456-13.363,3.686-1.83,8.174-2.384,11.957-.76s6.563,5.7,5.966,9.729a5.984,5.984,0,0,1,11.675,1.237,8.311,8.311,0,0,1,16.055,2.137A40.939,40.939,0,0,1,259.007,164.337Z" transform="translate(-89.871 -93.031)" fill="#5b5a9f"/>
              <g id="Grupo_1211590" data-name="Grupo 1211590" transform="translate(137.106 36.465)">
                <path id="Trazado_1082309" data-name="Trazado 1082309" d="M254.618,138.066a.6.6,0,0,1,.444-.179c.177.03.287.206.358.369a3.993,3.993,0,0,1-.294,3.29,25.15,25.15,0,0,1-1.9,2.84,15.087,15.087,0,0,0-2.194,4.97c.236-.99-.323-2.636-.294-3.713a10.6,10.6,0,0,1,.385-3.063A11.062,11.062,0,0,1,254.618,138.066Z" transform="translate(-242.714 -126.145)" fill="#67b1af"/>
                <path id="Trazado_1082310" data-name="Trazado 1082310" d="M250.157,117.628a.6.6,0,0,1,.444-.179c.177.03.287.206.358.369a3.993,3.993,0,0,1-.294,3.29,25.148,25.148,0,0,1-1.9,2.84,15.088,15.088,0,0,0-2.194,4.97c.236-.99-.323-2.636-.293-3.713a10.6,10.6,0,0,1,.385-3.063A11.062,11.062,0,0,1,250.157,117.628Z" transform="translate(-240.846 -117.444)" fill="#67b1af"/>
                <path id="Trazado_1082311" data-name="Trazado 1082311" d="M257.724,163.838a.6.6,0,0,1,.444-.179c.177.03.287.206.358.369a3.993,3.993,0,0,1-.294,3.29,25.07,25.07,0,0,1-1.9,2.84,15.088,15.088,0,0,0-2.194,4.97c.236-.99-.323-2.636-.293-3.713a10.6,10.6,0,0,1,.385-3.063A11.058,11.058,0,0,1,257.724,163.838Z" transform="translate(-244.015 -137.117)" fill="#67b1af"/>
                <g id="Grupo_1211589" data-name="Grupo 1211589" transform="translate(5.401 6.863)">
                  <g id="Grupo_1211588" data-name="Grupo 1211588">
                    <path id="Trazado_1082312" data-name="Trazado 1082312" d="M246.358,129.806c-1.129,10.56,5.318,20.293,4.213,30.846-.058.551.814.547.872,0,1.106-10.56-5.342-20.293-4.213-30.846.059-.551-.814-.546-.872,0Z" transform="translate(-246.225 -129.395)" fill="#67b1af"/>
                  </g>
                </g>
                <path id="Trazado_1082313" data-name="Trazado 1082313" d="M241.848,133.557a7.656,7.656,0,0,0-3.947-3.864c-.278-.105-.645-.165-.826.067a.657.657,0,0,0-.11.318,4.691,4.691,0,0,0,1.187,3.508c1.677,2.069,4.212,3.314,5.568,5.651A19.738,19.738,0,0,0,241.848,133.557Z" transform="translate(-236.931 -122.619)" fill="#67b1af"/>
                <path id="Trazado_1082314" data-name="Trazado 1082314" d="M247.358,158.8a7.656,7.656,0,0,0-3.947-3.864c-.278-.105-.645-.165-.826.067a.657.657,0,0,0-.11.318,4.691,4.691,0,0,0,1.187,3.508c1.677,2.069,4.212,3.314,5.568,5.651A19.72,19.72,0,0,0,247.358,158.8Z" transform="translate(-239.239 -133.368)" fill="#67b1af"/>
              </g>
              <path id="Trazado_1082315" data-name="Trazado 1082315" d="M380.55,155.078a58.936,58.936,0,0,0,6.76-7.085c.957-1.188,1.917-2.715,1.352-4.127-.635-1.587-2.929-1.92-4.438-1.091A9.126,9.126,0,0,0,381,146.686a21.7,21.7,0,0,0,3.209-7.7c.18-.885.1-2.1-.786-2.31a1.786,1.786,0,0,0-1.221.3,14.36,14.36,0,0,0-7.126,9.789,14.415,14.415,0,0,0,.305-7.578,1.618,1.618,0,0,0-.472-.944c-.65-.517-1.587.095-2.132.718a14.961,14.961,0,0,0-3.618,10.87,11.346,11.346,0,0,0-1.573-4.969,1.85,1.85,0,0,0-.663-.732c-.861-.455-1.8.454-2.3,1.286a20.774,20.774,0,0,0-2.872,11.762C367.809,157.871,376.014,159.1,380.55,155.078Z" transform="translate(-152.09 -89.156)" fill="#67b1af"/>
              <g id="Grupo_1211593" data-name="Grupo 1211593" transform="translate(226.661 36.52)">
                <path id="Trazado_1082316" data-name="Trazado 1082316" d="M414.681,136.585a.6.6,0,0,1,.464.119.542.542,0,0,1,.063.508,4.052,4.052,0,0,1-2.228,2.462,25.681,25.681,0,0,1-3.241,1.153,15.4,15.4,0,0,0-4.767,2.685c.789-.654,1.338-2.3,2.013-3.149a10.771,10.771,0,0,1,2.164-2.226A11.274,11.274,0,0,1,414.681,136.585Z" transform="translate(-396.867 -125.647)" fill="#5b5a9f"/>
                <path id="Trazado_1082317" data-name="Trazado 1082317" d="M423.337,117.541a.6.6,0,0,1,.464.119.542.542,0,0,1,.063.508,4.052,4.052,0,0,1-2.228,2.462,25.682,25.682,0,0,1-3.241,1.153,15.4,15.4,0,0,0-4.767,2.685c.789-.654,1.338-2.3,2.013-3.149a10.771,10.771,0,0,1,2.164-2.226A11.265,11.265,0,0,1,423.337,117.541Z" transform="translate(-400.493 -117.54)" fill="#5b5a9f"/>
                <path id="Trazado_1082318" data-name="Trazado 1082318" d="M401.749,159.093a.6.6,0,0,1,.464.119.542.542,0,0,1,.063.508,4.052,4.052,0,0,1-2.228,2.462,25.681,25.681,0,0,1-3.241,1.153,15.4,15.4,0,0,0-4.767,2.685c.789-.654,1.338-2.3,2.013-3.149a10.77,10.77,0,0,1,2.164-2.226A11.269,11.269,0,0,1,401.749,159.093Z" transform="translate(-391.451 -135.23)" fill="#5b5a9f"/>
                <g id="Grupo_1211592" data-name="Grupo 1211592" transform="translate(0 3.122)">
                  <g id="Grupo_1211591" data-name="Grupo 1211591">
                    <path id="Trazado_1082319" data-name="Trazado 1082319" d="M406.488,123.155c-5.683,6.059-7.423,14.375-11.282,21.489a27.53,27.53,0,0,1-4.021,5.717c-.507.543.313,1.357.822.812,5.67-6.071,7.405-14.386,11.273-21.5a27.414,27.414,0,0,1,4.03-5.709c.509-.541-.311-1.355-.821-.811Z" transform="translate(-391.026 -122.975)" fill="#5b5a9f"/>
                  </g>
                </g>
                <path id="Trazado_1082320" data-name="Trazado 1082320" d="M410.921,123.663a7.53,7.53,0,0,0-.823-5.43c-.159-.248-.417-.514-.7-.435a.672.672,0,0,0-.281.19,4.689,4.689,0,0,0-1.173,3.512c.091,2.649,1.368,5.145,1.039,7.819A19.751,19.751,0,0,0,410.921,123.663Z" transform="translate(-398.109 -117.644)" fill="#5b5a9f"/>
                <path id="Trazado_1082321" data-name="Trazado 1082321" d="M400.229,147.189a7.53,7.53,0,0,0-.823-5.43c-.159-.248-.417-.514-.7-.435a.672.672,0,0,0-.281.19,4.689,4.689,0,0,0-1.173,3.512c.091,2.649,1.368,5.145,1.039,7.819A19.723,19.723,0,0,0,400.229,147.189Z" transform="translate(-393.631 -127.659)" fill="#5b5a9f"/>
              </g>
              <path id="Trazado_1082322" data-name="Trazado 1082322" d="M211.658,145.853a45.039,45.039,0,0,1-5.461-20.4,15.288,15.288,0,0,0-6.173,6.631,42.483,42.483,0,0,1-4.285-19.341c-2.407,6.692-1.526,14.045-.615,21.09a19.19,19.19,0,0,0-8-5.723,47.888,47.888,0,0,1,8.419,17.389c.176.7,1.694.608,2.39.818C202.635,147.738,206.845,146.846,211.658,145.853Z" transform="translate(-78.965 -78.978)" fill="#67b1af"/>
              <path id="Trazado_1082323" data-name="Trazado 1082323" d="M147.935,122.432c5.01-2.44,13.58,5.408,8.863,9.546-1.383,1.213-2.35-.076-3.638.21-1.247.277-2.419,1.084-3.823,1.472-.8.221-9.17-.536-8.254-1.749a9.081,9.081,0,0,1-15.1-.973,14.626,14.626,0,0,1-13.9,3.825c-3.756-.991-6.715-5.26-2.972-8.322,2.884-2.359,8.256-.365,11.265.589-1.188-2.29-1.65-5.242-.13-7.332s5.483-2.147,6.342.283a14.011,14.011,0,0,1-.579-6.229,5.541,5.541,0,0,1,3.96-4.486,6.1,6.1,0,0,1,3.468.463,10.9,10.9,0,0,1,6.541,11.48,5.22,5.22,0,0,1,4.968-3.311C147.079,118.1,148.844,120.521,147.935,122.432Z" transform="translate(-45.568 -77.459)" fill="#fff"/>
              <path id="Trazado_1082324" data-name="Trazado 1082324" d="M379.53,42.322a3.532,3.532,0,0,1-5.708.845,3.589,3.589,0,0,1-3.635,1.924,10.565,10.565,0,0,1-4.111-1.5,6.552,6.552,0,0,1-6.459,2.206,6.464,6.464,0,0,1-4.752-4.853,13.054,13.054,0,0,1-8.053,1.96,9.351,9.351,0,0,1-6.96-4.193c-.717-1.178-1.076-2.789-.213-3.867a3.589,3.589,0,0,1,2.451-1.106,9.149,9.149,0,0,1,7.993,3.245c.81-1.3,1.745-2.7,3.227-3.141s3.443.863,2.948,2.31a8.336,8.336,0,0,1,3.74-9.81,8.552,8.552,0,0,1,10.409,2.027c.093,2.336,1.523,6.238,1.323,8.568a5.618,5.618,0,0,1,7.212-1.04C381.146,37.39,380.505,39.867,379.53,42.322Z" transform="translate(-34.707 118.177)" fill="#fff"/>
            </g>
            <g id="Grupo_1211644" data-name="Grupo 1211644" transform="translate(0)" clip-path="url(#clip-path-4)">
              <path id="Trazado_1082325" data-name="Trazado 1082325" d="M300.466,273.819c-8.7,9.355-9.329,24.971-1.524,35.071s23.083,13.639,34.687,8.161c6.23-2.942,11.222-8.064,14.843-13.873,3.478-5.58,5.828-12.266,4.425-18.671C348.376,263.871,313.507,259.8,300.466,273.819Z" transform="translate(-123.513 -120.612)" fill="#23233a"/>
              <path id="Trazado_1082326" data-name="Trazado 1082326" d="M363.47,334.025c-8.7,9.355-9.329,24.971-1.524,35.071s23.083,13.639,34.687,8.161c6.23-2.942,11.222-8.064,14.843-13.873,3.478-5.58,5.828-12.266,4.425-18.671C411.38,324.077,376.511,320.009,363.47,334.025Z" transform="translate(-149.901 -146.244)" fill="#23233a"/>
              <path id="Trazado_1082327" data-name="Trazado 1082327" d="M425.268,397.175c-8.7,9.355-9.329,24.971-1.524,35.071s23.083,13.639,34.687,8.161c6.23-2.942,11.222-8.064,14.843-13.873,3.478-5.58,5.828-12.266,4.425-18.671C473.178,387.227,438.309,383.158,425.268,397.175Z" transform="translate(-175.784 -173.129)" fill="#23233a"/>
              <path id="Trazado_1082328" data-name="Trazado 1082328" d="M541.183,482.452a7.953,7.953,0,0,1-2.4,5.631c-3.547,3.743-9.426,5.057-13.989,7.208-5.75,2.711-11.559,5.3-17.394,7.822-6.408-4.241-12.444-9.2-16.915-15.413s-7.295-13.777-6.837-21.385c6.895-7.347,6.177-11.377,13.362-18.448,8.527,5.833,28.017,3.4,36.929-1.841a18.591,18.591,0,0,1-17.325,9.858,139.214,139.214,0,0,1,15.806,12.806C536.057,472.131,541.162,477.3,541.183,482.452Z" transform="translate(-203.137 -197.433)" fill="#23233a"/>
              <g id="Grupo_1211596" data-name="Grupo 1211596" transform="translate(227.402 178.889)">
                <g id="Grupo_1211595" data-name="Grupo 1211595">
                  <path id="Trazado_1082329" data-name="Trazado 1082329" d="M393.019,328.007c11.438-3.347,24.811-3.471,34.635,4.076a24.876,24.876,0,0,1,8.749,12.1,18.889,18.889,0,0,1-1.175,14.154A17.169,17.169,0,0,1,423.1,367.84c-.736.127-.424,1.234.309,1.108,10.257-1.773,16.5-12.967,14.711-22.661-2.052-11.138-12.394-18.959-23.2-20.972a48.136,48.136,0,0,0-22.21,1.586.575.575,0,0,0,.308,1.107Z" transform="translate(-392.302 -324.648)" fill="#23233a"/>
                </g>
              </g>
              <g id="Grupo_1211598" data-name="Grupo 1211598" transform="translate(201.485 193.383)">
                <g id="Grupo_1211597" data-name="Grupo 1211597">
                  <path id="Trazado_1082330" data-name="Trazado 1082330" d="M353.823,350.156c-4.2,6.567-8.13,14.435-4.964,22.232a29.92,29.92,0,0,0,6.386,9.351,21.623,21.623,0,0,0,8.983,5.792,14.381,14.381,0,0,0,11.783-1.24c.629-.4.047-1.39-.586-.992a12.993,12.993,0,0,1-9.99,1.371,19.461,19.461,0,0,1-8.786-5.163,30.424,30.424,0,0,1-6.231-8.445,15.921,15.921,0,0,1-1.055-10.89c1.016-4.126,3.185-7.876,5.463-11.436.4-.627-.6-1.2-1-.58Z" transform="translate(-347.707 -349.888)" fill="#23233a"/>
                </g>
              </g>
              <g id="Grupo_1211600" data-name="Grupo 1211600" transform="translate(223.429 174.039)">
                <g id="Grupo_1211599" data-name="Grupo 1211599">
                  <path id="Trazado_1082331" data-name="Trazado 1082331" d="M386.582,325.55c3.206-4.228,8.024-9.964,14.118-7.753.7.255,1.007-.854.309-1.108a10.124,10.124,0,0,0-8.759,1.347c-2.745,1.757-4.737,4.382-6.671,6.934-.449.592.559,1.165,1,.58Z" transform="translate(-385.466 -316.202)" fill="#23233a"/>
                </g>
              </g>
              <path id="Trazado_1082332" data-name="Trazado 1082332" d="M158.866,285.313c-9.385,8.687-11.189,24.214-4.168,34.86s21.989,15.3,33.974,10.7c6.435-2.474,11.8-7.214,15.849-12.74,3.889-5.307,6.738-11.8,5.822-18.292C207.393,278.925,172.928,272.3,158.866,285.313Z" transform="translate(-63.595 -126.17)" fill="#23233a"/>
              <path id="Trazado_1082333" data-name="Trazado 1082333" d="M91.281,347.918c-9.385,8.687-11.189,24.214-4.168,34.86s21.989,15.3,33.974,10.7c6.435-2.474,11.8-7.214,15.849-12.74,3.889-5.307,6.738-11.8,5.822-18.292C139.808,341.53,105.343,334.9,91.281,347.918Z" transform="translate(-35.288 -152.823)" fill="#23233a"/>
              <path id="Trazado_1082334" data-name="Trazado 1082334" d="M32.233,418.349c-9.385,8.687-11.189,24.214-4.168,34.86s21.989,15.3,33.974,10.7c6.435-2.474,11.8-7.214,15.849-12.74,3.889-5.307,6.738-11.8,5.822-18.292C80.76,411.96,46.3,405.333,32.233,418.349Z" transform="translate(-10.557 -182.807)" fill="#23233a"/>
              <path id="Trazado_1082335" data-name="Trazado 1082335" d="M291.82,453.5,95.095,457.177c.206-8.178-.387-10.855-.78-19.027-.98-20.408,10.149-40.946,27.882-51.45,9.668-5.724,20.8-8.524,30.971-13.328a81.838,81.838,0,0,0,10.467-5.921A85.271,85.271,0,0,0,186.061,345.7a81.476,81.476,0,0,0,7.447-12.792c10.73,2.134,23.506,1.622,34.379,2.881,5.586.648,6.822-2.356,12.377-1.493-4.588,8.6-6.9,17.72-6.1,27.273.069.826.162,1.653.275,2.485a38.141,38.141,0,0,0,6.86,16.535,79.387,79.387,0,0,0,13.625,14.549c9.656,8.289,20.46,15.641,27.738,26.04A51.551,51.551,0,0,1,291.82,453.5Z" transform="translate(-40.068 -149.277)" fill="#c9986b"/>
              <path id="Trazado_1082336" data-name="Trazado 1082336" d="M291.821,479.106l-148.4,2.775h-.012l-48.317.9c.206-8.178-.387-10.855-.78-19.027-.006-.105-.006-.2-.012-.308v-.006a53.932,53.932,0,0,1,1.33-14.3,58.833,58.833,0,0,1,10.68-22.654,57.4,57.4,0,0,1,8.9-9.263,54.452,54.452,0,0,1,6.984-4.922,90.028,90.028,0,0,1,13-6.112c4.057-1.6,8.176-3.078,12.215-4.712,1.941-.783,3.864-1.61,5.755-2.5a81.838,81.838,0,0,0,10.467-5.921c12.071,7.4,42.343,22.468,77.659,13.143a73.743,73.743,0,0,0,11.179,12.385q1.207,1.11,2.447,2.165c2.9,2.485,5.892,4.891,8.869,7.314a123.6,123.6,0,0,1,14.625,13.39,57.624,57.624,0,0,1,4.244,5.335,50.7,50.7,0,0,1,4.363,7.561,51.811,51.811,0,0,1,4.643,16.874A50.391,50.391,0,0,1,291.821,479.106Z" transform="translate(-40.069 -174.883)" fill="#fff"/>
              <path id="Trazado_1082337" data-name="Trazado 1082337" d="M293.3,434.31a101.124,101.124,0,0,1-24.105,2.874c-12.546.1-25.029-1.505-37.5-2.825-11.741-1.252-23.637-2.282-34.785-6.13a157.055,157.055,0,0,1-32.2-15.789c4.057-1.6,8.176-3.078,12.215-4.712,20.822,9.837,44.653,13.174,67.8,15.968,9.55,1.147,19.156,2.257,28.774,1.887a83.194,83.194,0,0,0,8.489-.752q1.207,1.11,2.447,2.165C287.322,429.481,290.319,431.886,293.3,434.31Z" transform="translate(-69.575 -181.129)" fill="#d5b7dd"/>
              <path id="Trazado_1082338" data-name="Trazado 1082338" d="M295.709,472.269c-13.045,4.909-27.22,6.723-41.226,6.84-16.266.129-32.456-1.949-48.635-3.67-15.224-1.616-30.665-2.954-45.121-7.944A204.549,204.549,0,0,1,115,444.41a57.405,57.405,0,0,1,8.9-9.263c29.4,17.3,64.7,22.345,98.837,26.465,12.4,1.492,24.854,2.924,37.331,2.449a96.1,96.1,0,0,0,27.032-4.687,57.628,57.628,0,0,1,4.244,5.335A50.564,50.564,0,0,1,295.709,472.269Z" transform="translate(-48.757 -192.802)" fill="#d5b7dd"/>
              <path id="Trazado_1082339" data-name="Trazado 1082339" d="M291.82,520.687l-148.4,2.775h-.012q-3.137-.749-6.229-1.634a264.671,264.671,0,0,1-42.88-16.8v-.006a53.934,53.934,0,0,1,1.33-14.3c34.71,16.307,75.955,21.2,115.877,25.219,14.849,1.493,29.785,2.929,44.734,2.449a132.772,132.772,0,0,0,35.422-5.588A50.406,50.406,0,0,1,291.82,520.687Z" transform="translate(-40.068 -216.463)" fill="#d5b7dd"/>
              <path id="Trazado_1082340" data-name="Trazado 1082340" d="M300.322,361.573a94.8,94.8,0,0,1-11.8-1.153c-8.4-1.295-16.778-3.238-24.436-6.883a49.206,49.206,0,0,1-11.866-7.833,81.481,81.481,0,0,0,7.447-12.792c10.729,2.134,23.506,1.622,34.379,2.881,5.586.648,6.822-2.356,12.377-1.493C301.838,342.9,299.523,352.02,300.322,361.573Z" transform="translate(-106.23 -149.277)" fill="#c9986b" opacity="0.6"/>
              <path id="Trazado_1082341" data-name="Trazado 1082341" d="M191.048,260.327c-8.683,5.769-21.075,2.986-28.87-3.911a26.34,26.34,0,0,1-8.8-14.875c-1-5.769.611-12.086,4.814-16.21a19.107,19.107,0,0,1,15.1-4.922,27.726,27.726,0,0,1,14.767,6.533C187.908,234.726,190.039,252.606,191.048,260.327Z" transform="translate(-64.71 -101.34)" fill="#c9986b"/>
              <path id="Trazado_1082342" data-name="Trazado 1082342" d="M202.636,307.662a5.588,5.588,0,0,1-4.467-.863,5.454,5.454,0,0,1-2.251-3.91,8.357,8.357,0,0,1,.3-2.751,30.887,30.887,0,0,1,3.738-8.3c-.09.87.024.311.463,1.071,1.419,2.463,3.133,4.814,3.933,7.536S205.424,307,202.636,307.662Z" transform="translate(-82.639 -131.791)" fill="#5b5a9f"/>
              <path id="Trazado_1082343" data-name="Trazado 1082343" d="M385.869,254.988c8.683,5.769,21.075,2.986,28.87-3.911a26.34,26.34,0,0,0,8.8-14.875c1-5.769-.611-12.086-4.814-16.21a19.107,19.107,0,0,0-15.1-4.922,27.726,27.726,0,0,0-14.767,6.533C389.01,229.387,386.879,247.267,385.869,254.988Z" transform="translate(-162.206 -99.067)" fill="#c9986b"/>
              <path id="Trazado_1082344" data-name="Trazado 1082344" d="M400.381,300.359a5.588,5.588,0,0,1-4.467-.863,5.455,5.455,0,0,1-2.251-3.91,8.357,8.357,0,0,1,.3-2.751,30.888,30.888,0,0,1,3.738-8.3c-.09.87.024.311.463,1.071,1.419,2.463,3.133,4.814,3.933,7.536S403.169,299.692,400.381,300.359Z" transform="translate(-165.461 -128.682)" fill="#5b5a9f"/>
              <path id="Trazado_1082345" data-name="Trazado 1082345" d="M317.8,184.759a240.536,240.536,0,0,1-3.015,26.058q-1.114,6.568-2.6,13.057c-1.835,8.036-4.119,16.085-8.314,23.208a51.715,51.715,0,0,1-32.319,23.492,57.031,57.031,0,0,1-39.909-5.5c-16-8.684-27.052-24.5-32.613-41.785q-1.067-3.312-1.866-6.686c-4.019-17.01-5.231-37.8-.481-56.168a287.07,287.07,0,0,0,42.006,6.125,291.5,291.5,0,0,0,65.394-2.714q6.544-1.009,13.039-2.332A108.719,108.719,0,0,1,317.8,184.759Z" transform="translate(-81.678 -75.85)" fill="#c9986b"/>
              <path id="Trazado_1082346" data-name="Trazado 1082346" d="M238.689,166.566a201.888,201.888,0,0,1-32.581,50.691c-2.053,2.344-4.263,4.7-7.078,6.038q-1.067-3.312-1.866-6.686c-4.019-17.01-5.231-37.8-.481-56.168A287.059,287.059,0,0,0,238.689,166.566Z" transform="translate(-81.679 -75.851)" fill="#23233a"/>
              <path id="Trazado_1082347" data-name="Trazado 1082347" d="M397.414,185.559a240.538,240.538,0,0,1-3.014,26.058,62.521,62.521,0,0,0-.968-9,223.514,223.514,0,0,0-9.731-37.961q6.544-1.009,13.039-2.332A108.707,108.707,0,0,1,397.414,185.559Z" transform="translate(-161.297 -76.651)" fill="#23233a"/>
              <g id="Grupo_1211602" data-name="Grupo 1211602" transform="translate(97.714 131.244)">
                <g id="Grupo_1211601" data-name="Grupo 1211601">
                  <path id="Trazado_1082348" data-name="Trazado 1082348" d="M169.559,242.815c7.779,2.238,11.94,9.724,15.492,16.3l.913-.7a15.259,15.259,0,0,0-11.782-5.539.574.574,0,0,0,0,1.149,14.146,14.146,0,0,1,10.96,5.2c.428.526,1.211-.145.913-.7-3.708-6.869-8.088-14.5-16.187-16.832a.576.576,0,0,0-.309,1.108Z" transform="translate(-169.15 -241.682)" fill="#23233a"/>
                </g>
              </g>
              <g id="Grupo_1211604" data-name="Grupo 1211604" transform="translate(234.048 128.642)">
                <g id="Grupo_1211603" data-name="Grupo 1211603">
                  <path id="Trazado_1082349" data-name="Trazado 1082349" d="M415.224,237.4l-11.377,16.1c-.436.617.56,1.15,1,.579,3.189-4.095,8.48-5.733,13.275-7.189a.575.575,0,0,0-.309-1.108c-5.137,1.56-10.566,3.346-13.969,7.717l1,.579,11.378-16.1c.428-.607-.579-1.181-1-.579Z" transform="translate(-403.738 -237.15)" fill="#23233a"/>
                </g>
              </g>
              <g id="Grupo_1211613" data-name="Grupo 1211613" transform="translate(160.243 127.173)">
                <g id="Grupo_1211606" data-name="Grupo 1211606">
                  <g id="Grupo_1211605" data-name="Grupo 1211605">
                    <path id="Trazado_1082350" data-name="Trazado 1082350" d="M276.821,236.763c1.822,3.264,5.729,4.892,9.4,4.646,4.252-.284,7.962-2.831,10.788-5.825.51-.54-.31-1.354-.822-.812-2.558,2.71-5.91,5.141-9.764,5.473-3.338.288-6.928-1.07-8.6-4.062a.58.58,0,0,0-1,.579Z" transform="translate(-276.744 -234.593)" fill="#23233a"/>
                  </g>
                </g>
                <g id="Grupo_1211608" data-name="Grupo 1211608" transform="translate(0.665 4.693)">
                  <g id="Grupo_1211607" data-name="Grupo 1211607">
                    <path id="Trazado_1082351" data-name="Trazado 1082351" d="M279.981,242.927l-1.925,1.656a.572.572,0,0,0,0,.812.6.6,0,0,0,.822,0l1.925-1.656a.572.572,0,0,0,0-.812.6.6,0,0,0-.822,0Z" transform="translate(-277.887 -242.764)" fill="#23233a"/>
                  </g>
                </g>
                <g id="Grupo_1211610" data-name="Grupo 1211610" transform="translate(4.275 5.623)">
                  <g id="Grupo_1211609" data-name="Grupo 1211609">
                    <path id="Trazado_1082352" data-name="Trazado 1082352" d="M285.105,244.662l-.937,1.909a.582.582,0,0,0,.209.786.592.592,0,0,0,.8-.206l.937-1.909a.582.582,0,0,0-.209-.786.592.592,0,0,0-.8.206Z" transform="translate(-284.099 -244.385)" fill="#23233a"/>
                  </g>
                </g>
                <g id="Grupo_1211612" data-name="Grupo 1211612" transform="translate(7.441 6.361)">
                  <g id="Grupo_1211611" data-name="Grupo 1211611">
                    <path id="Trazado_1082353" data-name="Trazado 1082353" d="M290.561,245.949l-.94,1.672a.579.579,0,0,0,.209.786.594.594,0,0,0,.8-.206l.94-1.672a.579.579,0,0,0-.209-.786.6.6,0,0,0-.8.206Z" transform="translate(-289.547 -245.67)" fill="#23233a"/>
                  </g>
                </g>
              </g>
              <g id="Grupo_1211622" data-name="Grupo 1211622" transform="translate(200.167 127.173)">
                <g id="Grupo_1211615" data-name="Grupo 1211615">
                  <g id="Grupo_1211614" data-name="Grupo 1211614">
                    <path id="Trazado_1082354" data-name="Trazado 1082354" d="M364.784,236.183c-1.667,2.987-5.263,4.358-8.6,4.062-3.857-.342-7.2-2.759-9.764-5.473-.511-.542-1.332.272-.822.812,2.826,2.994,6.536,5.541,10.788,5.825,3.671.245,7.577-1.382,9.4-4.646a.58.58,0,0,0-1-.579Z" transform="translate(-345.439 -234.593)" fill="#23233a"/>
                  </g>
                </g>
                <g id="Grupo_1211617" data-name="Grupo 1211617" transform="translate(16.678 4.687)">
                  <g id="Grupo_1211616" data-name="Grupo 1211616">
                    <path id="Trazado_1082355" data-name="Trazado 1082355" d="M374.3,243.735l1.925,1.656a.62.62,0,0,0,.411.168.6.6,0,0,0,.411-.168.577.577,0,0,0,0-.812l-1.925-1.656a.62.62,0,0,0-.411-.168.6.6,0,0,0-.411.168.577.577,0,0,0,0,.812Z" transform="translate(-374.137 -242.755)" fill="#23233a"/>
                  </g>
                </g>
                <g id="Grupo_1211619" data-name="Grupo 1211619" transform="translate(14.07 5.617)">
                  <g id="Grupo_1211618" data-name="Grupo 1211618">
                    <path id="Trazado_1082356" data-name="Trazado 1082356" d="M369.72,245.237l.937,1.909a.579.579,0,0,0,1-.579l-.937-1.909a.579.579,0,0,0-1,.579Z" transform="translate(-369.648 -244.374)" fill="#23233a"/>
                  </g>
                </g>
                <g id="Grupo_1211621" data-name="Grupo 1211621" transform="translate(10.892 6.355)">
                  <g id="Grupo_1211620" data-name="Grupo 1211620">
                    <path id="Trazado_1082357" data-name="Trazado 1082357" d="M364.256,246.524l.94,1.672a.591.591,0,0,0,.8.206.582.582,0,0,0,.209-.786l-.94-1.672a.591.591,0,0,0-.8-.206.581.581,0,0,0-.209.786Z" transform="translate(-364.18 -245.66)" fill="#23233a"/>
                  </g>
                </g>
              </g>
              <g id="Grupo_1211624" data-name="Grupo 1211624" transform="translate(185.304 112.216)">
                <g id="Grupo_1211623" data-name="Grupo 1211623">
                  <path id="Trazado_1082358" data-name="Trazado 1082358" d="M330.947,208.955a79.115,79.115,0,0,0-1.576,32.131q.415,2.664,1.015,5.3c.2.86.418,1.714.631,2.57a5.063,5.063,0,0,1,.215,2.3c-.237,1.035-1.229,1.4-2.151,1.691a12.067,12.067,0,0,1-2.8.524,12.771,12.771,0,0,1-5.726-.96c-.689-.284-.99.826-.309,1.108a13.33,13.33,0,0,0,10.161.064,3.2,3.2,0,0,0,2.028-3.338,37.263,37.263,0,0,0-1.134-5.182,77.918,77.918,0,0,1,.765-35.9.582.582,0,0,0-1.121-.306Z" transform="translate(-319.865 -208.547)" fill="#23233a"/>
                </g>
              </g>
              <g id="Grupo_1211626" data-name="Grupo 1211626" transform="translate(164.325 160.264)">
                <g id="Grupo_1211625" data-name="Grupo 1211625">
                  <path id="Trazado_1082359" data-name="Trazado 1082359" d="M283.91,293.221a25.83,25.83,0,0,0,20.082,8.913,24.533,24.533,0,0,0,6.425-.99.575.575,0,0,0-.309-1.108,24.819,24.819,0,0,1-20.825-3.469,23.011,23.011,0,0,1-4.552-4.159c-.477-.57-1.3.246-.821.812Z" transform="translate(-283.767 -292.215)" fill="#23233a"/>
                </g>
              </g>
              <g id="Grupo_1211628" data-name="Grupo 1211628" transform="translate(162.107 158.661)">
                <g id="Grupo_1211627" data-name="Grupo 1211627">
                  <path id="Trazado_1082360" data-name="Trazado 1082360" d="M282.9,289.7c-.078.142-.162.282-.252.417-.045.068-.091.135-.139.2l-.066.09c-.014.018-.1.141-.018.024a4.045,4.045,0,0,1-.652.7c-.115.105-.235.2-.357.3s.1-.07-.024.018l-.09.065c-.067.047-.134.093-.2.138a6.1,6.1,0,0,1-.863.465.573.573,0,0,0-.209.786.6.6,0,0,0,.8.206,6.6,6.6,0,0,0,3.08-2.828.579.579,0,0,0-.209-.786.594.594,0,0,0-.794.206Z" transform="translate(-279.95 -289.423)" fill="#23233a"/>
                </g>
              </g>
              <path id="Trazado_1082361" data-name="Trazado 1082361" d="M269.408,198.418a21.335,21.335,0,0,1,15.256-.547c1.9.631,3.9,1.712,4.462,3.609-5.355-.345-10.8-.683-16.036.467-4.9,1.076-10.446,3.547-13.618,7.517A17.139,17.139,0,0,1,269.408,198.418Z" transform="translate(-109.266 -91.298)" fill="#23233a"/>
              <path id="Trazado_1082362" data-name="Trazado 1082362" d="M369.25,198.418a21.335,21.335,0,0,0-15.256-.547c-1.9.631-3.9,1.712-4.462,3.609,5.355-.345,10.8-.683,16.036.467,4.9,1.076,10.446,3.547,13.618,7.517A17.139,17.139,0,0,0,369.25,198.418Z" transform="translate(-146.986 -91.298)" fill="#23233a"/>
              <g id="Grupo_1211630" data-name="Grupo 1211630" transform="translate(113.852 146.22)">
                <g id="Grupo_1211629" data-name="Grupo 1211629">
                  <path id="Trazado_1082363" data-name="Trazado 1082363" d="M200.219,268.047a28,28,0,0,0-2.444,20.047.582.582,0,0,0,1.121-.305,26.782,26.782,0,0,1,2.327-19.162c.349-.653-.654-1.234-1-.579Z" transform="translate(-196.919 -267.76)" fill="#23233a"/>
                </g>
              </g>
              <g id="Grupo_1211632" data-name="Grupo 1211632" transform="translate(118.674 144.569)">
                <g id="Grupo_1211631" data-name="Grupo 1211631">
                  <path id="Trazado_1082364" data-name="Trazado 1082364" d="M205.95,265.431c-.858,6.72-1.639,13.917,1.809,20.1a.58.58,0,0,0,1-.579c-3.336-5.982-2.48-13.03-1.651-19.52.094-.732-1.069-.725-1.162,0Z" transform="translate(-205.215 -264.885)" fill="#23233a"/>
                </g>
              </g>
              <path id="Trazado_1082365" data-name="Trazado 1082365" d="M145.486,417.614c6.378,25.116,15.48,38.744,3.722,71.893l137.853-2.576s-6.85-26.861,1.807-48.547a25.352,25.352,0,0,0-12.492-10.3,168.484,168.484,0,0,0-14.655,31.364s-61.32,6.107-82.288-2.137c0,0-6.824-28.4-17.759-47.025C161.674,410.285,151.048,411.2,145.486,417.614Z" transform="translate(-61.525 -182.218)" fill="#c2df88"/>
              <path id="Trazado_1082366" data-name="Trazado 1082366" d="M41.363,487.136,27.632,522.624l-14.387-8.009c-4.7-2.618-9.619-5.3-15.009-5.6a56.988,56.988,0,0,1,9.551-20.55A11.371,11.371,0,0,1-4.6,482.78a20.369,20.369,0,0,0,20.688-4.668C24.274,480.666,34.03,482.727,41.363,487.136Z" transform="translate(1.336 -211.094)" fill="#23233a"/>
              <g id="Grupo_1211634" data-name="Grupo 1211634" transform="translate(82.141 157.447)">
                <g id="Grupo_1211633" data-name="Grupo 1211633">
                  <path id="Trazado_1082367" data-name="Trazado 1082367" d="M159.112,287.31c-7.006.1-12.145,6.556-14.608,12.417a27.476,27.476,0,0,0-.62,19.684c1.219,3.4,3.192,6.916,6.78,8.266.7.263,1-.846.309-1.108-3.016-1.135-4.741-4.213-5.814-7.045a26.218,26.218,0,0,1,4.629-26.14c2.388-2.67,5.6-4.873,9.323-4.927a.574.574,0,0,0,0-1.148Z" transform="translate(-142.354 -287.31)" fill="#23233a"/>
                </g>
              </g>
              <g id="Grupo_1211636" data-name="Grupo 1211636" transform="translate(34.643 212.989)">
                <g id="Grupo_1211635" data-name="Grupo 1211635">
                  <path id="Trazado_1082368" data-name="Trazado 1082368" d="M78.8,401.756a15.28,15.28,0,0,1-12.717-4.192,14.863,14.863,0,0,1-4.117-12.814c.121-.723-1-1.034-1.121-.306a15.828,15.828,0,0,0,11.606,18.029,16.551,16.551,0,0,0,6.658.39c.738-.1.424-1.211-.309-1.107Z" transform="translate(-60.627 -384.028)" fill="#23233a"/>
                </g>
              </g>
              <g id="Grupo_1211638" data-name="Grupo 1211638" transform="translate(124.334 216.034)">
                <g id="Grupo_1211637" data-name="Grupo 1211637">
                  <path id="Trazado_1082369" data-name="Trazado 1082369" d="M214.955,389.885a49.213,49.213,0,0,0,5.854,23.764,44.068,44.068,0,0,0,15.851,16.6c6.923,4.177,15.3,6.538,23.428,5.585,7.96-.934,14.758-5.33,19.634-11.506,5.133-6.5,7.66-14.256,9.37-22.222.225-1.05.441-2.1.656-3.153.147-.722-.973-1.03-1.121-.306-1.605,7.884-3.494,15.728-8.036,22.531-4.122,6.172-10.159,11.256-17.556,12.987-7.941,1.858-16.493.053-23.606-3.679a42.638,42.638,0,0,1-16.113-14.865,47.65,47.65,0,0,1-7.2-25.738.582.582,0,0,0-1.162,0Z" transform="translate(-214.955 -389.33)" fill="#5b5a9f"/>
                </g>
              </g>
              <g id="Grupo_1211639" data-name="Grupo 1211639" transform="translate(161.802 262.03)">
                <path id="Trazado_1082370" data-name="Trazado 1082370" d="M282.564,469.858a23.959,23.959,0,0,0-2.128,5.952,25.526,25.526,0,0,0-1,5.431,5.372,5.372,0,0,0,.649,3.107,2.606,2.606,0,0,0,2.77,1.23,2.683,2.683,0,0,0,1.72-2.07,7.771,7.771,0,0,0-.081-2.8q-.853-5.643-1.712-11.286" transform="translate(-279.426 -469.426)" fill="#5b5a9f"/>
              </g>
              <ellipse id="Elipse_14263" data-name="Elipse 14263" cx="2.029" cy="2.005" rx="2.029" ry="2.005" transform="translate(162.723 261.147)" fill="#5b5a9f"/>
              <g id="Grupo_1211641" data-name="Grupo 1211641" transform="translate(278.599 264.671)">
                <g id="Grupo_1211640" data-name="Grupo 1211640">
                  <path id="Trazado_1082371" data-name="Trazado 1082371" d="M483.921,474.41c-3.13,7.987-5.473,17.219-1.2,25.26a15.877,15.877,0,0,0,4.187,5.05c.58.455,1.408-.353.822-.812-6.662-5.228-7.08-14.395-5.124-21.936a64.023,64.023,0,0,1,2.432-7.257c.27-.69-.853-.988-1.12-.305Z" transform="translate(-480.395 -474.024)" fill="#23233a"/>
                </g>
              </g>
              <g id="Grupo_1211643" data-name="Grupo 1211643" transform="translate(307.843 252.982)">
                <g id="Grupo_1211642" data-name="Grupo 1211642">
                  <path id="Trazado_1082372" data-name="Trazado 1082372" d="M531,458.246a22.81,22.81,0,0,0,20.593-.064,20.991,20.991,0,0,0,4.98-3.537c.539-.515-.284-1.327-.822-.812a21.474,21.474,0,0,1-24.164,3.421c-.661-.345-1.25.647-.587.992Z" transform="translate(-530.714 -453.669)" fill="#23233a"/>
                </g>
              </g>
            </g>
          </g>
          <g id="Grupo_1211646" data-name="Grupo 1211646" transform="translate(15.259 87.878)">
            <path id="Trazado_1082376" data-name="Trazado 1082376" d="M489.506,183.546c5.01-2.469,13.58,5.473,8.863,9.661-1.383,1.228-2.35-.077-3.637.213-1.247.281-2.419,1.1-3.824,1.49-.8.224-9.17-.543-8.254-1.77a9.023,9.023,0,0,1-15.1-.985,14.509,14.509,0,0,1-13.9,3.871c-3.755-1-6.715-5.323-2.971-8.422,2.884-2.387,8.256-.37,11.265.6-1.188-2.318-1.65-5.305-.13-7.42s5.483-2.173,6.342.286a14.341,14.341,0,0,1-.579-6.3,5.585,5.585,0,0,1,3.96-4.54,6.039,6.039,0,0,1,3.468.469,11.051,11.051,0,0,1,6.541,11.618,5.22,5.22,0,0,1,4.968-3.351C488.65,179.158,490.416,181.612,489.506,183.546Z" transform="translate(-182.152 -170.13)" fill="#fff"/>
            <path id="Trazado_1082377" data-name="Trazado 1082377" d="M490.3,183.809c5.108-2.518,13.846,5.58,9.037,9.85-1.41,1.252-2.4-.079-3.709.217-1.271.286-2.466,1.118-3.9,1.519-.815.228-9.349-.553-8.415-1.8a9.2,9.2,0,0,1-15.391-1,14.793,14.793,0,0,1-14.173,3.946c-3.829-1.023-6.846-5.427-3.03-8.586,2.94-2.434,8.417-.377,11.485.608-1.211-2.363-1.682-5.409-.132-7.565s5.59-2.215,6.466.292a14.62,14.62,0,0,1-.59-6.427,5.694,5.694,0,0,1,4.037-4.629,6.156,6.156,0,0,1,3.536.478,11.267,11.267,0,0,1,6.669,11.845,5.322,5.322,0,0,1,5.066-3.417C489.426,179.334,491.227,181.837,490.3,183.809Z" transform="translate(-448.958 -131.756)" fill="#fff"/>
          </g>
        </g>
      </g>
    </g>
  </g>
</svg>
