<svg xmlns="http://www.w3.org/2000/svg" xmlns:xlink="http://www.w3.org/1999/xlink" width="113" height="113" viewBox="0 0 113 113">
  <defs>
    <filter id="Trazado_982547" x="0" y="0" width="113" height="113" filterUnits="userSpaceOnUse">
      <feOffset dy="3" input="SourceAlpha"/>
      <feGaussianBlur stdDeviation="3" result="blur"/>
      <feFlood flood-opacity="0.161"/>
      <feComposite operator="in" in2="blur"/>
      <feComposite in="SourceGraphic"/>
    </filter>
  </defs>
  <g id="Grupo_1212328" data-name="Grupo 1212328" transform="translate(-325 -7539.643)">
    <g id="Grupo_1209992" data-name="Grupo 1209992" transform="translate(0 10.835)">
      <g id="Grupo_1208705" data-name="Grupo 1208705" transform="translate(-1.454 3213.429)">
        <g id="Grupo_1148633" data-name="Grupo 1148633" transform="translate(71.408 600.047)">
          <g id="Grupo_1148525" data-name="Grupo 1148525" transform="translate(264.046 3721.333)">
            <g transform="matrix(1, 0, 0, 1, -9, -6)" filter="url(#Trazado_982547)">
              <g id="Trazado_982547-2" data-name="Trazado 982547" transform="translate(9 6)" fill="#e4f1d4">
                <path d="M 47.5 93.5 C 41.28937149047852 93.5 35.26533508300781 92.28397369384766 29.59518623352051 89.88570404052734 C 24.11771965026855 87.56893157958984 19.19813346862793 84.25196075439453 14.97309303283691 80.02691650390625 C 10.74804019927979 75.80186462402344 7.431066513061523 70.88229370117188 5.114293098449707 65.40481567382812 C 2.716026782989502 59.73468017578125 1.5 53.71062850952148 1.5 47.5 C 1.5 41.28937149047852 2.716026782989502 35.26533508300781 5.114293098449707 29.59518623352051 C 7.431066513061523 24.11771965026855 10.74804019927979 19.19813346862793 14.97309303283691 14.97309303283691 C 19.19813346862793 10.74804019927979 24.11771965026855 7.431066513061523 29.59518623352051 5.114293098449707 C 35.26533508300781 2.716026782989502 41.28937149047852 1.5 47.5 1.5 C 53.71062850952148 1.5 59.73468017578125 2.716026782989502 65.40481567382812 5.114293098449707 C 70.88229370117188 7.431066513061523 75.80186462402344 10.74804019927979 80.02691650390625 14.97309303283691 C 84.25196075439453 19.19813346862793 87.56893157958984 24.11771965026855 89.88570404052734 29.59518623352051 C 92.28397369384766 35.26533508300781 93.5 41.28937149047852 93.5 47.5 C 93.5 53.71062850952148 92.28397369384766 59.73468017578125 89.88570404052734 65.40481567382812 C 87.56893157958984 70.88229370117188 84.25196075439453 75.80186462402344 80.02691650390625 80.02691650390625 C 75.80186462402344 84.25196075439453 70.88229370117188 87.56893157958984 65.40481567382812 89.88570404052734 C 59.73468017578125 92.28397369384766 53.71062850952148 93.5 47.5 93.5 Z" stroke="none"/>
                <path d="M 47.5 3 C 41.49121475219727 3 35.66376876831055 4.176155090332031 30.17950439453125 6.495796203613281 C 24.88084411621094 8.736953735351562 20.12152099609375 11.94598388671875 16.03375244140625 16.03375244140625 C 11.94598388671875 20.12152099609375 8.736953735351562 24.88084411621094 6.495796203613281 30.17950439453125 C 4.176155090332031 35.66376876831055 3 41.49121475219727 3 47.5 C 3 53.50878524780273 4.176155090332031 59.33623123168945 6.495796203613281 64.82049560546875 C 8.736953735351562 70.11915588378906 11.94598388671875 74.87847900390625 16.03375244140625 78.96624755859375 C 20.12152099609375 83.05401611328125 24.88084411621094 86.26304626464844 30.17950439453125 88.50419616699219 C 35.66376876831055 90.82384490966797 41.49121475219727 92 47.5 92 C 53.50878524780273 92 59.33623123168945 90.82384490966797 64.82049560546875 88.50419616699219 C 70.11915588378906 86.26304626464844 74.87847900390625 83.05401611328125 78.96624755859375 78.96624755859375 C 83.05401611328125 74.87847900390625 86.26304626464844 70.11915588378906 88.50419616699219 64.82049560546875 C 90.82384490966797 59.33623123168945 92 53.50878524780273 92 47.5 C 92 41.49121475219727 90.82384490966797 35.66376876831055 88.50419616699219 30.17950439453125 C 86.26304626464844 24.88084411621094 83.05401611328125 20.12152099609375 78.96624755859375 16.03375244140625 C 74.87847900390625 11.94598388671875 70.11915588378906 8.736953735351562 64.82049560546875 6.495796203613281 C 59.33623123168945 4.176155090332031 53.50878524780273 3 47.5 3 M 47.5 0 C 73.7335205078125 0 95 21.2664794921875 95 47.5 C 95 73.7335205078125 73.7335205078125 95 47.5 95 C 21.2664794921875 95 0 73.7335205078125 0 47.5 C 0 21.2664794921875 21.2664794921875 0 47.5 0 Z" stroke="none" fill="#a9d373"/>
              </g>
            </g>
          </g>
        </g>
      </g>
    </g>
    <g id="proceso" transform="translate(328.875 7562.127)">
      <g id="Grupo_1212325" data-name="Grupo 1212325" transform="translate(25.511 0.858)">
        <path id="Trazado_1083280" data-name="Trazado 1083280" d="M49.24,68.229V62.636H47.517a7.8,7.8,0,0,1-7.763-7.083l-.786-8.571-4.864-1.1a2.568,2.568,0,0,1-1.762-3.592L38.2,29.767c0-12.544,10.774-22.713,24.064-22.713S86.327,17.223,86.327,29.767V33.86a30.9,30.9,0,0,1-6.851,19.31l-6.031,7.546v7.512Z" transform="translate(-32.1 -7.054)" fill="#ffe5c2"/>
        <path id="Trazado_1083281" data-name="Trazado 1083281" d="M137.774,68.1l2.61-2.89,5.5,2.28-.2,3.889,3.318,3.318,3.889-.2,2.28,5.5-2.89,2.61V87.3l2.89,2.61-2.28,5.5-3.889-.2-3.318,3.318.2,3.889-5.5,2.28-2.61-2.89h-4.693l-2.61,2.89-5.5-2.28.2-3.889-3.318-3.318-3.889.2-2.28-5.5,2.89-2.61V82.608L115.68,80l2.28-5.5,3.889.2,3.318-3.318-.2-3.889,5.5-2.28,2.61,2.89Z" transform="translate(-105.518 -58.136)" fill="#fff"/>
        <path id="Trazado_1083282" data-name="Trazado 1083282" d="M128.813,108.961l.08-6.914-5.611-5.611-2.937.15-.309-.747,2.183-1.971V85.933l-2.183-1.971.309-.747,2.937.15,5.611-5.611-.073-6.917-3.851,1.6.2,3.889L121.85,79.64l-3.889-.2-2.28,5.5,2.89,2.61v4.693l-2.89,2.61,2.28,5.5,3.889-.2,3.318,3.318-.2,3.889,3.844,1.592Z" transform="translate(-105.519 -63.082)" fill="#e3e9ee"/>
        <path id="Trazado_1083283" data-name="Trazado 1083283" d="M49.584,58.99c-4.029,0-6.179-1.247-6.547-5.26l-1.029-8.935-4.864-1.1c-1.6-.36-1.726-.648-1.032-2.133l5.126-11.8C41.239,17.706,51.2,7.842,63.783,7.1c-.5-.03-1.009-.046-1.52-.046C48.973,7.055,38.2,17.224,38.2,29.768L32.344,42.3a2.568,2.568,0,0,0,1.762,3.592l4.864,1.1.786,8.571a7.8,7.8,0,0,0,7.763,7.083H49.24V68.23h3.04V58.99Z" transform="translate(-32.101 -7.055)" fill="#fed2a4"/>
      </g>
      <g id="Grupo_1212326" data-name="Grupo 1212326" transform="translate(24.599 0)">
        <path id="Trazado_1083284" data-name="Trazado 1083284" d="M364.65,483.829h1.824v3.206H364.65Z" transform="translate(-323.305 -425.003)"/>
        <path id="Trazado_1083285" data-name="Trazado 1083285" d="M148.885,6.847C138.3-3.53,119.093-1.881,110.628,10.229L112.1,11.3C119.954.07,137.823-1.45,147.633,8.174a21.039,21.039,0,0,1,6.762,15.4v4.093c-.04,11.757-5.943,17.956-12.882,26.537V57h1.824V54.841c7.2-8.783,12.806-15.184,12.882-27.176,0,0,0-4.092,0-4.092a22.846,22.846,0,0,0-7.334-16.725Z" transform="translate(-100.168 0)"/>
        <path id="Trazado_1083286" data-name="Trazado 1083286" d="M138.753,91.025,141.5,88.28l4.127.211L148.4,81.8l-3.067-2.769V75.147l3.067-2.769-2.772-6.693L141.5,65.9l-2.745-2.745.211-4.127-6.693-2.772L129.5,59.318H125.62l-2.769-3.067-6.693,2.772.211,4.127L113.623,65.9l-4.127-.211-2.772,6.693,3.067,2.769v3.882L106.724,81.8l2.772,6.693,4.127-.211,2.745,2.745-.211,4.127,6.693,2.772,2.769-3.067H129.5l2.769,3.067,6.693-2.772Zm-5.991,4.722-2.45-2.714h-5.5l-2.45,2.714-4.314-1.787.187-3.651-3.891-3.891-3.651.187L108.9,82.289l2.714-2.45v-5.5l-2.714-2.45,1.787-4.314,3.651.187,3.891-3.891-.187-3.651,4.314-1.787,2.45,2.714h5.5l2.45-2.714,4.314,1.787-.187,3.651,3.891,3.891,3.651-.187,1.787,4.314-2.714,2.45v5.5l2.714,2.45L144.433,86.6l-3.651-.187-3.891,3.891.187,3.651Z" transform="translate(-96.739 -49.412)"/>
        <path id="Trazado_1083287" data-name="Trazado 1083287" d="M42.651,143.138H40.928a6.852,6.852,0,0,1-6.855-6.255l-.846-9.231-5.511-1.243a1.655,1.655,0,0,1-1.136-2.316l5.94-12.71a20.845,20.845,0,0,1,2.871-10.725l-1.573-.922a22.663,22.663,0,0,0-3.12,11.24l-5.769,12.345a3.479,3.479,0,0,0,2.387,4.868l4.216.951.725,7.91a8.78,8.78,0,0,0,9.482,7.912v4.68h1.824v-4.68H54.809v-1.824H42.651Z" transform="translate(-24.599 -87.61)"/>
        <path id="Trazado_1083288" data-name="Trazado 1083288" d="M191.685,146.828l-.5-1.753-3.517,1.009a8.843,8.843,0,0,1,15.5,1.6l1.69-.684a10.672,10.672,0,0,0-18.683-1.966l-.931-3.245-1.753.5,1.826,6.367Z" transform="translate(-164.173 -123.31)"/>
        <path id="Trazado_1083289" data-name="Trazado 1083289" d="M216.362,254.222l1.753-.5-1.826-6.367-6.367,1.826.5,1.753,3.517-1.009a8.843,8.843,0,0,1-15.5-1.6l-1.691.684a10.672,10.672,0,0,0,18.683,1.966Z" transform="translate(-175.817 -217.278)"/>
      </g>
      <g id="Grupo_1212327" data-name="Grupo 1212327" transform="translate(52.929 50.494)">
        <path id="Trazado_1083290" data-name="Trazado 1083290" d="M257.6,415.3h1.824v1.824H257.6Z" transform="translate(-257.601 -415.3)" fill="#fff"/>
        <path id="Trazado_1083291" data-name="Trazado 1083291" d="M287.6,415.3h1.824v1.824H287.6Z" transform="translate(-283.953 -415.3)" fill="#fff"/>
      </g>
    </g>
  </g>
</svg>
