<svg xmlns="http://www.w3.org/2000/svg" xmlns:xlink="http://www.w3.org/1999/xlink" width="113" height="113" viewBox="0 0 113 113">
  <defs>
    <filter id="Trazado_982547" x="0" y="0" width="113" height="113" filterUnits="userSpaceOnUse">
      <feOffset dy="3" input="SourceAlpha"/>
      <feGaussianBlur stdDeviation="3" result="blur"/>
      <feFlood flood-opacity="0.161"/>
      <feComposite operator="in" in2="blur"/>
      <feComposite in="SourceGraphic"/>
    </filter>
  </defs>
  <g id="Grupo_1212336" data-name="Grupo 1212336" transform="translate(-742.046 -7539.643)">
    <g id="Grupo_1209993" data-name="Grupo 1209993" transform="translate(0 10.835)">
      <g id="Grupo_1208706" data-name="Grupo 1208706" transform="translate(-1.454 3213.429)">
        <g id="Grupo_1148634" data-name="Grupo 1148634" transform="translate(488.454 600.047)">
          <g id="Grupo_1148525" data-name="Grupo 1148525" transform="translate(264.046 3721.333)">
            <g transform="matrix(1, 0, 0, 1, -9, -6)" filter="url(#Trazado_982547)">
              <g id="Trazado_982547-2" data-name="Trazado 982547" transform="translate(9 6)" fill="#e4f1d4">
                <path d="M 47.5 93.5 C 41.28937149047852 93.5 35.26533508300781 92.28397369384766 29.59518623352051 89.88570404052734 C 24.11771965026855 87.56893157958984 19.19813346862793 84.25196075439453 14.97309303283691 80.02691650390625 C 10.74804019927979 75.80186462402344 7.431066513061523 70.88229370117188 5.114293098449707 65.40481567382812 C 2.716026782989502 59.73468017578125 1.5 53.71062850952148 1.5 47.5 C 1.5 41.28937149047852 2.716026782989502 35.26533508300781 5.114293098449707 29.59518623352051 C 7.431066513061523 24.11771965026855 10.74804019927979 19.19813346862793 14.97309303283691 14.97309303283691 C 19.19813346862793 10.74804019927979 24.11771965026855 7.431066513061523 29.59518623352051 5.114293098449707 C 35.26533508300781 2.716026782989502 41.28937149047852 1.5 47.5 1.5 C 53.71062850952148 1.5 59.73468017578125 2.716026782989502 65.40481567382812 5.114293098449707 C 70.88229370117188 7.431066513061523 75.80186462402344 10.74804019927979 80.02691650390625 14.97309303283691 C 84.25196075439453 19.19813346862793 87.56893157958984 24.11771965026855 89.88570404052734 29.59518623352051 C 92.28397369384766 35.26533508300781 93.5 41.28937149047852 93.5 47.5 C 93.5 53.71062850952148 92.28397369384766 59.73468017578125 89.88570404052734 65.40481567382812 C 87.56893157958984 70.88229370117188 84.25196075439453 75.80186462402344 80.02691650390625 80.02691650390625 C 75.80186462402344 84.25196075439453 70.88229370117188 87.56893157958984 65.40481567382812 89.88570404052734 C 59.73468017578125 92.28397369384766 53.71062850952148 93.5 47.5 93.5 Z" stroke="none"/>
                <path d="M 47.5 3 C 41.49121475219727 3 35.66376876831055 4.176155090332031 30.17950439453125 6.495796203613281 C 24.88084411621094 8.736953735351562 20.12152099609375 11.94598388671875 16.03375244140625 16.03375244140625 C 11.94598388671875 20.12152099609375 8.736953735351562 24.88084411621094 6.495796203613281 30.17950439453125 C 4.176155090332031 35.66376876831055 3 41.49121475219727 3 47.5 C 3 53.50878524780273 4.176155090332031 59.33623123168945 6.495796203613281 64.82049560546875 C 8.736953735351562 70.11915588378906 11.94598388671875 74.87847900390625 16.03375244140625 78.96624755859375 C 20.12152099609375 83.05401611328125 24.88084411621094 86.26304626464844 30.17950439453125 88.50419616699219 C 35.66376876831055 90.82384490966797 41.49121475219727 92 47.5 92 C 53.50878524780273 92 59.33623123168945 90.82384490966797 64.82049560546875 88.50419616699219 C 70.11915588378906 86.26304626464844 74.87847900390625 83.05401611328125 78.96624755859375 78.96624755859375 C 83.05401611328125 74.87847900390625 86.26304626464844 70.11915588378906 88.50419616699219 64.82049560546875 C 90.82384490966797 59.33623123168945 92 53.50878524780273 92 47.5 C 92 41.49121475219727 90.82384490966797 35.66376876831055 88.50419616699219 30.17950439453125 C 86.26304626464844 24.88084411621094 83.05401611328125 20.12152099609375 78.96624755859375 16.03375244140625 C 74.87847900390625 11.94598388671875 70.11915588378906 8.736953735351562 64.82049560546875 6.495796203613281 C 59.33623123168945 4.176155090332031 53.50878524780273 3 47.5 3 M 47.5 0 C 73.7335205078125 0 95 21.2664794921875 95 47.5 C 95 73.7335205078125 73.7335205078125 95 47.5 95 C 21.2664794921875 95 0 73.7335205078125 0 47.5 C 0 21.2664794921875 21.2664794921875 0 47.5 0 Z" stroke="none" fill="#a9d373"/>
              </g>
            </g>
          </g>
        </g>
      </g>
    </g>
    <g id="psicologia_2_" data-name="psicologia (2)" transform="translate(759.87 7563.288)">
      <g id="Grupo_1212334" data-name="Grupo 1212334" transform="translate(1.133 1.138)">
        <g id="Grupo_1212331" data-name="Grupo 1212331" transform="translate(13.1)">
          <g id="Grupo_1212329" data-name="Grupo 1212329" transform="translate(5.909)">
            <path id="Trazado_1083292" data-name="Trazado 1083292" d="M164.5,13.96l-3.554,2.052a14.016,14.016,0,0,0-4.184-2.414v-4.1A1.99,1.99,0,0,0,154.767,7.5h-5.817a1.992,1.992,0,0,0-1.992,1.99v4.1a14.135,14.135,0,0,0-4.189,2.412L139.22,13.96a1.991,1.991,0,0,0-2.72.73l-2.909,5.038a1.991,1.991,0,0,0,.73,2.72l3.548,2.05a14.189,14.189,0,0,0,0,4.833l-3.554,2.052a1.992,1.992,0,0,0-.728,2.72L136.5,39.14a1.992,1.992,0,0,0,2.72.73l3.554-2.052a14.054,14.054,0,0,0,4.185,2.416v4.1a1.991,1.991,0,0,0,1.99,1.992h5.818a1.992,1.992,0,0,0,1.991-1.992v-4.1a14.179,14.179,0,0,0,4.188-2.414l3.549,2.049a1.991,1.991,0,0,0,2.72-.728l2.908-5.039a1.99,1.99,0,0,0-.728-2.72l-3.549-2.049a14.128,14.128,0,0,0,0-4.833l3.554-2.052a1.991,1.991,0,0,0,.728-2.72l-2.908-5.038a1.991,1.991,0,0,0-2.719-.73Zm-5.423,17.121A8.331,8.331,0,1,1,156.024,19.7a8.331,8.331,0,0,1,3.049,11.381Z" transform="translate(-133.325 -7.502)" fill="#685e68"/>
          </g>
          <path id="Trazado_1083293" data-name="Trazado 1083293" d="M124.75,170.807V152.181h39.658V163.4" transform="translate(-120.136 -130.323)" fill="#ffc344"/>
          <path id="Trazado_1083294" data-name="Trazado 1083294" d="M191.174,425.637H163.1a14.034,14.034,0,0,1,28.069,0Z" transform="translate(-152.697 -350.552)" fill="#9be69d"/>
          <path id="Trazado_1083295" data-name="Trazado 1083295" d="M180.861,412.1a14.038,14.038,0,0,0-10.316,13.535h-7.441A14.047,14.047,0,0,1,180.861,412.1Z" transform="translate(-152.697 -350.552)" fill="#6fd7a3"/>
          <path id="Trazado_1083296" data-name="Trazado 1083296" d="M143.1,187.787c0,3.458-2.065,6.261-4.614,6.261a3.976,3.976,0,0,1-3.011-1.52,16.987,16.987,0,0,1-10.745,13.582c-.476.183-.964.344-1.459.485v2.559a4.614,4.614,0,0,1-9.228,0v-2.559a16.988,16.988,0,0,1-12.2-14.067,3.976,3.976,0,0,1-3.011,1.52c-2.549,0-4.614-2.8-4.614-6.261s2.065-6.261,4.614-6.261a3.914,3.914,0,0,1,2.86,1.351c7-1.305,9.513-9.344,9.513-9.344s5.406,9.364,23.95,4.9a16.9,16.9,0,0,1,.474,3.994v.453a3.914,3.914,0,0,1,2.86-1.351C141.03,181.526,143.1,184.329,143.1,187.787Z" transform="translate(-94.21 -148.449)" fill="#ffdfcf"/>
          <path id="Trazado_1083297" data-name="Trazado 1083297" d="M124.726,251.026c-.476.183-.964.344-1.459.485v2.559a4.614,4.614,0,0,1-9.228,0v-2.559a16.988,16.988,0,0,1-12.2-14.067,3.976,3.976,0,0,1-3.011,1.52c-2.549,0-4.614-2.8-4.614-6.261s2.065-6.261,4.614-6.261a3.914,3.914,0,0,1,2.86,1.351,10.029,10.029,0,0,0,2.766-.947c-.006,1.2-.009,2.018-.009,2.239,0,11.6,8.435,21,18.839,21A1.815,1.815,0,0,1,124.726,251.026Z" transform="translate(-94.21 -193.366)" fill="#ffcebf"/>
          <g id="Grupo_1212330" data-name="Grupo 1212330" transform="translate(2.929 37.168)">
            <path id="Trazado_1083298" data-name="Trazado 1083298" d="M378.9,256.84a4.83,4.83,0,0,1,2.211-3.316,3.5,3.5,0,0,1,.3,3.718C380.269,259.05,378.9,256.84,378.9,256.84Z" transform="translate(-338.819 -253.524)" fill="#ffcebf"/>
            <path id="Trazado_1083299" data-name="Trazado 1083299" d="M116.543,256.84a4.83,4.83,0,0,0-2.211-3.316,3.5,3.5,0,0,0-.3,3.718C115.174,259.05,116.543,256.84,116.543,256.84Z" transform="translate(-113.596 -253.524)" fill="#ffb09e"/>
          </g>
        </g>
        <g id="Grupo_1212332" data-name="Grupo 1212332" transform="translate(52.432 17.126)">
          <circle id="Elipse_14294" data-name="Elipse 14294" cx="11.327" cy="11.327" r="11.327" transform="translate(0 0.001)" fill="#fef056"/>
          <path id="Trazado_1083300" data-name="Trazado 1083300" d="M368.825,143.13a11.327,11.327,0,1,1,0-21.881,11.33,11.33,0,0,0,0,21.881Z" transform="translate(-354.553 -120.863)" fill="#fedf30"/>
        </g>
        <g id="Grupo_1212333" data-name="Grupo 1212333" transform="translate(0 17.126)">
          <circle id="Elipse_14295" data-name="Elipse 14295" cx="11.327" cy="11.327" r="11.327" transform="translate(0 0.001)" fill="#fe646f"/>
          <path id="Trazado_1083301" data-name="Trazado 1083301" d="M21.772,143.13a11.327,11.327,0,1,1,0-21.881,11.33,11.33,0,0,0,0,21.881Z" transform="translate(-7.5 -120.863)" fill="#fd4755"/>
        </g>
      </g>
      <g id="Grupo_1212335" data-name="Grupo 1212335" transform="translate(0 0.005)">
        <path id="Trazado_1083302" data-name="Trazado 1083302" d="M223.51,241.068a1.133,1.133,0,0,0-2.266,0v2.982a1.133,1.133,0,0,0,2.266,0Z" transform="translate(-187.819 -203.687)"/>
        <path id="Trazado_1083303" data-name="Trazado 1083303" d="M278.022,244.051v-2.982a1.133,1.133,0,1,0-2.266,0v2.982a1.133,1.133,0,1,0,2.266,0Z" transform="translate(-234.095 -203.688)"/>
        <path id="Trazado_1083304" data-name="Trazado 1083304" d="M233.9,314.04h4.754a1.133,1.133,0,0,0,0-2.266H233.9a1.133,1.133,0,0,0,0,2.266Z" transform="translate(-197.599 -264.673)"/>
        <path id="Trazado_1083305" data-name="Trazado 1083305" d="M66.025,17.186V13.374a3.583,3.583,0,0,0-3.579-3.579H56.19L55.015,7.759a3.129,3.129,0,0,0-4.268-1.145L47.859,8.282a15.015,15.015,0,0,0-3.151-1.819V3.128A3.126,3.126,0,0,0,41.586,0H35.768a3.127,3.127,0,0,0-3.124,3.123V6.462A15.263,15.263,0,0,0,29.488,8.28L26.6,6.613a3.13,3.13,0,0,0-4.266,1.145L21.161,9.795H14.906a3.583,3.583,0,0,0-3.579,3.579v3.811A12.465,12.465,0,0,0,1.135,34.8a1.133,1.133,0,0,0,2.059-.946,10.208,10.208,0,1,1,2.944,3.738A1.133,1.133,0,1,0,4.73,39.364a12.322,12.322,0,0,0,7.729,2.688c.258,0,.514-.01.768-.026.552,3.359,2.861,5.844,5.62,5.844a4.7,4.7,0,0,0,2.25-.582A18.067,18.067,0,0,0,32.929,60.12v1.723c0,.114,0,.226.011.338a15.156,15.156,0,0,0-9.431,14.041,1.133,1.133,0,0,0,1.133,1.133H52.71a1.133,1.133,0,0,0,1.133-1.133A15.066,15.066,0,0,0,49.4,65.5a15.276,15.276,0,0,0-4.988-3.319c.006-.112.011-.224.011-.336V60.12q.372-.125.733-.263a18.2,18.2,0,0,0,2.419-1.141,1.133,1.133,0,0,0-1.116-1.972,15.9,15.9,0,0,1-2.116,1c-.438.168-.9.321-1.362.453a1.133,1.133,0,0,0-.824,1.09v2.559a3.481,3.481,0,0,1-6.962,0V59.284a1.133,1.133,0,0,0-.825-1.09A15.8,15.8,0,0,1,22.981,45.067,1.133,1.133,0,0,0,21,44.481,2.887,2.887,0,0,1,18.847,45.6c-1.6,0-3-1.689-3.38-3.921a12.381,12.381,0,0,0,3.044-1.2,4.589,4.589,0,0,1,.476,1.312,1.133,1.133,0,0,0,1.119.966,1.145,1.145,0,0,0,.169-.013,1.133,1.133,0,0,0,.953-1.288,6.628,6.628,0,0,0-.84-2.259,12.561,12.561,0,0,0,2.458-2.733c4.864-1.339,7.525-5.572,8.7-8.053a15.026,15.026,0,0,0,3.887,2.8C41.021,34.06,47.8,33.7,52.845,32.772A12.485,12.485,0,0,0,56.963,39.2a6.632,6.632,0,0,0-.84,2.259,1.133,1.133,0,0,0,2.24.34,4.584,4.584,0,0,1,.477-1.317,12.375,12.375,0,0,0,3.044,1.2c-.377,2.232-1.776,3.921-3.38,3.921a2.888,2.888,0,0,1-2.149-1.122,1.133,1.133,0,0,0-1.985.585,15.712,15.712,0,0,1-4.056,8.62,1.133,1.133,0,0,0,1.665,1.537,17.975,17.975,0,0,0,4.275-7.936,4.7,4.7,0,0,0,2.25.582c2.759,0,5.068-2.485,5.62-5.844.254.016.509.026.767.026a12.459,12.459,0,0,0,1.133-24.866ZM38.676,67.59a5.748,5.748,0,0,0,5.152-3.2A13,13,0,0,1,47.8,67.1a12.8,12.8,0,0,1,3.73,7.989h-25.7a12.891,12.891,0,0,1,7.7-10.7,5.754,5.754,0,0,0,5.149,3.2Zm23.77-55.529a1.315,1.315,0,0,1,1.313,1.313v3.812a12.449,12.449,0,0,0-8.629,4.677H53.946a15.291,15.291,0,0,0-.053-3.132l2.888-1.667A3.127,3.127,0,0,0,57.924,12.8l-.425-.736h4.947ZM24.3,8.892a.86.86,0,0,1,1.171-.315l3.549,2.05a1.133,1.133,0,0,0,1.292-.111,13.016,13.016,0,0,1,3.855-2.221,1.133,1.133,0,0,0,.742-1.064v-4.1a.858.858,0,0,1,.858-.857h5.818a.858.858,0,0,1,.857.857v4.1A1.133,1.133,0,0,0,43.184,8.3a12.887,12.887,0,0,1,3.851,2.223,1.133,1.133,0,0,0,1.292.11l3.552-2.052a.86.86,0,0,1,1.173.314l2.91,5.039a.859.859,0,0,1-.314,1.171l-3.553,2.052a1.133,1.133,0,0,0-.55,1.174,13.08,13.08,0,0,1,.125,3.536H48.05a9.432,9.432,0,0,0-.9-5.52,1.133,1.133,0,0,0-2.03,1.007,7.174,7.174,0,0,1,.632,4.513H31.6A7.2,7.2,0,0,1,42,14.169a1.133,1.133,0,1,0,1.05-2.008,9.46,9.46,0,0,0-13.748,9.7h-3.62a12.948,12.948,0,0,1,.118-3.538,1.133,1.133,0,0,0-.55-1.174L21.7,15.1a.857.857,0,0,1-.315-1.171ZM13.593,17.186V13.374a1.315,1.315,0,0,1,1.313-1.313h4.946l-.425.736a3.123,3.123,0,0,0,1.144,4.267l2.883,1.664a15.2,15.2,0,0,0-.047,3.135H22.223a12.451,12.451,0,0,0-8.63-4.677ZM36.621,29.269A11.047,11.047,0,0,1,32.2,25.655a1.134,1.134,0,0,0-2.062.227c-.019.06-1.675,5.152-5.819,7.526a12.433,12.433,0,0,0-.664-9.279H53.7a12.383,12.383,0,0,0-1.264,5.463c0,.318.016.632.039.944-7.956,1.481-12.994.151-15.851-1.267ZM64.892,39.785A10.194,10.194,0,1,1,75.086,29.592,10.205,10.205,0,0,1,64.892,39.785Z" transform="translate(0 -0.005)"/>
        <path id="Trazado_1083306" data-name="Trazado 1083306" d="M391.63,188.343a1.133,1.133,0,0,0-1.133,1.133,5.693,5.693,0,0,1-11.385,0,1.133,1.133,0,1,0-2.266,0,7.959,7.959,0,0,0,15.918,0A1.133,1.133,0,0,0,391.63,188.343Z" transform="translate(-319.913 -159.889)"/>
        <path id="Trazado_1083307" data-name="Trazado 1083307" d="M403.663,164.256a1.133,1.133,0,0,0,1.133-1.133v-2.982a1.133,1.133,0,0,0-2.266,0v2.982A1.133,1.133,0,0,0,403.663,164.256Z" transform="translate(-341.717 -134.986)"/>
        <path id="Trazado_1083308" data-name="Trazado 1083308" d="M442.656,164.256a1.133,1.133,0,0,0,1.133-1.133v-2.982a1.133,1.133,0,0,0-2.266,0v2.982A1.133,1.133,0,0,0,442.656,164.256Z" transform="translate(-374.819 -134.986)"/>
        <path id="Trazado_1083309" data-name="Trazado 1083309" d="M44.176,201.32a1.133,1.133,0,1,0,2.266,0,3.52,3.52,0,0,1,7.039,0,1.133,1.133,0,1,0,2.266,0,5.786,5.786,0,0,0-11.572,0Z" transform="translate(-37.502 -165.994)"/>
        <path id="Trazado_1083310" data-name="Trazado 1083310" d="M57.743,163.123v-2.982a1.133,1.133,0,1,0-2.266,0v2.982a1.133,1.133,0,1,0,2.266,0Z" transform="translate(-47.096 -134.986)"/>
        <path id="Trazado_1083311" data-name="Trazado 1083311" d="M96.736,163.123v-2.982a1.133,1.133,0,1,0-2.266,0v2.982a1.133,1.133,0,1,0,2.266,0Z" transform="translate(-80.198 -134.986)"/>
      </g>
    </g>
  </g>
</svg>
