<svg xmlns="http://www.w3.org/2000/svg" xmlns:xlink="http://www.w3.org/1999/xlink" width="113" height="113" viewBox="0 0 113 113">
  <defs>
    <filter id="Trazado_982547" x="0" y="0" width="113" height="113" filterUnits="userSpaceOnUse">
      <feOffset dy="3" input="SourceAlpha"/>
      <feGaussianBlur stdDeviation="3" result="blur"/>
      <feFlood flood-opacity="0.161"/>
      <feComposite operator="in" in2="blur"/>
      <feComposite in="SourceGraphic"/>
    </filter>
  </defs>
  <g id="Grupo_1212339" data-name="Grupo 1212339" transform="translate(-1163 -7540)">
    <g id="Grupo_1209994" data-name="Grupo 1209994" transform="translate(0.5 11.192)">
      <g id="Grupo_1208707" data-name="Grupo 1208707" transform="translate(-1.454 3213.429)">
        <g id="Grupo_1148635" data-name="Grupo 1148635" transform="translate(908.908 600.047)">
          <g id="Grupo_1148525" data-name="Grupo 1148525" transform="translate(264.046 3721.333)">
            <g transform="matrix(1, 0, 0, 1, -9, -6)" filter="url(#Trazado_982547)">
              <g id="Trazado_982547-2" data-name="Trazado 982547" transform="translate(9 6)" fill="#e4f1d4">
                <path d="M 47.5 93.5 C 41.28937149047852 93.5 35.26533508300781 92.28397369384766 29.59518623352051 89.88570404052734 C 24.11771965026855 87.56893157958984 19.19813346862793 84.25196075439453 14.97309303283691 80.02691650390625 C 10.74804019927979 75.80186462402344 7.431066513061523 70.88229370117188 5.114293098449707 65.40481567382812 C 2.716026782989502 59.73468017578125 1.5 53.71062850952148 1.5 47.5 C 1.5 41.28937149047852 2.716026782989502 35.26533508300781 5.114293098449707 29.59518623352051 C 7.431066513061523 24.11771965026855 10.74804019927979 19.19813346862793 14.97309303283691 14.97309303283691 C 19.19813346862793 10.74804019927979 24.11771965026855 7.431066513061523 29.59518623352051 5.114293098449707 C 35.26533508300781 2.716026782989502 41.28937149047852 1.5 47.5 1.5 C 53.71062850952148 1.5 59.73468017578125 2.716026782989502 65.40481567382812 5.114293098449707 C 70.88229370117188 7.431066513061523 75.80186462402344 10.74804019927979 80.02691650390625 14.97309303283691 C 84.25196075439453 19.19813346862793 87.56893157958984 24.11771965026855 89.88570404052734 29.59518623352051 C 92.28397369384766 35.26533508300781 93.5 41.28937149047852 93.5 47.5 C 93.5 53.71062850952148 92.28397369384766 59.73468017578125 89.88570404052734 65.40481567382812 C 87.56893157958984 70.88229370117188 84.25196075439453 75.80186462402344 80.02691650390625 80.02691650390625 C 75.80186462402344 84.25196075439453 70.88229370117188 87.56893157958984 65.40481567382812 89.88570404052734 C 59.73468017578125 92.28397369384766 53.71062850952148 93.5 47.5 93.5 Z" stroke="none"/>
                <path d="M 47.5 3 C 41.49121475219727 3 35.66376876831055 4.176155090332031 30.17950439453125 6.495796203613281 C 24.88084411621094 8.736953735351562 20.12152099609375 11.94598388671875 16.03375244140625 16.03375244140625 C 11.94598388671875 20.12152099609375 8.736953735351562 24.88084411621094 6.495796203613281 30.17950439453125 C 4.176155090332031 35.66376876831055 3 41.49121475219727 3 47.5 C 3 53.50878524780273 4.176155090332031 59.33623123168945 6.495796203613281 64.82049560546875 C 8.736953735351562 70.11915588378906 11.94598388671875 74.87847900390625 16.03375244140625 78.96624755859375 C 20.12152099609375 83.05401611328125 24.88084411621094 86.26304626464844 30.17950439453125 88.50419616699219 C 35.66376876831055 90.82384490966797 41.49121475219727 92 47.5 92 C 53.50878524780273 92 59.33623123168945 90.82384490966797 64.82049560546875 88.50419616699219 C 70.11915588378906 86.26304626464844 74.87847900390625 83.05401611328125 78.96624755859375 78.96624755859375 C 83.05401611328125 74.87847900390625 86.26304626464844 70.11915588378906 88.50419616699219 64.82049560546875 C 90.82384490966797 59.33623123168945 92 53.50878524780273 92 47.5 C 92 41.49121475219727 90.82384490966797 35.66376876831055 88.50419616699219 30.17950439453125 C 86.26304626464844 24.88084411621094 83.05401611328125 20.12152099609375 78.96624755859375 16.03375244140625 C 74.87847900390625 11.94598388671875 70.11915588378906 8.736953735351562 64.82049560546875 6.495796203613281 C 59.33623123168945 4.176155090332031 53.50878524780273 3 47.5 3 M 47.5 0 C 73.7335205078125 0 95 21.2664794921875 95 47.5 C 95 73.7335205078125 73.7335205078125 95 47.5 95 C 21.2664794921875 95 0 73.7335205078125 0 47.5 C 0 21.2664794921875 21.2664794921875 0 47.5 0 Z" stroke="none" fill="#a9d373"/>
              </g>
            </g>
          </g>
        </g>
      </g>
    </g>
    <g id="corazon" transform="translate(1186 7541.858)">
      <g id="Grupo_1212337" data-name="Grupo 1212337" transform="translate(0.958 25.086)">
        <path id="Trazado_1083312" data-name="Trazado 1083312" d="M238.759,56.951a11.247,11.247,0,0,0-6.182-10.038,8.185,8.185,0,0,0-14.5-4.334,8.188,8.188,0,0,0-12.069,7.209l-6.14,36.841a9.214,9.214,0,0,0,6.759,8.881l3.474.273a9.168,9.168,0,0,0,8.119-10.226,11.247,11.247,0,0,0,10.141-9.389,8.169,8.169,0,0,0,5.962-10.28,11.227,11.227,0,0,0,4.432-8.937Z" transform="translate(-175.314 -38.53)" fill="#f5ebcd"/>
        <path id="Trazado_1083313" data-name="Trazado 1083313" d="M210.1,64.236a8.177,8.177,0,0,0-4.093,7.083l-6.14,36.841a9.21,9.21,0,0,0,9.21,9.21,9.309,9.309,0,0,0,1.023-.057Z" transform="translate(-175.314 -60.062)" fill="#f4dbb3"/>
        <path id="Trazado_1083314" data-name="Trazado 1083314" d="M38.086,36.9a17.8,17.8,0,0,0-14.521-5.28A18.066,18.066,0,0,0,7.526,50.563C8.46,68.558,30.39,84.172,37.214,88.609a1.3,1.3,0,0,0,2.008-1.1l0-47.775A4.051,4.051,0,0,0,38.086,36.9Z" transform="translate(-7.502 -31.536)" fill="#e5646e"/>
        <path id="Trazado_1083315" data-name="Trazado 1083315" d="M10.593,62.08a18.3,18.3,0,0,1,6.635-15.021A18.255,18.255,0,0,0,7.527,64.1C8.46,82.1,30.39,97.713,37.215,102.15a1.3,1.3,0,0,0,2.008-1.1V99.427c-7.774-5.205-27.74-20.19-28.63-37.347Z" transform="translate(-7.502 -45.077)" fill="#db4655"/>
      </g>
      <g id="Grupo_1212338" data-name="Grupo 1212338" transform="translate(0 24.142)">
        <path id="Trazado_1083316" data-name="Trazado 1083316" d="M65.361,43.518A12.189,12.189,0,0,0,59.1,32.854a9.144,9.144,0,0,0-15.614-4.889,9.16,9.16,0,0,0-10.642,2.5A18.815,18.815,0,0,0,16.928,24.23a18.475,18.475,0,0,0-12.4,6.585,19.153,19.153,0,0,0-4.5,13.358c.412,7.933,4.752,16.25,12.9,24.721A101.724,101.724,0,0,0,30.148,82.973a2.258,2.258,0,0,0,3.488-1.9V61.664a7.078,7.078,0,0,0,5.183,2.256.957.957,0,1,0,0-1.915,5.189,5.189,0,0,1-5.183-5.183V40.448a.957.957,0,1,0-1.915,0V81.075a.336.336,0,0,1-.181.307.328.328,0,0,1-.348-.015C24.56,77.056,2.849,61.623,1.938,44.074A17.244,17.244,0,0,1,5.995,32.048a16.57,16.57,0,0,1,11.118-5.911,16.9,16.9,0,0,1,14.611,5.951l0,4.267a.958.958,0,0,0,.957.958h0a.957.957,0,0,0,.957-.957l0-3.725c.014-.019.028-.037.041-.057a7.231,7.231,0,0,1,11.8-.741.957.957,0,1,0,1.493-1.2,9.208,9.208,0,0,0-1.757-1.678A7.231,7.231,0,0,1,56.864,36.8a.957.957,0,1,0,1.8.66,9.085,9.085,0,0,0,.518-2.294,10.3,10.3,0,0,1,1.2,15.681q-.177-.371-.386-.728a.957.957,0,0,0-1.648.976,7.235,7.235,0,0,1-3.23,10.261c.005-.147.009-.294.009-.442a12.289,12.289,0,0,0-.265-2.54.957.957,0,0,0-1.873.4A10.309,10.309,0,0,1,41.512,71.121a.957.957,0,0,0-.258,1.9,12.359,12.359,0,0,0,1.658.112h.064c0,.022,0,.045,0,.067a8.217,8.217,0,0,1-6.357,8.034.957.957,0,1,0,.438,1.864,10.171,10.171,0,0,0,7.834-9.9c0-.075,0-.151,0-.227A12.248,12.248,0,0,0,54.85,63.5a9.143,9.143,0,0,0,6.206-10.68,12.131,12.131,0,0,0,4.3-9.307Z" transform="translate(0 -24.142)"/>
        <path id="Trazado_1083317" data-name="Trazado 1083317" d="M338.255,156.941a.957.957,0,0,0,0-1.915,5.189,5.189,0,0,1-5.183-5.183.957.957,0,1,0-1.915,0,7.073,7.073,0,0,0,2.037,4.97,7.044,7.044,0,0,0-.763,5.515.957.957,0,0,0,1.848-.5,5.142,5.142,0,0,1,.445-3.829A7.05,7.05,0,0,0,338.255,156.941Z" transform="translate(-288.883 -132.962)"/>
      </g>
    </g>
  </g>
</svg>
