<svg xmlns="http://www.w3.org/2000/svg" xmlns:xlink="http://www.w3.org/1999/xlink" width="108" height="108" viewBox="0 0 108 108">
  <defs>
    <filter id="Trazado_904820" x="0" y="0" width="108" height="108" filterUnits="userSpaceOnUse">
      <feOffset dy="3" input="SourceAlpha"/>
      <feGaussianBlur stdDeviation="3" result="blur"/>
      <feFlood flood-opacity="0.161"/>
      <feComposite operator="in" in2="blur"/>
      <feComposite in="SourceGraphic"/>
    </filter>
  </defs>
  <g id="Grupo_1212358" data-name="Grupo 1212358" transform="translate(-616.5 -1717.145)">
    <g id="Grupo_1211248" data-name="Grupo 1211248" transform="translate(419.5 -948.909)">
      <g id="Grupo_1207774" data-name="Grupo 1207774" transform="translate(206 2670.713)">
        <g id="Grupo_1206630" data-name="Grupo 1206630" transform="translate(0 1.342)">
          <g id="Grupo_1185091" data-name="Grupo 1185091" transform="translate(0 0)">
            <g id="Grupo_1179560" data-name="Grupo 1179560">
              <g id="Grupo_1173787" data-name="Grupo 1173787" transform="translate(0)">
                <g id="Grupo_1171910" data-name="Grupo 1171910">
                  <g id="Grupo_1167341" data-name="Grupo 1167341">
                    <g id="Grupo_1166792" data-name="Grupo 1166792">
                      <g transform="matrix(1, 0, 0, 1, -9, -6)" filter="url(#Trazado_904820)">
                        <g id="Trazado_904820-2" data-name="Trazado 904820" transform="translate(9 6)" fill="#fbf3fb">
                          <path d="M 44.99999618530273 88.50006866455078 C 39.12687301635742 88.50006866455078 33.43022155761719 87.35014343261719 28.06829643249512 85.08222961425781 C 22.88852119445801 82.89136505126953 18.23629570007324 79.75465393066406 14.24084663391113 75.75919342041016 C 10.24540901184082 71.76374053955078 7.108683586120605 67.11151885986328 4.917821407318115 61.93174362182617 C 2.649921178817749 56.56980514526367 1.499996185302734 50.87315368652344 1.499996185302734 45.00003051757812 C 1.499996185302734 39.12690734863281 2.649921178817749 33.43025588989258 4.917821407318115 28.06831741333008 C 7.108683586120605 22.88854217529297 10.24540901184082 18.23631858825684 14.24084663391113 14.24086761474609 C 18.23629570007324 10.24541759490967 22.88852119445801 7.10869312286377 28.06829643249512 4.917842864990234 C 33.43022155761719 2.649930477142334 39.12687301635742 1.500005483627319 44.99999618530273 1.500005483627319 C 50.87311935424805 1.500005483627319 56.56977081298828 2.649930477142334 61.93169784545898 4.917842864990234 C 67.11147308349609 7.10869312286377 71.76369476318359 10.24541759490967 75.75914764404297 14.24086761474609 C 79.75458526611328 18.23631858825684 82.89131164550781 22.88854217529297 85.08216857910156 28.06831741333008 C 87.35007476806641 33.43025588989258 88.5 39.12690734863281 88.5 45.00003051757812 C 88.5 50.87315368652344 87.35007476806641 56.56980514526367 85.08216857910156 61.93174362182617 C 82.89131164550781 67.11151885986328 79.75458526611328 71.76374053955078 75.75914764404297 75.75919342041016 C 71.76369476318359 79.75465393066406 67.11147308349609 82.89136505126953 61.93169784545898 85.08222961425781 C 56.56977081298828 87.35014343261719 50.87311935424805 88.50006866455078 44.99999618530273 88.50006866455078 Z" stroke="none"/>
                          <path d="M 44.99999618530273 3 C 39.32870864868164 3 33.82865142822266 4.110061645507812 28.65262603759766 6.299346923828125 C 23.65165710449219 8.414573669433594 19.15968322753906 11.44334411621094 15.301513671875 15.30152893066406 C 11.44333648681641 19.15969848632812 8.414566040039062 23.65167236328125 6.299339294433594 28.65264511108398 C 4.110054016113281 33.82868576049805 2.999992370605469 39.32874298095703 2.999992370605469 45.00003051757812 C 2.999992370605469 50.67131805419922 4.110054016113281 56.1713752746582 6.299339294433594 61.34741592407227 C 8.414566040039062 66.348388671875 11.44333648681641 70.84036254882812 15.301513671875 74.69853210449219 C 19.15968322753906 78.55671691894531 23.65165710449219 81.58548736572266 28.65262603759766 83.70071411132812 C 33.82865142822266 85.88999938964844 39.32870864868164 87.00006103515625 44.99999618530273 87.00006103515625 C 50.67128372192383 87.00006103515625 56.17134094238281 85.88999938964844 61.34736633300781 83.70071411132812 C 66.34834289550781 81.58548736572266 70.84030914306641 78.55671691894531 74.69847869873047 74.69853210449219 C 78.55665588378906 70.84036254882812 81.58542633056641 66.348388671875 83.70065307617188 61.34741592407227 C 85.88993835449219 56.1713752746582 87 50.67131805419922 87 45.00003051757812 C 87 39.32874298095703 85.88993835449219 33.82868576049805 83.70065307617188 28.65264511108398 C 81.58542633056641 23.65167236328125 78.55665588378906 19.15969848632812 74.69847869873047 15.30152893066406 C 70.84030914306641 11.44334411621094 66.34834289550781 8.414573669433594 61.34736633300781 6.299346923828125 C 56.17134094238281 4.110061645507812 50.67128372192383 3 44.99999618530273 3 M 44.99999618530273 0 C 69.85281372070312 0 90 20.14720153808594 90 45.00003051757812 C 90 69.85285949707031 69.85281372070312 90.00006103515625 44.99999618530273 90.00006103515625 C 20.14717864990234 90.00006103515625 -7.62939453125e-06 69.85285949707031 -7.62939453125e-06 45.00003051757812 C -7.62939453125e-06 20.14720153808594 20.14717864990234 0 44.99999618530273 0 Z" stroke="none" fill="#df93dd"/>
                        </g>
                      </g>
                    </g>
                  </g>
                </g>
              </g>
            </g>
          </g>
        </g>
      </g>
    </g>
    <g id="psicologia_4_" data-name="psicologia (4)" transform="translate(643.173 1737.017)">
      <path id="Trazado_1083352" data-name="Trazado 1083352" d="M81.369,304.635h34.225v-8.556H81.369a1.711,1.711,0,0,0-1.711,1.711v5.134A1.711,1.711,0,0,0,81.369,304.635Z" transform="translate(-71.155 -264.472)" fill="#e3e3e1"/>
      <path id="Trazado_1083353" data-name="Trazado 1083353" d="M96.545,317.244h33.369V312.11H96.545a.856.856,0,0,0-.856.856v3.423A.856.856,0,0,0,96.545,317.244Z" transform="translate(-85.475 -278.792)" fill="#f1f1f0"/>
      <path id="Trazado_1083354" data-name="Trazado 1083354" d="M59.889,274.6H96.681v-2.567H59.033a3.422,3.422,0,0,0-3.422,3.422V282.3a3.423,3.423,0,0,0,3.422,3.423H96.681v-2.567H59.889a1.711,1.711,0,0,1-1.711-1.711V276.31A1.711,1.711,0,0,1,59.889,274.6Z" transform="translate(-49.675 -242.992)" fill="#838076"/>
      <path id="Trazado_1083355" data-name="Trazado 1083355" d="M325.261,302.068l-2.567-1.711-2.567,1.711v-5.989h5.134Z" transform="translate(-285.955 -264.472)" fill="#febd7b"/>
      <rect id="Rectángulo_418524" data-name="Rectángulo 418524" width="53.049" height="11.123" transform="translate(0.802 42.73)" fill="#47c6ca"/>
      <rect id="Rectángulo_418525" data-name="Rectángulo 418525" width="53.049" height="2.567" transform="translate(0.802 51.286)" fill="#429ea1"/>
      <rect id="Rectángulo_418526" data-name="Rectángulo 418526" width="5.134" height="11.112" transform="translate(10.214 42.576)" fill="#fad55a"/>
      <rect id="Rectángulo_418527" data-name="Rectángulo 418527" width="5.134" height="2.567" transform="translate(10.214 51.286)" fill="#fead5a"/>
      <rect id="Rectángulo_418528" data-name="Rectángulo 418528" width="5.134" height="11.112" transform="translate(39.305 42.576)" fill="#fad55a"/>
      <rect id="Rectángulo_418529" data-name="Rectángulo 418529" width="5.134" height="2.567" transform="translate(39.305 51.286)" fill="#fead5a"/>
      <rect id="Rectángulo_418530" data-name="Rectángulo 418530" width="29.091" height="15.401" transform="translate(12.781 13.639)" fill="#8bd3cb"/>
      <rect id="Rectángulo_418531" data-name="Rectángulo 418531" width="3.422" height="15.401" transform="translate(12.781 13.639)" fill="#47c6ca"/>
      <path id="Trazado_1083356" data-name="Trazado 1083356" d="M48.361,30.618,73.174,17.784,48.361,7.516,23.548,17.784Z" transform="translate(-21.034 -6.712)" fill="#33c0c4"/>
      <path id="Trazado_1083357" data-name="Trazado 1083357" d="M53.851,41.928H47.808V40.163a.8.8,0,0,0-.8-.8H45.241V32.409h1.765a.8.8,0,0,0,.8-.8V29.04a.8.8,0,0,0-.8-.8H42.674V16.871l9.834-5.086a.809.809,0,0,0-.062-1.454L27.633.063a.8.8,0,0,0-.613,0L2.207,10.33a.812.812,0,0,0-.5.741V23.807L.024,30.557a.8.8,0,0,0,1.557.389l.933-3.732.933,3.732A.8.8,0,1,0,5,30.556L3.316,23.807V12.39l8.663,4.481V28.238H9.359a4.229,4.229,0,0,0-4.225,4.225v6.845a4.2,4.2,0,0,0,.915,2.62H.8a.8.8,0,0,0-.8.8V53.853a.8.8,0,0,0,.8.8H53.851a.8.8,0,0,0,.8-.8V42.73A.8.8,0,0,0,53.851,41.928ZM27.327,1.672l22.911,9.48L27.327,23,4.416,11.153ZM13.583,17.7l13.375,6.918a.808.808,0,0,0,.737,0L41.07,17.7V28.238H13.583V17.7ZM6.738,39.307V32.462a2.623,2.623,0,0,1,2.62-2.62H46.2V30.8H30.749a.8.8,0,1,0,0,1.6h2.62V37.6a.809.809,0,0,0,1.247.667l2.122-1.415,2.122,1.415a.81.81,0,0,0,1.247-.667V32.409h3.529v6.952H10.214a.91.91,0,0,1-.909-.909V38.4H30.749a.8.8,0,0,0,0-1.6H9.305V34.976H30.749a.8.8,0,0,0,0-1.6H9.305v-.053a.91.91,0,0,1,.909-.909h16.72a.8.8,0,0,0,0-1.6H10.214A2.516,2.516,0,0,0,7.7,33.318v5.134a2.516,2.516,0,0,0,2.513,2.513H46.2v.963H9.359A2.623,2.623,0,0,1,6.738,39.307Zm28.235-6.9H38.5V36.1l-1.32-.88a.809.809,0,0,0-.89,0l-1.32.88V32.409ZM38.5,43.532v9.519H16.15V43.532Zm-36.9,0H9.412v9.519H1.6Zm9.412,9.519V43.532h3.529v9.519Zm29.091,0V43.532h3.529v9.519Zm12.941,0H45.241V43.532h7.808Z" transform="translate(0 0)"/>
      <path id="Trazado_1083358" data-name="Trazado 1083358" d="M207.185,62.534a.8.8,0,0,0,0-1.6h-.053V57.4h2.62a.8.8,0,0,0,.8-.8V52.266h.909a.8.8,0,0,0,0-1.6h-1.711a.8.8,0,0,0-.8.8V55.8h-1.818V49.7h.053a.8.8,0,1,0,0-1.6h-1.711a.8.8,0,1,0,0,1.6h.053v6.1H203.71V51.464a.8.8,0,0,0-.8-.8H201.2a.8.8,0,0,0,0,1.6h.909V56.6a.8.8,0,0,0,.8.8h2.62v3.529h-.053a.8.8,0,0,0,0,1.6h1.711Z" transform="translate(-179.003 -42.959)"/>
    </g>
  </g>
</svg>
