<svg xmlns="http://www.w3.org/2000/svg" xmlns:xlink="http://www.w3.org/1999/xlink" width="93.934" height="93.934" viewBox="0 0 93.934 93.934">
  <defs>
    <filter id="Trazado_978624" x="0" y="0" width="93.934" height="93.934" filterUnits="userSpaceOnUse">
      <feOffset dy="3" input="SourceAlpha"/>
      <feGaussianBlur stdDeviation="3" result="blur"/>
      <feFlood flood-opacity="0.161"/>
      <feComposite operator="in" in2="blur"/>
      <feComposite in="SourceGraphic"/>
    </filter>
  </defs>
  <g id="Grupo_1212369" data-name="Grupo 1212369" transform="translate(-609 -3129.201)">
    <g id="Grupo_1211255" data-name="Grupo 1211255" transform="translate(0 1086.482)">
      <g id="Grupo_1208063" data-name="Grupo 1208063" transform="translate(412 612.719)">
        <g id="Grupo_1144123" data-name="Grupo 1144123" transform="translate(206 1436)">
          <g transform="matrix(1, 0, 0, 1, -9, -6)" filter="url(#Trazado_978624)">
            <g id="Trazado_978624-2" data-name="Trazado 978624" transform="translate(9 6)" fill="#fbf3fb">
              <path d="M 37.966796875 74.43359375 C 33.04315185546875 74.43359375 28.26757431030273 73.46962738037109 23.77274131774902 71.56847381591797 C 19.43047523498535 69.73184967041016 15.53040790557861 67.10224914550781 12.18087482452393 63.75271987915039 C 8.831341743469238 60.4031867980957 6.201741218566895 56.50312042236328 4.365118980407715 52.16086196899414 C 2.463963508605957 47.66601943969727 1.499996900558472 42.89044189453125 1.499996900558472 37.966796875 C 1.499996900558472 33.04315185546875 2.463963508605957 28.26757431030273 4.365118980407715 23.77274131774902 C 6.201741218566895 19.43047523498535 8.831341743469238 15.53040790557861 12.18087482452393 12.18087482452393 C 15.53040790557861 8.831341743469238 19.43047523498535 6.201741218566895 23.77274131774902 4.365118980407715 C 28.26757431030273 2.463963508605957 33.04315185546875 1.499996900558472 37.966796875 1.499996900558472 C 42.89044189453125 1.499996900558472 47.66601943969727 2.463963508605957 52.16086196899414 4.365118980407715 C 56.50312042236328 6.201741218566895 60.4031867980957 8.831341743469238 63.75271987915039 12.18087482452393 C 67.10224914550781 15.53040790557861 69.73184967041016 19.43047523498535 71.56847381591797 23.77274131774902 C 73.46962738037109 28.26757431030273 74.43359375 33.04315185546875 74.43359375 37.966796875 C 74.43359375 42.89044189453125 73.46962738037109 47.66601943969727 71.56847381591797 52.16086196899414 C 69.73184967041016 56.50313186645508 67.10224914550781 60.4031867980957 63.75271987915039 63.75271987915039 C 60.4031867980957 67.10224914550781 56.50313186645508 69.73184967041016 52.16086196899414 71.56847381591797 C 47.66601943969727 73.46962738037109 42.89044189453125 74.43359375 37.966796875 74.43359375 Z" stroke="none"/>
              <path d="M 37.966796875 3 C 33.2449836730957 3 28.66600799560547 3.924095153808594 24.35705947875977 5.746635437011719 C 20.19359588623047 7.507621765136719 16.45379638671875 10.02927398681641 13.24153518676758 13.24153518676758 C 10.02927398681641 16.45379638671875 7.507621765136719 20.19359588623047 5.746635437011719 24.35705947875977 C 3.924095153808594 28.66600799560547 3 33.2449836730957 3 37.966796875 C 3 42.6886100769043 3.924095153808594 47.26758575439453 5.746635437011719 51.57653427124023 C 7.507621765136719 55.73999786376953 10.02927398681641 59.47979736328125 13.24153518676758 62.69205856323242 C 16.45379638671875 65.90431976318359 20.19359588623047 68.42597198486328 24.35705947875977 70.18695831298828 C 28.66600799560547 72.00949859619141 33.2449836730957 72.93359375 37.966796875 72.93359375 C 42.6886100769043 72.93359375 47.26758575439453 72.00949859619141 51.57653427124023 70.18695831298828 C 55.73999786376953 68.42597198486328 59.47979736328125 65.90431976318359 62.69205856323242 62.69205856323242 C 65.90431976318359 59.47979736328125 68.42597198486328 55.73999786376953 70.18695831298828 51.57653427124023 C 72.00949859619141 47.26758575439453 72.93359375 42.6886100769043 72.93359375 37.966796875 C 72.93359375 33.2449836730957 72.00949859619141 28.66600799560547 70.18695831298828 24.35705947875977 C 68.42597198486328 20.19359588623047 65.90431976318359 16.45379638671875 62.69205856323242 13.24153518676758 C 59.47979736328125 10.02927398681641 55.73999786376953 7.507621765136719 51.57653427124023 5.746635437011719 C 47.26758575439453 3.924095153808594 42.6886100769043 3 37.966796875 3 M 37.966796875 0 C 58.93528366088867 0 75.93359375 16.99831008911133 75.93359375 37.966796875 C 75.93359375 58.93528366088867 58.93528366088867 75.93359375 37.966796875 75.93359375 C 16.99831008911133 75.93359375 0 58.93528366088867 0 37.966796875 C 0 16.99831008911133 16.99831008911133 0 37.966796875 0 Z" stroke="none" fill="#df93dd"/>
            </g>
          </g>
        </g>
      </g>
    </g>
    <g id="paranoico" transform="translate(607.862 3146.686)">
      <g id="Grupo_1212367" data-name="Grupo 1212367" transform="translate(24.893 0.776)">
        <path id="Trazado_1083382" data-name="Trazado 1083382" d="M210.492,141.707A6.207,6.207,0,1,0,216.7,135.5,6.207,6.207,0,0,0,210.492,141.707Zm6.207,3.1a3.1,3.1,0,1,1,.463-6.172,1.94,1.94,0,0,0,2.606,2.606,3.105,3.105,0,0,1-3.069,3.566Z" transform="translate(-191.987 -122.259)" fill="#40a2ff" fill-rule="evenodd"/>
        <path id="Trazado_1083383" data-name="Trazado 1083383" d="M240.492,168.6a3.1,3.1,0,1,0,6.172-.463,1.94,1.94,0,0,1-2.606-2.606,3.106,3.106,0,0,0-3.566,3.069Z" transform="translate(-218.884 -149.156)" fill="#0069f8" fill-rule="evenodd"/>
        <path id="Trazado_1083384" data-name="Trazado 1083384" d="M174.94,141.707a6.207,6.207,0,1,1-6.207-6.207A6.207,6.207,0,0,1,174.94,141.707Zm-6.207,6.207a13.338,13.338,0,0,0,11.741-6.207,14.208,14.208,0,0,0-23.482,0A13.338,13.338,0,0,0,168.733,147.913Z" transform="translate(-144.021 -122.259)" fill="#fff" fill-rule="evenodd"/>
        <path id="Trazado_1083385" data-name="Trazado 1083385" d="M34.982,28.867,31.7,40.839a1.655,1.655,0,0,0,1.58,2.3h3.964V52h9.371v6.914H67.008V55.438c0-2.987-.007-6.843,4.231-10.881a21.622,21.622,0,0,0,6.79-15.69c0-12.76-10.375-21.367-22.72-21.367-11.947,0-20.327,10.085-20.327,21.367Zm21.335,4.287a13.338,13.338,0,0,1-11.741-6.207,13.346,13.346,0,0,1,11.741-6.207,13.346,13.346,0,0,1,11.741,6.207A13.338,13.338,0,0,1,56.317,33.154Z" transform="translate(-31.606 -7.5)" fill="#ffd9ab" fill-rule="evenodd"/>
        <path id="Trazado_1083386" data-name="Trazado 1083386" d="M37.245,42.367V52h2.328V42.367Zm9.372,8.855v7.689h2.328V51.223ZM56.533,7.529c-11.356.6-19.224,10.407-19.224,21.338l-3.28,11.972a1.655,1.655,0,0,0,1.58,2.3H33.282a1.655,1.655,0,0,1-1.58-2.3l3.28-11.972c0-11.282,8.38-21.367,20.327-21.367q.615,0,1.224.029Z" transform="translate(-31.606 -7.5)" fill="#ffaf7c" fill-rule="evenodd"/>
        <path id="Trazado_1083387" data-name="Trazado 1083387" d="M174.218,188.319a6.208,6.208,0,0,1-10.973,0,13.332,13.332,0,0,1-5.375-4.068q-.447.545-.879,1.164a14.208,14.208,0,0,0,23.482,0q-.432-.62-.879-1.164A13.332,13.332,0,0,1,174.218,188.319Z" transform="translate(-144.021 -165.967)" fill="#83f2f8" fill-rule="evenodd"/>
      </g>
      <g id="Grupo_1212368" data-name="Grupo 1212368" transform="translate(24.118)">
        <path id="Trazado_1083388" data-name="Trazado 1083388" d="M328.248,45H329.8v1.552h-1.552Z" transform="translate(-296.787 -40.345)"/>
        <path id="Trazado_1083389" data-name="Trazado 1083389" d="M358.247,60H359.8v1.552h-1.552Z" transform="translate(-323.683 -53.793)"/>
        <path id="Trazado_1083390" data-name="Trazado 1083390" d="M172.915,135.426l.309-.443-.309-.443a15.141,15.141,0,0,0-5.906-5.2,16.347,16.347,0,0,0-12.944,0,15.14,15.14,0,0,0-5.906,5.2l-.309.443.309.443a15.143,15.143,0,0,0,5.9,5.2,16.36,16.36,0,0,0,12.95,0A15.144,15.144,0,0,0,172.915,135.426Zm-6.947-.443a5.431,5.431,0,1,1-5.431-5.431A5.437,5.437,0,0,1,165.968,134.983Zm-16.217,0a12.966,12.966,0,0,1,5.388-4.424,6.968,6.968,0,0,0,0,8.848A12.967,12.967,0,0,1,149.752,134.983Zm16.184,4.424a6.968,6.968,0,0,0,0-8.848,12.965,12.965,0,0,1,5.388,4.424A12.967,12.967,0,0,1,165.935,139.407Z" transform="translate(-135.051 -114.759)"/>
        <path id="Trazado_1083391" data-name="Trazado 1083391" d="M236.872,165.757a3.881,3.881,0,0,0,3.836-4.457l-.159-1.063-.959.485a1.149,1.149,0,0,1-.524.124,1.165,1.165,0,0,1-1.164-1.164,1.149,1.149,0,0,1,.124-.524l.485-.959-1.062-.159a3.879,3.879,0,1,0-.578,7.715Zm-.52-6.148q0,.037,0,.075a2.718,2.718,0,0,0,2.715,2.715h.075a2.328,2.328,0,1,1-2.789-2.789Z" transform="translate(-211.386 -141.655)"/>
        <path id="Trazado_1083392" data-name="Trazado 1083392" d="M262.992,75h1.552V78.93h-1.552Z" transform="translate(-238.282 -67.241)"/>
        <path id="Trazado_1083393" data-name="Trazado 1083393" d="M0,0H1.552V3.854H0Z" transform="matrix(0.958, -0.286, 0.286, 0.958, 19.447, 8.492)"/>
        <path id="Trazado_1083394" data-name="Trazado 1083394" d="M0,0H3.625V1.552H0Z" transform="matrix(0.671, -0.742, 0.742, 0.671, 36.114, 15.21)"/>
        <path id="Trazado_1083395" data-name="Trazado 1083395" d="M0,0H3.147V1.552H0Z" transform="translate(38.761 17.733) rotate(-25.283)"/>
        <path id="Trazado_1083396" data-name="Trazado 1083396" d="M0,0H1.552V3.625H0Z" transform="matrix(0.742, -0.671, 0.671, 0.742, 11.303, 13.556)"/>
        <path id="Trazado_1083397" data-name="Trazado 1083397" d="M0,0H3.854V1.552H0Z" transform="matrix(0.286, -0.958, 0.958, 0.286, 28.939, 11.765)"/>
        <path id="Trazado_1083398" data-name="Trazado 1083398" d="M0,0H1.552V3.7H0Z" transform="matrix(0.838, -0.545, 0.545, 0.838, 14.691, 10.769)"/>
        <path id="Trazado_1083399" data-name="Trazado 1083399" d="M0,0H1.552V3.147H0Z" transform="translate(8.688 17.771) rotate(-64.717)"/>
        <path id="Trazado_1083400" data-name="Trazado 1083400" d="M0,0H3.7V1.552H0Z" transform="matrix(0.545, -0.838, 0.838, 0.545, 32.944, 13.032)"/>
        <path id="Trazado_1083401" data-name="Trazado 1083401" d="M0,0H3.7V1.552H0Z" transform="matrix(0.545, -0.838, 0.838, 0.545, 14.686, 29.679)"/>
        <path id="Trazado_1083402" data-name="Trazado 1083402" d="M0,0H3.625V1.552H0Z" transform="matrix(0.671, -0.742, 0.742, 0.671, 11.305, 26.895)"/>
        <path id="Trazado_1083403" data-name="Trazado 1083403" d="M0,0H3.147V1.552H0Z" transform="translate(8.684 22.674) rotate(-25.283)"/>
        <path id="Trazado_1083404" data-name="Trazado 1083404" d="M0,0H1.552V3.7H0Z" transform="matrix(0.838, -0.545, 0.545, 0.838, 32.939, 27.424)"/>
        <path id="Trazado_1083405" data-name="Trazado 1083405" d="M0,0H1.552V3.625H0Z" transform="matrix(0.742, -0.671, 0.671, 0.742, 36.111, 25.221)"/>
        <path id="Trazado_1083406" data-name="Trazado 1083406" d="M0,0H3.854V1.552H0Z" transform="matrix(0.286, -0.958, 0.958, 0.286, 19.449, 31.961)"/>
        <path id="Trazado_1083407" data-name="Trazado 1083407" d="M0,0H1.552V3.147H0Z" transform="translate(38.753 22.723) rotate(-64.717)"/>
        <path id="Trazado_1083408" data-name="Trazado 1083408" d="M262.992,278h1.552v3.931h-1.552Z" transform="translate(-238.282 -249.241)"/>
        <path id="Trazado_1083409" data-name="Trazado 1083409" d="M0,0H1.552V3.854H0Z" transform="matrix(0.958, -0.286, 0.286, 0.958, 28.93, 28.676)"/>
        <path id="Trazado_1083410" data-name="Trazado 1083410" d="M40.68,107.507H31.308V98.652H26.569a.923.923,0,0,1-.74-.324,1.167,1.167,0,0,1-.092-1l3.308-12.073v-.1a21.385,21.385,0,0,1,5.021-13.868l-1.182-1.006a22.931,22.931,0,0,0-5.391,14.768L24.24,96.919a2.64,2.64,0,0,0,.355,2.35,2.446,2.446,0,0,0,1.974.935h3.188v8.855h9.371v6.914H54.864v-1.552H40.68Z" transform="translate(-24.118 -63.009)"/>
        <path id="Trazado_1083411" data-name="Trazado 1083411" d="M150.837,6.1A24.443,24.443,0,0,0,134.327,0,20.418,20.418,0,0,0,119.74,6.046l1.1,1.094a18.876,18.876,0,0,1,13.486-5.588A22.9,22.9,0,0,1,149.8,7.25a19.805,19.805,0,0,1,6.476,14.894,20.747,20.747,0,0,1-6.549,15.128c-4.472,4.261-4.472,8.4-4.472,11.429v2.711h-3.1v1.552H146.8V48.7c0-2.9,0-6.5,3.99-10.305a22.284,22.284,0,0,0,7.031-16.252A21.339,21.339,0,0,0,150.837,6.1Z" transform="translate(-109.848)"/>
      </g>
    </g>
  </g>
</svg>
