<svg xmlns="http://www.w3.org/2000/svg" xmlns:xlink="http://www.w3.org/1999/xlink" width="93.934" height="93.934" viewBox="0 0 93.934 93.934">
  <defs>
    <filter id="Trazado_978624" x="0" y="0" width="93.934" height="93.934" filterUnits="userSpaceOnUse">
      <feOffset dy="3" input="SourceAlpha"/>
      <feGaussianBlur stdDeviation="3" result="blur"/>
      <feFlood flood-opacity="0.161"/>
      <feComposite operator="in" in2="blur"/>
      <feComposite in="SourceGraphic"/>
    </filter>
  </defs>
  <g id="Grupo_1212366" data-name="Grupo 1212366" transform="translate(-609 -3274.701)">
    <g id="Grupo_1211256" data-name="Grupo 1211256" transform="translate(0 1092.982)">
      <g id="Grupo_1208062" data-name="Grupo 1208062" transform="translate(412 751.719)">
        <g id="Grupo_1144123" data-name="Grupo 1144123" transform="translate(206 1436)">
          <g transform="matrix(1, 0, 0, 1, -9, -6)" filter="url(#Trazado_978624)">
            <g id="Trazado_978624-2" data-name="Trazado 978624" transform="translate(9 6)" fill="#fbf3fb">
              <path d="M 37.966796875 74.43359375 C 33.04315185546875 74.43359375 28.26757431030273 73.46962738037109 23.77274131774902 71.56847381591797 C 19.43047523498535 69.73184967041016 15.53040790557861 67.10224914550781 12.18087482452393 63.75271987915039 C 8.831341743469238 60.4031867980957 6.201741218566895 56.50312042236328 4.365118980407715 52.16086196899414 C 2.463963508605957 47.66601943969727 1.499996900558472 42.89044189453125 1.499996900558472 37.966796875 C 1.499996900558472 33.04315185546875 2.463963508605957 28.26757431030273 4.365118980407715 23.77274131774902 C 6.201741218566895 19.43047523498535 8.831341743469238 15.53040790557861 12.18087482452393 12.18087482452393 C 15.53040790557861 8.831341743469238 19.43047523498535 6.201741218566895 23.77274131774902 4.365118980407715 C 28.26757431030273 2.463963508605957 33.04315185546875 1.499996900558472 37.966796875 1.499996900558472 C 42.89044189453125 1.499996900558472 47.66601943969727 2.463963508605957 52.16086196899414 4.365118980407715 C 56.50312042236328 6.201741218566895 60.4031867980957 8.831341743469238 63.75271987915039 12.18087482452393 C 67.10224914550781 15.53040790557861 69.73184967041016 19.43047523498535 71.56847381591797 23.77274131774902 C 73.46962738037109 28.26757431030273 74.43359375 33.04315185546875 74.43359375 37.966796875 C 74.43359375 42.89044189453125 73.46962738037109 47.66601943969727 71.56847381591797 52.16086196899414 C 69.73184967041016 56.50313186645508 67.10224914550781 60.4031867980957 63.75271987915039 63.75271987915039 C 60.4031867980957 67.10224914550781 56.50313186645508 69.73184967041016 52.16086196899414 71.56847381591797 C 47.66601943969727 73.46962738037109 42.89044189453125 74.43359375 37.966796875 74.43359375 Z" stroke="none"/>
              <path d="M 37.966796875 3 C 33.2449836730957 3 28.66600799560547 3.924095153808594 24.35705947875977 5.746635437011719 C 20.19359588623047 7.507621765136719 16.45379638671875 10.02927398681641 13.24153518676758 13.24153518676758 C 10.02927398681641 16.45379638671875 7.507621765136719 20.19359588623047 5.746635437011719 24.35705947875977 C 3.924095153808594 28.66600799560547 3 33.2449836730957 3 37.966796875 C 3 42.6886100769043 3.924095153808594 47.26758575439453 5.746635437011719 51.57653427124023 C 7.507621765136719 55.73999786376953 10.02927398681641 59.47979736328125 13.24153518676758 62.69205856323242 C 16.45379638671875 65.90431976318359 20.19359588623047 68.42597198486328 24.35705947875977 70.18695831298828 C 28.66600799560547 72.00949859619141 33.2449836730957 72.93359375 37.966796875 72.93359375 C 42.6886100769043 72.93359375 47.26758575439453 72.00949859619141 51.57653427124023 70.18695831298828 C 55.73999786376953 68.42597198486328 59.47979736328125 65.90431976318359 62.69205856323242 62.69205856323242 C 65.90431976318359 59.47979736328125 68.42597198486328 55.73999786376953 70.18695831298828 51.57653427124023 C 72.00949859619141 47.26758575439453 72.93359375 42.6886100769043 72.93359375 37.966796875 C 72.93359375 33.2449836730957 72.00949859619141 28.66600799560547 70.18695831298828 24.35705947875977 C 68.42597198486328 20.19359588623047 65.90431976318359 16.45379638671875 62.69205856323242 13.24153518676758 C 59.47979736328125 10.02927398681641 55.73999786376953 7.507621765136719 51.57653427124023 5.746635437011719 C 47.26758575439453 3.924095153808594 42.6886100769043 3 37.966796875 3 M 37.966796875 0 C 58.93528366088867 0 75.93359375 16.99831008911133 75.93359375 37.966796875 C 75.93359375 58.93528366088867 58.93528366088867 75.93359375 37.966796875 75.93359375 C 16.99831008911133 75.93359375 0 58.93528366088867 0 37.966796875 C 0 16.99831008911133 16.99831008911133 0 37.966796875 0 Z" stroke="none" fill="#df93dd"/>
            </g>
          </g>
        </g>
      </g>
    </g>
    <g id="adhd_1_" data-name="adhd (1)" transform="translate(608.52 3292.913)">
      <g id="Grupo_1212364" data-name="Grupo 1212364" transform="translate(24.872 0.755)">
        <path id="Trazado_1083375" data-name="Trazado 1083375" d="M66.037,54.123c0-2.9-.006-6.655,4.115-10.582a21.029,21.029,0,0,0,6.6-15.259c0-12.409-10.09-20.781-22.1-20.781C43.04,7.5,34.89,17.309,34.89,28.281L31.7,39.924a1.61,1.61,0,0,0,1.537,2.241h3.855v8.612h9.114V57.5H66.037Z" transform="translate(-31.607 -7.5)" fill="#ffd9ab" fill-rule="evenodd"/>
        <path id="Trazado_1083376" data-name="Trazado 1083376" d="M37.09,41.41v9.367h2.264V41.41ZM46.2,50.023V57.5h2.264V50.023ZM55.849,7.528c-11.045.583-18.7,10.121-18.7,20.753l-3.19,11.643A1.61,1.61,0,0,0,35.5,42.165H33.235A1.61,1.61,0,0,1,31.7,39.924l3.19-11.643c0-10.972,8.15-20.781,19.769-20.781q.6,0,1.19.028Z" transform="translate(-31.605 -7.5)" fill="#ffaf7c" fill-rule="evenodd"/>
      </g>
      <g id="Grupo_1212365" data-name="Grupo 1212365" transform="translate(24.118)">
        <path id="Trazado_1083377" data-name="Trazado 1083377" d="M358.248,60h1.509v1.509h-1.509Z" transform="translate(-324.633 -53.964)"/>
        <path id="Trazado_1083378" data-name="Trazado 1083378" d="M328.248,45h1.509v1.509h-1.509Z" transform="translate(-297.651 -40.473)"/>
        <path id="Trazado_1083379" data-name="Trazado 1083379" d="M107.227,78.461l-1.482.287a15.521,15.521,0,0,0,5.046,8.7,12.609,12.609,0,0,0,7.611,3.32,6.409,6.409,0,0,0,2.28-.326,12.256,12.256,0,0,0,4.312.891c.128,0,.255,0,.38-.009a7.644,7.644,0,0,0,7.166-6.277,6.453,6.453,0,0,0,3.677-6.466,11.663,11.663,0,0,0,3.062-1.922l-.974-1.153a10.41,10.41,0,0,1-2.326,1.534,11.08,11.08,0,0,0-.576-1.723,16.615,16.615,0,0,0-5.1-6.393,15.824,15.824,0,0,0-7.8-3.347,4.054,4.054,0,0,0-3.981,1.526c-2.633-.737-4.925-.435-6.516.916-1.779,1.51-2.344,4.123-1.476,6.818a15.189,15.189,0,0,0,1.272,2.884q-.055.141-.1.287c-.722,2.182-.1,4.788,1.692,7.151a16.263,16.263,0,0,0,4.788,4.089C114.337,88.984,108.532,85.193,107.227,78.461ZM125.3,89.813a9.2,9.2,0,0,1-2.9-.388,4.962,4.962,0,0,0,1.433-2.487,6.108,6.108,0,0,0,.161-1.027l.052.009a15.458,15.458,0,0,0,6.736-.206A5.986,5.986,0,0,1,125.3,89.813Zm8.361-7.533a4.656,4.656,0,0,1-.906.88,11.537,11.537,0,0,0-.595-3.808,10.8,10.8,0,0,0,1.929-.156q.322-.056.625-.13A5.152,5.152,0,0,1,133.665,82.28ZM122.347,67.073a14.3,14.3,0,0,1,7.033,3.037,15.088,15.088,0,0,1,4.634,5.792,9.326,9.326,0,0,1,.534,1.651q-.343.09-.715.156a9.466,9.466,0,0,1-2.278.11,14.779,14.779,0,0,0-.7-1.32,23.145,23.145,0,0,0-9.5-8.273q-.653-.335-1.288-.6A2.884,2.884,0,0,1,122.347,67.073Zm-2.9,1.933q.6.244,1.217.562a21.661,21.661,0,0,1,8.9,7.7q.08.134.156.269a18.539,18.539,0,0,1-4.877-1.969c-3.949-2.215-5.5-4.82-5.395-6.565Zm-7.468,5.364c-.677-2.1-.288-4.1,1.017-5.205,1.17-.994,2.92-1.208,4.99-.655a5.667,5.667,0,0,0,.994,3.869,14.172,14.172,0,0,0,5.124,4.508,18.718,18.718,0,0,0,6.417,2.337,9.889,9.889,0,0,1,.67,4.785,13.237,13.237,0,0,1-6.882.424q-.172-.03-.343-.064a13.592,13.592,0,0,0-3.765-7.84,5.435,5.435,0,0,0-5.315-1.7,4.539,4.539,0,0,0-2.165,1.384A14,14,0,0,1,111.976,74.371Zm10.408,9.615a16.922,16.922,0,0,1-5.446-2.711,14.279,14.279,0,0,1-3.411-3.625,3.113,3.113,0,0,1,1.773-1.369,4.053,4.053,0,0,1,3.848,1.335A12.315,12.315,0,0,1,122.384,83.986Zm-7.782.255a7.058,7.058,0,0,1-1.658-4.819,16.025,16.025,0,0,0,3.085,3.057,18.51,18.51,0,0,0,6.473,3.1,4.826,4.826,0,0,1-.133.987,3.379,3.379,0,0,1-1.688,2.238q-.532-.229-1.069-.507a15.08,15.08,0,0,1-5.01-4.061Z" transform="translate(-97.533 -58.943)"/>
        <path id="Trazado_1083380" data-name="Trazado 1083380" d="M149.983,5.932A23.773,23.773,0,0,0,133.925,0a19.858,19.858,0,0,0-14.186,5.88l1.07,1.064a18.359,18.359,0,0,1,13.116-5.435,22.269,22.269,0,0,1,15.044,5.542,19.262,19.262,0,0,1,6.3,14.485,20.177,20.177,0,0,1-6.37,14.713c-4.349,4.144-4.349,8.173-4.349,11.115V50H141.53V51.51h4.527V47.364c0-2.818,0-6.324,3.881-10.023a21.673,21.673,0,0,0,6.838-15.806,20.752,20.752,0,0,0-6.794-15.6Z" transform="translate(-110.119)"/>
        <path id="Trazado_1083381" data-name="Trazado 1083381" d="M40.225,106.486H31.111V97.873H26.5a.9.9,0,0,1-.72-.315,1.135,1.135,0,0,1-.089-.971L28.91,84.846v-.1a20.8,20.8,0,0,1,4.883-13.487l-1.149-.978A22.3,22.3,0,0,0,27.4,84.642L24.237,96.188a2.568,2.568,0,0,0,.345,2.285,2.379,2.379,0,0,0,1.92.909h3.1v8.612h9.114v6.724h15.3v-1.509h-13.8Z" transform="translate(-24.118 -63.209)"/>
      </g>
    </g>
  </g>
</svg>
