<svg xmlns="http://www.w3.org/2000/svg" xmlns:xlink="http://www.w3.org/1999/xlink" width="190" height="182" viewBox="0 0 190 182">
  <defs>
    <clipPath id="clip-path">
      <rect id="Rectángulo_418476" data-name="Rectángulo 418476" width="190" height="182" transform="translate(1230 468)" fill="#fff" stroke="#707070" stroke-width="1"/>
    </clipPath>
  </defs>
  <g id="Enmascarar_grupo_1098697" data-name="Enmascarar grupo 1098697" transform="translate(-1230 -468)" clip-path="url(#clip-path)">
    <g id="Grupo_1211726" data-name="Grupo 1211726" transform="translate(1196.976 465.257)">
      <g id="Grupo_1211700" data-name="Grupo 1211700" transform="translate(45.781 65.533)">
        <g id="Grupo_1211688" data-name="Grupo 1211688" transform="translate(0 15.851)">
          <g id="Grupo_1211661" data-name="Grupo 1211661">
            <g id="Grupo_1211660" data-name="Grupo 1211660">
              <g id="Grupo_1211655" data-name="Grupo 1211655">
                <path id="Trazado_1082379" data-name="Trazado 1082379" d="M222.663,264.552a11.517,11.517,0,0,1-5.784,2.574h-.007a11.538,11.538,0,0,1-3.2.035v.035a23.19,23.19,0,0,1-12.394,20.7,22.914,22.914,0,0,1-17.648.848,21.81,21.81,0,0,1-1.484,5.741,22.378,22.378,0,0,1-13.257,12.458c-2.4.827-5.119,1.209-7.466.212a5.861,5.861,0,0,1-1.061-.608.073.073,0,0,0-.035-.028,3.917,3.917,0,0,1-.537-.438c-.007-.007-.014-.014-.021-.014a13.294,13.294,0,0,1-1.124.983c-.17.135-.347.269-.516.4a37.629,37.629,0,0,1-31.067,6.483c-3.549-.855-7.184-2.411-9.17-5.473a6.571,6.571,0,0,1-.735-1.52c.5,1.435-5.783,4.073-6.738,4.348a19.034,19.034,0,0,1-8.039.361,31.482,31.482,0,0,1-16.453-8.477,19.49,19.49,0,0,1-5.1-7.883,27.013,27.013,0,0,1-.975-4.235c-.184-1.365-.17-2.637.36-3.139.057-.049.113-.092.177-.142a.138.138,0,0,0-.056.028,14.535,14.535,0,0,1-9.347.375A20.857,20.857,0,0,1,59.5,255.587a8.716,8.716,0,0,1,4.758-3.578L64.252,252a21.845,21.845,0,0,1-1.767-2.121,21,21,0,0,1-4.129-11.871,21.26,21.26,0,0,1,9.969-18.249,14.766,14.766,0,0,1,3.309-1.52,18.793,18.793,0,0,1,24.343-18.878,23.358,23.358,0,0,1,36.646-10.294,13.619,13.619,0,0,1,4.667,6.292,15.3,15.3,0,0,1,6.052-3.853,15.835,15.835,0,0,1,15.986,3.832,11.017,11.017,0,0,1,3.422,7.685,5.579,5.579,0,0,1-.049.693,18.23,18.23,0,0,1,26.846,2.941,10.489,10.489,0,0,1,1.591,3.118c13.49-.46,26.478,10.966,27.447,24.5a12.674,12.674,0,0,1-.375,4.348,20.436,20.436,0,0,1,8.583,11.694C228.022,255.367,226.608,261.165,222.663,264.552Z" transform="translate(-55.448 -183.958)" fill="#f76c6f"/>
                <g id="Grupo_1211654" data-name="Grupo 1211654" transform="translate(51.038 34.083)">
                  <g id="Grupo_1211653" data-name="Grupo 1211653" transform="translate(0)">
                    <g id="Grupo_1211649" data-name="Grupo 1211649" transform="translate(1.03)">
                      <path id="Trazado_1082380" data-name="Trazado 1082380" d="M198.738,268.137c-6.024-3.655-14.245.719-16.7,6.839a.363.363,0,0,0,.523.442c5.053-3.224,9.805-6.487,16-6.621a.361.361,0,0,0,.176-.66Z" transform="translate(-182.009 -266.803)" fill="#2c2c44"/>
                    </g>
                    <g id="Grupo_1211650" data-name="Grupo 1211650" transform="translate(40.831 1.224)">
                      <path id="Trazado_1082381" data-name="Trazado 1082381" d="M279.067,271.395a25.114,25.114,0,0,1,9.166,2.864c2.984,1.536,5.328,3.717,8.178,5.676a.358.358,0,0,0,.525-.085c-2-7.014-11.084-12.3-17.988-9.13A.358.358,0,0,0,279.067,271.395Z" transform="translate(-278.753 -269.778)" fill="#2c2c44"/>
                    </g>
                    <g id="Grupo_1211652" data-name="Grupo 1211652" transform="translate(0 12.535)">
                      <g id="Grupo_1211651" data-name="Grupo 1211651">
                        <path id="Trazado_1082382" data-name="Trazado 1082382" d="M279.2,309.317c-.122,11.318,8.011,11.719,8.4.279C287.663,298.393,279.634,298,279.2,309.317Z" transform="translate(-238.184 -299.471)" fill="#2c2c44"/>
                        <path id="Trazado_1082383" data-name="Trazado 1082383" d="M200.895,305.569c-.319,11.4,7.815,11.6,8.391.279C209.548,294.557,201.519,294.364,200.895,305.569Z" transform="translate(-192.09 -297.272)" fill="#2c2c44"/>
                        <path id="Trazado_1082384" data-name="Trazado 1082384" d="M238.3,326.814c-11.614,26.938-50.3,25.589-58.8-2.753,2.691,33.167,52.333,35.387,58.8,2.753Z" transform="translate(-179.506 -313.04)" fill="#2c2c44"/>
                      </g>
                    </g>
                  </g>
                </g>
              </g>
              <g id="Grupo_1211657" data-name="Grupo 1211657" transform="translate(99.342 60.008)">
                <g id="Grupo_1211656" data-name="Grupo 1211656" transform="translate(0 0)" opacity="0.26">
                  <circle id="Elipse_14265" data-name="Elipse 14265" cx="18.241" cy="18.241" r="18.241" transform="translate(0 13.589) rotate(-21.871)" fill="#df1e2f"/>
                </g>
              </g>
              <g id="Grupo_1211659" data-name="Grupo 1211659" transform="translate(13.691 59.547)">
                <g id="Grupo_1211658" data-name="Grupo 1211658" transform="translate(0)" opacity="0.26">
                  <circle id="Elipse_14266" data-name="Elipse 14266" cx="18.241" cy="18.241" r="18.241" transform="matrix(0.909, -0.417, 0.417, 0.909, 0, 15.198)" fill="#df1e2f"/>
                </g>
              </g>
            </g>
          </g>
          <g id="Grupo_1211687" data-name="Grupo 1211687" transform="translate(7.036 17.672)">
            <g id="Grupo_1211663" data-name="Grupo 1211663" transform="translate(19.147 28.034)" opacity="0.29">
              <g id="Grupo_1211662" data-name="Grupo 1211662">
                <path id="Trazado_1082385" data-name="Trazado 1082385" d="M125.93,295.055c4.81,6.359.762,16.306-6.784,16.721l-.057-.137c5.292-4.005,7.61-9.616,6.84-16.584Z" transform="translate(-119.09 -295.055)" fill="#fff"/>
              </g>
            </g>
            <g id="Grupo_1211665" data-name="Grupo 1211665" transform="translate(21.237 13.3)" opacity="0.29">
              <g id="Grupo_1211664" data-name="Grupo 1211664">
                <path id="Trazado_1082386" data-name="Trazado 1082386" d="M137.835,259.24c-.641,6.648-8.778,10.484-13.664,6.461l.042-.117c5.534.532,10.145-1.612,13.622-6.344Z" transform="translate(-124.171 -259.24)" fill="#fff"/>
              </g>
            </g>
            <g id="Grupo_1211667" data-name="Grupo 1211667" transform="translate(48.911 0.548)" opacity="0.29">
              <g id="Grupo_1211666" data-name="Grupo 1211666">
                <path id="Trazado_1082387" data-name="Trazado 1082387" d="M205.825,228.245c-1.5,6.509-10.064,9.257-14.387,4.633l.057-.11c5.418,1.245,10.268-.282,14.33-4.523Z" transform="translate(-191.438 -228.245)" fill="#fff"/>
              </g>
            </g>
            <g id="Grupo_1211669" data-name="Grupo 1211669" transform="translate(44.429 89.684)" opacity="0.29">
              <g id="Grupo_1211668" data-name="Grupo 1211668">
                <path id="Trazado_1082388" data-name="Trazado 1082388" d="M180.543,446.525c5.842-4.035,14.533-.055,14.609,6.671l-.124.045c-3.358-4.859-8.259-7.135-14.486-6.716Z" transform="translate(-180.543 -444.905)" fill="#fff"/>
              </g>
            </g>
            <g id="Grupo_1211671" data-name="Grupo 1211671" transform="translate(121.814 30.022)" opacity="0.29">
              <g id="Grupo_1211670" data-name="Grupo 1211670">
                <path id="Trazado_1082389" data-name="Trazado 1082389" d="M384.207,313.03c-9.028,2.593-17.941-5.234-14.992-13.135l.174-.008c1.941,6.912,6.952,11.362,14.818,13.143Z" transform="translate(-368.641 -299.887)" fill="#fff"/>
              </g>
            </g>
            <g id="Grupo_1211686" data-name="Grupo 1211686" opacity="0.31">
              <g id="Grupo_1211672" data-name="Grupo 1211672" transform="translate(12.596 13.457)">
                <path id="Trazado_1082390" data-name="Trazado 1082390" d="M108.022,294.416a13.571,13.571,0,0,1-4.114-.641,1.061,1.061,0,1,1,.642-2.022,11.49,11.49,0,0,0,6.963-21.9,1.061,1.061,0,0,1,.642-2.022,11.489,11.489,0,0,0,14.431-7.469,1.061,1.061,0,0,1,2.022.643,13.643,13.643,0,0,1-11.746,9.44,13.613,13.613,0,0,1-8.839,23.971Z" transform="translate(-103.167 -259.623)" fill="#df1e2f"/>
              </g>
              <g id="Grupo_1211674" data-name="Grupo 1211674" transform="translate(92.776 101.615)">
                <g id="Grupo_1211673" data-name="Grupo 1211673">
                  <path id="Trazado_1082391" data-name="Trazado 1082391" d="M299.87,474.207c.495.488,1.633,1.612,2.7,2.524a13.315,13.315,0,0,1-1.124.983c-.17.135-.347.269-.516.4-.714-.622-1.556-1.407-2.545-2.383a1.048,1.048,0,0,1-.021-1.5A1.069,1.069,0,0,1,299.87,474.207Z" transform="translate(-298.059 -473.907)" fill="#df1e2f"/>
                </g>
              </g>
              <g id="Grupo_1211676" data-name="Grupo 1211676" transform="translate(149.042 62.006)">
                <g id="Grupo_1211675" data-name="Grupo 1211675">
                  <path id="Trazado_1082392" data-name="Trazado 1082392" d="M440.171,381.119a11.54,11.54,0,0,1-3.2.035v.035c-.544-.5-1.152-1.082-1.824-1.746a1.048,1.048,0,0,1-.021-1.5,1.076,1.076,0,0,1,1.506-.014A41.255,41.255,0,0,0,440.171,381.119Z" transform="translate(-434.824 -377.63)" fill="#df1e2f"/>
                </g>
              </g>
              <g id="Grupo_1211679" data-name="Grupo 1211679" transform="translate(0 48.251)">
                <g id="Grupo_1211677" data-name="Grupo 1211677">
                  <path id="Trazado_1082393" data-name="Trazado 1082393" d="M78.1,345.256a1.064,1.064,0,0,1-1.061,1.061H74.317a21.851,21.851,0,0,1-1.767-2.121h4.489A1.059,1.059,0,0,1,78.1,345.256Z" transform="translate(-72.55 -344.195)" fill="#df1e2f"/>
                </g>
                <g id="Grupo_1211678" data-name="Grupo 1211678" transform="translate(17.265 35.763)">
                  <path id="Trazado_1082394" data-name="Trazado 1082394" d="M119.274,433.116a19.71,19.71,0,0,0-4.652,3.415c-.184-1.365-.17-2.637.36-3.139.057-.049.113-.092.177-.141a22.825,22.825,0,0,1,3.125-2,1.056,1.056,0,1,1,.989,1.867Z" transform="translate(-114.515 -431.124)" fill="#df1e2f"/>
                </g>
              </g>
              <g id="Grupo_1211680" data-name="Grupo 1211680" transform="translate(107.169 18.229)">
                <path id="Trazado_1082395" data-name="Trazado 1082395" d="M358.18,300.361a13.724,13.724,0,0,1-2.993-.332,13.61,13.61,0,0,1-8.214-21.048,13.644,13.644,0,0,1-13.766-6.132A1.061,1.061,0,0,1,335,271.713a11.49,11.49,0,0,0,15.859,3.542,1.06,1.06,0,1,1,1.136,1.79,11.49,11.49,0,1,0,12.318,19.4,1.06,1.06,0,1,1,1.136,1.79A13.525,13.525,0,0,1,358.18,300.361Z" transform="translate(-333.043 -271.22)" fill="#df1e2f"/>
              </g>
              <g id="Grupo_1211685" data-name="Grupo 1211685" transform="translate(42.979)">
                <g id="Grupo_1211681" data-name="Grupo 1211681" transform="translate(0 85.716)">
                  <path id="Trazado_1082396" data-name="Trazado 1082396" d="M195.742,447.251a1.061,1.061,0,0,1-1.049-.917,10.78,10.78,0,0,0-6.468-8.1,9.493,9.493,0,0,0-9.484.936,1.061,1.061,0,0,1-1.326-1.657,11.482,11.482,0,0,1,11.629-1.236,12.967,12.967,0,0,1,7.75,9.77,1.061,1.061,0,0,1-.907,1.195A1.031,1.031,0,0,1,195.742,447.251Z" transform="translate(-177.018 -435.261)" fill="#df1e2f"/>
                </g>
                <g id="Grupo_1211682" data-name="Grupo 1211682" transform="translate(26.589 86.289)">
                  <path id="Trazado_1082397" data-name="Trazado 1082397" d="M242.708,445.429a1.062,1.062,0,0,1-1-1.413,11.48,11.48,0,0,1,9.214-7.2,12.958,12.958,0,0,1,11.745,4.19,1.06,1.06,0,1,1-1.631,1.355,10.779,10.779,0,0,0-9.774-3.452,9.492,9.492,0,0,0-7.553,5.812A1.062,1.062,0,0,1,242.708,445.429Z" transform="translate(-241.647 -436.654)" fill="#df1e2f"/>
                </g>
                <g id="Grupo_1211683" data-name="Grupo 1211683" transform="translate(2.86)">
                  <path id="Trazado_1082398" data-name="Trazado 1082398" d="M192.434,237.495a12.56,12.56,0,0,1-8.094-2.827,1.06,1.06,0,1,1,1.378-1.612,10.78,10.78,0,0,0,10.217,1.746,9.5,9.5,0,0,0,6.46-7.007,1.06,1.06,0,1,1,2.091.355,11.48,11.48,0,0,1-7.86,8.657A12.911,12.911,0,0,1,192.434,237.495Z" transform="translate(-183.969 -226.913)" fill="#df1e2f"/>
                </g>
                <g id="Grupo_1211684" data-name="Grupo 1211684" transform="translate(8.755 76.204)">
                  <path id="Trazado_1082399" data-name="Trazado 1082399" d="M199.361,424.1h-.023a1.061,1.061,0,0,1-1.038-1.082c.2-9.341,7.408-10.84,7.481-10.853a1.06,1.06,0,0,1,.406,2.081c-.241.05-5.607,1.247-5.766,8.816A1.062,1.062,0,0,1,199.361,424.1Z" transform="translate(-198.299 -412.14)" fill="#df1e2f"/>
                </g>
              </g>
            </g>
          </g>
        </g>
        <g id="Grupo_1211699" data-name="Grupo 1211699" transform="translate(0.72)">
          <g id="Grupo_1211691" data-name="Grupo 1211691" transform="translate(0 18.6)">
            <g id="Grupo_1211689" data-name="Grupo 1211689">
              <path id="Trazado_1082400" data-name="Trazado 1082400" d="M62.7,211.425a2.071,2.071,0,0,1-1.785-1.017,26.957,26.957,0,0,1-2.531-5.69,2.071,2.071,0,1,1,3.954-1.231,22.794,22.794,0,0,0,2.142,4.813,2.071,2.071,0,0,1-1.781,3.125Zm-3.381-10.9a2.071,2.071,0,0,1-2.065-1.944q-.051-.831-.052-1.663a27.029,27.029,0,0,1,.388-4.554,2.071,2.071,0,0,1,4.082.7,22.887,22.887,0,0,0-.327,3.855q0,.7.044,1.409a2.071,2.071,0,0,1-1.94,2.194C59.4,200.52,59.357,200.522,59.314,200.522Z" transform="translate(-57.197 -190.639)" fill="#8f6cff"/>
            </g>
            <g id="Grupo_1211690" data-name="Grupo 1211690" transform="translate(6.909 21.228)">
              <path id="Trazado_1082401" data-name="Trazado 1082401" d="M77.875,248.077a2.06,2.06,0,0,1-1.333-.487,25.811,25.811,0,0,1-1.972-1.846,2.071,2.071,0,0,1,2.985-2.872,21.841,21.841,0,0,0,1.655,1.55,2.07,2.07,0,0,1-1.335,3.655Z" transform="translate(-73.991 -242.237)" fill="#8f6cff"/>
            </g>
          </g>
          <g id="Grupo_1211695" data-name="Grupo 1211695" transform="translate(80.458)">
            <g id="Grupo_1211692" data-name="Grupo 1211692" transform="translate(0.153)">
              <path id="Trazado_1082402" data-name="Trazado 1082402" d="M255.209,152.056h-.023a2.071,2.071,0,0,1-2.048-2.093l.027-2.485a2.071,2.071,0,0,1,2.07-2.049h.023a2.071,2.071,0,0,1,2.049,2.093l-.027,2.485A2.071,2.071,0,0,1,255.209,152.056Z" transform="translate(-253.137 -145.429)" fill="#8f6cff"/>
            </g>
            <g id="Grupo_1211693" data-name="Grupo 1211693" transform="translate(0.069 7.958)">
              <path id="Trazado_1082403" data-name="Trazado 1082403" d="M255,172.912h-.023a2.072,2.072,0,0,1-2.048-2.094l.042-4a2.071,2.071,0,0,1,4.142.042l-.042,4A2.071,2.071,0,0,1,255,172.912Z" transform="translate(-252.931 -164.772)" fill="#8f6cff"/>
            </g>
            <g id="Grupo_1211694" data-name="Grupo 1211694" transform="translate(0 17.328)">
              <path id="Trazado_1082404" data-name="Trazado 1082404" d="M254.836,194.174h-.023a2.072,2.072,0,0,1-2.048-2.093l.027-2.487a2.072,2.072,0,0,1,2.07-2.047h.025a2.072,2.072,0,0,1,2.047,2.1l-.027,2.483A2.071,2.071,0,0,1,254.836,194.174Z" transform="translate(-252.764 -187.547)" fill="#8f6cff"/>
            </g>
          </g>
          <g id="Grupo_1211698" data-name="Grupo 1211698" transform="translate(154.133 17.505)">
            <g id="Grupo_1211696" data-name="Grupo 1211696" transform="translate(5.691)">
              <path id="Trazado_1082405" data-name="Trazado 1082405" d="M447.747,215.024a2.071,2.071,0,0,1-1.58-3.409,21.793,21.793,0,0,0,2.495-3.673,2.071,2.071,0,1,1,3.639,1.978,25.962,25.962,0,0,1-2.972,4.371A2.066,2.066,0,0,1,447.747,215.024Zm4.672-8.484a2.073,2.073,0,0,1-1.964-2.732c.238-.707.451-1.436.634-2.166s.346-1.493.484-2.26a2.071,2.071,0,1,1,4.076.736c-.155.855-.336,1.705-.541,2.526-.209.839-.454,1.674-.726,2.484A2.072,2.072,0,0,1,452.419,206.539Zm1.786-9.552c-.05,0-.1,0-.151-.006a2.07,2.07,0,0,1-1.916-2.214c.1-1.45.157-2.995.16-4.723a2.072,2.072,0,0,1,2.071-2.067h0a2.071,2.071,0,0,1,2.067,2.075c0,1.826-.06,3.466-.172,5.013A2.07,2.07,0,0,1,454.2,196.987Z" transform="translate(-445.677 -187.977)" fill="#8f6cff"/>
            </g>
            <g id="Grupo_1211697" data-name="Grupo 1211697" transform="translate(0 26.215)">
              <path id="Trazado_1082406" data-name="Trazado 1082406" d="M433.917,257.137a2.072,2.072,0,0,1-.954-3.911,15.292,15.292,0,0,0,1.868-1.143,2.071,2.071,0,0,1,2.408,3.37,19.568,19.568,0,0,1-2.371,1.451A2.077,2.077,0,0,1,433.917,257.137Z" transform="translate(-431.845 -251.698)" fill="#8f6cff"/>
            </g>
          </g>
        </g>
      </g>
      <g id="Grupo_1211708" data-name="Grupo 1211708" transform="translate(104.599 9.689)">
        <path id="Trazado_1082407" data-name="Trazado 1082407" d="M252.545,36.084a25.809,25.809,0,0,1-.09,2.86l-9.908,18.831a25.977,25.977,0,0,1-5.022,3.3,28.027,28.027,0,0,1-28.188-2.45s-1.122-4.024-2.117-5.024c-4.153-4.19-8.563-13.364-8.563-13.364a27.078,27.078,0,0,1,2.584-15.783A27.881,27.881,0,0,1,229.59,9.986c11.269,1.762,20.417,11.092,22.531,22.174A23.934,23.934,0,0,1,252.545,36.084Z" transform="translate(-198.415 -9.689)" fill="#f6b200"/>
        <g id="Grupo_1211706" data-name="Grupo 1211706" transform="translate(14.979 11.896)">
          <g id="Grupo_1211705" data-name="Grupo 1211705">
            <g id="Grupo_1211701" data-name="Grupo 1211701" transform="translate(0 0.413)">
              <path id="Trazado_1082408" data-name="Trazado 1082408" d="M241.654,40.039c-2.635-1.364-5.964.708-6.821,3.348a.153.153,0,0,0,.232.171c2.031-1.5,3.935-3,6.534-3.237a.152.152,0,0,0,.055-.282Z" transform="translate(-234.824 -39.607)" fill="#2c2c44"/>
            </g>
            <g id="Grupo_1211702" data-name="Grupo 1211702" transform="translate(16.555)">
              <path id="Trazado_1082409" data-name="Trazado 1082409" d="M275.206,39.416a10.566,10.566,0,0,1,3.932.943,32.815,32.815,0,0,1,3.6,2.152.15.15,0,0,0,.218-.051c-1.038-2.89-5.007-4.853-7.817-3.323A.151.151,0,0,0,275.206,39.416Z" transform="translate(-275.064 -38.603)" fill="#2c2c44"/>
            </g>
            <g id="Grupo_1211704" data-name="Grupo 1211704" transform="translate(1.879 5.41)">
              <g id="Grupo_1211703" data-name="Grupo 1211703">
                <path id="Trazado_1082410" data-name="Trazado 1082410" d="M276.624,55.369c.271,4.758,3.7,4.695,3.535-.122C279.869,50.539,276.485,50.6,276.624,55.369Z" transform="translate(-261.304 -51.754)" fill="#2c2c44"/>
                <path id="Trazado_1082411" data-name="Trazado 1082411" d="M243.63,56.016c.19,4.8,3.613,4.652,3.533-.122C246.952,51.143,243.573,51.29,243.63,56.016Z" transform="translate(-241.886 -52.134)" fill="#2c2c44"/>
                <path id="Trazado_1082412" data-name="Trazado 1082412" d="M260.722,68.84c-3.54,10.026-17.562,10.486-21.33.445,1.786,11.928,19.792,11.514,21.33-.445Z" transform="translate(-239.392 -61.811)" fill="#2c2c44"/>
              </g>
            </g>
          </g>
        </g>
        <g id="Grupo_1211707" data-name="Grupo 1211707" transform="translate(0.243 27.033)">
          <path id="Trazado_1082413" data-name="Trazado 1082413" d="M304.951,77.62a28,28,0,0,1-9.908,18.831,10.792,10.792,0,1,1,9.908-18.831Z" transform="translate(-251.154 -75.398)" fill="#f76c6f"/>
          <path id="Trazado_1082414" data-name="Trazado 1082414" d="M209.685,98.683a25.34,25.34,0,0,1-3.207-2.728,27.284,27.284,0,0,1-7.472-15.66,10.794,10.794,0,1,1,10.679,18.387Z" transform="translate(-199.006 -76.784)" fill="#f76c6f"/>
        </g>
      </g>
      <g id="Grupo_1211716" data-name="Grupo 1211716" transform="translate(39.024 37.047)">
        <path id="Trazado_1082415" data-name="Trazado 1082415" d="M87.6,96.154a23.43,23.43,0,0,1,.335,2.566l-6.114,18.244a23.536,23.536,0,0,1-4.005,3.67,25.345,25.345,0,0,1-25.515,1.9s-1.585-3.429-2.617-4.177c-4.314-3.138-9.58-10.687-9.58-10.687a24.488,24.488,0,0,1,.018-14.462A25.212,25.212,0,0,1,63.331,76.188c10.314-.061,19.831,6.94,23.326,16.526A21.761,21.761,0,0,1,87.6,96.154Z" transform="translate(-39.024 -76.188)" fill="#b8cdf2"/>
        <g id="Grupo_1211714" data-name="Grupo 1211714" transform="translate(11.174 9.106)">
          <g id="Grupo_1211713" data-name="Grupo 1211713">
            <g id="Grupo_1211709" data-name="Grupo 1211709" transform="translate(0 0.671)">
              <path id="Trazado_1082416" data-name="Trazado 1082416" d="M66.3,105.111c2.666.3,4.81-2.521,4.683-5.029a.138.138,0,0,0-.251-.07c-1.233,1.921-2.356,3.807-4.476,4.841a.138.138,0,0,0,.044.257Z" transform="translate(-66.184 -99.953)" fill="#2c2c44"/>
            </g>
            <g id="Grupo_1211710" data-name="Grupo 1211710" transform="translate(14.361)">
              <path id="Trazado_1082417" data-name="Trazado 1082417" d="M108.317,100.511a9.562,9.562,0,0,1-3.618-.527,29.735,29.735,0,0,1-3.415-1.644.136.136,0,0,0-.192.063c1.171,2.518,4.905,3.961,7.311,2.354A.137.137,0,0,0,108.317,100.511Z" transform="translate(-101.091 -98.322)" fill="#2c2c44"/>
            </g>
            <g id="Grupo_1211712" data-name="Grupo 1211712" transform="translate(3.942 4.351)">
              <g id="Grupo_1211711" data-name="Grupo 1211711">
                <path id="Trazado_1082418" data-name="Trazado 1082418" d="M105.207,112.372c.932,4.208,3.982,3.655,3.138-.621C107.4,107.59,104.391,108.135,105.207,112.372Z" transform="translate(-93.012 -108.897)" fill="#2c2c44"/>
                <path id="Trazado_1082419" data-name="Trazado 1082419" d="M75.88,117.718c.866,4.257,3.9,3.628,3.136-.621C78.139,112.888,75.144,113.509,75.88,117.718Z" transform="translate(-75.765 -112.038)" fill="#2c2c44"/>
                <path id="Trazado_1082420" data-name="Trazado 1082420" d="M81.229,135.166c1.423-7.89,11.8-9.927,15.821-2.91-2.771-8.661-16.121-6.177-15.821,2.91Z" transform="translate(-78.978 -119.496)" fill="#2c2c44"/>
              </g>
            </g>
          </g>
        </g>
        <g id="Grupo_1211715" data-name="Grupo 1211715" transform="translate(1.083 21.371)">
          <path id="Trazado_1082421" data-name="Trazado 1082421" d="M137.363,129.3a25.32,25.32,0,0,1-6.114,18.244,9.759,9.759,0,1,1,6.114-18.244Z" transform="translate(-89.531 -128.135)" fill="#f76c6f"/>
          <path id="Trazado_1082422" data-name="Trazado 1082422" d="M53.854,162.705a22.887,22.887,0,0,1-3.258-1.97,24.676,24.676,0,0,1-8.939-12.894,9.761,9.761,0,1,1,12.2,14.864Z" transform="translate(-41.656 -137.731)" fill="#f76c6f"/>
        </g>
      </g>
      <g id="Grupo_1211724" data-name="Grupo 1211724" transform="translate(168.574 41.414)">
        <path id="Trazado_1082423" data-name="Trazado 1082423" d="M354.414,106.77a23.432,23.432,0,0,0-.335,2.566l6.114,18.244a23.521,23.521,0,0,0,4.005,3.67,25.345,25.345,0,0,0,25.515,1.9s1.585-3.429,2.617-4.177c4.314-3.138,9.58-10.687,9.58-10.687a24.485,24.485,0,0,0-.018-14.462A25.213,25.213,0,0,0,378.687,86.8c-10.314-.061-19.832,6.94-23.326,16.526A21.794,21.794,0,0,0,354.414,106.77Z" transform="translate(-354.014 -86.803)" fill="#df1e2f"/>
        <g id="Grupo_1211722" data-name="Grupo 1211722" transform="translate(17.225 10.067)">
          <g id="Grupo_1211721" data-name="Grupo 1211721">
            <g id="Grupo_1211717" data-name="Grupo 1211717" transform="translate(11.906 3.731)">
              <path id="Trazado_1082424" data-name="Trazado 1082424" d="M430.755,120.488c-.286,2.668-3.508,4.145-5.928,3.475a.138.138,0,0,1-.013-.26c2.143-.785,4.228-1.469,5.7-3.313a.137.137,0,0,1,.241.1Z" transform="translate(-424.728 -120.342)" fill="#2c2c44"/>
            </g>
            <g id="Grupo_1211718" data-name="Grupo 1211718" transform="translate(1.725)">
              <path id="Trazado_1082425" data-name="Trazado 1082425" d="M400.389,111.37A9.556,9.556,0,0,0,402,114.654a29.7,29.7,0,0,0,2.61,2.749.136.136,0,0,1,0,.2c-2.755-.346-5.271-3.459-4.477-6.241A.137.137,0,0,1,400.389,111.37Z" transform="translate(-399.98 -111.272)" fill="#2c2c44"/>
            </g>
            <g id="Grupo_1211720" data-name="Grupo 1211720" transform="translate(0 6.334)">
              <g id="Grupo_1211719" data-name="Grupo 1211719">
                <path id="Trazado_1082426" data-name="Trazado 1082426" d="M400.623,130.142c-.932,4.208-3.982,3.655-3.138-.621C398.427,125.36,401.439,125.906,400.623,130.142Z" transform="translate(-396.701 -126.668)" fill="#2c2c44"/>
                <path id="Trazado_1082427" data-name="Trazado 1082427" d="M430.021,135.489c-.866,4.257-3.9,3.628-3.136-.621C427.762,130.659,430.756,131.28,430.021,135.489Z" transform="translate(-414.019 -129.809)" fill="#2c2c44"/>
                <path id="Trazado_1082428" data-name="Trazado 1082428" d="M403.968,144.09a9.039,9.039,0,0,0-4.841.11c-1.354.42-3.114,1.47-3.32,3.035a3.181,3.181,0,0,0,2.891,3.245c1.387.1,2.786-.729,4.12-.342,1.411.41,2.239,2.046,3.678,2.343,1.531.316,2.993-1.212,3.041-2.775a5.131,5.131,0,0,0-2.179-3.961A8.94,8.94,0,0,0,403.968,144.09Z" transform="translate(-395.788 -136.759)" fill="#fff"/>
              </g>
            </g>
          </g>
        </g>
        <g id="Grupo_1211723" data-name="Grupo 1211723" transform="translate(0 21.372)">
          <path id="Trazado_1082429" data-name="Trazado 1082429" d="M353.986,139.912a25.32,25.32,0,0,0,6.114,18.244,9.759,9.759,0,1,0-6.114-18.244Z" transform="translate(-353.92 -138.752)" fill="#f76c6f"/>
          <path id="Trazado_1082430" data-name="Trazado 1082430" d="M433.587,173.321a22.881,22.881,0,0,0,3.258-1.97,24.674,24.674,0,0,0,8.939-12.894,9.761,9.761,0,1,0-12.2,14.864Z" transform="translate(-397.888 -148.347)" fill="#f76c6f"/>
        </g>
      </g>
      <g id="Grupo_1211725" data-name="Grupo 1211725" transform="translate(89.573 57.263)">
        <circle id="Elipse_14267" data-name="Elipse 14267" cx="4.426" cy="4.426" r="4.426" transform="translate(64.466 9.771)" fill="#b8cdf2"/>
        <circle id="Elipse_14268" data-name="Elipse 14268" cx="4.594" cy="4.594" r="4.594" transform="translate(63.348 31.879) rotate(-80.752)" fill="#b8cdf2"/>
        <circle id="Elipse_14269" data-name="Elipse 14269" cx="7.209" cy="7.209" r="7.209" transform="translate(0 14.23) rotate(-80.729)" fill="#b8cdf2"/>
        <circle id="Elipse_14270" data-name="Elipse 14270" cx="3.332" cy="3.332" r="3.332" transform="matrix(0.231, -0.973, 0.973, 0.231, 53.799, 20.343)" fill="#2c2c44"/>
        <circle id="Elipse_14271" data-name="Elipse 14271" cx="4.839" cy="4.839" r="4.839" transform="translate(17.827 11.477)" fill="#2c2c44"/>
      </g>
    </g>
  </g>
</svg>
