<svg xmlns="http://www.w3.org/2000/svg" xmlns:xlink="http://www.w3.org/1999/xlink" width="108" height="108" viewBox="0 0 108 108">
  <defs>
    <filter id="Trazado_904820" x="0" y="0" width="108" height="108" filterUnits="userSpaceOnUse">
      <feOffset dy="3" input="SourceAlpha"/>
      <feGaussianBlur stdDeviation="3" result="blur"/>
      <feFlood flood-opacity="0.161"/>
      <feComposite operator="in" in2="blur"/>
      <feComposite in="SourceGraphic"/>
    </filter>
  </defs>
  <g id="Grupo_1212379" data-name="Grupo 1212379" transform="translate(-197 -7117.833)">
    <g id="Grupo_1211333" data-name="Grupo 1211333" transform="translate(206 7123.833)">
      <g id="Grupo_1207774" data-name="Grupo 1207774" transform="translate(0 0)">
        <g id="Grupo_1206630" data-name="Grupo 1206630" transform="translate(0 0)">
          <g id="Grupo_1185091" data-name="Grupo 1185091">
            <g id="Grupo_1179560" data-name="Grupo 1179560">
              <g id="Grupo_1173787" data-name="Grupo 1173787">
                <g id="Grupo_1171910" data-name="Grupo 1171910">
                  <g id="Grupo_1167341" data-name="Grupo 1167341">
                    <g id="Grupo_1166792" data-name="Grupo 1166792">
                      <g transform="matrix(1, 0, 0, 1, -9, -6)" filter="url(#Trazado_904820)">
                        <g id="Trazado_904820-2" data-name="Trazado 904820" transform="translate(9 6)" fill="#f5faf0">
                          <path d="M 44.99999618530273 88.50014495849609 C 39.12687301635742 88.50014495849609 33.43022155761719 87.3502197265625 28.06829643249512 85.08231353759766 C 22.88852119445801 82.89144897460938 18.23629570007324 79.75472259521484 14.24085903167725 75.75926971435547 C 10.24540901184082 71.76382446289062 7.108683586120605 67.11158752441406 4.917821407318115 61.93180847167969 C 2.649921178817749 56.56987380981445 1.499996185302734 50.87321090698242 1.499996185302734 45.00007247924805 C 1.499996185302734 39.12693405151367 2.649921178817749 33.4302864074707 4.917821407318115 28.0683479309082 C 7.108683586120605 22.88855934143066 10.24540901184082 18.23633575439453 14.24085903167725 14.24087238311768 C 18.23629570007324 10.24542236328125 22.88852119445801 7.108697414398193 28.06829643249512 4.917834758758545 C 33.43022155761719 2.649922370910645 39.12687301635742 1.499997496604919 44.99999618530273 1.499997496604919 C 50.87311935424805 1.499997496604919 56.56977081298828 2.649922370910645 61.93169784545898 4.917834758758545 C 67.11147308349609 7.108697414398193 71.76369476318359 10.24542236328125 75.75913238525391 14.24087238311768 C 79.75458526611328 18.23633575439453 82.89131164550781 22.88855934143066 85.08216857910156 28.0683479309082 C 87.35007476806641 33.4302864074707 88.5 39.12693405151367 88.5 45.00007247924805 C 88.5 50.87321090698242 87.35007476806641 56.56987380981445 85.08216857910156 61.93180847167969 C 82.89131164550781 67.11158752441406 79.75458526611328 71.76382446289062 75.75913238525391 75.75926971435547 C 71.76369476318359 79.75472259521484 67.11147308349609 82.89144897460938 61.93169784545898 85.08231353759766 C 56.56977081298828 87.3502197265625 50.87311935424805 88.50014495849609 44.99999618530273 88.50014495849609 Z" stroke="none"/>
                          <path d="M 44.99999618530273 3 C 39.32870864868164 3 33.82866668701172 4.110061645507812 28.65262603759766 6.299346923828125 C 23.65165710449219 8.414588928222656 19.15968322753906 11.443359375 15.301513671875 15.30154418945312 C 11.44333648681641 19.15971374511719 8.414566040039062 23.65168762207031 6.299339294433594 28.65267181396484 C 4.110054016113281 33.82871627807617 2.999992370605469 39.32877349853516 2.999992370605469 45.00007247924805 C 2.999992370605469 50.67137145996094 4.110054016113281 56.17142868041992 6.299339294433594 61.34747314453125 C 8.414566040039062 66.34845733642578 11.44333648681641 70.84043121337891 15.301513671875 74.69861602783203 C 19.15968322753906 78.55678558349609 23.65165710449219 81.5855712890625 28.65262603759766 83.70079803466797 C 33.82865142822266 85.89008331298828 39.32870864868164 87.00014495849609 44.99999618530273 87.00014495849609 C 50.67128372192383 87.00014495849609 56.17134094238281 85.89008331298828 61.34736633300781 83.70079803466797 C 66.34834289550781 81.5855712890625 70.84030914306641 78.55678558349609 74.69847869873047 74.69861602783203 C 78.55665588378906 70.84043121337891 81.58542633056641 66.34845733642578 83.70065307617188 61.34747314453125 C 85.88993835449219 56.17142868041992 87 50.67137145996094 87 45.00007247924805 C 87 39.32877349853516 85.88993835449219 33.82871627807617 83.70065307617188 28.65267181396484 C 81.58542633056641 23.65168762207031 78.55665588378906 19.15971374511719 74.69847869873047 15.30154418945312 C 70.84030914306641 11.443359375 66.34834289550781 8.414588928222656 61.34736633300781 6.299346923828125 C 56.17132568359375 4.110061645507812 50.67128372192383 3 44.99999618530273 3 M 44.99999618530273 0 C 69.85281372070312 0 90 20.14723205566406 90 45.00007247924805 C 90 69.85292816162109 69.85281372070312 90.00014495849609 44.99999618530273 90.00014495849609 C 20.14717864990234 90.00014495849609 -7.62939453125e-06 69.85292816162109 -7.62939453125e-06 45.00007247924805 C -7.62939453125e-06 20.14723205566406 20.14717864990234 0 44.99999618530273 0 Z" stroke="none" fill="#5c733e"/>
                        </g>
                      </g>
                    </g>
                  </g>
                </g>
              </g>
            </g>
          </g>
        </g>
      </g>
    </g>
    <g id="cerebro-creativo" transform="translate(210.431 7138.73)">
      <g id="Grupo_1212378" data-name="Grupo 1212378" transform="translate(12.742 0.882)">
        <path id="Trazado_1083425" data-name="Trazado 1083425" d="M70.77,44.111a6.267,6.267,0,0,1-3.483,8.368A8.147,8.147,0,0,1,58.414,62a5.045,5.045,0,0,1-5.019,3.2c-1.925,0-3.277-.239-4.427-1.6a2.728,2.728,0,0,0-.683-.381q-.113-.165-.216-.337a9.151,9.151,0,0,1-.784-2.592.1.1,0,0,0-.2,0,9.15,9.15,0,0,1-.784,2.592,6.27,6.27,0,0,1-11.051-.527l-.991-.472-.952.444A8.15,8.15,0,0,1,26.265,54.7l.758-.74-.644-1.127A6.267,6.267,0,0,1,22.9,44.464l-.485-1.1-.956-.072a7.516,7.516,0,0,1-.053-10.36l.1-1.236-.726-.621A5.016,5.016,0,0,1,23.615,25.9,6.264,6.264,0,0,1,28.532,18l.622-1.054s-.756-.715-.755-.73a6.268,6.268,0,0,1,8.989-5.208l.706-.777.117-.793a5.014,5.014,0,0,1,8.093.232,6.447,6.447,0,0,1,.765,2.04.119.119,0,0,0,.234,0,6.448,6.448,0,0,1,.765-2.038,5.013,5.013,0,0,1,8.093-.233l-.06.958.883.612a6.263,6.263,0,0,1,3.195-.612c.026,0,.306.242.332.244,3.073.255,4.8,2.881,4.994,5.958.039.608.382,1.179.258,1.74a5.955,5.955,0,0,1,4.769,6.183,6.24,6.24,0,0,1-.245,1.732c1.7.8,2.642,1.825,2.642,3.83a4.993,4.993,0,0,1-.666,2.494A7.519,7.519,0,0,1,70.77,44.111Z" transform="translate(-19.359 -7.5)" fill="#ffcebf"/>
        <path id="Trazado_1083426" data-name="Trazado 1083426" d="M288.531,66.224a6.267,6.267,0,0,1-3.483,8.368l-.426,1.186.541.669a8.135,8.135,0,0,1-7.045,7.644l-1.066-.388-.877.416a6.269,6.269,0,0,1-10.835.863q.231.018.466.018a6.263,6.263,0,0,0,5.264-2.866,1.476,1.476,0,0,1,1.245-.674h.009a8.147,8.147,0,0,0,8.147-8.148q0-.243-.015-.482a1.461,1.461,0,0,1,.743-1.347,6.268,6.268,0,0,0,2.95-7.042,1.444,1.444,0,0,1,.468-1.487,7.517,7.517,0,0,0,.7-10.963,5.01,5.01,0,0,0-1.426-6.567,1.443,1.443,0,0,1-.6-1.361,6.267,6.267,0,0,0-4.585-6.885.585.585,0,0,1-.428-.643,6.239,6.239,0,0,0-1.05-4.372,6.283,6.283,0,0,1,5.793,5.806c0,.014-.425.858-.425.858l.293.94a6.264,6.264,0,0,1,4.918,7.9,5.015,5.015,0,0,1,2.837,5.174l-.6.448-.028,1.407a7.516,7.516,0,0,1-.049,10.356l-1.1.159Z" transform="translate(-236.415 -29.26)" fill="#ffb9ab"/>
        <g id="Grupo_1212377" data-name="Grupo 1212377" transform="translate(15.186 7.908)">
          <path id="Trazado_1083427" data-name="Trazado 1083427" d="M230.473,379.719l-2.066.087c-.111,0-.27.02-.384.017A2.352,2.352,0,0,1,226,377.5v-1.176l3.379-1.19,3.369,1.19V377.5A2.181,2.181,0,0,1,230.473,379.719Z" transform="translate(-216.886 -339.807)" fill="#dfeef4"/>
          <path id="Trazado_1083428" data-name="Trazado 1083428" d="M248.242,379.683v1.176a2.351,2.351,0,0,1-2.352,2.352h-2.352a2.321,2.321,0,0,1-.328-.023,2.351,2.351,0,0,0,2.024-2.329v-1.176l1.489-.742Z" transform="translate(-232.073 -343.171)" fill="#cfe2e8"/>
          <path id="Trazado_1083429" data-name="Trazado 1083429" d="M173.276,87.378a12.044,12.044,0,0,0-2.949-8.539c-.309-.331-.592-.685-.921-1.014a12.641,12.641,0,0,0-16.559,19.1,9.641,9.641,0,0,1,3.3,7.277l4.981.868,4.366-.868v-.1a9.581,9.581,0,0,1,3.32-7.2,12.764,12.764,0,0,0,4.466-9.531Z" transform="translate(-148.5 -74.749)" fill="#ffe077"/>
          <path id="Trazado_1083430" data-name="Trazado 1083430" d="M281.63,110.475a12.609,12.609,0,0,1-4.323,9.518,9.58,9.58,0,0,0-3.321,7.2v.1l-1.561.935-1.705-.935,1.15-2.563a9.341,9.341,0,0,1,3.321-7.086,12.64,12.64,0,0,0,2.063-16.731A12.609,12.609,0,0,1,281.63,110.475Z" transform="translate(-256.348 -97.834)" fill="#ffd05b"/>
          <path id="Trazado_1083431" data-name="Trazado 1083431" d="M214.4,331.982l-4.208.323h-5.544a1.149,1.149,0,0,1-1.149-1.149V326.4a1.149,1.149,0,0,1,1.149-1.149h5.544l4.128.294a1.149,1.149,0,0,1,1.149,1.149l.08,4.14A1.149,1.149,0,0,1,214.4,331.982Z" transform="translate(-197.032 -295.793)" fill="#f2fbff"/>
          <path id="Trazado_1083432" data-name="Trazado 1083432" d="M266.074,326.4v4.758a1.148,1.148,0,0,1-1.149,1.149h-4.5V325.25h4.5A1.148,1.148,0,0,1,266.074,326.4Z" transform="translate(-247.259 -295.793)" fill="#dfeef4"/>
        </g>
      </g>
      <path id="Trazado_1083433" data-name="Trazado 1083433" d="M69.278,31.467a8.365,8.365,0,0,0-1.872-5.286,5.894,5.894,0,0,0-2.255-7.346,7.148,7.148,0,0,0-4.931-8.116A7.191,7.191,0,0,0,53.1,2.883a7.1,7.1,0,0,0-2.252.362A5.9,5.9,0,0,0,40.569,2.8a5.9,5.9,0,0,0-10.283.446A7.187,7.187,0,0,0,25.8,3.239a.882.882,0,0,0,.551,1.676,5.523,5.523,0,0,1,4.023.267,5.406,5.406,0,0,1,2.043,1.924.882.882,0,0,0,1.477-.965A7.574,7.574,0,0,0,31.87,4.023,4.133,4.133,0,0,1,39.687,5.9V7.936a13.523,13.523,0,0,0-7.992,23.7A8.738,8.738,0,0,1,34.66,37.57,2.031,2.031,0,0,0,33.513,39.4v1.5h-.294a.882.882,0,0,0,0,1.764h.294v1.5a2.033,2.033,0,0,0,2.031,2.031h.615v.294a3.237,3.237,0,0,0,3.234,3.234h.294v3.346a5.358,5.358,0,1,1-10.716.035,5.326,5.326,0,0,1,.355-1.922.882.882,0,1,0-1.646-.634,7.131,7.131,0,0,0-.241,4.356,7.3,7.3,0,0,1-6.913-7.59,8.173,8.173,0,0,0,1.224.086,6.932,6.932,0,0,0,4.568-1.716.882.882,0,1,0-1.162-1.327,5.17,5.17,0,0,1-3.407,1.28,5.234,5.234,0,0,1-1.673-.235,5.42,5.42,0,0,1-3.446-5.024,5.007,5.007,0,0,1,1.237-3.349,4.445,4.445,0,0,0,1.117.968A.882.882,0,1,0,19.9,36.48a2.63,2.63,0,0,1-1.27-2.261.882.882,0,0,0-1.764,0,4.458,4.458,0,0,0,.151,1.153,6.84,6.84,0,0,0-1.029,1.177,6.634,6.634,0,0,1-.566-9.629,6.525,6.525,0,0,1,4.778-2.05.882.882,0,0,0,0-1.764,8.266,8.266,0,0,0-5.077,1.716,4.123,4.123,0,0,1,2.246-4.741.882.882,0,0,0,.471-1.041,5.383,5.383,0,0,1,4.224-6.788l.017,0a5.137,5.137,0,0,1,3.9.639.882.882,0,0,0,.9-1.515,7.283,7.283,0,0,0-3.73-1.025c-.172,0-.338.01-.5.026a5.554,5.554,0,0,1,.9-3.343A.882.882,0,0,0,22.1,6.047a7.223,7.223,0,0,0-1.18,4.672,7.148,7.148,0,0,0-4.931,8.116,5.894,5.894,0,0,0-2.255,7.346,8.4,8.4,0,0,0,1.478,12,7.1,7.1,0,0,0-.342,2.186A7.2,7.2,0,0,0,18.8,46.749a9.058,9.058,0,0,0,9.327,9.91,7.147,7.147,0,0,0,12.443-.166,7.147,7.147,0,0,0,12.443.166,9.247,9.247,0,0,0,5.148-1.377.882.882,0,1,0-.94-1.492,7.226,7.226,0,0,1-3.525,1.1,7.13,7.13,0,0,0-.242-4.355.882.882,0,0,0-1.646.634,5.354,5.354,0,0,1-4.971,7.272,5.391,5.391,0,0,1-5.385-5.385V49.712h.294a3.237,3.237,0,0,0,3.234-3.234v-.294h.615a2.033,2.033,0,0,0,2.031-2.031v-1.5h.294a.882.882,0,0,0,0-1.764h-.294V39.4a2.031,2.031,0,0,0-1.153-1.829,8.741,8.741,0,0,1,3-5.954A13.545,13.545,0,0,0,53.832,18.78a.882.882,0,0,0-1.73.344,11.781,11.781,0,0,1-3.8,11.161,10.51,10.51,0,0,0-3.591,7.079H43.078L46.722,20.9a.882.882,0,0,0-1.194-1.007l-2.346.957-2-1.948a.882.882,0,0,0-1.232,0l-2,1.948-2.345-.957A.882.882,0,0,0,34.416,20.9l1.536,6.945a.882.882,0,1,0,1.722-.381l-1.173-5.3,1.323.54a.882.882,0,0,0,.949-.185l1.795-1.751,1.795,1.751a.882.882,0,0,0,.949.185l1.323-.54-3.364,15.2H39.866l-1.3-5.88a.882.882,0,1,0-1.722.381l1.217,5.5H36.416a10.5,10.5,0,0,0-3.563-7.06,11.76,11.76,0,1,1,17.89-14.774.882.882,0,0,0,1.525-.886A13.6,13.6,0,0,0,41.451,7.939V5.9a4.133,4.133,0,0,1,7.816-1.875,7.571,7.571,0,0,0-2.027,2.12.882.882,0,1,0,1.477.965,5.409,5.409,0,0,1,2.039-1.921A5.333,5.333,0,0,1,53.1,4.647a5.415,5.415,0,0,1,5.373,5.727c-.163-.016-.331-.026-.5-.026a7.283,7.283,0,0,0-3.729,1.025.882.882,0,1,0,.9,1.515,5.519,5.519,0,0,1,2.826-.776,5.585,5.585,0,0,1,1.079.138h.009l.009,0a5.383,5.383,0,0,1,4.224,6.788.882.882,0,0,0,.471,1.041,4.123,4.123,0,0,1,2.245,4.745,8.4,8.4,0,0,0-5.08-1.72.882.882,0,0,0,0,1.764,6.529,6.529,0,0,1,4.782,2.05,6.634,6.634,0,0,1-.568,9.631,6.841,6.841,0,0,0-1.03-1.179,4.452,4.452,0,0,0,.151-1.153.882.882,0,0,0-1.764,0,2.631,2.631,0,0,1-1.27,2.261.882.882,0,1,0,.919,1.506,4.447,4.447,0,0,0,1.117-.968,5.035,5.035,0,0,1,1.241,3.349,5.42,5.42,0,0,1-3.433,5.018,5.476,5.476,0,0,1-5.1-1.039.882.882,0,0,0-1.162,1.327,6.933,6.933,0,0,0,4.568,1.716,8.155,8.155,0,0,0,1.228-.087,7.519,7.519,0,0,1-.9,3.852.882.882,0,1,0,1.542.855,9.039,9.039,0,0,0,1.129-4.374c0-.293-.015-.59-.045-.887a7.2,7.2,0,0,0,3.931-6.383,7.1,7.1,0,0,0-.342-2.186A8.353,8.353,0,0,0,69.278,31.467ZM43.215,46.478a1.471,1.471,0,0,1-1.47,1.47H39.393a1.471,1.471,0,0,1-1.47-1.47v-.294h5.292Zm2.646-2.325a.267.267,0,0,1-.267.267H35.544a.267.267,0,0,1-.267-.267v-1.5H45.861ZM35.277,40.893V39.4a.267.267,0,0,1,.267-.267H45.594a.267.267,0,0,1,.267.267v1.5Z"/>
    </g>
  </g>
</svg>
