<svg xmlns="http://www.w3.org/2000/svg" xmlns:xlink="http://www.w3.org/1999/xlink" width="93.934" height="93.934" viewBox="0 0 93.934 93.934">
  <defs>
    <filter id="Trazado_978624" x="0" y="0" width="93.934" height="93.934" filterUnits="userSpaceOnUse">
      <feOffset dy="3" input="SourceAlpha"/>
      <feGaussianBlur stdDeviation="3" result="blur"/>
      <feFlood flood-opacity="0.161"/>
      <feComposite operator="in" in2="blur"/>
      <feComposite in="SourceGraphic"/>
    </filter>
  </defs>
  <g id="Grupo_1212226" data-name="Grupo 1212226" transform="translate(-609 -1523.533)">
    <g id="Grupo_1210963" data-name="Grupo 1210963" transform="translate(0 -377.186)">
      <g id="Grupo_1208068" data-name="Grupo 1208068" transform="translate(412 470.719)">
        <g id="Grupo_1144123" data-name="Grupo 1144123" transform="translate(206 1436)">
          <g transform="matrix(1, 0, 0, 1, -9, -6)" filter="url(#Trazado_978624)">
            <g id="Trazado_978624-2" data-name="Trazado 978624" transform="translate(9 6)" fill="#fbf3fb">
              <path d="M 37.966796875 74.43359375 C 33.04315185546875 74.43359375 28.26757431030273 73.46962738037109 23.77274131774902 71.56847381591797 C 19.43047523498535 69.73184967041016 15.53040790557861 67.10224914550781 12.18087482452393 63.75271987915039 C 8.831341743469238 60.4031867980957 6.201741218566895 56.50312042236328 4.365118980407715 52.16086196899414 C 2.463963508605957 47.66601943969727 1.499996900558472 42.89044189453125 1.499996900558472 37.966796875 C 1.499996900558472 33.04315185546875 2.463963508605957 28.26757431030273 4.365118980407715 23.77274131774902 C 6.201741218566895 19.43047523498535 8.831341743469238 15.53040790557861 12.18087482452393 12.18087482452393 C 15.53040790557861 8.831341743469238 19.43047523498535 6.201741218566895 23.77274131774902 4.365118980407715 C 28.26757431030273 2.463963508605957 33.04315185546875 1.499996900558472 37.966796875 1.499996900558472 C 42.89044189453125 1.499996900558472 47.66601943969727 2.463963508605957 52.16086196899414 4.365118980407715 C 56.50312042236328 6.201741218566895 60.4031867980957 8.831341743469238 63.75271987915039 12.18087482452393 C 67.10224914550781 15.53040790557861 69.73184967041016 19.43047523498535 71.56847381591797 23.77274131774902 C 73.46962738037109 28.26757431030273 74.43359375 33.04315185546875 74.43359375 37.966796875 C 74.43359375 42.89044189453125 73.46962738037109 47.66601943969727 71.56847381591797 52.16086196899414 C 69.73184967041016 56.50313186645508 67.10224914550781 60.4031867980957 63.75271987915039 63.75271987915039 C 60.4031867980957 67.10224914550781 56.50313186645508 69.73184967041016 52.16086196899414 71.56847381591797 C 47.66601943969727 73.46962738037109 42.89044189453125 74.43359375 37.966796875 74.43359375 Z" stroke="none"/>
              <path d="M 37.966796875 3 C 33.2449836730957 3 28.66600799560547 3.924095153808594 24.35705947875977 5.746635437011719 C 20.19359588623047 7.507621765136719 16.45379638671875 10.02927398681641 13.24153518676758 13.24153518676758 C 10.02927398681641 16.45379638671875 7.507621765136719 20.19359588623047 5.746635437011719 24.35705947875977 C 3.924095153808594 28.66600799560547 3 33.2449836730957 3 37.966796875 C 3 42.6886100769043 3.924095153808594 47.26758575439453 5.746635437011719 51.57653427124023 C 7.507621765136719 55.73999786376953 10.02927398681641 59.47979736328125 13.24153518676758 62.69205856323242 C 16.45379638671875 65.90431976318359 20.19359588623047 68.42597198486328 24.35705947875977 70.18695831298828 C 28.66600799560547 72.00949859619141 33.2449836730957 72.93359375 37.966796875 72.93359375 C 42.6886100769043 72.93359375 47.26758575439453 72.00949859619141 51.57653427124023 70.18695831298828 C 55.73999786376953 68.42597198486328 59.47979736328125 65.90431976318359 62.69205856323242 62.69205856323242 C 65.90431976318359 59.47979736328125 68.42597198486328 55.73999786376953 70.18695831298828 51.57653427124023 C 72.00949859619141 47.26758575439453 72.93359375 42.6886100769043 72.93359375 37.966796875 C 72.93359375 33.2449836730957 72.00949859619141 28.66600799560547 70.18695831298828 24.35705947875977 C 68.42597198486328 20.19359588623047 65.90431976318359 16.45379638671875 62.69205856323242 13.24153518676758 C 59.47979736328125 10.02927398681641 55.73999786376953 7.507621765136719 51.57653427124023 5.746635437011719 C 47.26758575439453 3.924095153808594 42.6886100769043 3 37.966796875 3 M 37.966796875 0 C 58.93528366088867 0 75.93359375 16.99831008911133 75.93359375 37.966796875 C 75.93359375 58.93528366088867 58.93528366088867 75.93359375 37.966796875 75.93359375 C 16.99831008911133 75.93359375 0 58.93528366088867 0 37.966796875 C 0 16.99831008911133 16.99831008911133 0 37.966796875 0 Z" stroke="none" fill="#df93dd"/>
            </g>
          </g>
        </g>
      </g>
    </g>
    <g id="comportamiento" transform="translate(620 1541.985)">
      <g id="Grupo_1212224" data-name="Grupo 1212224" transform="translate(0.747 0.748)">
        <g id="Grupo_1212217" data-name="Grupo 1212217" transform="translate(0 23.372)">
          <path id="Trazado_1082786" data-name="Trazado 1082786" d="M238.651,340.782l1.159,4.092h15.121l-.616-1.866a3.87,3.87,0,0,0-3.79-3.1H243.1Z" transform="translate(-215.613 -330.147)" fill="#fdd0bf"/>
          <path id="Trazado_1082787" data-name="Trazado 1082787" d="M236.156,339.911l1.408,4.968h7.963a5.126,5.126,0,0,0-.8-1.052l-3.876-3.916Z" transform="translate(-213.367 -330.153)" fill="#fcc1ac"/>
          <path id="Trazado_1082788" data-name="Trazado 1082788" d="M262.716,372.42l5.122-1.326h10.024a3.87,3.87,0,0,1,3.864,3.724v1.57H262.716V372.42Z" transform="translate(-237.28 -358.228)" fill="#fedecf"/>
          <path id="Trazado_1082789" data-name="Trazado 1082789" d="M262.713,371.091v5.294h7.338a5.145,5.145,0,0,0-1.416-4.486l-.8-.808Z" transform="translate(-237.277 -358.225)" fill="#fdd0bf"/>
          <path id="Trazado_1082790" data-name="Trazado 1082790" d="M262.716,414.355l22.291-.283a6.68,6.68,0,0,1,.876.163,1.526,1.526,0,0,0,.93-1.406,4.306,4.306,0,0,0-4.3-4.31H270.08l-6.543.888Z" transform="translate(-237.28 -391.923)" fill="#fdd0bf"/>
          <path id="Trazado_1082791" data-name="Trazado 1082791" d="M262.713,414.356h22.575a1.527,1.527,0,0,0,.593-.12,6.306,6.306,0,0,0-5.853-3.98h-9.215a.7.7,0,0,1-.7-.747q.011-.206.006-.415a5.239,5.239,0,0,0-.046-.574h-6.4Z" transform="translate(-237.277 -391.925)" fill="#fcc1ac"/>
          <path id="Trazado_1082792" data-name="Trazado 1082792" d="M7.51,243.642a.1.1,0,0,1,.121-.093,9.3,9.3,0,0,0,6.359-.647,10.522,10.522,0,0,1,11.372,1.971l12.08,12.2a3.1,3.1,0,0,1,.092,4.3,3.039,3.039,0,0,1-2.211.953h0l1.585.634,2.428-.634H50.253a4.306,4.306,0,0,1,4.277,3.843c.017.154-.251.249-.251.407,0,.843-.679.957-1.521.957.328,0-19.1.039-19.642.039a4.132,4.132,0,0,1-2.279-.686L15.152,256.335c-1.664-1.1-5.064-1.514-7.11-1.533a.1.1,0,0,1-.1-.1l-.442-1.4Z" transform="translate(-7.502 -242.002)" fill="#fedecf"/>
          <path id="Trazado_1082793" data-name="Trazado 1082793" d="M7.5,355.193l.008,2.082a.1.1,0,0,0,.1.1c2.046.019,5.694.614,7.358,1.714l15.541,10.279a4.127,4.127,0,0,0,2.279.686H53.04a1.525,1.525,0,0,0,1.515-1.526,4.529,4.529,0,0,0-.025-.467H33.868a4.988,4.988,0,0,1-2.922-.945l-13.3-9.609A17.454,17.454,0,0,0,7.5,355.193Z" transform="translate(-7.502 -343.89)" fill="#fdd0bf"/>
          <path id="Trazado_1082794" data-name="Trazado 1082794" d="M179.124,364.692a5.023,5.023,0,0,1-7.4.686l-.023-.021,0,0-8.608-7.925a1,1,0,0,1,1.352-1.466l7.442,6.852c.048.045.1.088.142.13s.1.1.155.143.081.075.12.111l.75.691.013.012.008.008,0,0,0,0,0,0a3.039,3.039,0,0,0,2.037.779Z" transform="translate(-147.29 -344.366)" fill="#fdd0bf"/>
          <path id="Trazado_1082795" data-name="Trazado 1082795" d="M266.051,437.981l.008.008h0Z" transform="translate(-240.283 -418.449)" fill="#fcc1ac"/>
        </g>
        <g id="Grupo_1212219" data-name="Grupo 1212219" transform="translate(25.555 13.406)">
          <g id="Grupo_1212218" data-name="Grupo 1212218">
            <path id="Trazado_1082796" data-name="Trazado 1082796" d="M279.5,150c0,4.458-2.884,7.554-7.342,7.554a9.983,9.983,0,0,1-6.508-2.462,8.073,8.073,0,0,1,11.181-11.463,13.138,13.138,0,0,1,1.783,2.343A6.841,6.841,0,0,1,279.5,150Z" transform="translate(-263.912 -142.01)" fill="#dcbdf9"/>
            <path id="Trazado_1082797" data-name="Trazado 1082797" d="M294.708,164.7a8.073,8.073,0,0,1-14.524,4.853,8.073,8.073,0,0,0,11.3-11.308A8.062,8.062,0,0,1,294.708,164.7Z" transform="translate(-278.562 -156.624)" fill="#d0aff2"/>
          </g>
        </g>
        <g id="Grupo_1212221" data-name="Grupo 1212221" transform="translate(18.236 3.825)">
          <g id="Grupo_1212220" data-name="Grupo 1212220">
            <path id="Trazado_1082798" data-name="Trazado 1082798" d="M205.75,50.31A8.109,8.109,0,0,0,203.4,47.5h0a8.073,8.073,0,0,0-11.181,11.463,9.983,9.983,0,0,0,6.508,2.462c4.458,0,7.342-3.1,7.342-7.554,0-1.362-.4-3.535-.315-3.563Z" transform="translate(-190.474 -45.885)" fill="#bbec6c"/>
            <path id="Trazado_1082799" data-name="Trazado 1082799" d="M219.444,90.445a8.074,8.074,0,0,1-12.7,8.341,8.074,8.074,0,0,0,13.654-8.5A3.95,3.95,0,0,1,219.444,90.445Z" transform="translate(-205.124 -85.861)" fill="#a0e254"/>
          </g>
        </g>
        <g id="Grupo_1212223" data-name="Grupo 1212223" transform="translate(32.124)">
          <g id="Grupo_1212222" data-name="Grupo 1212222">
            <path id="Trazado_1082800" data-name="Trazado 1082800" d="M345.406,15.491c0,4.458-2.884,7.554-7.342,7.554a9.984,9.984,0,0,1-6.508-2.462A8.073,8.073,0,0,1,342.737,9.12a13.133,13.133,0,0,1,1.783,2.343,6.84,6.84,0,0,1,.886,4.028Z" transform="translate(-329.815 -7.502)" fill="#fe819c"/>
            <path id="Trazado_1082801" data-name="Trazado 1082801" d="M360.611,30.188a8.073,8.073,0,0,1-14.524,4.853,8.073,8.073,0,0,0,11.3-11.308A8.062,8.062,0,0,1,360.611,30.188Z" transform="translate(-344.465 -22.115)" fill="#fc7085"/>
          </g>
        </g>
      </g>
      <g id="Grupo_1212225" data-name="Grupo 1212225" transform="translate(0 0)">
        <path id="Trazado_1082802" data-name="Trazado 1082802" d="M365.906,188.709v-2.153a.747.747,0,0,0-1.495,0v2.153a.747.747,0,0,0,1.495,0Z" transform="translate(-328.092 -167.29)"/>
        <path id="Trazado_1082803" data-name="Trazado 1082803" d="M316.04,241.849a.747.747,0,1,0,1.057,1.057,2.3,2.3,0,0,1,3.246,0,.747.747,0,0,0,1.057-1.057,3.79,3.79,0,0,0-5.36,0Z" transform="translate(-284.345 -216.746)"/>
        <path id="Trazado_1082804" data-name="Trazado 1082804" d="M190.339,21.346c-.029.292-.045.587-.045.881a8.794,8.794,0,0,0,.526,3.006.748.748,0,0,0,1.405-.51,7.3,7.3,0,0,1-.437-2.5,7.424,7.424,0,0,1,.04-.761,8.765,8.765,0,0,0,3.847-.907v.861a.747.747,0,1,0,1.495,0V19.627a8.826,8.826,0,0,0,2.922-3.989,8.781,8.781,0,0,0,4.7,1.957,7.325,7.325,0,0,1-10.322,10.293.748.748,0,0,0-.949,1.155,8.819,8.819,0,0,0,13.1-11.452A8.833,8.833,0,0,0,214.5,8.82c0-.267-.013-.545-.04-.829a.747.747,0,1,0-1.489.139c.022.237.033.469.033.69a7.326,7.326,0,1,1-1.1-3.853.747.747,0,0,0,1.271-.788,8.82,8.82,0,0,0-15.8,1.646,8.734,8.734,0,0,0-5.591-2,8.821,8.821,0,0,0-1.457,17.52ZM191.8,5.321a7.26,7.26,0,0,1,5.172,2.141,8.815,8.815,0,0,0,1.93,6.988,7.326,7.326,0,1,1-7.1-9.129Z" transform="translate(-164.739 0)"/>
        <path id="Trazado_1082805" data-name="Trazado 1082805" d="M291.73,93.322a.747.747,0,0,0,.747-.747V90.421a.747.747,0,0,0-1.495,0v2.153A.747.747,0,0,0,291.73,93.322Z" transform="translate(-261.982 -80.737)"/>
        <path id="Trazado_1082806" data-name="Trazado 1082806" d="M237.712,93.322a.747.747,0,0,0,.747-.747V90.421a.747.747,0,1,0-1.495,0v2.153A.747.747,0,0,0,237.712,93.322Z" transform="translate(-213.347 -80.737)"/>
        <path id="Trazado_1082807" data-name="Trazado 1082807" d="M242.6,147a.748.748,0,0,0,0,1.057,3.8,3.8,0,0,0,5.362,0A.747.747,0,0,0,246.9,147a2.3,2.3,0,0,1-3.248,0A.748.748,0,0,0,242.6,147Z" transform="translate(-218.22 -132.154)"/>
        <path id="Trazado_1082808" data-name="Trazado 1082808" d="M425.322,53.141a.748.748,0,0,0-1.057,0l-1.292,1.292a.748.748,0,0,0,0,1.057l1.292,1.292a.747.747,0,0,0,1.057-1.057l-.763-.763.763-.763A.748.748,0,0,0,425.322,53.141Z" transform="translate(-380.62 -47.647)"/>
        <path id="Trazado_1082809" data-name="Trazado 1082809" d="M371.133,56.781a.748.748,0,0,0,1.057,0l1.292-1.292a.748.748,0,0,0,0-1.057l-1.292-1.292a.747.747,0,1,0-1.057,1.057l.763.763-.763.763A.748.748,0,0,0,371.133,56.781Z" transform="translate(-333.946 -47.647)"/>
        <path id="Trazado_1082810" data-name="Trazado 1082810" d="M383,110.558a2.3,2.3,0,0,1,3.246,0A.747.747,0,1,0,387.3,109.5a3.791,3.791,0,0,0-5.361,0A.748.748,0,1,0,383,110.558Z" transform="translate(-343.679 -97.588)"/>
        <path id="Trazado_1082811" data-name="Trazado 1082811" d="M169.231,255.257h-.121a4.6,4.6,0,0,0-4.526-3.73h-1.307a4.628,4.628,0,0,0-4.358-3.108H149l-6.592-6.664a10.958,10.958,0,0,0-4.555-2.6.748.748,0,0,0-.426,1.433,9.427,9.427,0,0,1,3.918,2.22l12.116,12.249a2.32,2.32,0,0,1,0,3.246,2.288,2.288,0,0,1-1.546.686,2.421,2.421,0,0,1-1.645-.608l-9.336-8.6a.748.748,0,1,0-1.013,1.1l9.336,8.6a3.779,3.779,0,0,0,2.569,1.009c.326-.016,14.633,0,14.922-.005a3.562,3.562,0,0,1,3.552,3.563.777.777,0,0,1-.775.778H165.1a.747.747,0,1,0,0,1.495h4.431a2.274,2.274,0,0,0,2.27-2.273,5.052,5.052,0,0,0-.214-1.457h.424a2.274,2.274,0,0,0,2.27-2.273A5.058,5.058,0,0,0,169.231,255.257Zm-1.657,0H155.346a3.764,3.764,0,0,0-.821-1.253l-.971-.982h11.031A3.107,3.107,0,0,1,167.573,255.257Zm-8.655-5.343a3.127,3.127,0,0,1,2.728,1.613h-9.572l-1.6-1.613Zm13.09,11.18h-1.162a5.04,5.04,0,0,0-4.095-2.106H154.844a3.8,3.8,0,0,0,.773-2.235h13.614a3.562,3.562,0,0,1,3.552,3.563A.777.777,0,0,1,172.008,261.094Z" transform="translate(-123.249 -215.29)"/>
        <path id="Trazado_1082812" data-name="Trazado 1082812" d="M38.717,382.467H26.4a3.37,3.37,0,0,1-1.865-.562L9.007,371.627c-1.9-1.254-5.813-1.839-7.863-1.839a.747.747,0,1,0,0,1.495c1.895,0,5.491.566,7.038,1.59l15.531,10.279a4.861,4.861,0,0,0,2.69.81H38.717a.747.747,0,1,0,0-1.495Z" transform="translate(-0.356 -332.933)"/>
        <path id="Trazado_1082813" data-name="Trazado 1082813" d="M.553,237.549a10.152,10.152,0,0,0,6.94-.61,8.846,8.846,0,0,1,3.44-.861.747.747,0,1,0-.059-1.494,10.308,10.308,0,0,0-4.014,1,8.682,8.682,0,0,1-5.917.521.747.747,0,1,0-.389,1.443Z" transform="translate(0 -211.204)"/>
      </g>
    </g>
  </g>
</svg>
