<svg xmlns="http://www.w3.org/2000/svg" xmlns:xlink="http://www.w3.org/1999/xlink" width="93.934" height="93.934" viewBox="0 0 93.934 93.934">
  <defs>
    <filter id="Trazado_978624" x="0" y="0" width="93.934" height="93.934" filterUnits="userSpaceOnUse">
      <feOffset dy="3" input="SourceAlpha"/>
      <feGaussianBlur stdDeviation="3" result="blur"/>
      <feFlood flood-opacity="0.161"/>
      <feComposite operator="in" in2="blur"/>
      <feComposite in="SourceGraphic"/>
    </filter>
  </defs>
  <g id="Grupo_1212228" data-name="Grupo 1212228" transform="translate(-609 -1665.533)">
    <g id="Grupo_1211237" data-name="Grupo 1211237" transform="translate(0 -377.186)">
      <g id="Grupo_1208063" data-name="Grupo 1208063" transform="translate(412 612.719)">
        <g id="Grupo_1144123" data-name="Grupo 1144123" transform="translate(206 1436)">
          <g transform="matrix(1, 0, 0, 1, -9, -6)" filter="url(#Trazado_978624)">
            <g id="Trazado_978624-2" data-name="Trazado 978624" transform="translate(9 6)" fill="#fbf3fb">
              <path d="M 37.966796875 74.43359375 C 33.04315185546875 74.43359375 28.26757431030273 73.46962738037109 23.77274131774902 71.56847381591797 C 19.43047523498535 69.73184967041016 15.53040790557861 67.10224914550781 12.18087482452393 63.75271987915039 C 8.831341743469238 60.4031867980957 6.201741218566895 56.50312042236328 4.365118980407715 52.16086196899414 C 2.463963508605957 47.66601943969727 1.499996900558472 42.89044189453125 1.499996900558472 37.966796875 C 1.499996900558472 33.04315185546875 2.463963508605957 28.26757431030273 4.365118980407715 23.77274131774902 C 6.201741218566895 19.43047523498535 8.831341743469238 15.53040790557861 12.18087482452393 12.18087482452393 C 15.53040790557861 8.831341743469238 19.43047523498535 6.201741218566895 23.77274131774902 4.365118980407715 C 28.26757431030273 2.463963508605957 33.04315185546875 1.499996900558472 37.966796875 1.499996900558472 C 42.89044189453125 1.499996900558472 47.66601943969727 2.463963508605957 52.16086196899414 4.365118980407715 C 56.50312042236328 6.201741218566895 60.4031867980957 8.831341743469238 63.75271987915039 12.18087482452393 C 67.10224914550781 15.53040790557861 69.73184967041016 19.43047523498535 71.56847381591797 23.77274131774902 C 73.46962738037109 28.26757431030273 74.43359375 33.04315185546875 74.43359375 37.966796875 C 74.43359375 42.89044189453125 73.46962738037109 47.66601943969727 71.56847381591797 52.16086196899414 C 69.73184967041016 56.50313186645508 67.10224914550781 60.4031867980957 63.75271987915039 63.75271987915039 C 60.4031867980957 67.10224914550781 56.50313186645508 69.73184967041016 52.16086196899414 71.56847381591797 C 47.66601943969727 73.46962738037109 42.89044189453125 74.43359375 37.966796875 74.43359375 Z" stroke="none"/>
              <path d="M 37.966796875 3 C 33.2449836730957 3 28.66600799560547 3.924095153808594 24.35705947875977 5.746635437011719 C 20.19359588623047 7.507621765136719 16.45379638671875 10.02927398681641 13.24153518676758 13.24153518676758 C 10.02927398681641 16.45379638671875 7.507621765136719 20.19359588623047 5.746635437011719 24.35705947875977 C 3.924095153808594 28.66600799560547 3 33.2449836730957 3 37.966796875 C 3 42.6886100769043 3.924095153808594 47.26758575439453 5.746635437011719 51.57653427124023 C 7.507621765136719 55.73999786376953 10.02927398681641 59.47979736328125 13.24153518676758 62.69205856323242 C 16.45379638671875 65.90431976318359 20.19359588623047 68.42597198486328 24.35705947875977 70.18695831298828 C 28.66600799560547 72.00949859619141 33.2449836730957 72.93359375 37.966796875 72.93359375 C 42.6886100769043 72.93359375 47.26758575439453 72.00949859619141 51.57653427124023 70.18695831298828 C 55.73999786376953 68.42597198486328 59.47979736328125 65.90431976318359 62.69205856323242 62.69205856323242 C 65.90431976318359 59.47979736328125 68.42597198486328 55.73999786376953 70.18695831298828 51.57653427124023 C 72.00949859619141 47.26758575439453 72.93359375 42.6886100769043 72.93359375 37.966796875 C 72.93359375 33.2449836730957 72.00949859619141 28.66600799560547 70.18695831298828 24.35705947875977 C 68.42597198486328 20.19359588623047 65.90431976318359 16.45379638671875 62.69205856323242 13.24153518676758 C 59.47979736328125 10.02927398681641 55.73999786376953 7.507621765136719 51.57653427124023 5.746635437011719 C 47.26758575439453 3.924095153808594 42.6886100769043 3 37.966796875 3 M 37.966796875 0 C 58.93528366088867 0 75.93359375 16.99831008911133 75.93359375 37.966796875 C 75.93359375 58.93528366088867 58.93528366088867 75.93359375 37.966796875 75.93359375 C 16.99831008911133 75.93359375 0 58.93528366088867 0 37.966796875 C 0 16.99831008911133 16.99831008911133 0 37.966796875 0 Z" stroke="none" fill="#df93dd"/>
            </g>
          </g>
        </g>
      </g>
    </g>
    <g id="moleculas" transform="translate(633.36 1656.721)">
      <g id="Grupo_1212227" data-name="Grupo 1212227" transform="translate(0.663 33.758)">
        <path id="Trazado_1082814" data-name="Trazado 1082814" d="M68.716,412.574h7.75a.518.518,0,0,1,.516.516v4.165a.516.516,0,0,1-.516.513h-7.75a.514.514,0,0,1-.513-.513V413.09A.516.516,0,0,1,68.716,412.574Zm-29.623.258h7.75a.518.518,0,0,1,.516.516v3.908a.516.516,0,0,1-.516.513h-7.75a.514.514,0,0,1-.513-.513v-3.908A.516.516,0,0,1,39.093,412.832Z" transform="translate(-35.836 -379.726)" fill="#6f6571" fill-rule="evenodd"/>
        <path id="Trazado_1082815" data-name="Trazado 1082815" d="M132.664,412.574h2.571a.518.518,0,0,1,.516.516v4.165a.516.516,0,0,1-.516.513h-2.571a.514.514,0,0,0,.513-.513V413.09A.516.516,0,0,0,132.664,412.574Zm-29.623.258h2.571a.518.518,0,0,1,.516.516v3.908a.516.516,0,0,1-.516.513h-2.571a.516.516,0,0,0,.516-.513v-3.908A.518.518,0,0,0,103.041,412.832Z" transform="translate(-94.605 -379.726)" fill="#5d5360" fill-rule="evenodd"/>
        <path id="Trazado_1082816" data-name="Trazado 1082816" d="M10.256,40.607h38.4A2.751,2.751,0,0,1,51.4,43.351V72.158A2.754,2.754,0,0,1,48.658,74.9h-38.4a2.753,2.753,0,0,1-2.744-2.744V43.351a2.751,2.751,0,0,1,2.744-2.744Z" transform="translate(-7.512 -40.607)" fill="#857e87" fill-rule="evenodd"/>
        <path id="Trazado_1082817" data-name="Trazado 1082817" d="M444.308,40.607h2.573a2.751,2.751,0,0,1,2.744,2.744V72.158a2.754,2.754,0,0,1-2.744,2.744h-2.573a2.753,2.753,0,0,0,2.744-2.744V43.351a2.751,2.751,0,0,0-2.744-2.744Z" transform="translate(-405.736 -40.607)" fill="#6f6571" fill-rule="evenodd"/>
        <path id="Trazado_1082818" data-name="Trazado 1082818" d="M43.231,75.814H79.874a.516.516,0,0,1,.516.513v21.56a.516.516,0,0,1-.516.513H43.231a.514.514,0,0,1-.513-.513V76.327A.514.514,0,0,1,43.231,75.814Z" transform="translate(-39.609 -72.705)" fill="#ecf4ff" fill-rule="evenodd"/>
        <path id="Trazado_1082819" data-name="Trazado 1082819" d="M434.357,75.814h2.571a.516.516,0,0,1,.516.513v21.56a.516.516,0,0,1-.516.513h-2.571a.514.514,0,0,0,.513-.513V76.327A.514.514,0,0,0,434.357,75.814Z" transform="translate(-396.663 -72.705)" fill="#d6ebff" fill-rule="evenodd"/>
        <path id="Trazado_1082820" data-name="Trazado 1082820" d="M113.573,363.7h10.236a1.463,1.463,0,0,1,0,2.926H113.573a1.463,1.463,0,0,1,0-2.926Z" transform="translate(-102.874 -335.172)" fill="#a8a1a7" fill-rule="evenodd"/>
        <path id="Trazado_1082821" data-name="Trazado 1082821" d="M44.18,366.63a1.463,1.463,0,1,0-1.462-1.462A1.467,1.467,0,0,0,44.18,366.63Z" transform="translate(-39.609 -335.172)" fill="#ff8086" fill-rule="evenodd"/>
        <path id="Trazado_1082822" data-name="Trazado 1082822" d="M298.85,363.7a1.463,1.463,0,1,1-1.465,1.464A1.464,1.464,0,0,1,298.85,363.7Zm12.253,0a1.463,1.463,0,1,1-1.462,1.464A1.465,1.465,0,0,1,311.1,363.7Zm-6.128,0a1.463,1.463,0,1,1-1.462,1.464A1.465,1.465,0,0,1,304.976,363.7Z" transform="translate(-271.788 -335.172)" fill="#b3e59f" fill-rule="evenodd"/>
        <path id="Trazado_1082823" data-name="Trazado 1082823" d="M202.91,148.7a5.9,5.9,0,1,0-5.9-5.9A5.908,5.908,0,0,0,202.91,148.7Z" transform="translate(-180.276 -128.397)" fill="#c3ddff" fill-rule="evenodd"/>
        <path id="Trazado_1082824" data-name="Trazado 1082824" d="M250.541,136.9a5.9,5.9,0,0,1,0,11.8,6.032,6.032,0,0,1-1.287-.14,5.9,5.9,0,0,0,0-11.515A5.869,5.869,0,0,1,250.541,136.9Z" transform="translate(-227.906 -128.397)" fill="#a4ccff" fill-rule="evenodd"/>
        <path id="Trazado_1082825" data-name="Trazado 1082825" d="M76.941,222.186a3.155,3.155,0,1,0-3.154-3.157A3.164,3.164,0,0,0,76.941,222.186Z" transform="translate(-67.934 -200.397)" fill="#b3e59f" fill-rule="evenodd"/>
        <path id="Trazado_1082826" data-name="Trazado 1082826" d="M96.246,215.875a3.155,3.155,0,1,1-1.284,6.038,3.158,3.158,0,0,0,0-5.765A3.132,3.132,0,0,1,96.246,215.875Z" transform="translate(-87.239 -200.398)" fill="#95d6a4" fill-rule="evenodd"/>
        <path id="Trazado_1082827" data-name="Trazado 1082827" d="M350.163,115.152a2.973,2.973,0,1,0-2.971-2.974A2.978,2.978,0,0,0,350.163,115.152Z" transform="translate(-317.196 -103.149)" fill="#e0c0ef" fill-rule="evenodd"/>
        <path id="Trazado_1082828" data-name="Trazado 1082828" d="M370.858,242.456a2.973,2.973,0,1,0-2.974-2.974A2.979,2.979,0,0,0,370.858,242.456Z" transform="translate(-336.06 -219.211)" fill="#ff8086" fill-rule="evenodd"/>
        <path id="Trazado_1082829" data-name="Trazado 1082829" d="M388.278,236.512a2.973,2.973,0,1,1-1.287,5.652,2.972,2.972,0,0,0,0-5.359A2.95,2.95,0,0,1,388.278,236.512Z" transform="translate(-353.48 -219.212)" fill="#e5646e" fill-rule="evenodd"/>
        <path id="Trazado_1082830" data-name="Trazado 1082830" d="M367.556,109.206a2.973,2.973,0,1,1-1.287,5.652,2.972,2.972,0,0,0,0-5.359A2.96,2.96,0,0,1,367.556,109.206Z" transform="translate(-334.588 -103.148)" fill="#ccb2ef" fill-rule="evenodd"/>
      </g>
      <path id="Trazado_1082831" data-name="Trazado 1082831" d="M3.407,33.1h38.4a3.414,3.414,0,0,1,3.4,3.407V65.309a3.412,3.412,0,0,1-2.743,3.339V71.8a.661.661,0,0,1-.661.663H33.03a.661.661,0,0,1-.663-.663V68.714H12.847V71.8a.661.661,0,0,1-.661.663H3.407a.663.663,0,0,1-.663-.663V68.649A3.418,3.418,0,0,1,0,65.309V36.5A3.419,3.419,0,0,1,3.407,33.1Zm9.66,17.55,3.8-1.179a6.561,6.561,0,0,1,11.915-4.9l1.372-.713a3.633,3.633,0,1,1,.906,1.509,3.766,3.766,0,0,1-.3-.335l-1.369.713a6.565,6.565,0,0,1,.068,4.666l3.064,1.479a3.64,3.64,0,1,1-.7,2.148,3.572,3.572,0,0,1,.128-.959l-3.066-1.479a6.171,6.171,0,0,1-.4.576,6.58,6.58,0,0,1-3.54,2.343.661.661,0,0,1-.33-1.279,5.235,5.235,0,1,0-2.646,0,.661.661,0,0,1-.33,1.279,6.593,6.593,0,0,1-4.386-3.782l-3.8,1.179a3.8,3.8,0,1,1-.39-1.262ZM37.093,52.4a2.312,2.312,0,1,0,.676,1.632A2.3,2.3,0,0,0,37.093,52.4Zm-1.83-11.242a2.306,2.306,0,1,0,.678,1.632A2.3,2.3,0,0,0,35.263,41.155ZM11.432,50.628a2.49,2.49,0,1,0,.731,1.762,2.486,2.486,0,0,0-.731-1.762ZM6.516,40.272a.662.662,0,1,1,0-1.324h6.311a.662.662,0,0,1,0,1.324Zm0,5.717a.662.662,0,1,1,0-1.324h6.311a.662.662,0,0,1,0,1.324Zm0-2.859a.662.662,0,1,1,0-1.324h6.311a.662.662,0,0,1,0,1.324Zm21.21,18.5a2.128,2.128,0,1,1-1.5.623A2.117,2.117,0,0,1,27.726,61.627Zm.566,1.56a.8.8,0,1,0,.235.568A.8.8,0,0,0,28.292,63.186Zm11.688-1.56a2.128,2.128,0,1,1-1.5.623A2.109,2.109,0,0,1,39.979,61.627Zm.566,1.56a.8.8,0,1,0,.235.568A.8.8,0,0,0,40.545,63.186Zm-6.694-1.56a2.128,2.128,0,1,1-1.5.623A2.119,2.119,0,0,1,33.851,61.627Zm.568,1.56a.8.8,0,1,0,0,1.134.807.807,0,0,0,0-1.134ZM5.234,61.627a2.128,2.128,0,1,1-1.5.623A2.119,2.119,0,0,1,5.234,61.627Zm.568,1.56a.807.807,0,1,0,.233.568.8.8,0,0,0-.233-.568Zm9.177,1.372a.66.66,0,1,1,0,1.319H11.362a2.124,2.124,0,0,1,0-4.248H21.6a2.124,2.124,0,0,1,0,4.248H17.981a.66.66,0,1,1,0-1.319H21.6a.8.8,0,0,0,0-1.607H11.362a.8.8,0,0,0,0,1.607Zm25.8-21.691a.662.662,0,1,1,1.324,0V59.454a.661.661,0,0,1-.661.663H3.772a.663.663,0,0,1-.663-.663v-3a.662.662,0,1,1,1.324,0v2.338H40.78ZM4.433,53.454a.662.662,0,1,1-1.324,0V36.867a.665.665,0,0,1,.663-.663H41.444a.662.662,0,0,1,.661.663v3a.662.662,0,1,1-1.324,0V37.528H4.433Zm36.712,15.26H33.691v2.426h7.455Zm-29.623,0H4.068v2.426h7.455ZM41.809,34.419H3.407A2.094,2.094,0,0,0,1.324,36.5V65.309a2.09,2.09,0,0,0,2.083,2.08h38.4a2.085,2.085,0,0,0,2.08-2.08V36.5a2.09,2.09,0,0,0-2.08-2.083Z" transform="translate(0)"/>
    </g>
  </g>
</svg>
